<?xml version="1.0" encoding="UTF-8"?>
<svg id="Layer_2" data-name="Layer 2" xmlns="http://www.w3.org/2000/svg" viewBox="0 0 170.45 186.99">
  <defs>
    <style>
      .cls-1 {
        fill: #ff5252;
      }

      .cls-1, .cls-2, .cls-3, .cls-4, .cls-5, .cls-6, .cls-7, .cls-8, .cls-9, .cls-10, .cls-11, .cls-12, .cls-13, .cls-14, .cls-15, .cls-16 {
        stroke-width: 0px;
      }

      .cls-2 {
        fill: #844232;
      }

      .cls-3 {
        fill: #789fb5;
      }

      .cls-4 {
        fill: #5e2e1f;
      }

      .cls-5 {
        fill: #ff7676;
      }

      .cls-6 {
        fill: #86a9c1;
      }

      .cls-7 {
        fill: #ffd56c;
      }

      .cls-8 {
        fill: #5fad00;
      }

      .cls-9 {
        fill: #9ec4d8;
      }

      .cls-10 {
        fill: #723828;
      }

      .cls-11 {
        fill: #4f2115;
      }

      .cls-12 {
        fill: #e22d2d;
      }

      .cls-13 {
        fill: #76bf00;
      }

      .cls-14 {
        fill: #519900;
      }

      .cls-15 {
        fill: #f23b3b;
      }

      .cls-16 {
        fill: #6c93a8;
      }
    </style>
  </defs>
  <g id="Layer_1-2" data-name="Layer 1">
    <g>
      <g>
        <polygon class="cls-11" points="170.45 121 170.39 133.22 76.25 186.99 76.32 174.78 170.45 121"/>
        <polygon class="cls-4" points=".06 130.25 0 142.46 76.25 186.99 76.32 174.78 .06 130.25"/>
        <polygon class="cls-14" points="170.45 121 170.42 126.71 76.29 180.48 76.32 174.78 170.45 121"/>
        <polygon class="cls-8" points=".06 130.25 .03 135.95 76.29 180.48 76.32 174.78 .06 130.25"/>
        <polygon class="cls-13" points="94.2 76.47 .06 130.25 76.32 174.78 170.45 121 94.2 76.47"/>
      </g>
      <g>
        <path class="cls-14" d="M72.35,148.4c-.09-.11-.27,0-.23.13.09.32.19.67.44.9.09.08.29.04.28-.11-.04-.36-.25-.64-.48-.92Z"/>
        <path class="cls-14" d="M89.6,137.73c-.09-.11-.27,0-.23.13.09.32.19.67.44.9.09.08.29.04.28-.11-.04-.36-.25-.64-.48-.92Z"/>
        <path class="cls-14" d="M89.21,143.04c-.09-.11-.27,0-.23.13.09.32.19.67.44.9.09.08.29.04.28-.11-.04-.36-.25-.64-.48-.92Z"/>
        <path class="cls-14" d="M42.99,150.74s-.05-.06-.09-.04c-.29.21-.41.65-.44,1-.01.19.27.26.36.1.16-.3.3-.74.17-1.06Z"/>
        <path class="cls-14" d="M41.99,141.26s-.05-.06-.09-.04c-.29.21-.41.65-.44,1-.01.19.27.26.36.1.16-.3.3-.74.17-1.06Z"/>
        <path class="cls-14" d="M42.78,129.76s-.05-.06-.09-.04c-.29.21-.41.65-.44,1-.01.19.27.26.36.1.16-.3.3-.74.17-1.06Z"/>
        <path class="cls-14" d="M102.02,147.16s-.05-.06-.09-.04c-.29.21-.41.65-.44,1-.01.19.27.26.36.1.16-.3.3-.74.17-1.06Z"/>
        <path class="cls-14" d="M110.54,140.99s-.05-.06-.09-.04c-.29.21-.41.65-.44,1-.01.19.27.26.36.1.16-.3.3-.74.17-1.06Z"/>
        <path class="cls-14" d="M92.79,150.39s-.05-.06-.09-.04c-.29.21-.41.65-.44,1-.01.19.27.26.36.1.16-.3.3-.74.17-1.06Z"/>
        <path class="cls-14" d="M136.49,135.03s-.05-.06-.09-.04c-.29.21-.41.65-.44,1-.01.19.27.26.36.1.16-.3.3-.74.17-1.06Z"/>
        <path class="cls-14" d="M77.32,137.03s-.05-.06-.09-.04c-.29.21-.41.65-.44,1-.01.19.27.26.36.1.16-.3.3-.74.17-1.06Z"/>
        <path class="cls-14" d="M35.15,132.55s-.05-.06-.09-.04c-.29.21-.41.65-.44,1-.01.19.27.26.36.1.16-.3.3-.74.17-1.06Z"/>
        <path class="cls-14" d="M53.06,144.21s-.05-.06-.09-.04c-.29.21-.41.65-.44,1-.01.19.27.26.36.1.16-.3.3-.74.17-1.06Z"/>
        <path class="cls-14" d="M47.02,120.59s-.05-.06-.09-.04c-.29.21-.41.65-.44,1-.01.19.27.26.36.1.16-.3.3-.74.17-1.06Z"/>
        <path class="cls-14" d="M69.01,111.71s-.05-.06-.09-.04c-.29.21-.41.65-.44,1-.01.19.27.26.36.1.16-.3.3-.74.17-1.06Z"/>
        <path class="cls-14" d="M41.3,111.17s-.05-.06-.09-.04c-.29.21-.41.65-.44,1-.01.19.27.26.36.1.16-.3.3-.74.17-1.06Z"/>
        <path class="cls-14" d="M73.28,108.47s-.05-.06-.09-.04c-.29.21-.41.65-.44,1-.01.19.27.26.36.1.16-.3.3-.74.17-1.06Z"/>
        <path class="cls-14" d="M29.38,132s-.05-.06-.09-.04c-.29.21-.41.65-.44,1-.01.19.27.26.36.1.16-.3.3-.74.17-1.06Z"/>
        <path class="cls-14" d="M31.64,144.45s-.05-.06-.09-.04c-.29.21-.41.65-.44,1-.01.19.27.26.36.1.16-.3.3-.74.17-1.06Z"/>
        <path class="cls-14" d="M92.46,159.49s-.05-.06-.09-.04c-.29.21-.41.65-.44,1-.01.19.27.26.36.1.16-.3.3-.74.17-1.06Z"/>
        <path class="cls-14" d="M89.21,157.57s-.05-.06-.09-.04c-.29.21-.41.65-.44,1-.01.19.27.26.36.1.16-.3.3-.74.17-1.06Z"/>
        <path class="cls-14" d="M83.19,146.55s-.05-.06-.09-.04c-.29.21-.41.65-.44,1-.01.19.27.26.36.1.16-.3.3-.74.17-1.06Z"/>
        <path class="cls-14" d="M75.31,155.59s-.05-.06-.09-.04c-.29.21-.41.65-.44,1-.01.19.27.26.36.1.16-.3.3-.74.17-1.06Z"/>
        <path class="cls-14" d="M101.09,155.39s-.05-.06-.09-.04c-.29.21-.41.65-.44,1-.01.19.27.26.36.1.16-.3.3-.74.17-1.06Z"/>
        <path class="cls-14" d="M63.98,149.45c-.07-.04-.18,0-.18.1.03.38.23.86.56,1.07.06.04.15,0,.17-.07.12-.42-.18-.91-.55-1.1Z"/>
        <path class="cls-14" d="M69.79,142.87c-.07-.04-.18,0-.18.1.03.38.23.86.56,1.07.06.04.15,0,.17-.07.12-.42-.18-.91-.55-1.1Z"/>
        <path class="cls-14" d="M32.9,140.23c-.07-.04-.18,0-.18.1.03.38.23.86.56,1.07.06.04.15,0,.17-.07.12-.42-.18-.91-.55-1.1Z"/>
        <path class="cls-14" d="M13.9,134.7c-.07-.04-.18,0-.18.1.03.38.23.86.56,1.07.06.04.15,0,.17-.07.12-.42-.18-.91-.55-1.1Z"/>
        <path class="cls-14" d="M39.32,148.73c-.07-.04-.18,0-.18.1.03.38.23.86.56,1.07.06.04.15,0,.17-.07.12-.42-.18-.91-.55-1.1Z"/>
        <path class="cls-14" d="M75.6,126.01c-.07-.04-.18,0-.18.1.03.38.23.86.56,1.07.06.04.15,0,.17-.07.12-.42-.18-.91-.55-1.1Z"/>
        <path class="cls-14" d="M66.08,150.81c-.39.21-.73.56-.86,1-.05.16.16.28.28.16.29-.29.52-.68.7-1.04.04-.07-.04-.16-.11-.12Z"/>
        <path class="cls-14" d="M73.33,169.14c-.39.21-.73.56-.86,1-.05.16.16.28.28.16.29-.29.52-.68.7-1.04.04-.07-.04-.16-.12-.12Z"/>
        <path class="cls-14" d="M74.2,160.77c-.39.21-.73.56-.86,1-.05.16.16.28.28.16.29-.29.52-.68.7-1.04.04-.07-.04-.16-.12-.12Z"/>
        <path class="cls-14" d="M55.7,157.59c-.39.21-.73.56-.86,1-.05.16.16.28.28.16.29-.29.51-.68.7-1.04.04-.07-.04-.16-.12-.12Z"/>
        <path class="cls-14" d="M46.59,133.81c-.39.21-.73.56-.86,1-.05.16.16.28.28.16.29-.29.51-.68.7-1.04.04-.07-.04-.16-.12-.12Z"/>
        <path class="cls-14" d="M158.77,123.01c-.39.21-.73.56-.86,1-.05.16.16.28.28.16.29-.29.52-.68.7-1.04.04-.07-.04-.16-.12-.12Z"/>
        <path class="cls-14" d="M73.53,129.86c-.39.21-.73.56-.86,1-.05.16.16.28.28.16.29-.29.52-.68.7-1.04.04-.07-.04-.16-.12-.12Z"/>
        <path class="cls-14" d="M69.15,118.12c-.39.21-.73.56-.86,1-.05.16.16.28.28.16.29-.29.51-.68.7-1.04.04-.07-.04-.16-.12-.12Z"/>
        <path class="cls-14" d="M92.4,141.09c-.39.21-.73.56-.86,1-.05.16.16.28.28.16.29-.29.51-.68.7-1.04.04-.07-.04-.16-.12-.12Z"/>
        <path class="cls-14" d="M51.64,114.82c-.39.21-.73.56-.86,1-.05.16.16.28.28.16.29-.29.51-.68.7-1.04.04-.07-.04-.16-.12-.12Z"/>
        <path class="cls-14" d="M67.61,162.01c-.39.21-.73.56-.86,1-.05.16.16.28.28.16.29-.29.51-.68.7-1.04.04-.07-.04-.16-.12-.12Z"/>
        <path class="cls-14" d="M60.59,155.6c-.13-.1-.31.09-.22.22.17.26.28.67.6.74.05.01.11,0,.13-.05.18-.38-.23-.7-.51-.91Z"/>
        <path class="cls-14" d="M71.46,167.42c-.13-.1-.31.09-.22.22.17.26.28.67.6.74.05.01.11,0,.13-.05.18-.38-.23-.7-.51-.91Z"/>
        <path class="cls-14" d="M53.01,155.97c-.13-.1-.31.09-.22.22.17.26.28.67.6.74.05.01.11,0,.13-.05.18-.38-.23-.7-.51-.91Z"/>
        <path class="cls-14" d="M24.25,139.46c-.13-.1-.31.09-.22.22.17.26.28.67.6.74.05.01.11,0,.13-.05.18-.38-.23-.7-.51-.91Z"/>
        <path class="cls-14" d="M19.75,131.96c-.13-.1-.31.09-.22.22.17.26.28.67.6.74.05.01.11,0,.13-.05.18-.38-.23-.7-.51-.91Z"/>
        <path class="cls-14" d="M38.71,112.97c-.13-.1-.31.09-.22.22.17.26.28.67.6.74.05.01.11,0,.13-.05.18-.38-.23-.7-.51-.91Z"/>
        <path class="cls-14" d="M69,93.2c-.13-.1-.31.09-.22.22.17.26.28.67.6.74.05.01.11,0,.13-.05.18-.38-.23-.7-.51-.91Z"/>
        <path class="cls-14" d="M60.97,151.6c-.26.14-.43.41-.44.7,0,.13.16.15.23.06.15-.2.26-.44.32-.68.02-.06-.05-.11-.11-.08Z"/>
        <path class="cls-14" d="M47.3,141.15c-.26.14-.43.41-.44.7,0,.13.16.15.23.06.15-.2.26-.44.32-.68.02-.06-.05-.11-.11-.08Z"/>
        <path class="cls-14" d="M98.31,140.32c-.26.14-.43.41-.44.7,0,.13.16.15.23.06.15-.2.26-.44.32-.68.02-.06-.05-.11-.11-.08Z"/>
        <path class="cls-14" d="M63.85,138.81c-.26.14-.43.41-.44.7,0,.13.16.15.23.06.15-.2.26-.44.32-.68.02-.06-.05-.11-.11-.08Z"/>
        <path class="cls-14" d="M50.21,129.34c-.26.14-.43.41-.44.7,0,.13.16.15.23.06.15-.2.26-.44.32-.68.02-.06-.05-.11-.11-.08Z"/>
        <path class="cls-14" d="M47.16,110.65c-.26.14-.43.41-.44.7,0,.13.16.15.23.06.15-.2.26-.44.32-.68.02-.06-.05-.11-.11-.08Z"/>
        <path class="cls-14" d="M83.07,156.18c-.26.14-.43.41-.44.7,0,.13.16.15.23.06.15-.2.26-.44.32-.68.02-.06-.05-.11-.11-.08Z"/>
        <path class="cls-14" d="M104.51,137.21c-.26.14-.43.41-.44.7,0,.13.16.15.23.06.15-.2.26-.44.32-.68.02-.06-.05-.11-.11-.08Z"/>
        <path class="cls-14" d="M67.26,130.92c-.26.14-.43.41-.44.7,0,.13.16.15.23.06.15-.2.26-.44.32-.68.02-.06-.05-.11-.11-.08Z"/>
        <path class="cls-14" d="M51.36,130.84c-.26.14-.43.41-.44.7,0,.13.16.15.23.06.15-.2.26-.44.32-.68.02-.06-.05-.11-.11-.08Z"/>
        <path class="cls-14" d="M121.12,144.7c-.26.14-.43.41-.44.7,0,.13.16.15.23.06.15-.2.26-.44.32-.68.02-.06-.05-.11-.11-.08Z"/>
        <path class="cls-14" d="M140.62,128.83c-.26.14-.43.41-.44.7,0,.13.16.15.23.06.15-.2.26-.44.32-.68.02-.06-.05-.11-.11-.08Z"/>
        <path class="cls-14" d="M153.12,117.68c-.26.14-.43.41-.44.7,0,.13.16.15.23.06.15-.2.26-.44.32-.68.02-.06-.05-.11-.11-.08Z"/>
        <path class="cls-14" d="M147.9,128.45c-.26.14-.43.41-.44.7,0,.13.16.15.23.06.15-.2.26-.44.32-.68.02-.06-.05-.11-.11-.08Z"/>
        <path class="cls-14" d="M131.52,130.94c-.26.14-.43.41-.44.7,0,.13.16.15.23.06.15-.2.26-.44.32-.68.02-.06-.05-.11-.11-.08Z"/>
        <path class="cls-14" d="M75.32,139.79c-.26.14-.43.41-.44.7,0,.13.16.15.23.06.15-.2.26-.44.32-.68.02-.06-.05-.11-.11-.08Z"/>
        <path class="cls-14" d="M106.86,152.24c-.26.14-.43.41-.44.7,0,.13.16.15.23.06.15-.2.26-.44.32-.68.02-.06-.05-.11-.11-.08Z"/>
        <path class="cls-14" d="M114.66,145.08c-.26.14-.43.41-.44.7,0,.13.16.15.23.06.15-.2.26-.44.32-.68.02-.06-.05-.11-.11-.08Z"/>
        <path class="cls-14" d="M95.69,131.48c-.26.14-.43.41-.44.7,0,.13.16.15.23.06.15-.2.26-.44.32-.68.02-.06-.05-.11-.11-.08Z"/>
        <path class="cls-14" d="M128.12,139.65c-.26.14-.43.41-.44.7,0,.13.16.15.23.06.15-.2.26-.44.32-.68.02-.06-.05-.11-.11-.08Z"/>
        <path class="cls-14" d="M56,154.9c-.26.14-.43.41-.44.7,0,.13.16.15.23.06.15-.2.26-.44.32-.68.02-.06-.05-.11-.11-.08Z"/>
        <path class="cls-14" d="M51.18,151.93c-.26.14-.43.41-.44.7,0,.13.16.15.23.06.15-.2.26-.44.32-.68.02-.06-.05-.11-.11-.08Z"/>
        <path class="cls-14" d="M26.92,139.05c-.26.14-.43.41-.44.7,0,.13.16.15.23.06.15-.2.26-.44.32-.68.02-.06-.05-.11-.11-.08Z"/>
        <path class="cls-14" d="M23.71,119.58c-.26.14-.43.41-.44.7,0,.13.16.15.23.06.15-.2.26-.44.32-.68.02-.06-.05-.11-.11-.08Z"/>
        <path class="cls-14" d="M20.1,125.62c-.26.14-.43.41-.44.7,0,.13.16.15.23.06.15-.2.26-.44.32-.68.02-.06-.05-.11-.11-.08Z"/>
        <path class="cls-14" d="M14.28,130.66c-.26.14-.43.41-.44.7,0,.13.16.15.23.06.15-.2.26-.44.32-.68.02-.06-.05-.11-.11-.08Z"/>
        <path class="cls-14" d="M21.81,130.99c-.26.14-.43.41-.44.7,0,.13.16.15.23.06.15-.2.26-.44.32-.68.02-.06-.05-.11-.11-.08Z"/>
        <path class="cls-14" d="M42,124.31c-.26.14-.43.41-.44.7,0,.13.16.15.23.06.15-.2.26-.44.32-.68.02-.06-.05-.11-.11-.08Z"/>
        <path class="cls-14" d="M73.09,116.36c-.26.14-.43.41-.44.7,0,.13.16.15.23.06.15-.2.26-.44.32-.68.02-.06-.05-.11-.11-.08Z"/>
        <path class="cls-14" d="M9.67,129.74c-.26.14-.43.41-.44.7,0,.13.16.15.23.06.15-.2.26-.44.32-.68.02-.06-.05-.11-.11-.08Z"/>
        <path class="cls-14" d="M56.76,140.11c-.26.14-.43.41-.44.7,0,.13.16.15.23.06.15-.2.26-.44.32-.68.02-.06-.05-.11-.11-.08Z"/>
        <path class="cls-14" d="M37.02,133.54c-.26.14-.43.41-.44.7,0,.13.16.15.23.06.15-.2.26-.44.32-.68.02-.06-.05-.11-.11-.08Z"/>
        <path class="cls-14" d="M37.32,128.32c-.26.14-.43.41-.44.7,0,.13.16.15.23.06.15-.2.26-.44.32-.68.02-.06-.05-.11-.11-.08Z"/>
        <path class="cls-14" d="M27,122.96c-.26.14-.43.41-.44.7,0,.13.16.15.23.06.15-.2.26-.44.32-.68.02-.06-.05-.11-.11-.08Z"/>
        <path class="cls-14" d="M14.04,124.59c-.26.14-.43.41-.44.7,0,.13.16.15.23.06.15-.2.26-.44.32-.68.02-.06-.05-.11-.11-.08Z"/>
        <path class="cls-14" d="M78.55,128.08c-.26.14-.43.41-.44.7,0,.13.16.15.23.06.15-.2.26-.44.32-.68.02-.06-.05-.11-.11-.08Z"/>
        <path class="cls-14" d="M63.46,162.18c-.26.14-.43.41-.44.7,0,.13.16.15.23.06.15-.2.26-.44.32-.68.02-.06-.05-.11-.11-.08Z"/>
        <path class="cls-14" d="M83.9,164.48c-.26.14-.43.41-.44.7,0,.13.16.15.23.06.15-.2.26-.44.32-.68.02-.06-.05-.11-.11-.08Z"/>
        <path class="cls-14" d="M67.86,154.92c-.11-.04-.16.1-.1.17.21.27.35.58.58.82.09.09.26.03.26-.11-.02-.45-.34-.73-.74-.89Z"/>
        <path class="cls-14" d="M49.11,149.45c-.11-.04-.16.1-.1.17.21.27.35.58.58.82.09.09.26.03.26-.11-.02-.45-.34-.73-.74-.89Z"/>
        <path class="cls-14" d="M51.28,138.12c-.11-.04-.16.1-.1.17.21.27.35.58.58.82.09.09.26.03.26-.11-.02-.45-.34-.73-.74-.89Z"/>
        <path class="cls-14" d="M50.04,122.55c-.11-.04-.16.1-.1.17.21.27.35.58.58.82.09.09.26.03.26-.11-.02-.45-.34-.73-.74-.89Z"/>
        <path class="cls-14" d="M80.06,157.79c-.11-.04-.16.1-.1.17.21.27.35.58.58.82.09.09.26.03.26-.11-.02-.45-.34-.73-.74-.89Z"/>
        <path class="cls-14" d="M100.16,145.47c-.11-.04-.16.1-.1.17.21.27.35.58.58.82.09.09.26.03.26-.11-.02-.45-.34-.73-.74-.89Z"/>
        <path class="cls-14" d="M129.93,135.94c-.11-.04-.16.1-.1.17.21.27.35.58.58.82.09.09.26.03.26-.11-.02-.45-.34-.73-.74-.89Z"/>
        <path class="cls-14" d="M106.44,141.62c-.11-.04-.16.1-.1.17.21.27.35.58.58.82.09.09.26.03.26-.11-.02-.45-.34-.73-.74-.89Z"/>
        <path class="cls-14" d="M69.35,134.14c-.11-.04-.16.1-.1.17.21.27.35.58.58.82.09.09.26.03.26-.11-.02-.45-.34-.73-.74-.89Z"/>
        <path class="cls-14" d="M39.27,136.92c-.11-.04-.16.1-.1.17.21.27.35.58.58.82.09.09.26.03.26-.11-.02-.45-.34-.73-.74-.89Z"/>
        <path class="cls-14" d="M63.93,107.08c-.11-.04-.16.1-.1.17.21.27.35.58.58.82.09.09.26.03.26-.11-.02-.45-.34-.73-.74-.89Z"/>
        <path class="cls-14" d="M59.61,137.54c-.11-.04-.16.1-.1.17.21.27.35.58.58.82.09.09.26.03.26-.11-.02-.45-.34-.73-.74-.89Z"/>
        <path class="cls-14" d="M25.69,125.02c-.11-.04-.16.1-.1.17.21.27.35.58.58.82.09.09.26.03.26-.11-.02-.45-.34-.73-.74-.89Z"/>
        <path class="cls-14" d="M7.48,128.59c-.11-.04-.16.1-.1.17.21.27.35.58.58.82.09.09.26.03.26-.11-.02-.45-.34-.73-.74-.89Z"/>
        <path class="cls-14" d="M32.86,126.47c-.11-.04-.16.1-.1.17.21.27.35.58.58.82.09.09.26.03.26-.11-.02-.45-.34-.73-.74-.89Z"/>
        <path class="cls-14" d="M65.85,95.49c-.11-.04-.16.1-.1.17.21.27.35.58.58.82.09.09.26.03.26-.11-.02-.45-.34-.73-.74-.89Z"/>
        <path class="cls-14" d="M94.7,157.64c-.11-.04-.16.1-.1.17.21.27.35.58.58.82.09.09.26.03.26-.11-.02-.45-.34-.73-.74-.89Z"/>
        <path class="cls-14" d="M124.94,138.31c-.11-.04-.16.1-.1.17.21.27.35.58.58.82.09.09.26.03.26-.11-.02-.45-.34-.73-.74-.89Z"/>
        <path class="cls-14" d="M158.61,118.15c-.11-.04-.16.1-.1.17.21.27.35.58.58.82.09.09.26.03.26-.11-.02-.45-.34-.73-.74-.89Z"/>
        <path class="cls-14" d="M148.17,121.73c-.11-.04-.16.1-.1.17.21.27.35.58.58.82.09.09.26.03.26-.11-.02-.45-.34-.73-.74-.89Z"/>
        <path class="cls-14" d="M143.76,131.41c-.11-.04-.16.1-.1.17.21.27.35.58.58.82.09.09.26.03.26-.11-.02-.45-.34-.73-.74-.89Z"/>
        <path class="cls-14" d="M98.55,152.58c-.11-.04-.16.1-.1.17.21.27.35.58.58.82.09.09.26.03.26-.11-.02-.45-.34-.73-.74-.89Z"/>
        <path class="cls-14" d="M77.68,150.36c-.11-.04-.16.1-.1.17.21.27.35.58.58.82.09.09.26.03.26-.11-.02-.45-.34-.73-.74-.89Z"/>
        <path class="cls-14" d="M62.81,143.51c-.11-.04-.16.1-.1.17.21.27.35.58.58.82.09.09.26.03.26-.11-.02-.45-.34-.73-.74-.89Z"/>
        <path class="cls-14" d="M116.31,138.96c-.11-.04-.16.1-.1.17.21.27.35.58.58.82.09.09.26.03.26-.11-.02-.45-.34-.73-.74-.89Z"/>
        <path class="cls-14" d="M77.45,166.12c-.11-.04-.16.1-.1.17.21.27.35.58.58.82.09.09.26.03.26-.11-.02-.45-.34-.73-.74-.89Z"/>
        <path class="cls-14" d="M65.83,163.76c-.11-.04-.16.1-.1.17.21.27.35.58.58.82.09.09.26.03.26-.11-.02-.45-.34-.73-.74-.89Z"/>
        <path class="cls-14" d="M95.98,141.8c-.11-.04-.16.1-.1.17.21.27.35.58.58.82.09.09.26.03.26-.11-.02-.45-.34-.73-.74-.89Z"/>
        <path class="cls-14" d="M112.59,147.26c-.11-.04-.16.1-.1.17.21.27.35.58.58.82.09.09.26.03.26-.11-.02-.45-.34-.73-.74-.89Z"/>
        <path class="cls-14" d="M92.05,131.75c-.11-.04-.16.1-.1.17.21.27.35.58.58.82.09.09.26.03.26-.11-.02-.45-.34-.73-.74-.89Z"/>
        <path class="cls-14" d="M87.63,160.4c-.11-.04-.16.1-.1.17.21.27.35.58.58.82.09.09.26.03.26-.11-.02-.45-.34-.73-.74-.89Z"/>
        <path class="cls-14" d="M154.83,124.75c-.11-.04-.16.1-.1.17.21.27.35.58.58.82.09.09.26.03.26-.11-.02-.45-.34-.73-.74-.89Z"/>
        <path class="cls-14" d="M81.77,166.14c-.11-.04-.16.1-.1.17.21.27.35.58.58.82.09.09.26.03.26-.11-.02-.45-.34-.73-.74-.89Z"/>
      </g>
      <g>
        <path class="cls-16" d="M108.19,37.92c-4.77-7.4-5.64-21.52-5.78-28.29l-4.78-.02s-.79,18.21,3.36,30.4c6.59,19.37,14.32,21.44,16.66,34.1,3.09,16.73-3.23,28-3.23,28,0,0,10.54-5.21,16.31-16.41-.31-6.51-1.17-15.08-3.49-20.64-4.18-9.97-9.48-12.29-19.05-27.13Z"/>
        <path class="cls-3" d="M126.55,26.73c-.06-11.57-.15-16.98-.15-16.98l-23.98-.12c.13,6.77,1.01,20.89,5.78,28.29,9.57,14.84,14.87,17.16,19.05,27.13,2.33,5.55,3.19,14.12,3.49,20.64,2.13-4.14,3.62-9.09,3.68-14.9.2-20.15-7.8-30.66-7.86-44.06Z"/>
        <path class="cls-6" d="M112.06.43c-7.93-.04-14.4,3.87-14.42,8.71-.02,4.84,6.41,8.82,14.34,8.86,7.93.04,14.4-3.87,14.42-8.72.02-4.84-6.41-8.82-14.34-8.86Z"/>
        <path class="cls-16" d="M121.59,9.61c-4.3-3.31-11.43-3.01-16.19-1.03-1.74.73-3.96,1.93-4.15,4.05-.05.58.07,1.17.34,1.67.01.03.01.06.03.09.06.09.13.17.19.26.02.02.03.05.05.07,1.33,1.88,3.5,2.48,5.72,2.9,3.01.56,6.14.92,9.15.24,3.47-.79,9.43-4.71,4.86-8.23Z"/>
        <path class="cls-16" d="M99.13,13.03c.15.7,1.21.41,1.06-.29-.05-.26-.08-.51-.11-.76,1.04-3.58,4.11-5.67,7.84-6.47,1.15-.25,2.35-.41,3.53-.53,1.24-.04,2.38,0,3.29.11-6.98-1.91-16.89,1.95-15.62,7.93Z"/>
        <path class="cls-9" d="M98.06,36.78c-.78-.66-2.16-2.21-1.86-5.38-1.57,3.71.1,7.2,4.57,8.75,3.87,1.34,9.93.33,13.25-2.17-8.49,2.13-14.09.39-15.96-1.19Z"/>
        <path class="cls-9" d="M94.96,12.25c-1.79,1.07-2.97,5.66-1.64,7.65,1.15,1.72,5.15,4.8,11,4.65-3.68,1.36-10.39-.32-12.45-3.41-2.14-3.22-.81-8.43,3.08-8.89Z"/>
        <path class="cls-9" d="M130.2,41.58c1.51,2.85,1.66,5.72.29,7.4-4.95,6.06-15.71,4.59-18.58,3.12,4.07,3.57,10.62,4.19,15.51,2.13,3.65-1.54,5.27-3.71,5.6-5.03.73-2.9-.57-5.69-2.82-7.62Z"/>
        <path class="cls-9" d="M127.44,9.89c1.51,2.85.51,6.85-.87,8.53-4.95,6.06-16.65,4.43-19.51,2.96,4.07,3.57,11.55,4.35,16.45,2.29,3.65-1.54,5.27-3.71,5.6-5.03.73-2.9.58-6.82-1.67-8.75Z"/>
        <path class="cls-9" d="M126.14,1.19c-2.05-1.1-4.78-1.15-7.01-.54,2.06.33,4.1.56,5.45,1.23,1.58.79,3.1,1.99,3.74,4.07,1.16-1.99-.54-3.88-2.18-4.76Z"/>
        <path class="cls-9" d="M127.48,8.05c-.32-2.46-2.57-3.88-4.7-4.67-5.27-1.95-13.35-2.03-18.38.69,5.27-.89,10.12-1.03,12.61-.48,2.12.47,4.41,1.17,6.21,2.43,1.12.78,2.02,1.84,2.25,3.22.25,1.46-.6,2.74-1.58,3.74-3.08,3.14-8.85,3.54-12.98,3.12-2.23-.22-4.43-.74-6.51-1.57-2.15-.85-4.5-2.03-5.59-4.19-1.59-3.17,1-5.94,3.71-7.21,1.24-.58,6.53-2.76,11.69-2.58-3.21-1.07-8.16-.41-11.29.76-2.52.94-5.01,2.47-6.23,4.97-1.1,2.25-.99,4.94.7,6.86,1.98,2.25,5.09,3.84,7.97,4.54,3.34.8,11.64,2.76,18.62-2.4,2.06-1.52,3.84-4.54,3.49-7.21Z"/>
        <path class="cls-16" d="M128.97,35.07c1.78,1.09,3.22,4.75,1.87,6.73-1.16,1.71-3.54,4.16-9.39,3.95,3.67,1.39,8.73.37,10.82-2.7,2.17-3.2.59-7.48-3.3-7.98Z"/>
        <path class="cls-16" d="M128.45,22.18c-.09,4.56-1.17,7.41-8.16,9.23-5.11,1.33-12.2-.98-12.19-.97,3.18,3.11,10.11,3.79,15.55,2.17,5.9-1.76,8.66-6.78,4.8-10.43Z"/>
      </g>
      <g>
        <polygon class="cls-4" points="150.27 91.72 133.4 87.45 115.77 111.39 115.65 137 150.14 117.33 150.27 91.72"/>
        <polygon class="cls-4" points="74.72 87.42 74.59 113.03 115.65 137 115.77 111.39 74.72 87.42"/>
        <polygon class="cls-4" points="109.21 67.93 93.06 63.16 74.72 87.42 115.77 111.39 133.4 87.45 150.27 91.72 109.21 67.93"/>
        <polygon class="cls-11" points="115.77 113.1 115.74 112.08 150.27 92.38 150.26 93.39 115.77 113.1"/>
        <polygon class="cls-1" points="91.78 61.97 72.75 87.12 94.41 92.72 117.3 113.19 135.58 88.36 91.78 61.97"/>
        <polygon class="cls-15" points="93.71 91.66 95.29 90.06 102.79 96.57 104.02 95.05 99.29 90.6 102.85 85.57 107.98 89.68 108.83 87.94 101.17 81.93 102.17 80.45 109.5 85.83 110.87 83.64 100.42 75.78 99.2 77.89 100.66 79.41 99.34 81.38 95.05 77.31 93.77 79.05 98.17 82.82 96.92 84.29 92.29 80.75 91.1 82.34 94.71 85.74 93.42 87.26 91.12 85.23 87.99 90.38 93.71 91.66"/>
        <polygon class="cls-15" points="153.08 92.79 135.58 88.36 91.78 61.97 108.53 66.91 121.15 71.55 120.5 72.72 128.06 77.41 128.8 76.34 153.08 92.79"/>
        <polygon class="cls-15" points="72.75 87.12 72.75 88.22 94.06 93.8 94.41 92.72 72.75 87.12"/>
        <polygon class="cls-11" points="115.64 138.12 115.62 136.68 150.15 116.98 150.14 118.41 115.64 138.12"/>
        <polygon class="cls-4" points="115.64 138.12 115.62 136.68 74.59 112.69 74.58 114.12 115.64 138.12"/>
        <polygon class="cls-10" points="115.74 111.93 102.34 99.81 101.83 101.15 106.16 105.02 104.5 106.94 102.51 105.42 98.61 110.27 103.92 115.25 102.1 117.62 96.6 112.22 95.17 114.2 96.46 115.54 93.57 118.8 95.96 121.48 96.1 125.29 115.62 136.68 115.74 111.93"/>
        <g>
          <polygon class="cls-7" points="132.21 122.07 124.39 126.62 124.46 112.41 132.28 107.86 132.21 122.07"/>
          <polygon class="cls-4" points="131.4 121.74 125.2 125.27 125.27 112.74 131.46 109.21 131.4 121.74"/>
          <polygon class="cls-7" points="131.43 115.95 125.23 119.49 125.24 118.49 131.43 114.96 131.43 115.95"/>
          <polygon class="cls-7" points="128.76 123.78 128.04 124.34 128.1 110.54 128.83 110.55 128.76 123.78"/>
        </g>
        <g>
          <polygon class="cls-7" points="143.95 114.8 136.12 119.36 136.19 105.15 144.02 100.59 143.95 114.8"/>
          <polygon class="cls-4" points="143.14 114.47 136.94 118.01 137 105.48 143.2 101.94 143.14 114.47"/>
          <polygon class="cls-7" points="143.16 108.69 136.97 112.22 136.98 111.23 143.17 107.69 143.16 108.69"/>
          <polygon class="cls-7" points="140.5 116.51 139.77 117.08 139.84 103.28 140.57 103.28 140.5 116.51"/>
        </g>
        <polygon class="cls-12" points="135.58 88.36 117.3 113.19 117.45 114.76 135.84 89.58 153.07 93.98 153.08 92.79 135.58 88.36"/>
        <polygon class="cls-5" points="91.78 61.97 91.19 62.75 134.96 89.21 135.58 88.36 91.78 61.97"/>
        <polygon class="cls-11" points="134.69 102.29 133.82 102.28 133.87 92.3 134.75 91.08 134.69 102.29"/>
        <polygon class="cls-11" points="139.86 99.2 138.99 99.19 139.04 90.4 139.9 90.62 139.86 99.2"/>
        <polygon class="cls-11" points="129.29 105.05 128.42 105.05 128.45 99.7 129.32 98.48 129.29 105.05"/>
      </g>
      <polygon class="cls-12" points="112.59 69.37 120.5 72.72 128.06 77.41 133.92 81.78 131.6 81.77 127.17 78.69 124.73 78.55 119.96 75.22 118.24 75.21 112.58 71.89 114.48 71.9 115.97 72.75 117.3 72.6 112.59 69.37"/>
      <g>
        <path class="cls-16" d="M86.68,113.2c-5.68-16.02-23.51-19.94-34.74-30.81-6.13-5.94-9.3-14-11.31-22.14-1.79-7.25-2.86-15.09-2.38-22.68l-12.35-.06s-.45,31.26,7.93,46.51c12.59,22.89,36.61,25.09,40.58,40.79s-.89,23.32-.89,23.32c0,0,9.35-4.87,15.23-14.95.44-6.77.2-13.59-2.06-19.98Z"/>
        <path class="cls-3" d="M93.39,114.8c-.74-22.63-20.41-35.05-20.3-58.11.07-15.09.09-18.95.09-18.95l-34.93-.17c-.48,7.59.59,15.43,2.38,22.68,2.01,8.14,5.19,16.2,11.31,22.14,11.22,10.87,29.05,14.79,34.74,30.81,2.27,6.39,2.5,13.22,2.06,19.98,2.85-4.89,4.89-11,4.65-18.39Z"/>
        <path class="cls-6" d="M49.61,23.15c-13.04-.06-23.68,6.38-23.71,14.36-.04,7.98,10.54,14.53,23.57,14.59,13.04.06,23.68-6.38,23.72-14.36.04-7.98-10.54-14.53-23.57-14.59Z"/>
        <path class="cls-16" d="M79.08,78.98c.04.07,1.09,2.03,1.51,2.84,1.48,1.29,2.5,2.68,2.59,4.84.16,4.03-3.8,5.54-6.93,6.65,5.66.03,10.26-3.03,10.11-7.29-.15-4.21-3.61-6.3-7.27-7.04Z"/>
        <path class="cls-16" d="M77.9,45.22s5.54,4.03,1.38,11.98c-4.09,7.83-17.44,9.48-17.44,9.48,0,0,15.6,2.27,20.57-8.99,3.83-8.67-4.51-12.47-4.51-12.47Z"/>
        <path class="cls-9" d="M27.79,70.72c-1.3-1.1-3.59-3.68-3.1-8.96-2.61,6.17.17,11.98,7.61,14.57,6.44,2.24,16.53.55,22.05-3.62-14.13,3.54-23.45.65-26.56-1.99Z"/>
        <path class="cls-9" d="M78.36,68.91c2.97,1.82,5.36,7.9,3.12,11.2-1.94,2.85-5.89,6.93-15.63,6.58,6.11,2.32,14.53.62,18.01-4.5,3.62-5.33.98-12.46-5.5-13.28Z"/>
        <path class="cls-9" d="M22.79,32.63c-2.98,1.79-4.94,9.42-2.73,12.74,1.91,2.86,8.58,8,18.32,7.74-6.13,2.26-17.29-.53-20.72-5.68-3.56-5.36-1.35-14.04,5.14-14.8Z"/>
        <path class="cls-9" d="M68.52,122.46c-8.65-1.82-8.48-8-8.49-7.98-3.64,5.24,1.31,10.13,6.42,11.05,9.43,1.71,15.01-2.53,15.97-8.25-2.7,2.69-9.06,6.2-13.89,5.18Z"/>
        <path class="cls-9" d="M88.26,90.54c2.51,4.74,2.76,9.51.48,12.31-8.25,10.08-26.15,7.63-30.93,5.19,6.78,5.94,17.68,6.98,25.82,3.55,6.07-2.56,8.77-6.18,9.33-8.37,1.22-4.82-.95-9.47-4.7-12.69Z"/>
        <path class="cls-9" d="M75.89,37.76c2.51,4.74.85,11.4-1.44,14.2-8.25,10.08-27.71,7.37-32.48,4.92,6.78,5.94,19.23,7.25,27.38,3.81,6.07-2.56,8.77-6.18,9.33-8.37,1.22-4.82.97-11.35-2.79-14.57Z"/>
        <path class="cls-9" d="M73.72,23.27c-3.41-1.84-7.96-1.91-11.66-.9,3.43.55,6.83.94,9.07,2.05,2.62,1.31,5.16,3.32,6.22,6.78,1.92-3.31-.9-6.46-3.63-7.93Z"/>
        <path class="cls-16" d="M63.25,40.62c-5.37-2.25-13.26-1.94-18.56.23-1.98.81-4.63,2.27-5.36,4.48-.33,1.01-.16,2.05.48,2.75,0,0-.02,0-.02,0-.24.14-.3.5-.09.69.02.02.05.05.07.07.17.16.44.17.62,0l.05-.05s0-.01.02-.02c.1-.02.22-.03.35-.03,0,0,.01,0,.02,0,.04.01.07,0,.09-.01,1.35,0,3.93.71,4.89.72,1.72.02,3.44-.03,5.15-.05,3.43-.04,7.08.25,10.44-.58,2.02-.5,5.23-1.36,5.62-3.66.4-2.33-1.88-3.76-3.77-4.55Z"/>
        <path class="cls-16" d="M65.64,37.65c-4.34-1.93-9.09-2.14-13.69-1.41-2.18.34-10.25,2.53-11.74,5.67,1.55-1.74,8.82-4.59,13.77-4.68,2.65-.05,5.96-.05,8.46.8,7.02,2.4,6.18,4.51,5.51,6.86-.07.23.56-.32.65-.55,1.27-3.31.4-5.21-2.95-6.7Z"/>
        <path class="cls-16" d="M54.01,32.25c-4.93-.57-10.03-.22-14.61.78-3.45.75-7.33,2.13-8.87,5.63-1.08,2.44-.37,5.42,2.09,6.64,1.02.91,2.15,1.59,3.44,2.13.44.18.92-.44.64-.82-4.79-6.41,3.88-11.77,9.34-12.98,5.58-1.24,12.47.25,17.93,1.18-2.92-.94-6.47-2.24-9.94-2.55Z"/>
        <path class="cls-9" d="M75.94,34.7c-.53-4.09-4.27-6.46-7.83-7.78-8.77-3.24-22.23-3.38-30.6,1.15,8.77-1.49,16.84-1.71,20.99-.79,3.53.78,7.35,1.95,10.33,4.04,1.86,1.3,3.36,3.07,3.75,5.35.41,2.43-.99,4.55-2.63,6.22-5.13,5.22-14.73,5.89-21.61,5.2-3.71-.37-7.37-1.24-10.83-2.61-3.59-1.42-7.49-3.38-9.3-6.98-2.65-5.28,1.66-9.89,6.17-12.01,2.06-.97,9.81-3.48,18.39-3.19-5.34-1.79-12.52-1.78-17.72.16-4.2,1.57-8.34,4.11-10.37,8.27-1.83,3.75-1.65,8.22,1.16,11.42,3.29,3.75,8.48,6.4,13.27,7.55,5.55,1.34,19.37,4.59,31-4,3.42-2.53,6.39-7.55,5.81-12.01Z"/>
      </g>
      <g>
        <polygon class="cls-10" points="85.83 112.04 85.31 113.95 92.99 116.7 93.39 114.8 85.83 112.04"/>
        <polygon class="cls-10" points="88.58 107.21 87.32 109 92.84 113.19 93.97 111.29 88.58 107.21"/>
        <polygon class="cls-2" points="93.15 100.69 92.18 102.86 100.76 110.17 101.44 108.03 93.15 100.69"/>
        <polygon class="cls-2" points="92.82 112.25 91.59 114.32 99.15 120.05 100.22 117.97 92.82 112.25"/>
        <polygon class="cls-2" points="86.28 100.76 85.36 102.64 94.77 108.73 95.64 106.9 86.28 100.76"/>
        <polygon class="cls-2" points="55.6 74.9 56.5 76.79 47.03 82.78 46.18 80.94 55.6 74.9"/>
        <polygon class="cls-2" points="62.02 101.95 55.01 107.51 56.58 108.54 63.58 103.24 62.02 101.95"/>
        <polygon class="cls-2" points="69.84 75.62 76.8 81.25 75.22 82.26 68.27 76.89 69.84 75.62"/>
        <polygon class="cls-5" points="98.48 86.52 99.8 85.09 107.93 92.36 106.61 93.86 98.48 86.52"/>
        <polygon class="cls-15" points="94.41 92.72 93.62 93.68 117.45 114.76 117.3 113.19 94.41 92.72"/>
        <polygon class="cls-1" points="89.62 97.33 90.06 95.44 100.71 97.75 100.31 99.71 89.62 97.33"/>
        <polygon class="cls-1" points="82.21 93.97 83.54 92.54 91.66 99.81 90.34 101.31 82.21 93.97"/>
        <polygon class="cls-1" points="43.78 69.73 42.47 68.28 34.28 75.47 35.58 76.98 43.78 69.73"/>
        <polygon class="cls-15" points="68.18 94.51 66.73 92.91 55.73 102.48 57.17 104.16 68.18 94.51"/>
        <polygon class="cls-15" points="31.95 84.86 31.51 86.92 40.9 90.31 41.46 88.31 31.95 84.86"/>
        <polygon class="cls-15" points="69.67 71.78 69.23 73.84 78.63 77.23 79.19 75.23 69.67 71.78"/>
        <polygon class="cls-5" points="89.48 83.45 88.69 85.09 96.47 89.6 97.26 88.16 89.48 83.45"/>
        <polygon class="cls-5" points="91.26 76.85 89.94 78.1 95.62 85.07 96.86 84.01 91.26 76.85"/>
        <polygon class="cls-2" points="95.06 119.48 83.52 115.57 83.1 117.45 94.49 121.06 95.06 119.48"/>
        <polygon class="cls-2" points="97.16 97.52 95.51 99.17 99.71 105.06 101.13 103.66 97.16 97.52"/>
        <polygon class="cls-2" points="93.55 122.6 92.08 122.91 91.53 126.02 93.18 124.84 93.55 122.6"/>
        <polygon class="cls-2" points="47.05 100.57 48.63 98.1 50.19 99.81 48.22 101.52 47.05 100.57"/>
        <polygon class="cls-2" points="31.15 81.28 35.93 81.3 35.92 83.89 31.14 82.7 31.15 81.28"/>
        <polygon class="cls-2" points="75.85 69.18 73.32 69.41 74.8 71.81 76.3 70.36 75.85 69.18"/>
        <polygon class="cls-2" points="49.22 102.22 54.23 98.5 55.73 100.61 50.17 103.37 49.22 102.22"/>
        <polygon class="cls-2" points="79.83 76.79 77.73 78.97 79.81 81.52 80.77 78.33 79.83 76.79"/>
        <polygon class="cls-2" points="27.48 77.26 29.88 73.67 31.57 75.48 28.77 78.73 27.48 77.26"/>
      </g>
      <g>
        <g>
          <path class="cls-8" d="M43.96,111.87c-1.11-3.09-2.99-6.09-1.93-9.47-1.67,1.69-2.53.81-2.77.12-.47-1.34-.97-4.22-1.39-6.26-.31.4-.62.64-.93,1.04-2.14-2.8-2.94-9.13-2.68-12.52,0,0-2.48,7.43-1.31,14.61,1.17,7.18,4.92,18.57,8.33,26.93.17.41.27.84.34,1.28,0,0,0-.01,0-.02,1.88-.2,3-5.81,3.06-7.79.08-2.6.16-5.46-.72-7.92Z"/>
          <path class="cls-14" d="M32.95,99.38c-1.17-7.18,1.31-14.61,1.31-14.61-2.01,1.58-4.21,6.77-4.75,9.26-.31,1.39-.39,2.82-.35,4.24.02.84.21,3.15.27,4.59.02.5-1.24.41-1.88-.95-1.62,6.05,3.35,10.53,3.46,14.49-.89.6-1.56-.03-2.59-.01,2.93,6.78,8.95,7.39,12.59,11.44.22.25.59.04.62-.23-.07-.44-.17-.86-.34-1.28-3.41-8.37-7.15-19.76-8.33-26.93Z"/>
        </g>
        <path class="cls-4" d="M32.79,98.02s1.18,11.82,4.96,21.46c3,7.65,3.58,8.97,4.1,13.96.45,4.32.78,9.53.78,9.53,0,0,.82.95,1.66-.15,0-2.2-.7-13.25-3.31-19.07-2.62-5.85-7.4-18.18-8.19-25.74Z"/>
      </g>
      <g>
        <g>
          <path class="cls-8" d="M99.8,119.8c1.14-3.08,3.05-6.06,2.03-9.45,1.66,1.7,2.52.84,2.77.15.48-1.34,1.02-4.21,1.45-6.25.31.4.61.65.92,1.04,2.17-2.78,3.03-9.1,2.8-12.49,0,0,2.41,7.46,1.16,14.62-1.24,7.16-5.1,18.52-8.59,26.85-.17.41-.28.84-.35,1.27,0,0,0-.01,0-.02-1.88-.22-2.94-5.84-2.98-7.82-.05-2.6-.1-5.47.8-7.91Z"/>
          <path class="cls-14" d="M110.93,107.42c1.24-7.16-1.16-14.62-1.16-14.62,2,1.6,4.14,6.81,4.66,9.31.29,1.4.36,2.82.31,4.25-.03.84-.24,3.15-.31,4.58-.02.49,1.23.42,1.89-.94,1.56,6.07-3.45,10.5-3.6,14.46.88.61,1.56-.01,2.59.01-2.99,6.75-9.03,7.3-12.71,11.32-.23.25-.59.04-.61-.24.07-.43.18-.86.35-1.27,3.49-8.33,7.35-19.68,8.59-26.85Z"/>
        </g>
        <path class="cls-4" d="M111.1,106.06s-1.29,11.81-5.17,21.41c-3.07,7.62-3.67,8.94-4.24,13.92-.49,4.31-.87,9.52-.87,9.52,0,0-.83.94-1.66-.16.02-2.2.83-13.24,3.5-19.04,2.68-5.82,7.58-18.1,8.44-25.65Z"/>
      </g>
      <g>
        <path class="cls-13" d="M74.93,44.38s-1.4.91-2.24,2.16c-.83,1.25-.73,3.04-.73,3.04,0,0,.87.49,1.97-1.15,1.1-1.64.99-4.05.99-4.05Z"/>
        <path class="cls-8" d="M17.41,68.6s-.39,1.94,1.15,2.93c1.54.99,2.49,2.1,2.49,2.1,0,0,.93-1.57-.71-2.87-1.64-1.3-2.93-2.15-2.93-2.15Z"/>
        <path class="cls-8" d="M100.34,93.07s-.31.52.84,2.42,1.83,3.25,1.83,3.25c0,0,1.41-.89.01-2.83-1.39-1.94-2.68-2.84-2.68-2.84Z"/>
        <path class="cls-8" d="M93.35,90.57c-.24,1.08.9,2.49,2.66,3.24,1.76.75,2.34,1.21,2.34,1.21,0,0-.56-2.74-5-4.45Z"/>
        <path class="cls-13" d="M70.67,103.55s1.08,1.93,3.39,1.35c2.32-.58,2.6-.65,2.6-.65,0,0-2.67-3.07-6-.7Z"/>
        <path class="cls-13" d="M67.25,98.56s.34,2.35,2.34,2.46c2,.1,3.57.2,3.57.2,0,0-.57-1.57-2.47-1.96-1.91-.39-3.43-.7-3.43-.7Z"/>
        <path class="cls-8" d="M79.95,62.69s-1.1.77-1.83,2.09c-.73,1.32-.53,2.15-.53,2.15,0,0,1.73-.41,2.35-1.73.62-1.32.01-2.51.01-2.51Z"/>
        <path class="cls-13" d="M76.82,61.93s-1.52-.92-3.06-.63c-1.54.3-3.36,1.34-3.36,1.34,0,0,2.02,1.31,3.85.57,1.82-.75,2.58-1.29,2.58-1.29Z"/>
        <path class="cls-8" d="M20.43,51.96s-.02,1.97,1.86,2.92c1.88.95,3.13,1.43,3.13,1.43,0,0,.87-.91-.77-2.45-1.64-1.54-4.23-1.9-4.23-1.9Z"/>
        <path class="cls-13" d="M24.12,57.95s.25,2.35,2.37,2.36c2.13.01,3.45.02,3.45.02,0,0-2.21-3.78-5.82-2.38Z"/>
        <path class="cls-13" d="M49.39,67.84s.61-.82,2.55-.46c1.94.36,3.26,1.41,3.26,1.41,0,0-.51.88-2.57.85-2.06-.03-3.24-1.8-3.24-1.8Z"/>
        <path class="cls-8" d="M24.93,82.67s-.94,1.63-.95,3.12c0,1.49,2.19,2.68,2.19,2.68,0,0,.67-.71-.52-2.58-.74-1.16-.73-3.22-.73-3.22Z"/>
        <path class="cls-8" d="M22.07,100.78s-.13,1.39,1.1,2.98c1.23,1.59,1.91,2.08,1.91,2.08,0,0,.5-1.31-.67-2.61-1.17-1.3-2.34-2.46-2.34-2.46Z"/>
        <path class="cls-8" d="M18.8,96.15s-.83,1.83-.02,3.15c.82,1.32,1.99,2.56,1.99,2.56,0,0,.48-1.18-.34-2.44-.82-1.27-1.63-3.27-1.63-3.27Z"/>
        <path class="cls-8" d="M43.63,101.76s-.1,2.37,1.16,3.74c1.25,1.37,2.23,2.02,2.23,2.02,0,0,.85-1.38-.35-2.72-1.2-1.34-3.04-3.04-3.04-3.04Z"/>
      </g>
      <g>
        <path class="cls-14" d="M51.78,99.88s-1.78,6.15,1.21,11.59c2.99,5.44,1.49,8.83.69,13.93-1.32,8.43,2.85,14.73,2.95,15.35.42-3.2,6.65-11.96,4.86-20.66-1.79-8.71-9.71-20.21-9.71-20.21Z"/>
        <path class="cls-8" d="M66.32,116.11c-.64-7.35-9.37-12.54-14.54-16.23-.04,2.82,1.7,5.63,3.11,7.96,1.66,2.75,3.55,5.47,4.34,8.63.99,3.97-.51,8.66-1.3,12-.64,2.71-2.12,9.1-.89,11.9,1.5-4.02,5.75-9.31,7.06-13.04,1.32-3.75,2.56-7.29,2.22-11.22Z"/>
        <path class="cls-4" d="M56.06,109.75s3.05,6.54,2.89,10.21c-.16,3.67-3.45,12.68-2.99,19.2.52,7.48,0,12.01,0,12.01,0,0,1.16.94,1.82.49.59-3.79-.17-9.17-.52-11.58-.97-6.68,1.54-10.74,2.37-16.32.83-5.58-1.17-12.04-3.57-14.01Z"/>
      </g>
      <g>
        <polygon class="cls-1" points="133.18 70.78 132.45 72.58 135.65 75.7 135.9 73.88 133.18 70.78"/>
        <polygon class="cls-5" points="124.04 75.99 122.81 75.98 130.19 81.14 131.64 81.14 124.04 75.99"/>
        <polygon class="cls-1" points="127.76 72.9 126.58 72.55 132.22 79.56 133.61 79.97 127.76 72.9"/>
        <polygon class="cls-1" points="116.48 70.19 123.45 68.97 124.25 69.81 117.8 70.99 116.48 70.19"/>
        <polygon class="cls-1" points="117.67 71.81 124.41 71.31 125.63 72.33 118.42 72.77 117.67 71.81"/>
        <polygon class="cls-5" points="111.46 68.67 111.45 69.67 115.35 71.26 115.36 69.98 111.46 68.67"/>
        <polygon class="cls-5" points="113.42 67.1 118.35 65.12 118.51 66.84 113.41 68.39 113.42 67.1"/>
        <polygon class="cls-5" points="125.37 73.86 124.23 74.09 127.82 77.93 128.99 77.7 125.37 73.86"/>
        <polygon class="cls-5" points="119.61 73.83 118.25 73.83 121.62 77.37 123.05 77.38 119.61 73.83"/>
        <polygon class="cls-1" points="129.27 71.05 131.89 76.66 133.15 76.67 130.81 71.34 129.27 71.05"/>
        <polygon class="cls-1" points="132.54 64.37 132.1 66.01 134.86 67.22 134.87 66.06 132.54 64.37"/>
        <polygon class="cls-1" points="122.86 65.14 119.37 67.63 120.37 68.72 124.27 66.29 122.86 65.14"/>
        <polygon class="cls-1" points="130.14 67.2 129.79 68.76 135.67 70.13 135.92 68.64 130.14 67.2"/>
        <polygon class="cls-1" points="114.46 60.2 112.62 64.27 113.43 65.1 115.99 61.45 114.46 60.2"/>
        <polygon class="cls-1" points="135.97 58.74 134.9 59.99 137.21 63.76 138.14 62.32 135.97 58.74"/>
        <polygon class="cls-1" points="129.82 63.72 125.5 66.29 126.27 67.18 130.84 64.75 129.82 63.72"/>
        <polygon class="cls-1" points="108.13 50.36 105.78 54.54 106.65 55.86 109.65 52.4 108.13 50.36"/>
        <polygon class="cls-1" points="131.3 54.39 130.88 56.83 134.48 58.18 134.49 56 131.3 54.39"/>
      </g>
    </g>
  </g>
</svg>