<?xml version="1.0" encoding="UTF-8"?>
<svg id="Layer_2" data-name="Layer 2" xmlns="http://www.w3.org/2000/svg" viewBox="0 0 170.45 154.81">
  <defs>
    <style>
      .cls-1, .cls-2, .cls-3, .cls-4, .cls-5, .cls-6, .cls-7, .cls-8, .cls-9, .cls-10, .cls-11, .cls-12, .cls-13, .cls-14 {
        stroke-width: 0px;
      }

      .cls-1, .cls-2, .cls-5 {
        opacity: .5;
      }

      .cls-1, .cls-7 {
        fill: #ff4343;
      }

      .cls-2, .cls-12 {
        fill: #ed2929;
      }

      .cls-3 {
        fill: #5e2e1f;
      }

      .cls-4 {
        fill: #723828;
      }

      .cls-5, .cls-6 {
        fill: #3f1922;
      }

      .cls-8 {
        fill: #ffa08d;
      }

      .cls-9 {
        fill: #4f2115;
      }

      .cls-10 {
        fill: #2e1117;
      }

      .cls-11 {
        fill: #ffc5b3;
      }

      .cls-13 {
        fill: #fff;
      }

      .cls-14 {
        fill: #ffc200;
      }
    </style>
  </defs>
  <g id="Layer_1-2" data-name="Layer 1">
    <g>
      <g>
        <polygon class="cls-10" points="170.45 88.82 170.39 101.03 76.25 154.81 76.32 142.59 170.45 88.82"/>
        <polygon class="cls-6" points=".06 98.06 0 110.28 76.25 154.81 76.32 142.59 .06 98.06"/>
        <polygon class="cls-9" points="170.45 88.82 170.42 94.52 76.29 148.29 76.32 142.59 170.45 88.82"/>
        <polygon class="cls-3" points=".06 98.06 .03 103.76 76.29 148.29 76.32 142.59 .06 98.06"/>
        <polygon class="cls-4" points="94.19 44.29 .06 98.06 76.32 142.59 170.45 88.82 94.19 44.29"/>
      </g>
      <g>
        <path class="cls-3" d="M60.46,109.02c-1.98-.41-6.57-4.61-8.51-5.19-3.05-.9-5.45-1.97-8.66-1.1-3.12.84-4.76,3.89-7.74,2.55-3.97-1.78-8.08.72-4.16,3.74,2.57,1.98,2.57,4.6,5.98,5.61,2.64.79,5.25,1.4,7.84,1.94,2.59.54,4.66,2.86,7.35,2.9.74.01,1.5-.13,2.12-.56.93-.63.96-1.77,1.71-2.45,1.06-.96,2.88-.75,4.12-.49.48.1.95.19,1.45.22.97.06,1.95-.05,2.86-.4,1.69-.65,4.12-.94,4.22-2.78.21-3.72-4.7-3.19-8.58-4.01Z"/>
        <path class="cls-3" d="M139.23,96c-1.2-2.44-3.73-3.92-6.41-3.62-1.95.22-3.72,1.57-5.67,1.54-8.2-.13-13.14-.76-15.87-.64-3.5.15-5.41,2.88-5.09,5.08.26,1.78,3.37,1.42,4.46,2.17,1.1.77,1.75,1.88,3,2.47,1.05.5,2.28.67,3.42.47,1.92-.32,3.42-1.65,5.47-.92,1.38.49,2.55.86,4.03.7,1.59-.17,3.11-.82,4.59-1.36,2.04-.75,4.13-1.41,6.13-2.26,1.65-.7,2.84-1.82,1.94-3.63Z"/>
        <path class="cls-3" d="M95.63,66.08c-1.2-2.44-3.73-3.92-6.41-3.62-1.95.22-3.72,1.57-5.67,1.54-8.2-.13-13.14-.76-15.87-.64-3.5.15-5.41,2.88-5.09,5.08.26,1.78,3.37,1.42,4.46,2.17,1.1.77,1.75,1.88,3,2.47,1.05.5,2.28.67,3.42.47,1.92-.32,3.42-1.65,5.47-.92,1.38.49,2.55.86,4.03.7,1.59-.17,3.11-.82,4.59-1.36,2.04-.75,4.13-1.41,6.13-2.26,1.65-.7,2.84-1.82,1.94-3.63Z"/>
        <path class="cls-3" d="M89.42,118.54c-1.86.34-3.85,1.16-5.6,1.8-.29.11-.59.21-.88.32-1.89.49-3.76,1.08-5.57,1.63-2.2.66-4.38,1.37-6.55,2.14-1.33.47-3.96,1.8-5.07,2.75-1.96,1.67-2.2,3.45.61,4.73,2.64,1.2,5.96.95,8.31-.72,3.08-2.19,6.04-4.3,9.52-5.82,2.12-.92,4.31-1.43,6.49-2.18.81-.28,2.92-.44,3.42-2.22.6-2.15-1.24-3.04-4.68-2.42Z"/>
        <path class="cls-3" d="M121.26,106.01c-.29-.98-1.55-1.36-2.43-1.42-.95-.07-3.24,1.35-6.29.8-2.32-.42-5.54-.69-4.74,1.49.17.46.18.38.66.64.99.53,2.1.47,3.05,1.35,1.1,1.01,1.68,1.92,3.33,1.55.8-.18,1.42-.64,2.14-1.01.99-.51,2.2-.66,3.14-1.22.74-.44,1.42-1.22,1.14-2.16Z"/>
        <path class="cls-3" d="M32.94,100.89c-.29-.98-1.55-1.36-2.43-1.42-.95-.07-3.24,1.35-6.28.8-2.32-.42-5.54-.69-4.74,1.49.17.46.18.38.66.64.99.53,2.1.47,3.05,1.35,1.1,1.01,1.68,1.92,3.33,1.55.8-.18,1.42-.64,2.14-1.01.99-.51,2.2-.66,3.14-1.22.74-.44,1.42-1.22,1.14-2.16Z"/>
        <path class="cls-3" d="M116.87,72.65c-2.72-.87-4.8-.89-8.84-.86-2.55,0-3-1.5-4.78-1.99-1.51-.42-3.01-.86-4.59-.76-1.59.1-4.1.94-4.11,2.9,0,.92.59,1.6,1.28,2.15.64.52,1.49.79,2.08,1.39.7.71.97,1.73,1.26,2.65.56,1.79,1.11,3.48,3.14,3.94.97.22,1.98.14,2.94.42.87.25,1.67.73,2.48,1.11.96.45,1.98.92,3.07.91,1.31-.02,2.02-.85,3.14-1.36,1.69-.77,3.59-.31,5.26-1.14,1.89-.94,3.4-3.05,3.2-5.23-.27-2.93-3.24-3.38-5.54-4.12Z"/>
      </g>
      <path class="cls-5" d="M126.93,27.54c-.29-2.12-1.89-4.46-4.03-4.6,1.45-2.7,1.93-5.96,1.11-8.92-.53-1.92-2.6-4.05-4.35-3-.34-1.61-1.31-3.35-3.07-3.17-1.18.12-2.23.82-3.01,1.77-.31-1.67-1.51-2.73-2.65-2.15.25-2.56.07-6.75-2.42-5.99-2.31.71-2.22,3.61-1.8,6.04-.5-.26-1.13-.19-2,.28-1.51.82-1.56,2.39-1.15,3.88-1.93-.41-3.36,2.03-3.51,3.94-.12,1.47.27,3.11,1.08,4.45-1.18.8-1.94,2.63-1.87,4.05.13,3.03,2.24,6.03,5.32,6.19-.06.25-.08.5-.09.66-.13,3.08,2.28,3.88,4.4,2.48.6.98,1.62,1.65,2.75,1.97.54.96,1.34,1.76,2.36,2.27,2.92,1.44,7.35-.1,9.67-2.1,2.27-1.95,3.67-5.07,3.25-8.08Z"/>
      <path class="cls-5" d="M45.81,40.11c.29-2.12,1.89-4.46,4.03-4.6-1.45-2.7-1.93-5.96-1.11-8.92.53-1.92,2.6-4.05,4.35-3,.34-1.61,1.31-3.35,3.07-3.17,1.18.12,2.23.82,3.01,1.77.31-1.67,1.51-2.73,2.65-2.15-.25-2.56-.07-6.75,2.42-5.99,2.31.71,2.22,3.61,1.8,6.04.5-.26,1.13-.19,2,.28,1.51.82,1.56,2.39,1.15,3.88,1.93-.41,3.36,2.03,3.51,3.94.12,1.47-.27,3.11-1.08,4.45,1.19.8,1.94,2.63,1.87,4.05-.13,3.03-2.24,6.03-5.32,6.19.06.25.08.5.09.66.13,3.08-2.28,3.88-4.4,2.48-.6.98-1.62,1.65-2.75,1.97-.54.96-1.34,1.76-2.36,2.27-2.92,1.44-7.35-.1-9.67-2.1-2.27-1.95-3.67-5.07-3.25-8.08Z"/>
      <path class="cls-5" d="M38,42.28c-.63-1.61-2.55-2.85-4.15-2.56.43-1.38.42-2.87-1.09-3.58-.5-.23-1.01-.23-1.48-.07,1.24-2.93,1.43-6.64-.47-9.03-1-1.27-2.65-1.49-4.08-.82-1.68.78-2.48,2.48-3.08,4.15-1.31-.39-2.89,2.71-2.75,4.97-.97-.85-2.48-1.04-3.76-.32-2.18,1.23-2.64,3.81-1.88,5.98-3.26-.25-4.89,3.85-3.17,5.93-.4.6-.65,1.32-.67,2.04-.06,2.17,1.63,3.68,3.45,4.54-2.56,3,.77,7.46,4.44,5.72.62,1.23,1.67,2.26,3.15,2.28.95.01,1.73-.38,2.22-1.03.37.6.95,1.09,1.65,1.38,1.72.71,3.65-.04,4.97-1.22,2.61-2.35,4.32-6.4,1.76-9.09,1.1-.42,2.13-1.19,2.07-2.49-.01-.31-.1-.6-.23-.86,2.43-.34,4-3.63,3.1-5.92Z"/>
      <path class="cls-5" d="M153.71,40.45c-.63-1.61-2.55-2.85-4.15-2.56.43-1.38.42-2.87-1.09-3.58-.5-.23-1.01-.23-1.48-.07,1.24-2.93,1.43-6.64-.47-9.03-1-1.27-2.65-1.49-4.08-.82-1.68.78-2.48,2.48-3.08,4.15-1.31-.39-2.89,2.71-2.75,4.97-.97-.85-2.48-1.04-3.76-.32-2.18,1.23-2.64,3.81-1.88,5.98-3.26-.25-4.89,3.85-3.17,5.93-.4.6-.65,1.32-.67,2.04-.06,2.17,1.63,3.68,3.45,4.54-2.56,3,.77,7.46,4.44,5.72.62,1.23,1.67,2.26,3.15,2.28.95.01,1.73-.38,2.22-1.03.37.6.95,1.09,1.65,1.38,1.72.71,3.65-.04,4.97-1.22,2.61-2.35,4.32-6.4,1.76-9.09,1.1-.42,2.13-1.19,2.07-2.49-.01-.31-.1-.6-.23-.86,2.43-.34,4-3.63,3.1-5.92Z"/>
      <g>
        <path class="cls-5" d="M144.3,16.5c-.9-1.07-2.44-1.09-3.5-.42-.42-.91-1.36-1.68-2.37-1.28-1.53.61-.31,2.5.46,3.49-.8.91-.85,2.42.26,3.17,1.08.73,2.52.14,3.06-.94,1.02.34,1.99.18,2.53-.99.45-.97.24-2.21-.44-3.02Z"/>
        <path class="cls-5" d="M77.36,18.41c-.9-1.07-2.44-1.09-3.5-.42-.42-.91-1.36-1.68-2.37-1.28-1.53.61-.31,2.5.46,3.49-.8.91-.85,2.42.26,3.17,1.08.73,2.52.14,3.06-.94,1.02.34,1.99.18,2.53-.99.45-.97.24-2.21-.44-3.02Z"/>
        <path class="cls-5" d="M95.45,4.06c-.72-.37-1.38-.39-1.97-.2.04-1.4-.45-3.08-2.18-2.65-1.77.45-2.33,2.66-2.19,4.37-4-1.45-5.7,4.66-2.11,5.48-1,2.09,0,5.28,2.29,6.08,2.28.8,3.77-1.7,4.17-3.8.59.32,1.35.28,2.11-.16,1.62-.94,2.37-3.04,2.29-4.81-.07-1.62-.88-3.55-2.4-4.32Z"/>
        <path class="cls-5" d="M81.23,3.41c-1.99-1.07-3.52.52-1.87,4.01.34.72,1.26,1.49,2.13,1.14,1.83-.74,1.1-4.42-.26-5.15Z"/>
        <path class="cls-5" d="M41.98,17.11c-1.99-1.07-3.52.52-1.87,4.01.34.72,1.26,1.49,2.13,1.14,1.83-.74,1.1-4.42-.26-5.15Z"/>
        <path class="cls-5" d="M116.34,1.82c1.42-.76,2.51.37,1.34,2.86-.24.52-.9,1.07-1.52.82-1.3-.53-.79-3.16.18-3.68Z"/>
        <path class="cls-5" d="M83.41.18c1.12-.6,1.98.29,1.05,2.26-.19.41-.71.84-1.2.64-1.03-.42-.62-2.49.14-2.9Z"/>
        <path class="cls-5" d="M133.99,13.17c1.12-.6,1.98.29,1.05,2.26-.19.41-.71.84-1.2.64-1.03-.42-.62-2.49.14-2.9Z"/>
        <path class="cls-5" d="M48.1,19.5c1.12-.6,1.98.29,1.05,2.26-.19.41-.71.84-1.2.64-1.03-.42-.62-2.49.14-2.9Z"/>
        <path class="cls-5" d="M45.38,26.83c.31-.41.46-1.01.47-1.5.03-.96-.43-1.88-1.3-2.31-1.08-.53-2.22,0-2.63.9-1.08-.8-2.56-1.17-2.85.49-.14.8.34,1.46.96,1.91-.64.02-1.25.33-1.49,1-.57,1.62,1.07,2.3,2.41,2.34.43,2.04,3,3.86,4.7,1.98,1.23-1.36,1.05-3.76-.26-4.82Z"/>
        <path class="cls-5" d="M136.07,22.26c.31-.41.46-1.01.47-1.5.03-.96-.43-1.88-1.3-2.31-1.08-.53-2.22,0-2.63.9-1.08-.8-2.56-1.17-2.85.49-.14.8.34,1.46.96,1.91-.64.02-1.25.33-1.49,1-.57,1.62,1.07,2.3,2.41,2.34.43,2.04,3,3.86,4.7,1.98,1.23-1.36,1.05-3.76-.26-4.82Z"/>
      </g>
      <g>
        <path class="cls-14" d="M165.85,70.09c-.68,2.25-2.26,4.79-4.03,6.32,2.45-5.84,3.37-12.59-.19-19.22-.08,2.26-.26,4.5-.99,6.66-.56,1.65-1.42,3.16-2.29,4.66.1-2.45-.15-4.91-.41-6.83-.83-6.11-4.68-12.67-7.28-15.91-.96,3.68-2.74,7.84-5.23,10.81-2.22,2.64-4.47,5.09-5.94,8.26-2.46,5.27-2.75,11.79.56,16.73-1.52,2.12-.13,5.28,1.83,6.82,2.47,1.95,5.95,2.16,8.66.64,1.75,2.51,5.24,2.54,7,.04.91.52,2.48.82,3.45.25,1.89-1.1.48-3.17,1.19-4.9.99-2.38,3.65-3.69,4.51-6.18.71-2.03.23-6.24-.84-8.17Z"/>
        <path class="cls-1" d="M158.43,74.27c-.64,1.65-2.38,3.11-3.81,4.23.33-.59.62-1.19.84-1.84.79-2.34,1.54-5.97,1-8.46-.51,2.23-2.11,3.52-4.14,4.62,1.09-1.89,2.19-5.48,1.89-7.72-.48-3.6-1.89-7.63-3.55-10.04,0,3.45-1.84,5.2-3.13,6.98-1.45,2.01-3.36,3.66-4.75,5.7-.91,1.34-1.34,7.05.88,9.29-3.12,3.33-2.72,5.86-.94,8.17,2.33,3.03,6.59,2.65,8.22,1.15,2.72.55,6.45.24,7.83-2.22,1.76-3.13.58-6.6-.34-9.87Z"/>
        <path class="cls-2" d="M152.33,74.39c-.79.82-1.84,1.51-2.92,2.2-.3-1.4.65-3.26,1.02-4.45.33-1.06.64-2.14.79-3.24.22-1.65-.02-3.36-1.11-5.73-1.41,2.6-4.21,5.78-4.52,8.83-.14,1.43.4,2.86,1.4,3.83-.9.87-1.74,1.79-2.13,2.9-.22.62-.27,1.37-.09,2.02-.15.32-.29.64-.37,1-.49,2.08.88,4.24,2.92,4.16,1.11.22,3.19.02,3.63-2.49.17-.96-.9-1.85-.84-2.78.11-1.96,2.22-2.68,2.22-6.25Z"/>
        <path class="cls-2" d="M157.33,78.16c-1.02,1.05-2.4,1.77-3.34,2.87-.81.95-1.13,2.58-1.03,3.76.97.38,2.29.15,3.04-.16.57-.23,1.08-.67,1.38-1.21.74-1.33-.02-5.29-.04-5.27Z"/>
      </g>
      <g>
        <path class="cls-14" d="M13.49,76.93c.68,2.25,2.26,4.79,4.03,6.32-2.45-5.84-3.37-12.59.19-19.22.08,2.26.26,4.5.99,6.66.56,1.65,1.42,3.16,2.29,4.66-.1-2.45.15-4.91.41-6.83.83-6.11,4.68-12.67,7.28-15.91.96,3.68,2.74,7.84,5.23,10.81,2.22,2.64,4.47,5.09,5.94,8.26,2.46,5.27,2.75,11.79-.56,16.73,1.52,2.12.13,5.28-1.83,6.82-2.47,1.95-5.95,2.16-8.66.64-1.75,2.51-5.24,2.54-7,.04-.91.52-2.48.82-3.45.25-1.89-1.1-.48-3.17-1.19-4.9-.99-2.38-3.65-3.69-4.51-6.18-.71-2.03-.23-6.24.84-8.17Z"/>
        <path class="cls-1" d="M20.91,81.11c.64,1.65,2.38,3.11,3.81,4.23-.33-.59-.62-1.19-.84-1.84-.79-2.34-1.54-5.97-1-8.46.51,2.23,2.11,3.52,4.14,4.62-1.09-1.89-2.19-5.48-1.89-7.72.48-3.6,1.89-7.63,3.55-10.04,0,3.45,1.84,5.2,3.13,6.98,1.45,2.01,3.36,3.66,4.75,5.7.91,1.34,1.34,7.05-.88,9.29,3.12,3.33,2.72,5.86.94,8.17-2.33,3.03-6.59,2.65-8.22,1.15-2.72.55-6.45.24-7.83-2.22-1.76-3.13-.58-6.6.34-9.87Z"/>
        <path class="cls-2" d="M27,81.23c.79.82,1.84,1.51,2.92,2.2.3-1.4-.65-3.26-1.02-4.45-.33-1.06-.64-2.14-.79-3.24-.22-1.65.02-3.36,1.11-5.73,1.41,2.6,4.21,5.78,4.52,8.83.14,1.43-.4,2.86-1.4,3.83.9.87,1.74,1.79,2.13,2.9.22.62.27,1.37.09,2.02.15.32.29.64.37,1,.49,2.08-.88,4.24-2.92,4.16-1.11.22-3.19.02-3.63-2.49-.17-.96.9-1.85.84-2.78-.11-1.96-2.22-2.68-2.22-6.25Z"/>
        <path class="cls-2" d="M22,85c1.02,1.05,2.4,1.77,3.34,2.87.81.95,1.13,2.58,1.03,3.76-.97.38-2.29.15-3.04-.16-.57-.23-1.08-.67-1.38-1.21-.74-1.33.02-5.29.04-5.27Z"/>
      </g>
      <g>
        <path class="cls-14" d="M102.79,56.4c-.6,1.99-2,4.23-3.56,5.59,2.17-5.16,2.98-11.13-.17-17-.07,2-.23,3.98-.88,5.89-.5,1.46-1.26,2.79-2.02,4.12.08-2.16-.13-4.34-.36-6.04-.73-5.4-4.13-11.2-6.43-14.06-.85,3.25-2.42,6.93-4.62,9.55-1.96,2.34-3.95,4.5-5.25,7.3-2.17,4.66-2.43,10.42.5,14.79-1.34,1.87-.11,4.67,1.62,6.03,2.19,1.73,5.26,1.91,7.65.57,1.55,2.22,4.63,2.24,6.19.04.81.46,2.19.73,3.05.22,1.67-.97.42-2.8,1.05-4.33.87-2.11,3.23-3.26,3.99-5.46.62-1.8.21-5.52-.74-7.22Z"/>
        <path class="cls-1" d="M96.22,60.1c-.57,1.45-2.1,2.75-3.37,3.74.29-.52.55-1.05.74-1.63.7-2.07,1.36-5.28.88-7.48-.45,1.98-1.87,3.11-3.66,4.08.97-1.67,1.94-4.84,1.67-6.82-.43-3.18-1.67-6.75-3.13-8.87,0,3.05-1.63,4.6-2.77,6.17-1.29,1.77-2.97,3.24-4.2,5.04-.81,1.18-1.19,6.23.78,8.21-2.76,2.94-2.4,5.18-.83,7.23,2.06,2.68,5.83,2.34,7.26,1.01,2.41.49,5.7.22,6.92-1.96,1.56-2.77.51-5.83-.3-8.72Z"/>
        <path class="cls-2" d="M90.84,60.21c-.69.73-1.63,1.34-2.59,1.94-.27-1.24.58-2.88.9-3.94.29-.94.57-1.89.7-2.87.19-1.46-.02-2.97-.98-5.06-1.25,2.3-3.73,5.11-4,7.81-.13,1.27.36,2.53,1.24,3.38-.8.77-1.54,1.58-1.88,2.56-.19.55-.24,1.21-.08,1.78-.14.28-.25.57-.33.89-.44,1.84.78,3.75,2.58,3.68.98.2,2.82.01,3.21-2.2.15-.85-.79-1.64-.75-2.46.1-1.73,1.97-2.37,1.96-5.53Z"/>
        <path class="cls-2" d="M95.26,63.54c-.9.92-2.13,1.57-2.96,2.54-.72.84-1,2.28-.91,3.33.86.33,2.03.13,2.68-.14.5-.21.96-.59,1.22-1.07.65-1.18-.02-4.68-.04-4.65Z"/>
      </g>
      <g>
        <path class="cls-6" d="M126.97,21.08c-.57.86-1.19,1.54-1.69,2.66-.73,1.64-1.39,3.88-2.77,6.12-.71,1.14-2.61,2.49-3.31,3.61-2.22,3.56-4.17,6.03-4.25,8.21-.16,4.35-.3,6.34-.11,10.87.09,2.2-.55,7.4-.72,10.86-.22,4.72.14,9.53.31,11.42.17,1.92-3.13,1.71-3.13,0,0-3.59.34-14.13.94-18.18.6-4.05.15-11.8.75-16.09.15-1.04,2.14-3.43,3.3-5.1,1.28-1.85,3.82-3.98,5.3-5.96,2.7-3.59,2.37-7.14,5.38-8.43Z"/>
        <path class="cls-6" d="M112.94,48.2s1.26.91,3.49,1.77c2.68,1.03,6.49,2.04,7.63,2.34,2.51.65,4.16,1.41,5.44,2.56,1.56,1.4,1.92,2.59,2.87,3.87-1.88-1.52-2.41-3.28-4.66-4.22-2.25-.94-6.35-2.11-9.49-2.93-3.14-.82-5.3-2.06-5.3-2.06v-1.33Z"/>
        <path class="cls-6" d="M131.43,52.3c-1.01.1-2.2,0-3.1,0s-1.35.77-1.86,1.16c-.51.39-.85,0-.68-.29.17-.3,1.24-1.13,2.25-1.35,1.01-.23,2.65.11,3.38.48Z"/>
        <path class="cls-6" d="M124.66,53.17s-.62.34-.91,1.86c-.28,1.52-.14,2.81.06,4.28.1.76-.19,1.52-.19,1.52,0,0-.3-.9-.56-2.37-.26-1.47-.31-2.23,0-3.61.31-1.38.98-2.17.98-2.17l.62.48Z"/>
        <path class="cls-6" d="M113.84,42.22s-2.52,1.93-4.04,2.65-2.75,1.25-3.64,2.53c-.89,1.28-3.82,2.71-3.82,2.71,0,0,2.37-1.73,3.82-3.54,1.44-1.8,3.55-2.48,4.9-3.61,1.35-1.13,2.12-1.36,2.12-1.36,0,0,.66,0,.66.6Z"/>
        <path class="cls-6" d="M133.81,40.73s-2.86,1.5-5.23,2.33c-2.36.83-2.84.58-5.16-.9-1.74-1.11-3.29-.08-4.72-.53-1.43-.45-4.06-1.8-4.06-1.8l.74-.83s1.44.9,2.94,1.5c1.5.6,4.31.17,5.43.72,1.11.55,1.86,1.68,3.22,1.53,1.35-.15,6.01-2.25,6.84-2.03Z"/>
        <path class="cls-6" d="M129.83,46.37s.32-.71,0-2.18c-.32-1.47-.78-2.03-.78-2.03l-.46.53s.94,1.73,1.24,3.68Z"/>
        <path class="cls-6" d="M126.97,39s-.86.65-2.31,1.35c-1.45.7-2,1.2-2,1.2h-.87s1.05-1.05,2.44-1.73c1.39-.68,2.74-.83,2.74-.83Z"/>
        <path class="cls-6" d="M119.91,41.56s-.23,1.2.79,2.71c1.02,1.5,1.78,1.79,2.31,3.05.53,1.28.07,3.19.07,3.19,0,0-.36-1.98-.9-3.08-.77-1.55-2.33-2.74-2.71-3.96s0-2.23,0-2.23l.45.33Z"/>
        <path class="cls-6" d="M121.79,30.13s1.04,1.47,1.73,2.4c.87,1.17,2.1.98,3.08,1.74.98.75,1.65,2.37,1.65,2.37,0,0-1.12-1.5-2.37-2.1-1.25-.6-1.51-.22-2.82-1.6-1.31-1.37-1.89-2.27-1.89-2.27l.61-.53Z"/>
        <path class="cls-6" d="M129.28,27.8s-1.06,1.09-1.97,1.92c-.9.83-2.16,1.24-3.08,1.07-.92-.17-3.05-.13-3.05-.13l.42-1.14s1.43.69,2.78.62c1.35-.08,2.37-.53,2.99-1.09.62-.56,1.91-1.24,1.91-1.24Z"/>
        <path class="cls-6" d="M126.58,48.2s-2.82.45-4.2.65c-1.47.21-2.36,1.83-2.79,2.3s-.73,0-.73,0h-.68s.34-.07,1.29-1.07c.96-1.01,1.13-1.77,3-1.87,1.87-.1,4.1,0,4.1,0Z"/>
        <path class="cls-6" d="M105.97,23.05s1.03,2.45,1.65,4.99c.62,2.54,1.87,4.88,3.06,6.23,1.18,1.35,4.71,3.66,4.71,3.66l-.53.68s-3.02-1.98-4.71-3.95c-1.69-1.97-2.89-4.45-3.06-5.97-.17-1.52-1.11-5.64-1.11-5.64Z"/>
        <path class="cls-6" d="M111.27,26.26s.11,2.2-.51,3.66c-1.05,2.51-1.52,2.67-1.52,2.67l-.29-.49s.9-1.05,1.36-2.52c.45-1.47.96-3.33.96-3.33Z"/>
        <path class="cls-6" d="M104.17,25.61s.96,1.67,1.8,2.34c.85.68,1.58,1.07,1.58,1.07l-.17.9s-1.07-.68-1.85-1.69-1.35-2.63-1.35-2.63Z"/>
        <path class="cls-6" d="M110.42,34.54s-.95.81-1.99,1.28c-1.04.47-1.71.31-2.51.41-.81.09-2.32.35-2.32.35,0,0,.38-.55,1.56-.85,1.18-.3,2.82-.21,3.42-.7.6-.49,1.57-1.1,1.57-1.1l.26.61Z"/>
        <path class="cls-6" d="M114.18,14.33s.34,2.03,1.41,4.51c1.07,2.48,1.41,4.16,1.18,5.89s-.38,4.65.12,6.46c.5,1.8.78,3.19.78,3.19l-.86.97s-.44-2.58-.89-4.95.23-5.98,0-8c-.23-2.03-1.41-4.23-1.75-5.69-.34-1.47,0-2.37,0-2.37Z"/>
        <path class="cls-6" d="M119.14,22.39c.39.34.82,1.44,1.52,2.45,1.13,1.61,2.41,2.97,2.41,2.97l-.22.45s-2.02-1.86-2.81-3.35c-.79-1.49-.9-2.51-.9-2.51Z"/>
        <path class="cls-6" d="M120.21,17.38s-.9,2.25-1.63,3.33c-.73,1.07-2.14,1.69-2.14,1.69v-.73s1.3-.4,1.75-1.35c.39-.85,2.03-2.93,2.03-2.93Z"/>
        <path class="cls-6" d="M111.82,16.64s1.29,1.52,2.21,2.09c.92.56,1.45.84,1.45.84l.28.56s-1.17-.06-2.39-1.18c-1.22-1.13-1.55-2.31-1.55-2.31Z"/>
        <path class="cls-6" d="M111.82,21.55s1.55.96,2.21,2.14c.66,1.18,2.41,2.25,2.41,2.25l-.51.51s-1.9-1.41-2.56-2.45c-.66-1.04-1.55-2.45-1.55-2.45Z"/>
        <path class="cls-6" d="M110.76,43.8s-2.03-1.26-3.78-1.6c-1.75-.34-3.21-.51-3.21-.51,0,0,.83.76,2.3,1.03,1.47.27,3.9,1.51,3.9,1.51l.79-.43Z"/>
        <path class="cls-6" d="M113.78,49.56s-3.56,3.4-7.04,3.11c-3.48-.3-6.51,2.74-8.96,3.4s-3.48,0-3.48,0c0,0,2.52-.15,3.33-.81s5.25-2.96,6.59-3.18,3.76-.38,5.85-1.33c2.09-.96,3.16-2.09,3.16-2.09l.55.91Z"/>
        <path class="cls-6" d="M103.2,52.81s.37,2.07,0,4c-.37,1.92,0,3.18,0,3.18,0,0-1.04-1.33-.89-3.03.15-1.7-.03-3.69-.03-3.69l.92-.46Z"/>
      </g>
      <g>
        <path class="cls-6" d="M73.65,29.05c-.57.86-1.19,1.54-1.69,2.66-.73,1.64-1.39,3.88-2.77,6.12-.71,1.14-2.61,2.49-3.31,3.61-2.22,3.56-4.17,6.03-4.25,8.21-.16,4.35-.3,6.34-.11,10.87.09,2.2-.55,7.4-.72,10.86-.22,4.72.14,9.53.31,11.42.17,1.92-3.13,1.71-3.13,0,0-3.59.34-14.13.94-18.18.6-4.05.15-11.8.75-16.09.15-1.04,2.14-3.43,3.3-5.1,1.28-1.85,3.82-3.98,5.3-5.96,2.7-3.59,2.37-7.14,5.38-8.43Z"/>
        <path class="cls-6" d="M59.62,56.16s1.26.92,3.49,1.77c2.68,1.03,6.49,2.04,7.63,2.34,2.51.65,4.16,1.41,5.44,2.56,1.56,1.4,1.92,2.59,2.87,3.87-1.88-1.52-2.41-3.28-4.66-4.22-2.25-.94-6.35-2.11-9.49-2.93-3.14-.82-5.3-2.06-5.3-2.06v-1.33Z"/>
        <path class="cls-6" d="M78.1,60.27c-1.01.1-2.2,0-3.1,0s-1.35.77-1.86,1.16c-.51.39-.85,0-.68-.29.17-.3,1.24-1.13,2.25-1.35,1.01-.23,2.65.11,3.38.48Z"/>
        <path class="cls-6" d="M71.34,61.14s-.62.34-.91,1.86c-.28,1.52-.14,2.81.06,4.28.1.76-.19,1.52-.19,1.52,0,0-.3-.9-.56-2.37-.26-1.47-.31-2.23,0-3.61.31-1.38.98-2.17.98-2.17l.62.48Z"/>
        <path class="cls-6" d="M60.52,50.19s-2.52,1.93-4.04,2.65c-1.52.73-2.75,1.25-3.64,2.53-.89,1.28-3.82,2.71-3.82,2.71,0,0,2.37-1.73,3.82-3.54s3.55-2.48,4.9-3.61c1.35-1.13,2.12-1.36,2.12-1.36,0,0,.66,0,.66.6Z"/>
        <path class="cls-6" d="M80.49,48.7s-2.86,1.5-5.23,2.33c-2.36.83-2.84.58-5.16-.9-1.74-1.11-3.29-.08-4.72-.53s-4.06-1.8-4.06-1.8l.74-.83s1.44.9,2.94,1.5c1.5.6,4.31.17,5.43.72,1.11.55,1.86,1.68,3.22,1.53s6.01-2.25,6.84-2.03Z"/>
        <path class="cls-6" d="M76.51,54.34s.32-.71,0-2.18c-.32-1.47-.78-2.03-.78-2.03l-.46.53s.94,1.73,1.24,3.68Z"/>
        <path class="cls-6" d="M73.65,46.97s-.86.65-2.31,1.35c-1.45.7-2,1.2-2,1.2h-.87s1.05-1.05,2.44-1.73c1.39-.68,2.74-.83,2.74-.83Z"/>
        <path class="cls-6" d="M66.59,49.53s-.23,1.2.79,2.71c1.02,1.5,1.78,1.79,2.31,3.05.53,1.28.07,3.19.07,3.19,0,0-.36-1.97-.9-3.08-.77-1.55-2.33-2.74-2.71-3.96s0-2.23,0-2.23l.45.33Z"/>
        <path class="cls-6" d="M68.46,38.1s1.04,1.47,1.73,2.4c.87,1.17,2.1.99,3.08,1.74.98.75,1.65,2.37,1.65,2.37,0,0-1.12-1.5-2.37-2.1-1.25-.6-1.51-.22-2.82-1.6s-1.89-2.27-1.89-2.27l.61-.53Z"/>
        <path class="cls-6" d="M75.96,35.77s-1.06,1.09-1.97,1.92c-.9.83-2.16,1.24-3.08,1.07s-3.05-.13-3.05-.13l.42-1.14s1.43.69,2.78.62,2.37-.53,2.99-1.09c.62-.56,1.91-1.24,1.91-1.24Z"/>
        <path class="cls-6" d="M73.26,56.16s-2.82.45-4.2.65c-1.47.21-2.36,1.83-2.79,2.3-.43.47-.73,0-.73,0h-.68s.34-.07,1.29-1.07c.96-1.01,1.13-1.77,3-1.87,1.87-.1,4.1,0,4.1,0Z"/>
        <path class="cls-6" d="M52.65,31.02s1.03,2.45,1.65,4.99c.62,2.54,1.87,4.88,3.06,6.23,1.18,1.35,4.71,3.66,4.71,3.66l-.53.68s-3.02-1.98-4.71-3.95c-1.69-1.97-2.89-4.45-3.06-5.97s-1.11-5.64-1.11-5.64Z"/>
        <path class="cls-6" d="M57.95,34.23s.11,2.2-.51,3.66c-1.05,2.51-1.52,2.67-1.52,2.67l-.29-.49s.9-1.05,1.36-2.52c.45-1.47.96-3.33.96-3.33Z"/>
        <path class="cls-6" d="M50.85,33.58s.96,1.67,1.8,2.34c.85.68,1.58,1.07,1.58,1.07l-.17.9s-1.07-.68-1.85-1.69c-.79-1.01-1.35-2.63-1.35-2.63Z"/>
        <path class="cls-6" d="M57.1,42.51s-.95.81-1.99,1.28c-1.04.47-1.71.32-2.51.41-.81.09-2.32.35-2.32.35,0,0,.38-.55,1.56-.85,1.18-.31,2.82-.21,3.42-.7.6-.49,1.57-1.1,1.57-1.1l.26.61Z"/>
        <path class="cls-6" d="M60.85,22.3s.34,2.03,1.41,4.51c1.07,2.48,1.41,4.16,1.18,5.89-.23,1.72-.38,4.66.12,6.46.5,1.8.78,3.19.78,3.19l-.86.97s-.44-2.58-.89-4.95.23-5.98,0-8c-.23-2.03-1.41-4.23-1.75-5.69-.34-1.47,0-2.37,0-2.37Z"/>
        <path class="cls-6" d="M65.82,30.36c.39.34.82,1.44,1.52,2.45,1.13,1.61,2.41,2.97,2.41,2.97l-.22.45s-2.02-1.86-2.81-3.35c-.79-1.49-.9-2.51-.9-2.51Z"/>
        <path class="cls-6" d="M66.89,25.34s-.9,2.25-1.63,3.33c-.73,1.07-2.14,1.69-2.14,1.69v-.73s1.3-.4,1.75-1.35c.39-.85,2.03-2.93,2.03-2.93Z"/>
        <path class="cls-6" d="M58.49,24.61s1.29,1.52,2.21,2.09c.92.56,1.45.84,1.45.84l.28.56s-1.16-.06-2.39-1.18c-1.22-1.13-1.55-2.31-1.55-2.31Z"/>
        <path class="cls-6" d="M58.49,29.51s1.55.96,2.21,2.14c.66,1.18,2.41,2.25,2.41,2.25l-.51.51s-1.9-1.41-2.56-2.45c-.66-1.04-1.55-2.45-1.55-2.45Z"/>
        <path class="cls-6" d="M57.43,51.77s-2.03-1.26-3.78-1.6-3.21-.51-3.21-.51c0,0,.83.76,2.3,1.03,1.47.27,3.9,1.51,3.9,1.51l.79-.43Z"/>
        <path class="cls-6" d="M60.46,57.52s-3.56,3.4-7.04,3.11c-3.48-.3-6.51,2.74-8.96,3.4-2.44.67-3.48,0-3.48,0,0,0,2.52-.15,3.33-.81.81-.67,5.25-2.96,6.59-3.18,1.33-.22,3.76-.38,5.85-1.33,2.09-.96,3.16-2.09,3.16-2.09l.55.91Z"/>
        <path class="cls-6" d="M49.88,60.78s.37,2.07,0,4c-.37,1.92,0,3.18,0,3.18,0,0-1.04-1.33-.89-3.03.15-1.7-.03-3.69-.03-3.69l.92-.46Z"/>
      </g>
      <g>
        <path class="cls-14" d="M70.91,62.33s1.33,2.86,4.21,5.99c2.89,3.13,5.95,4.78,4.59,9.7-1.36,4.92-7,3.19-7,3.19,0,0-1.54,4.06-5.33,3.68-3.8-.38-8.05-3.75-5.08-8.32,2.97-4.57,3.11-8.44,3.11-8.44,0,0,1.5,2.86,2.09,3.81.59.96,1.01,3.65,1.01,3.65,0,0,2.05-1.09,1.16-4.37-.9-3.28-.33-6.17,1.25-8.9Z"/>
        <path class="cls-1" d="M71.21,65.3s.76,2.49,2.1,4.62c.95,1.52,3.35,2.53,3.65,4.53.73,4.88-2.75,4.4-2.75,4.4,0,0-.34.98-1.71,1.39-1.45.43-2.2-.23-2.2-.23,0,0-.34,2.84-2.93,2.55-2.59-.29-3.4-1.96-2.49-4.11.91-2.15.96-4.82.96-4.82,0,0,1.34,1.16,1.7,2.44.34,1.19.06,2.71.06,2.71,0,0,1.73-.45,3.06-2.59,1.33-2.14.49-2.75,0-5.64-.44-2.59.54-5.24.54-5.24Z"/>
        <path class="cls-2" d="M72.25,70.15s1.44,1.55,2.88,4.06c1.45,2.54-1.31,2.82-1.31,2.82,0,0-.41,1.3-1.31,1.58-.9.28-1.84-.28-1.84-.28,0,0,1.67-1.47,1.84-3.27.17-1.8-.73-3.55-.26-4.9Z"/>
      </g>
      <g>
        <path class="cls-14" d="M48.02,81.28c.5,1.66,1.66,3.52,2.97,4.65-1.81-4.29-2.48-9.27.14-14.15.06,1.66.19,3.31.73,4.9.41,1.22,1.05,2.32,1.68,3.43-.07-1.8.11-3.61.3-5.02.61-4.5,3.44-9.32,5.35-11.71.71,2.71,2.01,5.77,3.85,7.95,1.64,1.95,3.29,3.75,4.37,6.08,1.81,3.88,2.02,8.68-.41,12.31,1.12,1.56.1,3.88-1.35,5.02-1.82,1.44-4.38,1.59-6.37.47-1.29,1.85-3.86,1.87-5.15.03-.67.38-1.82.6-2.54.19-1.39-.81-.35-2.33-.88-3.6-.73-1.75-2.68-2.71-3.32-4.54-.52-1.5-.17-4.59.62-6.01Z"/>
        <path class="cls-1" d="M53.48,84.36c.47,1.21,1.75,2.29,2.8,3.11-.24-.43-.46-.88-.62-1.35-.58-1.72-1.13-4.39-.73-6.23.37,1.64,1.55,2.59,3.05,3.4-.8-1.39-1.61-4.03-1.39-5.68.36-2.65,1.39-5.62,2.61-7.39,0,2.54,1.36,3.83,2.3,5.13,1.07,1.48,2.47,2.69,3.5,4.2.67.98.99,5.19-.65,6.83,2.3,2.45,2,4.31.69,6.02-1.72,2.23-4.85,1.95-6.05.84-2,.4-4.74.18-5.76-1.63-1.29-2.3-.42-4.85.25-7.26Z"/>
        <path class="cls-2" d="M57.96,84.44c.58.61,1.35,1.11,2.15,1.62.22-1.03-.48-2.4-.75-3.28-.24-.78-.47-1.57-.58-2.39-.16-1.21.02-2.47.81-4.21,1.04,1.91,3.1,4.26,3.33,6.5.11,1.05-.3,2.1-1.03,2.82.67.64,1.28,1.32,1.57,2.13.16.46.2,1.01.07,1.48.11.23.21.47.27.74.36,1.53-.65,3.12-2.15,3.06-.82.17-2.35.01-2.67-1.83-.13-.71.66-1.36.62-2.04-.08-1.44-1.64-1.97-1.63-4.6Z"/>
        <path class="cls-2" d="M54.28,87.22c.75.77,1.77,1.3,2.46,2.11.6.7.83,1.9.76,2.77-.72.28-1.69.11-2.23-.12-.42-.17-.8-.49-1.02-.89-.54-.98.01-3.89.03-3.87Z"/>
      </g>
      <g>
        <path class="cls-14" d="M107.84,73.12c.5,1.66,1.66,3.52,2.97,4.65-1.81-4.29-2.48-9.27.14-14.15.06,1.66.19,3.31.73,4.9.41,1.22,1.05,2.32,1.68,3.43-.07-1.8.11-3.61.3-5.02.61-4.5,3.44-9.32,5.35-11.71.71,2.71,2.01,5.77,3.85,7.95,1.64,1.95,3.29,3.75,4.37,6.08,1.81,3.88,2.02,8.68-.41,12.31,1.12,1.56.1,3.88-1.35,5.02-1.82,1.44-4.38,1.59-6.37.47-1.29,1.85-3.86,1.87-5.15.03-.67.38-1.82.6-2.54.19-1.39-.81-.35-2.33-.88-3.6-.73-1.75-2.68-2.71-3.32-4.54-.52-1.5-.17-4.59.62-6.01Z"/>
        <path class="cls-1" d="M113.3,76.2c.47,1.21,1.75,2.29,2.8,3.11-.24-.43-.46-.88-.62-1.35-.58-1.72-1.13-4.39-.73-6.23.37,1.64,1.55,2.59,3.05,3.4-.8-1.39-1.61-4.03-1.39-5.68.36-2.65,1.39-5.62,2.61-7.39,0,2.54,1.36,3.83,2.3,5.13,1.07,1.48,2.47,2.69,3.5,4.2.67.98.99,5.19-.65,6.83,2.3,2.45,2,4.32.69,6.02-1.72,2.23-4.85,1.95-6.05.84-2,.4-4.74.18-5.76-1.63-1.29-2.3-.42-4.85.25-7.26Z"/>
        <path class="cls-2" d="M117.78,76.29c.58.61,1.35,1.11,2.15,1.62.22-1.03-.48-2.4-.75-3.28-.24-.78-.47-1.57-.58-2.39-.16-1.21.02-2.47.81-4.21,1.04,1.91,3.1,4.26,3.33,6.5.11,1.05-.3,2.1-1.03,2.82.67.64,1.28,1.32,1.57,2.13.16.46.2,1.01.07,1.48.11.23.21.47.27.74.36,1.53-.65,3.12-2.15,3.06-.82.17-2.35.01-2.67-1.83-.13-.71.66-1.36.62-2.04-.08-1.44-1.64-1.97-1.63-4.6Z"/>
        <path class="cls-2" d="M114.1,79.07c.75.77,1.77,1.3,2.46,2.11.6.7.83,1.9.76,2.77-.72.28-1.69.11-2.23-.12-.42-.17-.8-.49-1.02-.89-.54-.98.01-3.89.03-3.87Z"/>
      </g>
      <g>
        <path class="cls-6" d="M126.5,37.54c.57.86,1.19,1.54,1.69,2.66.73,1.64,1.39,3.88,2.77,6.12.71,1.14,2.61,2.49,3.31,3.61,2.22,3.56,4.17,6.03,4.25,8.21.16,4.35.3,6.34.11,10.87-.09,2.2.55,7.4.72,10.86.22,4.72-.14,9.53-.31,11.42-.17,1.92,3.13,1.71,3.13,0,0-3.59-.34-14.13-.94-18.18-.6-4.05-.15-11.8-.75-16.09-.15-1.04-2.14-3.43-3.3-5.1-1.28-1.85-3.82-3.98-5.3-5.96-2.7-3.59-2.37-7.14-5.38-8.43Z"/>
        <path class="cls-6" d="M140.54,64.65s-1.26.92-3.49,1.77c-2.68,1.03-6.49,2.04-7.63,2.34-2.51.65-4.16,1.41-5.44,2.56-1.56,1.4-1.92,2.59-2.87,3.87,1.88-1.52,2.41-3.28,4.66-4.22,2.25-.94,6.35-2.11,9.49-2.93,3.14-.82,5.3-2.06,5.3-2.06v-1.33Z"/>
        <path class="cls-6" d="M122.05,68.76c1.01.1,2.2,0,3.1,0s1.35.77,1.86,1.16c.51.39.85,0,.68-.29-.17-.3-1.24-1.13-2.25-1.35-1.01-.23-2.65.11-3.38.49Z"/>
        <path class="cls-6" d="M128.81,69.63s.62.34.91,1.86c.28,1.52.14,2.81-.06,4.28-.1.76.19,1.52.19,1.52,0,0,.3-.9.56-2.37.26-1.47.31-2.23,0-3.61-.31-1.38-.98-2.17-.98-2.17l-.62.48Z"/>
        <path class="cls-6" d="M139.63,58.68s2.52,1.93,4.04,2.65c1.52.73,2.75,1.25,3.64,2.53.89,1.28,3.82,2.71,3.82,2.71,0,0-2.37-1.73-3.82-3.54s-3.55-2.48-4.9-3.61c-1.35-1.13-2.12-1.36-2.12-1.36,0,0-.66,0-.66.6Z"/>
        <path class="cls-6" d="M119.66,57.19s2.86,1.5,5.23,2.33c2.36.83,2.84.58,5.16-.9,1.74-1.11,3.29-.08,4.72-.53,1.43-.45,4.06-1.8,4.06-1.8l-.74-.83s-1.44.9-2.94,1.5c-1.5.6-4.31.17-5.43.72-1.11.55-1.86,1.68-3.22,1.53-1.35-.15-6.01-2.25-6.84-2.03Z"/>
        <path class="cls-6" d="M123.64,62.83s-.32-.71,0-2.18c.32-1.47.78-2.03.78-2.03l.46.53s-.94,1.73-1.24,3.68Z"/>
        <path class="cls-6" d="M126.5,55.46s.86.65,2.31,1.35c1.45.7,2,1.2,2,1.2h.87s-1.05-1.05-2.44-1.73c-1.39-.68-2.74-.83-2.74-.83Z"/>
        <path class="cls-6" d="M133.57,58.02s.23,1.2-.79,2.71c-1.02,1.5-1.78,1.79-2.31,3.05-.53,1.28-.07,3.19-.07,3.19,0,0,.36-1.97.9-3.08.77-1.55,2.33-2.74,2.71-3.96.38-1.22,0-2.23,0-2.23l-.45.33Z"/>
        <path class="cls-6" d="M131.69,46.59s-1.04,1.47-1.73,2.4c-.87,1.17-2.1.98-3.08,1.74-.98.75-1.65,2.37-1.65,2.37,0,0,1.12-1.5,2.37-2.1s1.51-.22,2.82-1.6,1.89-2.27,1.89-2.27l-.61-.53Z"/>
        <path class="cls-6" d="M124.2,44.26s1.06,1.09,1.97,1.92c.9.83,2.16,1.24,3.08,1.07.92-.17,3.05-.13,3.05-.13l-.42-1.14s-1.43.69-2.78.62-2.37-.53-2.99-1.09c-.62-.56-1.91-1.24-1.91-1.24Z"/>
        <path class="cls-6" d="M126.89,64.65s2.82.45,4.2.65c1.47.21,2.36,1.83,2.79,2.3.43.47.73,0,.73,0h.68s-.34-.07-1.29-1.07c-.96-1.01-1.13-1.77-3-1.87-1.87-.1-4.1,0-4.1,0Z"/>
        <path class="cls-6" d="M147.5,39.51s-1.03,2.45-1.65,4.99c-.62,2.54-1.87,4.88-3.06,6.23-1.18,1.35-4.71,3.66-4.71,3.66l.53.68s3.02-1.98,4.71-3.95c1.69-1.97,2.89-4.45,3.06-5.97s1.11-5.64,1.11-5.64Z"/>
        <path class="cls-6" d="M142.2,42.72s-.11,2.2.51,3.66c1.05,2.51,1.52,2.67,1.52,2.67l.29-.49s-.9-1.05-1.36-2.52c-.45-1.47-.96-3.33-.96-3.33Z"/>
        <path class="cls-6" d="M149.31,42.07s-.96,1.67-1.8,2.34c-.85.68-1.58,1.07-1.58,1.07l.17.9s1.07-.68,1.85-1.69c.79-1.01,1.35-2.63,1.35-2.63Z"/>
        <path class="cls-6" d="M143.05,51s.95.81,1.99,1.28c1.04.47,1.71.32,2.51.41.81.09,2.32.35,2.32.35,0,0-.38-.55-1.56-.85-1.18-.31-2.82-.21-3.42-.7-.6-.49-1.57-1.1-1.57-1.1l-.26.61Z"/>
        <path class="cls-6" d="M139.3,30.79s-.34,2.03-1.41,4.51c-1.07,2.48-1.41,4.16-1.18,5.89.23,1.72.38,4.66-.12,6.46-.5,1.8-.78,3.19-.78,3.19l.86.97s.44-2.58.89-4.95c.45-2.37-.23-5.98,0-8,.23-2.03,1.41-4.23,1.75-5.69.34-1.47,0-2.37,0-2.37Z"/>
        <path class="cls-6" d="M134.34,38.85c-.39.34-.82,1.44-1.52,2.45-1.13,1.61-2.41,2.97-2.41,2.97l.22.45s2.02-1.86,2.81-3.35c.79-1.49.9-2.51.9-2.51Z"/>
        <path class="cls-6" d="M133.26,33.83s.9,2.25,1.63,3.33c.73,1.07,2.14,1.69,2.14,1.69v-.73s-1.3-.4-1.75-1.35c-.39-.85-2.03-2.93-2.03-2.93Z"/>
        <path class="cls-6" d="M141.66,33.1s-1.29,1.52-2.21,2.09c-.92.56-1.45.84-1.45.84l-.28.56s1.16-.06,2.39-1.18c1.22-1.13,1.55-2.31,1.55-2.31Z"/>
        <path class="cls-6" d="M141.66,38.01s-1.55.96-2.21,2.14c-.66,1.18-2.41,2.25-2.41,2.25l.51.51s1.9-1.41,2.56-2.45c.66-1.04,1.55-2.45,1.55-2.45Z"/>
        <path class="cls-6" d="M142.72,60.26s2.03-1.26,3.78-1.6,3.21-.51,3.21-.51c0,0-.83.76-2.3,1.03s-3.9,1.51-3.9,1.51l-.79-.43Z"/>
        <path class="cls-6" d="M139.69,66.02s3.56,3.4,7.04,3.11c3.48-.3,6.51,2.74,8.96,3.4,2.44.67,3.48,0,3.48,0,0,0-2.52-.15-3.33-.81-.81-.67-5.25-2.96-6.59-3.18-1.33-.22-3.76-.38-5.85-1.33-2.09-.96-3.16-2.09-3.16-2.09l-.55.91Z"/>
        <path class="cls-6" d="M150.28,69.27s-.37,2.07,0,4c.37,1.92,0,3.18,0,3.18,0,0,1.04-1.33.89-3.03-.15-1.7.03-3.69.03-3.69l-.92-.46Z"/>
      </g>
      <g>
        <path class="cls-6" d="M24.43,42.02c.57.86,1.19,1.54,1.69,2.66.73,1.64,1.39,3.88,2.77,6.12.71,1.14,2.61,2.49,3.31,3.61,2.22,3.56,4.17,6.03,4.25,8.21.16,4.35.3,6.34.11,10.87-.09,2.2.55,7.4.72,10.86.23,4.72-.14,9.53-.31,11.42-.17,1.92,3.13,1.71,3.13,0,0-3.59-.34-14.13-.94-18.18-.6-4.05-.15-11.8-.75-16.09-.15-1.04-2.14-3.43-3.3-5.1-1.28-1.85-3.82-3.98-5.3-5.96-2.7-3.59-2.37-7.14-5.38-8.43Z"/>
        <path class="cls-6" d="M38.47,69.14s-1.26.92-3.49,1.77c-2.68,1.03-6.49,2.04-7.63,2.34-2.51.65-4.16,1.41-5.44,2.56-1.56,1.4-1.92,2.59-2.87,3.87,1.88-1.52,2.41-3.28,4.66-4.22s6.35-2.11,9.49-2.93c3.14-.82,5.3-2.06,5.3-2.06v-1.33Z"/>
        <path class="cls-6" d="M19.98,73.24c1.01.1,2.2,0,3.1,0s1.35.77,1.86,1.16c.51.39.85,0,.68-.29-.17-.3-1.24-1.13-2.25-1.35-1.01-.23-2.65.11-3.38.49Z"/>
        <path class="cls-6" d="M26.74,74.11s.62.34.91,1.86c.28,1.52.14,2.81-.06,4.28-.1.76.19,1.52.19,1.52,0,0,.3-.9.56-2.37.26-1.47.31-2.23,0-3.61-.31-1.38-.98-2.17-.98-2.17l-.62.48Z"/>
        <path class="cls-6" d="M37.57,63.16s2.52,1.93,4.04,2.65c1.52.73,2.75,1.25,3.64,2.53.89,1.28,3.82,2.71,3.82,2.71,0,0-2.37-1.73-3.82-3.54s-3.55-2.48-4.9-3.61-2.12-1.36-2.12-1.36c0,0-.66,0-.66.6Z"/>
        <path class="cls-6" d="M17.59,61.67s2.86,1.5,5.23,2.33c2.36.83,2.84.58,5.16-.9,1.74-1.11,3.29-.08,4.72-.53,1.43-.45,4.06-1.8,4.06-1.8l-.74-.83s-1.44.9-2.94,1.5-4.31.17-5.43.72-1.86,1.68-3.22,1.53c-1.35-.15-6.01-2.25-6.84-2.03Z"/>
        <path class="cls-6" d="M21.58,67.31s-.32-.71,0-2.18c.32-1.47.78-2.03.78-2.03l.46.53s-.94,1.73-1.24,3.68Z"/>
        <path class="cls-6" d="M24.43,59.94s.86.65,2.31,1.35c1.45.7,2,1.2,2,1.2h.87s-1.05-1.05-2.44-1.73c-1.39-.68-2.74-.83-2.74-.83Z"/>
        <path class="cls-6" d="M31.5,62.5s.23,1.2-.79,2.71c-1.02,1.5-1.78,1.79-2.31,3.05-.53,1.28-.07,3.19-.07,3.19,0,0,.36-1.97.9-3.08.77-1.55,2.33-2.74,2.71-3.96.38-1.22,0-2.23,0-2.23l-.45.33Z"/>
        <path class="cls-6" d="M29.62,51.07s-1.04,1.47-1.73,2.4c-.87,1.17-2.1.99-3.08,1.74-.98.75-1.65,2.37-1.65,2.37,0,0,1.12-1.5,2.37-2.1s1.51-.23,2.82-1.6c1.31-1.37,1.89-2.27,1.89-2.27l-.61-.53Z"/>
        <path class="cls-6" d="M22.13,48.74s1.06,1.09,1.97,1.92c.9.83,2.16,1.24,3.08,1.07.92-.17,3.05-.13,3.05-.13l-.42-1.14s-1.43.69-2.78.62c-1.35-.08-2.37-.53-2.99-1.09s-1.91-1.24-1.91-1.24Z"/>
        <path class="cls-6" d="M24.83,69.14s2.82.45,4.2.65c1.47.21,2.36,1.83,2.79,2.3.43.47.73,0,.73,0h.68s-.34-.07-1.29-1.07c-.96-1.01-1.13-1.77-3-1.87-1.87-.1-4.1,0-4.1,0Z"/>
        <path class="cls-6" d="M45.43,43.99s-1.03,2.45-1.65,4.99c-.62,2.54-1.87,4.88-3.06,6.23-1.18,1.35-4.71,3.66-4.71,3.66l.53.68s3.02-1.98,4.71-3.95c1.69-1.97,2.89-4.45,3.06-5.97.17-1.52,1.11-5.64,1.11-5.64Z"/>
        <path class="cls-6" d="M40.13,47.2s-.11,2.2.51,3.66c1.05,2.51,1.52,2.67,1.52,2.67l.29-.49s-.9-1.05-1.36-2.52c-.45-1.47-.96-3.33-.96-3.33Z"/>
        <path class="cls-6" d="M47.24,46.55s-.96,1.67-1.8,2.34c-.85.68-1.58,1.07-1.58,1.07l.17.9s1.07-.68,1.85-1.69,1.35-2.63,1.35-2.63Z"/>
        <path class="cls-6" d="M40.98,55.48s.95.81,1.99,1.28c1.04.47,1.71.31,2.51.41.81.09,2.32.35,2.32.35,0,0-.38-.55-1.56-.85-1.18-.31-2.82-.21-3.42-.7-.6-.49-1.57-1.1-1.57-1.1l-.26.61Z"/>
        <path class="cls-6" d="M37.23,35.27s-.34,2.03-1.41,4.51c-1.07,2.48-1.41,4.16-1.18,5.89.23,1.72.38,4.65-.12,6.46-.5,1.8-.78,3.19-.78,3.19l.86.97s.44-2.58.89-4.95c.45-2.37-.23-5.98,0-8,.23-2.03,1.41-4.23,1.75-5.69.34-1.47,0-2.37,0-2.37Z"/>
        <path class="cls-6" d="M32.27,43.33c-.39.34-.82,1.44-1.52,2.45-1.13,1.61-2.41,2.97-2.41,2.97l.22.45s2.02-1.86,2.81-3.35c.79-1.49.9-2.51.9-2.51Z"/>
        <path class="cls-6" d="M31.2,38.31s.9,2.25,1.63,3.33c.73,1.07,2.14,1.69,2.14,1.69v-.73s-1.3-.4-1.75-1.35c-.39-.85-2.03-2.93-2.03-2.93Z"/>
        <path class="cls-6" d="M39.59,37.58s-1.29,1.52-2.21,2.09c-.92.56-1.45.84-1.45.84l-.28.56s1.16-.06,2.39-1.18c1.22-1.13,1.55-2.31,1.55-2.31Z"/>
        <path class="cls-6" d="M39.59,42.49s-1.55.96-2.21,2.14-2.41,2.25-2.41,2.25l.51.51s1.9-1.41,2.56-2.45c.66-1.04,1.55-2.45,1.55-2.45Z"/>
        <path class="cls-6" d="M40.65,64.74s2.03-1.26,3.78-1.6c1.75-.34,3.21-.51,3.21-.51,0,0-.83.76-2.3,1.03-1.47.27-3.9,1.51-3.9,1.51l-.79-.43Z"/>
        <path class="cls-6" d="M37.62,70.5s3.56,3.4,7.04,3.11c3.48-.3,6.51,2.74,8.96,3.4,2.44.67,3.48,0,3.48,0,0,0-2.52-.15-3.33-.81-.81-.67-5.25-2.96-6.59-3.18-1.33-.22-3.76-.38-5.85-1.33-2.09-.96-3.16-2.09-3.16-2.09l-.55.91Z"/>
        <path class="cls-6" d="M48.21,73.75s-.37,2.07,0,4c.37,1.92,0,3.18,0,3.18,0,0,1.04-1.33.89-3.03s.03-3.69.03-3.69l-.92-.46Z"/>
      </g>
      <g>
        <path class="cls-14" d="M135.39,54.5c-.09-.56-.35-1.01-.68-1.47-.3-.43-.71-.8-1-1.26-.49-.78-.46-1.83.26-3.42-1.61.7-2.17,2.14-2.4,2.87.89-2.47-1.2-5.63-3.86-5.94,1.51,4.66-.14,6.32-.2,7.33-.02.37,0,.74.08,1.09-1.01-.85-1.87-.51-2.72-2.65-.18,2.67.47,5.11,3.07,6.59.99.56,1.96.63,3.06.42.88-.17,2.65-.49,2.74-.51,1.24-.33,1.84-1.84,1.64-3.04Z"/>
        <path class="cls-1" d="M132.57,51.51c-.21.27-.88,1.12-.59,2.28.11.45-.12,1.03-.52,1.32-.17.12-.32.14-.47.14.02-.28.05-.51.06-.55.07-.36.2-.7.24-1.07.06-.51.04-1.04-.06-1.55-.18-.89-1.06-2.09-1.65-2.96.33,2.15-.19,3.06-.41,3.74-.31.95-.71,1.87-.49,2.89.23,1.02,1.27,1.99,2.25,1.42.71.33,1.77.18,2.3-.43,1.32-1.51-.46-3.83-.66-5.24Z"/>
      </g>
      <g>
        <path class="cls-14" d="M116.02,37.36c.09-.56.35-1.01.68-1.47.3-.43.71-.8,1-1.26.49-.78.46-1.83-.26-3.42,1.61.7,2.17,2.14,2.4,2.87-.89-2.47,1.2-5.63,3.86-5.94-1.51,4.66.14,6.32.2,7.33.02.37,0,.74-.08,1.09,1.01-.85,1.87-.51,2.72-2.65.18,2.67-.47,5.11-3.07,6.59-.99.56-1.96.63-3.06.42-.88-.17-2.65-.49-2.74-.51-1.24-.33-1.84-1.84-1.64-3.04Z"/>
        <path class="cls-1" d="M118.85,34.37c.2.27.88,1.12.59,2.28-.11.45.12,1.03.52,1.32.17.12.32.14.47.14-.02-.28-.05-.51-.06-.55-.07-.36-.2-.7-.24-1.07-.06-.51-.04-1.04.06-1.55.18-.89,1.06-2.09,1.65-2.96-.33,2.15.19,3.06.41,3.74.31.95.71,1.87.49,2.89-.23,1.02-1.27,1.99-2.25,1.42-.71.33-1.78.18-2.3-.43-1.32-1.51.46-3.83.66-5.24Z"/>
      </g>
      <g>
        <path class="cls-14" d="M112.26,48.72c-.09-.56-.35-1.01-.68-1.47-.3-.43-.71-.8-1-1.26-.49-.78-.46-1.83.26-3.42-1.61.7-2.17,2.14-2.4,2.87.89-2.47-1.2-5.63-3.86-5.94,1.51,4.66-.14,6.32-.2,7.33-.02.37,0,.74.08,1.09-1.01-.85-1.87-.51-2.72-2.65-.18,2.67.47,5.11,3.07,6.59.99.56,1.96.63,3.06.42.88-.17,2.65-.49,2.74-.51,1.24-.33,1.84-1.84,1.64-3.04Z"/>
        <path class="cls-1" d="M109.44,45.73c-.2.27-.88,1.12-.59,2.28.11.45-.12,1.03-.52,1.32-.17.12-.32.14-.47.14.02-.28.05-.51.06-.55.07-.36.2-.7.24-1.07.06-.51.04-1.04-.06-1.55-.18-.89-1.06-2.09-1.65-2.96.33,2.15-.19,3.06-.41,3.74-.31.95-.71,1.87-.49,2.89.23,1.02,1.27,1.99,2.25,1.42.71.33,1.77.18,2.3-.43,1.32-1.51-.46-3.83-.66-5.24Z"/>
      </g>
      <g>
        <path class="cls-14" d="M50.13,68.98c-.09-.56-.35-1.01-.68-1.47-.3-.43-.71-.8-1-1.26-.49-.78-.46-1.83.26-3.42-1.61.7-2.17,2.14-2.4,2.87.89-2.47-1.2-5.63-3.86-5.94,1.51,4.66-.14,6.32-.2,7.33-.02.37,0,.74.08,1.09-1.01-.85-1.87-.51-2.72-2.65-.18,2.67.47,5.11,3.07,6.59.99.56,1.96.63,3.06.42.88-.17,2.65-.49,2.74-.51,1.24-.33,1.84-1.84,1.64-3.04Z"/>
        <path class="cls-1" d="M47.31,65.99c-.2.27-.88,1.12-.59,2.28.11.45-.12,1.03-.52,1.32-.17.12-.32.14-.47.14.02-.28.05-.51.06-.55.07-.36.2-.7.24-1.07.06-.51.04-1.04-.06-1.55-.18-.89-1.06-2.09-1.65-2.96.33,2.15-.19,3.06-.41,3.74-.31.95-.71,1.87-.49,2.89.23,1.02,1.27,1.99,2.25,1.42.71.33,1.77.18,2.3-.43,1.32-1.51-.46-3.83-.66-5.24Z"/>
      </g>
      <g>
        <path class="cls-14" d="M146,34.52s-.96.63-1.15,3.29c-.1-.45-.34-2.66-.86-3.97-1.45,3.1-1.77,10.08,2.2,10.53.79-1.49,2.01-2.72,1.93-4.51-.07-1.62-1.67-2.75-2.13-5.33Z"/>
        <path class="cls-1" d="M145.63,37.67c-.25.72-.43,1.4-.51,1.82-.24-.19-.7-.94-.7-.92,0,0-.43,1.65.19,2.88.2.39.95,1.27,1.52.85,1.85-1.39-.5-4.62-.5-4.63Z"/>
      </g>
      <g>
        <path class="cls-6" d="M75.12,26.32c.57.86,1.19,1.54,1.69,2.66.73,1.64,1.39,3.88,2.77,6.12.71,1.14,2.61,2.49,3.31,3.61,2.22,3.56,4.17,6.03,4.25,8.21.16,4.35.3,6.34.11,10.87-.09,2.2.55,7.4.72,10.86.23,4.72-.14,9.53-.31,11.42-.17,1.92,3.13,1.71,3.13,0,0-3.59-.34-14.13-.94-18.18-.6-4.05-.15-11.8-.75-16.09-.15-1.04-2.14-3.43-3.3-5.1-1.28-1.85-3.82-3.98-5.3-5.96-2.7-3.59-2.37-7.14-5.38-8.43Z"/>
        <path class="cls-6" d="M89.16,53.43s-1.26.91-3.49,1.77c-2.68,1.03-6.49,2.04-7.63,2.34-2.51.65-4.16,1.41-5.44,2.56-1.56,1.4-1.92,2.59-2.87,3.87,1.88-1.52,2.41-3.28,4.66-4.22,2.25-.94,6.35-2.11,9.49-2.93,3.14-.82,5.3-2.06,5.3-2.06v-1.33Z"/>
        <path class="cls-6" d="M70.67,57.54c1.01.1,2.2,0,3.1,0s1.35.77,1.86,1.16c.51.39.85,0,.68-.29-.17-.3-1.24-1.13-2.25-1.35s-2.65.11-3.38.49Z"/>
        <path class="cls-6" d="M77.43,58.4s.62.34.91,1.86c.28,1.52.14,2.81-.06,4.28-.1.76.19,1.52.19,1.52,0,0,.3-.9.56-2.37.26-1.47.31-2.23,0-3.61-.31-1.38-.98-2.17-.98-2.17l-.62.48Z"/>
        <path class="cls-6" d="M88.26,47.45s2.52,1.93,4.04,2.65c1.52.73,2.75,1.25,3.64,2.53.89,1.28,3.82,2.71,3.82,2.71,0,0-2.37-1.73-3.82-3.54-1.44-1.8-3.55-2.48-4.9-3.61-1.35-1.13-2.12-1.36-2.12-1.36,0,0-.66,0-.66.6Z"/>
        <path class="cls-6" d="M68.28,45.96s2.86,1.5,5.23,2.33c2.36.83,2.84.58,5.16-.9,1.74-1.11,3.29-.08,4.72-.53,1.43-.45,4.06-1.8,4.06-1.8l-.74-.83s-1.44.9-2.94,1.5c-1.5.6-4.31.17-5.43.72-1.11.55-1.86,1.68-3.22,1.53s-6.01-2.25-6.84-2.03Z"/>
        <path class="cls-6" d="M72.27,51.6s-.32-.71,0-2.18c.32-1.47.78-2.03.78-2.03l.46.53s-.94,1.73-1.24,3.68Z"/>
        <path class="cls-6" d="M75.12,44.24s.86.65,2.31,1.35c1.45.7,2,1.2,2,1.2h.87s-1.05-1.05-2.44-1.73c-1.39-.68-2.74-.83-2.74-.83Z"/>
        <path class="cls-6" d="M82.19,46.79s.23,1.2-.79,2.71c-1.02,1.5-1.78,1.79-2.31,3.05-.53,1.28-.07,3.19-.07,3.19,0,0,.36-1.97.9-3.08.77-1.55,2.33-2.74,2.71-3.96.38-1.22,0-2.23,0-2.23l-.45.33Z"/>
        <path class="cls-6" d="M80.31,35.37s-1.04,1.47-1.73,2.4c-.87,1.17-2.1.99-3.08,1.74-.98.75-1.65,2.37-1.65,2.37,0,0,1.12-1.5,2.37-2.1,1.25-.6,1.51-.23,2.82-1.6,1.31-1.37,1.89-2.27,1.89-2.27l-.61-.53Z"/>
        <path class="cls-6" d="M72.82,33.04s1.06,1.09,1.97,1.92c.9.83,2.16,1.24,3.08,1.07.92-.17,3.05-.13,3.05-.13l-.42-1.14s-1.43.69-2.78.62c-1.35-.08-2.37-.53-2.99-1.09s-1.91-1.24-1.91-1.24Z"/>
        <path class="cls-6" d="M75.52,53.43s2.82.45,4.2.65c1.47.21,2.36,1.83,2.79,2.3.43.47.73,0,.73,0h.68s-.34-.07-1.29-1.07c-.96-1.01-1.13-1.77-3-1.87-1.87-.1-4.1,0-4.1,0Z"/>
        <path class="cls-6" d="M96.12,28.28s-1.03,2.45-1.65,4.99-1.87,4.88-3.06,6.23c-1.18,1.35-4.71,3.66-4.71,3.66l.53.68s3.02-1.98,4.71-3.95c1.69-1.97,2.89-4.45,3.06-5.97.17-1.52,1.11-5.64,1.11-5.64Z"/>
        <path class="cls-6" d="M90.82,31.5s-.11,2.2.51,3.66c1.05,2.51,1.52,2.67,1.52,2.67l.29-.49s-.9-1.05-1.36-2.52c-.45-1.47-.96-3.33-.96-3.33Z"/>
        <path class="cls-6" d="M97.93,30.84s-.96,1.67-1.8,2.34-1.58,1.07-1.58,1.07l.17.9s1.07-.68,1.85-1.69c.79-1.01,1.35-2.63,1.35-2.63Z"/>
        <path class="cls-6" d="M91.67,39.77s.95.81,1.99,1.28c1.04.47,1.71.31,2.51.41.81.09,2.32.35,2.32.35,0,0-.38-.55-1.56-.85-1.18-.31-2.82-.21-3.42-.7-.6-.49-1.57-1.1-1.57-1.1l-.26.61Z"/>
        <path class="cls-6" d="M87.92,19.56s-.34,2.03-1.41,4.51-1.41,4.16-1.18,5.89c.23,1.72.38,4.65-.12,6.46-.5,1.8-.78,3.19-.78,3.19l.86.97s.44-2.58.89-4.95c.45-2.37-.23-5.98,0-8,.23-2.03,1.41-4.23,1.75-5.69.34-1.47,0-2.37,0-2.37Z"/>
        <path class="cls-6" d="M82.96,27.63c-.39.34-.82,1.44-1.52,2.45-1.13,1.61-2.41,2.97-2.41,2.97l.22.45s2.02-1.86,2.81-3.35c.79-1.49.9-2.51.9-2.51Z"/>
        <path class="cls-6" d="M81.89,22.61s.9,2.25,1.63,3.33c.73,1.07,2.14,1.69,2.14,1.69v-.73s-1.3-.4-1.75-1.35c-.39-.85-2.03-2.93-2.03-2.93Z"/>
        <path class="cls-6" d="M90.28,21.88s-1.29,1.52-2.21,2.09-1.45.84-1.45.84l-.28.56s1.16-.06,2.39-1.18c1.22-1.13,1.55-2.31,1.55-2.31Z"/>
        <path class="cls-6" d="M90.28,26.78s-1.55.96-2.21,2.14-2.41,2.25-2.41,2.25l.51.51s1.9-1.41,2.56-2.45,1.55-2.45,1.55-2.45Z"/>
        <path class="cls-6" d="M91.34,49.03s2.03-1.26,3.78-1.6c1.75-.34,3.21-.51,3.21-.51,0,0-.83.76-2.3,1.03-1.47.27-3.9,1.51-3.9,1.51l-.79-.43Z"/>
        <path class="cls-6" d="M88.31,54.79s3.56,3.4,7.04,3.11c3.48-.3,6.51,2.74,8.96,3.4,2.44.67,3.48,0,3.48,0,0,0-2.52-.15-3.33-.81s-5.25-2.96-6.59-3.18-3.76-.38-5.85-1.33c-2.09-.96-3.16-2.09-3.16-2.09l-.55.91Z"/>
        <path class="cls-6" d="M98.9,58.05s-.37,2.07,0,4c.37,1.92,0,3.18,0,3.18,0,0,1.04-1.33.89-3.03-.15-1.7.03-3.69.03-3.69l-.92-.46Z"/>
      </g>
      <g>
        <path class="cls-14" d="M84.01,43.27c-.09-.56-.35-1.01-.68-1.47-.3-.43-.71-.8-1-1.26-.49-.78-.46-1.83.26-3.42-1.61.7-2.17,2.14-2.4,2.87.89-2.47-1.2-5.63-3.86-5.94,1.51,4.66-.14,6.32-.2,7.33-.02.37,0,.74.08,1.09-1.01-.85-1.87-.51-2.72-2.65-.18,2.67.47,5.11,3.07,6.59.99.56,1.96.63,3.06.42.88-.17,2.65-.49,2.74-.51,1.24-.33,1.84-1.84,1.64-3.04Z"/>
        <path class="cls-1" d="M81.19,40.28c-.21.27-.88,1.12-.59,2.28.11.45-.12,1.03-.52,1.32-.17.12-.32.14-.47.14.02-.28.05-.51.06-.55.07-.36.2-.7.24-1.07.06-.51.04-1.04-.06-1.55-.18-.89-1.06-2.09-1.65-2.96.33,2.15-.19,3.06-.41,3.74-.31.95-.71,1.87-.49,2.89.23,1.02,1.27,1.99,2.25,1.42.71.33,1.77.18,2.3-.43,1.32-1.51-.46-3.83-.66-5.24Z"/>
      </g>
      <g>
        <path class="cls-14" d="M73.2,57.1c-.09-.56-.35-1.01-.68-1.47-.3-.43-.71-.8-1-1.26-.49-.78-.46-1.83.26-3.42-1.61.7-2.17,2.14-2.4,2.87.89-2.47-1.2-5.63-3.86-5.94,1.51,4.66-.14,6.32-.2,7.33-.02.37,0,.74.08,1.09-1.01-.85-1.87-.51-2.72-2.65-.18,2.67.47,5.11,3.07,6.59.99.56,1.96.63,3.06.42.88-.17,2.65-.49,2.74-.51,1.24-.33,1.84-1.84,1.64-3.04Z"/>
        <path class="cls-1" d="M70.37,54.11c-.2.27-.88,1.12-.59,2.28.11.45-.12,1.03-.52,1.32-.17.12-.32.14-.47.14.02-.28.05-.51.06-.55.07-.36.2-.7.24-1.07.06-.51.04-1.04-.06-1.55-.18-.89-1.06-2.09-1.65-2.96.33,2.15-.19,3.06-.41,3.74-.31.95-.71,1.87-.49,2.89.23,1.02,1.27,1.99,2.25,1.42.71.33,1.77.18,2.3-.43,1.32-1.51-.46-3.83-.66-5.24Z"/>
      </g>
      <g>
        <path class="cls-14" d="M94.63,23.29s-.96.63-1.15,3.29c-.1-.45-.34-2.66-.86-3.97-1.45,3.1-1.77,10.08,2.2,10.53.79-1.49,2.01-2.72,1.93-4.51-.07-1.62-1.67-2.75-2.13-5.33Z"/>
        <path class="cls-1" d="M94.25,26.44c-.25.72-.43,1.4-.51,1.82-.24-.19-.7-.94-.7-.92,0,0-.43,1.65.19,2.88.2.39.95,1.27,1.52.85,1.85-1.39-.5-4.62-.5-4.63Z"/>
      </g>
      <g>
        <path class="cls-14" d="M38.43,29.25s-.96.63-1.15,3.29c-.1-.45-.34-2.66-.86-3.97-1.45,3.1-1.77,10.08,2.2,10.53.79-1.49,2.01-2.72,1.93-4.51-.07-1.62-1.67-2.75-2.13-5.33Z"/>
        <path class="cls-1" d="M38.05,32.4c-.25.72-.43,1.4-.51,1.82-.24-.19-.7-.94-.7-.92,0,0-.43,1.65.19,2.88.2.39.95,1.27,1.52.85,1.85-1.39-.5-4.62-.5-4.63Z"/>
      </g>
      <g>
        <path class="cls-14" d="M55.69,30.33s-.96.63-1.15,3.29c-.1-.45-.34-2.66-.86-3.97-1.45,3.1-1.77,10.08,2.2,10.53.79-1.49,2.01-2.72,1.93-4.51-.07-1.62-1.67-2.75-2.13-5.33Z"/>
        <path class="cls-1" d="M55.31,33.48c-.25.72-.43,1.4-.51,1.82-.24-.19-.7-.94-.7-.92,0,0-.43,1.65.19,2.88.2.39.95,1.27,1.52.85,1.85-1.39-.5-4.62-.5-4.63Z"/>
      </g>
      <g>
        <path class="cls-14" d="M106.58,18.92s.96.63,1.15,3.29c.1-.45.34-2.66.86-3.97,1.45,3.1,1.77,10.08-2.2,10.53-.79-1.49-2.01-2.72-1.93-4.51.07-1.62,1.67-2.75,2.13-5.33Z"/>
        <path class="cls-1" d="M106.95,22.08c.25.72.43,1.4.51,1.82.24-.19.7-.94.7-.92,0,0,.43,1.65-.19,2.88-.2.39-.95,1.27-1.52.85-1.85-1.39.5-4.62.5-4.63Z"/>
      </g>
      <g>
        <path class="cls-14" d="M28.39,37.83s.96.63,1.15,3.29c.1-.45.34-2.66.86-3.97,1.45,3.1,1.77,10.08-2.2,10.53-.79-1.49-2.01-2.72-1.93-4.51.07-1.62,1.67-2.75,2.13-5.33Z"/>
        <path class="cls-1" d="M28.76,40.98c.25.72.43,1.4.51,1.82.24-.19.7-.94.7-.92,0,0,.43,1.65-.19,2.88-.2.39-.95,1.27-1.52.85-1.85-1.39.5-4.62.5-4.63Z"/>
      </g>
      <g>
        <path class="cls-14" d="M69.7,25.78s.96.63,1.15,3.29c.1-.45.34-2.66.86-3.97,1.45,3.1,1.77,10.08-2.2,10.53-.79-1.49-2.01-2.72-1.93-4.51.07-1.62,1.67-2.75,2.13-5.33Z"/>
        <path class="cls-1" d="M70.07,28.93c.25.72.43,1.4.51,1.82.24-.19.7-.94.7-.92,0,0,.43,1.65-.19,2.88-.2.39-.95,1.27-1.52.85-1.85-1.39.5-4.62.5-4.63Z"/>
      </g>
      <g>
        <path class="cls-14" d="M133.03,75.2s-1.33,2.86-4.21,5.99c-2.89,3.13-5.95,4.78-4.59,9.7,1.36,4.92,7,3.19,7,3.19,0,0,1.54,4.06,5.33,3.68,3.8-.38,8.05-3.75,5.08-8.32-2.97-4.57-3.11-8.44-3.11-8.44,0,0-1.5,2.86-2.09,3.81-.59.96-1.01,3.65-1.01,3.65,0,0-2.05-1.09-1.16-4.37.9-3.28.33-6.17-1.25-8.9Z"/>
        <path class="cls-1" d="M132.72,78.16s-.76,2.49-2.1,4.62c-.95,1.52-3.35,2.53-3.65,4.53-.73,4.88,2.74,4.4,2.74,4.4,0,0,.34.98,1.71,1.39,1.45.43,2.2-.23,2.2-.23,0,0,.34,2.84,2.93,2.55,2.59-.29,3.4-1.96,2.49-4.11-.91-2.15-.96-4.82-.96-4.82,0,0-1.34,1.16-1.7,2.44-.34,1.19-.06,2.71-.06,2.71,0,0-1.73-.45-3.06-2.59-1.33-2.14-.49-2.75,0-5.64.44-2.59-.54-5.24-.54-5.24Z"/>
        <path class="cls-2" d="M131.69,83.01s-1.44,1.55-2.88,4.06c-1.45,2.54,1.31,2.82,1.31,2.82,0,0,.41,1.3,1.31,1.58.9.28,1.84-.28,1.84-.28,0,0-1.67-1.47-1.84-3.27s.73-3.55.26-4.9Z"/>
      </g>
      <g>
        <path class="cls-14" d="M94.42,65.15s1.33,2.86,4.21,5.99c2.88,3.13,5.95,4.78,4.59,9.7-1.36,4.92-7,3.19-7,3.19,0,0-1.54,4.06-5.33,3.68-3.8-.38-8.05-3.75-5.08-8.32,2.97-4.57,3.11-8.44,3.11-8.44,0,0,1.5,2.86,2.09,3.81.59.96,1.01,3.65,1.01,3.65,0,0,2.05-1.09,1.16-4.37-.9-3.28-.33-6.17,1.25-8.9Z"/>
        <path class="cls-1" d="M94.73,68.12s.76,2.49,2.1,4.62c.95,1.52,3.35,2.53,3.65,4.53.73,4.88-2.74,4.4-2.74,4.4,0,0-.34.98-1.71,1.39-1.45.43-2.2-.23-2.2-.23,0,0-.34,2.84-2.93,2.55s-3.4-1.96-2.49-4.11c.91-2.15.96-4.82.96-4.82,0,0,1.34,1.16,1.7,2.44.34,1.19.06,2.71.06,2.71,0,0,1.73-.45,3.06-2.59,1.33-2.14.49-2.75,0-5.64-.44-2.59.54-5.24.54-5.24Z"/>
        <path class="cls-2" d="M95.76,72.97s1.44,1.55,2.88,4.06c1.45,2.54-1.31,2.82-1.31,2.82,0,0-.41,1.3-1.31,1.58-.9.28-1.84-.28-1.84-.28,0,0,1.67-1.47,1.84-3.27.17-1.8-.73-3.55-.26-4.9Z"/>
      </g>
      <g>
        <path class="cls-14" d="M40.34,86.49s1.33,2.86,4.21,5.99c2.89,3.13,5.95,4.78,4.59,9.7-1.36,4.92-7,3.19-7,3.19,0,0-1.54,4.06-5.33,3.68-3.8-.38-8.05-3.75-5.08-8.32s3.11-8.44,3.11-8.44c0,0,1.5,2.86,2.09,3.81s1.01,3.65,1.01,3.65c0,0,2.05-1.09,1.16-4.37-.9-3.28-.33-6.17,1.25-8.9Z"/>
        <path class="cls-1" d="M40.65,89.46s.76,2.49,2.1,4.62c.95,1.52,3.35,2.53,3.65,4.53.73,4.88-2.74,4.4-2.74,4.4,0,0-.34.98-1.71,1.39-1.45.43-2.2-.23-2.2-.23,0,0-.34,2.84-2.93,2.55s-3.4-1.96-2.49-4.11c.91-2.15.96-4.82.96-4.82,0,0,1.34,1.16,1.7,2.44.34,1.19.06,2.71.06,2.71,0,0,1.73-.45,3.06-2.59,1.33-2.14.49-2.75,0-5.64-.44-2.59.54-5.24.54-5.24Z"/>
        <path class="cls-2" d="M41.68,94.31s1.44,1.55,2.88,4.06c1.45,2.54-1.31,2.82-1.31,2.82,0,0-.41,1.3-1.31,1.58-.9.28-1.84-.28-1.84-.28,0,0,1.67-1.47,1.84-3.27s-.73-3.55-.26-4.9Z"/>
      </g>
      <g>
        <path class="cls-14" d="M118.11,11.03s-.96.63-1.15,3.29c-.1-.45-.34-2.66-.86-3.97-1.45,3.1-1.77,10.08,2.2,10.53.79-1.49,2.01-2.72,1.93-4.51-.07-1.62-1.67-2.75-2.13-5.33Z"/>
        <path class="cls-1" d="M117.74,14.19c-.25.72-.43,1.4-.51,1.82-.24-.19-.7-.94-.7-.92,0,0-.43,1.65.19,2.88.2.39.95,1.27,1.52.85,1.85-1.39-.5-4.62-.5-4.63Z"/>
      </g>
      <g>
        <g>
          <path class="cls-8" d="M86.16,110.61c-1.08.23-2.01.49-2.01.49l-3.25.8s.12,2.38,1.3,2.8c1.05.38,2.84-.42,4.1-.73.15-.04.29-.07.43-.09.01,0,.03,0,.04,0,.47-1.91-.05-2.86-.48-3.29-.04,0-.08.01-.11.02Z"/>
          <path class="cls-8" d="M94.56,111.52s-4.33-1.14-5.72-1.25c-.63-.05-1.64.11-2.57.3.43.43.96,1.38.48,3.29,1.93-.29,5.61-.48,6.88-.06.77.25,1.52-.63,1.54-1.37.01-.49-.62-.92-.62-.92Z"/>
        </g>
        <path class="cls-8" d="M77.14,88.46c-.7,1.17-.67,1.93-.7,3.03-.02.78-.07,2.64-1.52,3.37-.72.37-4.63,4.03-4.63,4.03l.93,1.34s4.05-1.92,4.87-2.29c1.18-.52,2.14-1.88,2.46-2.54.69-1.43,1.78-4.72,1.78-4.72l-.94-3.61c-.87.06-1.86.72-2.25,1.39Z"/>
        <path class="cls-12" d="M76.87,88.97c-.5,1.05-1.07,4.68-1.07,4.68,0,0,.71.27,1.92.96.91.52,2.41.61,2.41.61l1.25-6.38-3.29-1.3s-.72.38-1.22,1.43Z"/>
        <path class="cls-8" d="M82.26,87.07l-2.06,2.06s-.66,2.43-.54,3.24c.12.81,1.69,2.32,1.69,2.32,0,0,1.74.7,3.06-.47,1.32-1.16.89-5.1.89-5.1l-3.04-2.06Z"/>
        <path class="cls-10" d="M79.8,102.6c-.64,1.66-.9,3.64-.9,3.64l2.47-2.16s-.36-2.1-1.57-1.48Z"/>
        <path class="cls-10" d="M86.26,106.29c-1.97-.66-6.22,5.76-6.22,5.76,0,0,2.22,2.36,3.89.92,1.43-1.24,2.79-2.69,2.79-2.69,0,0-.82-1.77-.46-3.99Z"/>
        <g>
          <path class="cls-10" d="M97.14,112.12c-.3-.76-.72-1.19-.72-1.19,0,0-2.27-.05-2.42.5-.06.21.63.48.73.86.03.13,0,.26-.15.41-.65.66-1.29,1.13-1.29,1.13,0,0,.55.81,1.04,1.21.85.7.91,2.62,1.3,3.22.41.62,1.26.27,1.26.27,0,0,1.16-1.91.31-4.18-.26-.7.12-1.77-.06-2.23Z"/>
          <path class="cls-7" d="M97.22,113.44c.15-.51.53-.92.1-1.69-.43-.77-.39-.85-1.28-.83,0,0,.43.61.63,1.07.16.36.07,1.08.13,1.67.08.77.38,1.66.43,1.86.07.3.02,1.59-.35,2.21-.16.27-1.14.23-1.24.54-.1.31.56.39,1.03.39.74,0,1.21-1.71,1.01-3.03-.2-1.32-.59-1.68-.44-2.19Z"/>
          <path class="cls-13" d="M94.78,114.27c-.28.21-.54.46-.63.61l.27.25s.37-.25.76-.57c.32-.26-.09-.53-.4-.29Z"/>
          <path class="cls-13" d="M95.4,115.02c-.27.16-.74.42-.74.42l.21.41s.37-.18.74-.41c.38-.22.05-.57-.22-.42Z"/>
          <path class="cls-13" d="M95.79,115.85c-.25.11-.77.4-.77.4l.11.38s.46-.21.81-.38c.35-.17.1-.51-.15-.4Z"/>
          <path class="cls-7" d="M92.85,113.85c.12.21.83.49.83.49.8-.47.91-1.64.91-1.64,0,0-.78.22-1.29.4-.51.18-.56.55-.45.75Z"/>
        </g>
        <path class="cls-10" d="M86.16,110.27s.92-.57,2.28-.43,2.14.45,3.44.74c1.3.3,2.71.33,2.71.33,0,0,.59,2.06-.44,3.44-1.03,1.38-1.22,1.07-1.22,1.07,0,0-1.58-1.07-3.54-.77-1.25.19-4.23.91-5.55.8-1.32-.12-2.03-.07-2.63-1.1s-.44-1.27-.44-1.27l5.39-2.8Z"/>
        <path class="cls-7" d="M88.58,92.73c-.42-1.72-1.63-3.1-2.32-3.59-1.76-1.28-4.12-2.06-4.12-2.06l.33.89,2.6,1.1s-2.48,5.46-4.06,4.24c-1.58-1.22-.95-2.78-.95-2.78l-1.1-1.47s-.14,2.06,0,3.8c.14,1.74,1.52,5.76,1.02,6.49-1.09,1.57.18,1.86.18,1.86l-.83,1.57s3.5,2.77,5.75,2.07c2.98-.93,4.3-1.08,4.3-1.08,0,0,0-1.39-.55-2.27.26-2.61.27-6.58-.26-8.77Z"/>
        <path class="cls-11" d="M81.94,83.69c-1.08-.82-3.65-1.09-4.58,1.56-.98,2.78,1.53,6.25,2.87,5.66.75-.33,2.33-1.5,2.77-2.96.5-1.65-.22-3.61-1.06-4.25Z"/>
        <path class="cls-10" d="M81.37,82.9c-1.58-1.06-3.93.22-4.72-.54-.28.66.11,1.12.48,1.46-.67.22-.81.11-1.33.11.36.56.47.96.93,1.22-.4.73-.22.77-.43,1.16.64.58,2.16.18,3.05-.73.3,1.96,2.31,2.08,2.31,2.08,0,0,.5-1.04.96-.73.35.22.38,1.03.38,1.03,0,0,1.21-1.14.84-2.8-.23-1.03-.66-2.46-2.47-2.25Z"/>
        <path class="cls-11" d="M94.15,93.02c-.97-.73-2.9-.87-4.45-1.98-2.26-1.62-3.55-.58-3.55-.58l.73,4.73s2.14.13,2.8.37c1.32.47,3.1.09,3.1.09,0-.02-1.02.73-.91,2.56.04.63-.06,2.13-.27,2.71-.25.69-1.08,1.67-1.51,2.17-.54.62-.26.93.15.57.53-.47,1.08-.68,1.08-.68,0,0,.27,1.9.11,2.68-.16.78.57,1.9.97,1.37.58-.76,1.28-2.56,1.28-3.47,0-1.01-.56-1.91-.4-2.4.11-.34.34-1.19,1.29-2.95.6-1.1.73-2.28,1.2-3.29.26-.57-.56-1.08-1.64-1.89Z"/>
        <g>
          <path class="cls-11" d="M76.83,110.39c-.32.69-.51,1.55-.69,2.34-.19.87-.35,1.65-.6,1.97-.22.28-.54.93-.84,1.73.73.57,2.08,1.34,3.78,1.1h0c.13-.6.25-1.2.41-1.73.11-.37.43-.88.85-1.45,1.59-2.15,4.75-5.23,4.75-5.23l-7.11-.42s-.2.88-.56,1.69Z"/>
          <path class="cls-11" d="M74.7,116.43c-.02.07-.05.12-.07.19-.31.87-.58,1.91-.67,2.88-.12,1.28-1.22,5.48-1.65,6.05-.43.57,2.12.8,2.12.8,0,0,1.54-3.7,2.69-5.08.59-.71.91-1.68,1.14-2.68.08-.35.16-.7.23-1.06h0c-1.71.24-3.05-.53-3.78-1.1Z"/>
        </g>
        <g>
          <path class="cls-10" d="M74.16,125.3c-.46-.62-.83-.93-1.37-.93,0,0-1.39,1.17-2.01,1.54-.62.36-1.59,1.09-2.39,1.51-.81.42-1.17,1.01-1.02,1.34.3.64.93,1.19,2.01,1.18.55,0,1.74-.97,2.65-1.28.91-.31,2.32-.83,2.56-1.38.46-1.09.53-1.63.41-2.13-.19-.1-.64.44-.85.16Z"/>
          <path class="cls-13" d="M72.12,124.92l-.63.49s.69.23,1,.72c.31.49.92.4.61-.3-.31-.7-.98-.91-.98-.91Z"/>
          <path class="cls-13" d="M71.04,125.74l-.67.42s.65.45.96.94c.31.49.9.33.59-.37-.31-.7-.88-.99-.88-.99Z"/>
          <path class="cls-13" d="M69.94,126.44l-.7.47s.68.41.99.9c.31.49.9.33.59-.37-.31-.7-.88-.99-.88-.99Z"/>
          <path class="cls-7" d="M73.88,127.46c-.47.64-1.6.86-2.34,1.24-.74.38-2.08,1-2.36.9-.28-.1-.58-.62-.89-1.07-.31-.45-.9-.17-.9-.17-.76.99.85,2,1.84,1.84.82-.13,1.72-.87,2.03-1.07.59-.37,1.85-.75,2.06-.75.54-.02.94-.3,1.27-.68.33-.38.28-1.15.28-1.15,0,0-.69.49-1,.92Z"/>
          <path class="cls-7" d="M73.67,124.14c-.67-.4-1.15-.2-1.15-.2v.66c1.03,1.35,1.79.79,1.79.79l.15-.46s-.41-.56-.78-.78Z"/>
        </g>
        <path class="cls-6" d="M83.92,104.96c-1.53-.14-2.72-.74-3.73-1.54-.26.95-.51,1.8-.55,1.85-1.31,1.44-3.14,4.91-3.82,6.26-.46.92-.68,1.73-1.37,4.69-.86,3.66-2,6.74-2.45,8.14,1.59,2.68,4.05,1.14,4.4.33.91-2.3,3.76-10.35,3.76-10.35,0,0,2.7-3.27,4.33-5.23,1.63-1.96,3.57-2.28,4.09-4.07.06-.2.1-.42.14-.65-1.43.19-3.37.7-4.81.56Z"/>
        <path class="cls-12" d="M80.77,99.41s2.2.56,3.57.12c1.37-.45,2.94-2.17,2.94-2.17,0,0-1.49.76-2.19,1.07-.7.31-3.29.91-4.32.99Z"/>
        <path class="cls-12" d="M86.93,101.02c-.39-.12-3.26-.12-3.68-.08-.42.04-2.27.25-3.08.27,0,0,1.15.94,2.91,1.28,1.76.33,4.44-.77,4.44-.77,0,0-.19-.58-.58-.7Z"/>
        <path class="cls-10" d="M83,104.58c-1.28-.41-3.11-1.4-3.11-1.4,0,0,.32,1.04,3.23,1.96.89.28,2.73.02,3.42-.1.68-.12,1.49-.09,2.06,0,.18-.53.21-1.18.21-1.18,0,0-.9.16-1.83.4s-2.69.72-3.97.32Z"/>
        <path class="cls-12" d="M86.84,89.66c-.69-.16-1.93.64-2.34,1.78s-.08,2.07.86,3.05c.95.98,4.27,1.53,4.27,1.53,0,0,1.22-.86,1.6-2.37.38-1.51-.23-2.66-.23-2.66,0,0-3.14-1.1-4.16-1.34Z"/>
        <path class="cls-8" d="M68.38,99.63c-.5.17-.9.65-1.02,1.36-.12.72-.43,1.83-.42,2.06.02.23.58.12.83-.12.25-.23.58-1.56.88-1.82.3-.26.45-.29.55-.18.1.12-.45.53-.6.9-.15.37,0,.52.13.45s.94-.7,1.19-1.05c.25-.35.84-.78,1.28-1.01.45-.23-.55-1.69-.55-1.69,0,0-1.21.71-2.29,1.08Z"/>
      </g>
    </g>
  </g>
</svg>