<?xml version="1.0" encoding="UTF-8"?>
<svg id="Layer_2" data-name="Layer 2" xmlns="http://www.w3.org/2000/svg" viewBox="0 0 179.08 196.69">
  <defs>
    <style>
      .cls-1 {
        fill: #ff5252;
      }

      .cls-1, .cls-2, .cls-3, .cls-4, .cls-5, .cls-6, .cls-7, .cls-8, .cls-9, .cls-10, .cls-11, .cls-12, .cls-13, .cls-14, .cls-15, .cls-16, .cls-17, .cls-18, .cls-19, .cls-20, .cls-21, .cls-22, .cls-23, .cls-24, .cls-25, .cls-26, .cls-27, .cls-28, .cls-29 {
        stroke-width: 0px;
      }

      .cls-2 {
        fill: #31c0ff;
      }

      .cls-3 {
        fill: #f43838;
      }

      .cls-4 {
        fill: #5e2e1f;
      }

      .cls-5 {
        fill: #ff7676;
      }

      .cls-6 {
        fill: #7b528e;
      }

      .cls-7, .cls-21 {
        fill: #19a8f7;
      }

      .cls-8, .cls-15 {
        fill: #5fd6ff;
      }

      .cls-8, .cls-19, .cls-21 {
        opacity: .5;
      }

      .cls-9 {
        fill: #e22929;
      }

      .cls-10, .cls-19 {
        fill: #b3efff;
      }

      .cls-11 {
        fill: #c1592b;
      }

      .cls-12 {
        fill: #4f2115;
      }

      .cls-13 {
        fill: #2e1117;
      }

      .cls-14 {
        fill: #d4eaf4;
      }

      .cls-16 {
        fill: #ffc5b3;
      }

      .cls-17 {
        fill: #8e63a5;
      }

      .cls-18 {
        fill: #e22d2d;
      }

      .cls-20 {
        fill: #5ad4ff;
      }

      .cls-22 {
        fill: #fff;
      }

      .cls-23 {
        fill: #1c92f4;
      }

      .cls-24 {
        fill: #d87745;
      }

      .cls-25 {
        fill: #ccf5ff;
      }

      .cls-26 {
        fill: #76bf00;
      }

      .cls-27 {
        fill: #2ebfff;
      }

      .cls-28 {
        fill: #f23b3b;
      }

      .cls-29 {
        fill: #ffad97;
      }
    </style>
  </defs>
  <g id="Layer_1-2" data-name="Layer 1">
    <g>
      <g>
        <polygon class="cls-12" points=".2 124.08 0 135.79 105.79 196.69 105.79 184.98 .2 124.08"/>
        <polygon class="cls-4" points="179.08 142.67 179.08 154.37 105.79 196.69 105.79 184.98 179.08 142.67"/>
        <polygon class="cls-7" points="0 103.47 0 129.55 105.79 190.45 105.79 164.36 0 103.47"/>
        <polygon class="cls-2" points="179.08 122.05 179.08 148.13 105.79 190.45 105.79 164.36 179.08 122.05"/>
        <polygon class="cls-23" points="0 122.33 0 129.55 105.79 190.45 105.79 183.22 0 122.33"/>
        <polygon class="cls-21" points="179.08 140.83 179.08 148.13 105.79 190.45 105.79 183.14 179.08 140.83"/>
      </g>
      <path class="cls-20" d="M73.29,61.15s38.15,21.87,47.75,27.41c11.74,6.77,42.16,24.32,48.96,28.24,4.85,2.8,8.67,5,9.06,5.22l.02.02-73.29,42.32L0,103.47l73.29-42.32Z"/>
      <path class="cls-2" d="M72.75,72.48s47.33,27.38,47.62,27.55v.02s-55.49,32.04-55.49,32.04l-47.63-27.57,55.5-32.04Z"/>
      <g>
        <polygon class="cls-14" points="24.65 98.73 44.15 93.79 64.53 121.46 64.67 127.99 24.8 105.25 24.65 98.73"/>
        <polygon class="cls-22" points="111.98 93.75 112.13 100.27 64.67 127.99 64.53 121.46 111.98 93.75"/>
        <polygon class="cls-4" points="72.11 71.22 90.78 65.71 111.98 93.75 64.53 121.46 44.15 93.79 24.65 98.73 72.11 71.22"/>
        <polygon class="cls-12" points="64.54 123.43 64.57 122.26 24.66 99.48 24.66 100.65 64.54 123.43"/>
        <polygon class="cls-1" points="92.26 64.33 114.26 93.41 62.77 123.54 41.63 94.84 92.26 64.33"/>
        <polygon class="cls-28" points="21.41 99.96 41.63 94.84 92.26 64.33 72.9 70.04 21.41 99.96"/>
        <polygon class="cls-18" points="41.63 94.84 62.77 123.54 62.58 125.36 41.33 96.25 21.41 101.33 21.41 99.96 41.63 94.84"/>
        <polygon class="cls-5" points="92.26 64.33 92.94 65.24 42.35 95.82 41.63 94.84 92.26 64.33"/>
        <polygon class="cls-12" points="42.66 110.94 43.66 110.93 43.61 99.39 42.6 97.98 42.66 110.94"/>
        <polygon class="cls-12" points="36.68 107.37 37.69 107.36 37.64 97.2 36.63 97.45 36.68 107.37"/>
        <polygon class="cls-12" points="48.9 114.13 49.91 114.13 49.88 107.94 48.87 106.54 48.9 114.13"/>
        <polygon class="cls-28" points="114.26 93.41 114.26 95.06 62.58 125.36 62.77 123.54 114.26 93.41"/>
      </g>
      <g>
        <path class="cls-27" d="M123.56,140.24c-.2-1.88-1.55-3.5-2.93-4.69-3.87-3.36-9.73-4.81-14.02-7.42-5.74-3.49-7.47-7.23-17.31-3.33-1.76.7-5.34,2.52-6.16,4.58-.3.74-1.59,2.15.9,4.24.32.27.85.61,1.01,1,.35.86-.12,1.69-.15,2.52-.05,1.72,1.71,2.84,3.03,3.62,1.79,1.05,3.78,1.7,5.62,2.65.92.48,1.82,1.02,2.58,1.74.85.81,2.02,3.95,7.36,6.62,2.08,1.04,6.38,1.85,9.36.02,1.25-.77,6.39-.68,7.53-1.61,1.4-1.14,2.66-2.08,2.1-4.03-.14-.47-.49-.93-.57-1.42-.25-1.64.53-1.49,1.15-2.33.46-.62.58-1.41.5-2.16Z"/>
        <path class="cls-7" d="M116.35,141.21c-.54-1.41.68-1.6.96-2.95.53-2.64-4.67-4.62-6.6-5.52-3.69-1.72-6.78-3.59-10.64-4.88-1.77-.59-3.64-.96-5.49-.59-1.41.29-6.48,1.38-6.99,3.67-.63,2.81,2.6,3.92,3.29,5.78.49,1.33.2,2.27,1.35,3.28,1.27,1.11,2.81,1.98,4.19,2.94,3.05,2.12,4.06,3.73,7.19,5.77,1.85,1.2,5.09,2.81,7.05,1.1.48-.42.51-1.53,1.47-2.36.62-.54,1.94-.38,3.84-.89,2.88-.78,3.16-1.94,1.83-3.57-.35-.43-1.24-1.28-1.44-1.78Z"/>
        <g>
          <g>
            <path class="cls-11" d="M106.41,129.86s2.46,1.3,3.52,2.95,2.24,3.66,2.65,4.36c.41.71,0,2.71,0,2.71l-2.06-1.12s.53-.99-.06-1.56c-.6-.59-1.23-.94-2.04-1.42-1.85-1.09-4.27-3.81-4.27-3.81l2.26-2.12Z"/>
            <path class="cls-11" d="M104.16,132.56c.87-.8,1.67-1.67,2.25-2.7-1.05-1-1.1-2.67-1.12-3.44-.03-1.28,0-2.15-.81-3.51-.46-.77-1.61-1.54-2.61-1.61l-1.09,4.18s1.26,3.8,2.06,5.46c.21.44.69,1.06,1.32,1.62Z"/>
            <path class="cls-6" d="M103.33,120.67s1.23.79,1.81,2.47c.58,1.67.8,4.57.8,4.57,0,0-2.14.97-3.33,1.12-1.19.15-2.06-.8-2.06-.8l.23-5.86,2.54-1.49Z"/>
            <path class="cls-17" d="M102.15,123.54l-3.82-3.02s-5.29,1.19-6.92,5c-.9,2.1-1.39,5.07-1.19,5.4,1.35,2.24,3.95,3.13,6.43,2.48,1.09-.59,1.98-1.53,4.15-3.77,2.37-2.45,1.36-6.08,1.36-6.08Z"/>
            <path class="cls-11" d="M101.04,125.77c-.11.44-.22.95-.48,1.33-.73,1.04-1.96.63-2.64-.28-.75-1-1.08-2.3-1.76-3.36-.08-.12-.17-.23-.26-.35l2.66-1.81,2.38,2.39s.15.54.3,1.22c-.06.28-.12.57-.19.85Z"/>
            <path class="cls-24" d="M99.12,116.79c1.25-.95,4.22-1.26,5.3,1.81,1.14,3.21-1.77,7.23-3.32,6.55-.87-.38-2.69-1.74-3.21-3.43-.58-1.9.26-4.18,1.23-4.92Z"/>
            <path class="cls-13" d="M99.44,121.37s-.57-1.2-1.12-.85c-.4.26-.44,1.19-.44,1.19,0,0-.99-1.41-.56-3.33.27-1.2,1.76-3.26,3.86-3.02,2.71.31,3.8,2.82,3.49,4.27-.34-1.05-1.34-1.34-2.66-1.01-2.25.56-2.57,2.76-2.57,2.76Z"/>
            <path class="cls-24" d="M95.12,134.89c.42-.71.3-2.87.35-3.49.1-1.1-.2-1.51.68-3.19,1.07-2.04-.57-4.24-2.43-4.02-1.79.21-1.59,3.31-1.96,5.12-.5,2.48-.25,6.03-.26,6.07,1.21.36,2.37-.37,3.61-.5Z"/>
            <path class="cls-6" d="M94.62,124.19c1.22.51,1.86,1.1,2.2,2.75.34,1.65-.86,2.6-.91,4.3-.05,1.7-.15,2.07-.15,2.07,0,0-1.64,1.03-3.09.29-1.45-.73-1.71-1.71-1.71-1.71,0,0-.2-3.04.54-5.42.71-2.29,2.04-2.75,3.14-2.29Z"/>
          </g>
          <g>
            <path class="cls-28" d="M113.66,139.83c-.46-.79-1.21-1.29-1.71-2.18-.32-.57-.39-1.28-1.44-1.45-.76,0-.97.27-1.17.36-.92.44-1.33.46-1.33.46l-1.21.53s-1.1.67-1.87,1.72c-.47.65-.93,1.28-.85,1.64.2.86,1.71,2.41,3.21,3.39.9.59,1.12,1.06,2.26,1.05,1.23-.02,2.14-.21,3.06-1.04.7-.64,1.8-1.71,1.8-2.91-.2-.48,0-.26-.75-1.58Z"/>
            <path class="cls-29" d="M108.31,138.49c.06-.18.11-.36.1-.54-.02-.46-.38-.82-.71-1.12,0,0,0,0,0,0-1.09-.83-2.43-1.88-2.43-1.88l-2.66,1.22s.76,1.34,1.36,1.6c.98.43,1.28,1.11,1.28,1.11,0,0,1.8.43,2.57.03.17-.09.33-.24.48-.41Z"/>
            <path class="cls-16" d="M100.98,135.88c-.35-1.13.19-3.31,2.63-3.29,1.54.01,2,.07,2.79.98.49.56,1.16,1.93.79,2.73-.3.65-1.72,1.78-3.04,1.71-1.5-.08-2.89-1.25-3.17-2.13Z"/>
            <path class="cls-13" d="M102.07,133.57s.63.98.79,1.53c.16.55.23,1.11.23,1.11l-.7-.32s.24.79.82,1.5c.21.26.86.45,1.44.59.08.09.26.81.26.81,0,0-.44-.33-.94-.33-1.04,0-1.89-.34-2.43-.63-1-.54-1.7-1.75-1.88-2.57-.35-1.63.31-2.53.6-2.85,1.44-1.63,1.99-1.53,2.6-1.88.63-.36.73-.83.73-.83,0,0,.22.47.07,1.08.43-.13.58-.15,1.17-.08.59.07.74.35.74.35l-.52.13s.7.36,1.15.9c.45.54.2,1.47.2,1.47,0,0-1.32-.8-1.83-.71-.21.04-1.02.89-2.5.72Z"/>
            <path class="cls-16" d="M110.36,148.74c.9-.59.4-1.85-.19-2.44,0,0,0-.02-.02-.02-.2-.2-.39-.38-.55-.51-2.52-2.03-1.36-5.42-4.92-6.15-.71.44-1.41,1.6-.61,3.07.96,1.77,1.38,3.92,4.8,5.92.37.22,1.1.39,1.48.13Z"/>
            <path class="cls-18" d="M108.46,136.93s.91.68.4,1.53c-.3.51-.48.61-1.88.91-.74.16-2.05-.09-2.05-.09l.33-.41s1.88.08,2.64-.53c.76-.6.03-1.3.03-1.3l.52-.11Z"/>
            <path class="cls-18" d="M104.77,139.5s1.43.35,1.85.64c.42.29,1.16,1.63,1.32,2.29.16.65,1.08,2.38,1.08,2.38,0,0-.77-.11-1.66.47-1.18.76-1.58,1.67-1.58,1.67,0,0-1.97-2.49-2.32-3.63-.35-1.14.13-2.63.44-2.99.31-.36.88-.82.88-.82Z"/>
          </g>
          <path class="cls-24" d="M105.23,139.89c-1.33-.53-2.71.05-4.12-.73-.27-.15-2.55-2.73-3.41-3.37-1.21-.9-2.38-1.04-2.89-1.42-1.18.27-2.12.43-3.33.27.03.75,0,1.37.61,1.82.84.62,1.59,1.41,2.37,1.71,2.25.87,4.96,2.73,6.73,3.38,1.29.48,2.65,1.4,4.32,1.4,2.91,0,2.05-2.15-.27-3.07Z"/>
          <path class="cls-11" d="M111.22,136.15s-.03.94-.12,1.83c-.1.89.37,1.22.76-.09.59-2.01-.64-1.74-.64-1.74Z"/>
        </g>
      </g>
      <g>
        <path class="cls-27" d="M134.52,111.37c-2.23-.18-6.04-.36-7.88,1.25-.81.71-1.07,1.93-.5,2.71.37.76.48,1,.17,1.96-.14.44-.34.85-.38,1.32-.07.78.23,1.5.71,2.09,1.45,1.76,4.65,2.49,6.76,2.97,2.42.55,4.92.46,7.15-.71.72-.38,1.38-.84,1.71-1.61.24-.55.18-1.19.37-1.75.21-.62.59-1.15.83-1.76,1.85-4.59-6.03-6.23-8.97-6.46Z"/>
        <path class="cls-7" d="M135.01,112.58c-1.61-.13-4.36-.26-5.68.9-.58.51-.77,1.39-.36,1.96.26.55.35.72.12,1.41-.1.32-.24.61-.27.95-.05.56.16,1.08.51,1.51,1.05,1.27,3.36,1.79,4.88,2.14,1.75.4,3.55.33,5.16-.51.52-.27,1-.6,1.24-1.16.17-.4.13-.86.27-1.26.15-.45.43-.83.6-1.27,1.34-3.32-4.35-4.49-6.47-4.66Z"/>
        <g>
          <path class="cls-24" d="M137.27,119.26c1.67-.35,2.57-.61,1.61-2.98-.46-1.13-2.86-2.15-3.41-2.51-.55-.36-4.32-2.49-4.32-2.49,0,0,.87,1.37.23,3.35-.14.42-.94.49-.97,1.3.32,2.62,4.73,3.78,6.87,3.33Z"/>
          <path class="cls-24" d="M131.56,113.83s-1.22-3.04-1.22-6.82c0-2.58-.74-6.97-1.23-7.63-.48-.66-2.09-3.12-1.09-3.61,1-.49,1.79.59,2.12,1.12.33.53.63.68.76.2.22-.76.63-.52.63-.52,0,0-.05.85-.06,1.32,0,.31.14,1.05,0,1.7-.15.65-.65.93-.34,1.9.31.98,2.12,7.83,2.06,9.45-.06,1.62-1.64,2.89-1.64,2.89Z"/>
          <path class="cls-11" d="M132.68,108.53c-.3.64-.69,2.85-.16,4.01.68,1.49,1.67,1.25,1.67,1.25l-.83-4.81-.68-.46Z"/>
          <path class="cls-26" d="M137.97,115.25s-1.37.7-1.93,1.64-.47,2.46-.47,2.46c0,0-1.92-.05-3.19-.63-1.27-.59-2.01-2.36-1.98-2.79.04-1.64,3.07-3.48,3.56-3.42.49.06,4,2.74,4,2.74Z"/>
          <g>
            <path class="cls-11" d="M134.32,112.97l-1.09,1.71s-.61,2.41,1.86,1.51c1.44-.53,1.84-1.43,1.84-1.43l.22-2.95-2.83,1.16Z"/>
            <path class="cls-24" d="M138.31,108.22c-.66-1.09-2.79-2.19-4.51-.21-1.8,2.08-.81,5.95.56,5.9.76-.03,2.54-.51,3.42-1.63,1-1.26,1.04-3.21.53-4.06Z"/>
          </g>
          <path class="cls-13" d="M138.65,112.08c.76-.07.9-.85.3-1.44.91-.27,1.03-1.24.16-1.62.84-.68.19-1.65-.84-1.44.06-.21,0-.45-.19-.65-.16-.17-.74-.3-1.04.04-.11-.48-.31-.78-.58-.85-.53-.14-.81.43-1.05.57-.23-.3-.92-.69-1.38-.12-.23.28-.23.55-.21.78-.64-.23-1.39-.2-1.44.68-.05.87.94,1.3,1.75,1.29-.21.84.49,1.47,1.37,1.49-.22.66-.18,1.46.49,1.85.33.19.64.18.88.03.3.66.91,1.28,1.62.75.52-.39.44-.93.15-1.37Z"/>
          <path class="cls-22" d="M136.94,114.48l.2.21s-.89,1.43-2.3,1.86-2.12-.04-2.14-1.03c-.01-.81.89-1.42.89-1.42,0,0-.88,1.56.31,1.83,1.18.26,3.04-1.45,3.04-1.45Z"/>
        </g>
        <g>
          <path class="cls-27" d="M127.27,110.31s-2.13-6.96-4.61-7.43c-2.48-.47,1.5,3.84,1.5,3.84,0,0-4.71-3.56-5.43-2.2-.72,1.36,8.54,5.79,8.54,5.79Z"/>
          <path class="cls-27" d="M143.85,118.3s4.46-5.75,6.95-5.31c2.49.44-2.77,3.06-2.77,3.06,0,0,5.67-1.66,5.86-.13.19,1.53-10.04,2.38-10.04,2.38Z"/>
          <path class="cls-27" d="M126.55,100.94s-3.43-2.7-4.64-1.73c-1.21.97,2.56,1.6,4.64,1.73Z"/>
          <path class="cls-27" d="M148.87,109.92c1.12.22,4.21.05,4.92-1.4,1.01-2.08-4.08,1.39-4.92,1.4Z"/>
          <path class="cls-27" d="M145.43,104.47s2.78-2.82,2.23-4.54c-.56-1.72-1.48.77-1.77,1.86-.28,1.09-.46,2.68-.46,2.68Z"/>
        </g>
      </g>
      <g>
        <g>
          <path class="cls-29" d="M98.28,90.39l-1.34,3.96s-.79-1.95-2.58-3.62c-1.79-1.67-1.4-3.56-2.83-3.68-1.44-.11-1.58,1.32-1.73,2.13-.15.81-1.74,2.01-1.6,3.38.14,1.38,1.07,1.8,1.9,1.97.83.17.96-.61.89-1.24-.07-.63.64-2.08.64-2.08,0,0,1,2.16,2.57,4.59,1.56,2.43,2.57,4.2,5.02,3.64,1.72-.39,2.02-1.12,3.01-3.62,1-2.5-.93-6.33-.93-6.33l-3.01.88Z"/>
          <path class="cls-16" d="M92.81,94.25l-1.34,3.96s-.79-1.95-2.58-3.62c-1.79-1.67-1.4-3.56-2.83-3.68-1.44-.11-1.58,1.32-1.73,2.13-.15.81-1.74,2.01-1.6,3.38.14,1.38,1.07,1.8,1.9,1.97.83.17.96-.61.89-1.24-.07-.63.64-2.08.64-2.08,0,0,1,2.16,2.57,4.59,1.56,2.43,2.57,4.2,5.02,3.64,1.72-.39,2.02-1.12,3.01-3.62,1-2.5,1.12-4.39,1.12-4.39l-5.05-1.06Z"/>
          <path class="cls-16" d="M104.37,73.91s1.32-.31,2.54,1.35c1.22,1.66,1.13,3,2.41,4.78h0c1.15,1.42,4.22,3.98,5.38,5.42.8.98,2.05,3.28,3.22,4.78.74.95,1.42,1.19,1.99,1.81,1.48,1.62,2.25,2.56,1.35,3.31-.9.75-2.44-.86-2.83-1.47-.39-.61-1.03-.81-1.03-.55,0,.1-.06.97-.16,1.09-.15.19-.22.12-.43-.32-.08-.18-.31-1.76-.25-2.06.06-.31-2.25-2.55-3.53-3.77-1.28-1.22-2.19-2.25-3.37-3.16-.23-.17-.92-.86-1.7-1.66h0c-.45-.32-.98-.9-1.52-1.61-.68-.73-1.24-1.37-1.43-1.62-.09-.13-2.43-6.13-.66-6.33Z"/>
          <path class="cls-16" d="M104.53,74.79c-.39.11-4.39-.99-4.39-.99,0,0-2.88,1.4-4.49,2.73-.34.28-1.18,1.57-1.8,3.43-.59,1.76-.93,4.75-1.47,6.5-.21.69-.44,1.14-.66,1.49,2.23,3.76,6.25,3.48,9.62,1.74-.1-1.1.18-1.95.45-2.77.49-1.51,1.38-2.53,1.93-3.1.75-.78,1.14-1.5,1.6-2.95.5-1.6.49-4.55-.79-6.06Z"/>
          <path class="cls-29" d="M95.19,80.37s-1.18,1.3-1.31,2.62c-.1,1.05.32,3.19.35,4.72.03,1.53.32,5.04.32,5.04l.79-.05s-.56-3.8-.65-4.88c-.09-1.09-.05-3.92.07-4.93.13-1,.43-2.52.43-2.52Z"/>
          <path class="cls-29" d="M99.15,90.38c.03-.59-.04-3.27.06-4.15.14-1.23.55-2.41.67-3.42.12-1.01-.17-1.88-.17-1.88,0,0-.2,1.41-.43,2.6-.23,1.2-.75,3.69-.76,4.67,0,.54-.32,2.08-.3,2.42.13-.24.76-.03.94-.25Z"/>
          <g>
            <path class="cls-9" d="M101.62,90.03s-3.71.75-4.55.75c-.84,0-1.42,0-1.42,0l2.07,7.41s1.84.55,2.75.36c1.14-.23,2.29-.74,2.52-1.46.6-1.9-.43-4.66-1.38-7.06Z"/>
            <path class="cls-3" d="M91.6,88.11s-2.08,2.34-2.08,4.73c0,1.9,1.14,6.33,1.14,6.33,0,0,.13,2.12,1.81,2.28,1.67.16,1.6.73,3.19.4,1.14-.24,2.18-1.79,2.18-1.79,0,0-.34-4.19-.46-5.19,1.55-1.27,1.43-3.87,1.43-3.87,0,0-5.15.3-7.2-2.89Z"/>
            <path class="cls-13" d="M94.31,90.38s-.63,1.71-1.68,2.63-2.98,1.25-2.98,1.25l.06.43s1.62.21,3.17-1.05c1.55-1.26,2.04-3.02,2.04-3.02l-.62-.24Z"/>
            <path class="cls-13" d="M90.02,96.36s2.28-.1,3.87-1.33c1.6-1.23,1.85-3.49,1.85-3.49h.67s-.02,3.61-2.47,4.91c-2.46,1.3-3.63,1.21-3.63,1.21l-.28-1.3Z"/>
            <path class="cls-13" d="M91.92,87.59l-.9,1.27s2.23,2.99,5.6,2.99,5.12-1.95,5.12-1.95l-.41-1.08s-1.93,1.43-4.08,1.55c-2.15.11-5.33-2.78-5.33-2.78Z"/>
          </g>
          <g>
            <path class="cls-29" d="M103.47,75.09l-3-2.42s-.47,1.54-1.31,2.71c.04.8,1.3,1.93,2.45,2.82,1.42,1.1,2.13-.17,2.12-.92,0-.62-.25-2.18-.25-2.18Z"/>
            <path class="cls-16" d="M100.83,68.21c-.85.84-1.37,3.15-.56,4.92.71,1.57,2.65,2.65,3.54,2.91,1.59.46,3.89-3.8,2.38-6.76-1.44-2.83-4.27-2.16-5.36-1.07Z"/>
            <path class="cls-13" d="M102.63,66.42c-.95.04-1.72.52-2.31,1.15-1.7.15-1.82,2.55-1.52,3.5.58,1.83,1.47,2.07,1.47,2.07,0,0-.12-.98.14-1.36.22-.33.79-.32.9.33.2.09.45.1.45.1l-.03-1.27s.89.6,2.05.11c1.07-.46,2.01,0,2.32.38.28-.51.3-.82.32-1.26.7-.37,1.36-.7,1.3-1.02-.51.08-1.08.02-1.52-.34.45-.27.68-.53.96-.85-1.15,0-3.42-1.58-4.53-1.53Z"/>
          </g>
          <path class="cls-29" d="M103.91,83.6s-.76.56-1.23.72c-.56.2-.77.2-.77.2,0,0,.12.18.51.21.67.05,1.25-.67,1.49-1.13Z"/>
          <path class="cls-29" d="M102.56,79.94s-.06,1.24-.14,1.94c-.08.69-.57,2.22-.57,2.22,0,0,.64-1.19.84-2.15s-.13-2-.13-2Z"/>
        </g>
        <path class="cls-16" d="M99.1,104.67c.25-.75.15-1.52-.09-2.98-.05-.3.71.05,1.39-.34.34-.19-.42-.27-1.06-.63-.64-.36-.74-1.32-.77-1.88-.09-1.84.22-7.6-.07-9.66-.21-1.53,1.22-7.36,1.2-8.26-.03-2.34-.76-3.7-1.97-3.51-1.74.28-2.55,2.16-2.87,4.71h0s0,.02,0,.03c-.1.81-.15,1.68-.16,2.61h0c-.06,1.29-.03,3.32.06,4.36.18,2.21,1.83,8.88,2.02,9.99.14.82-.4,1.55-.52,2.34-.25,1.56.07,2.37.65,3.06,1.07,1.27,2.02.68,2.2.16Z"/>
      </g>
      <g>
        <path class="cls-10" d="M153.04,31.99c.44,2.3-.42,5.1-3.19,5.14-1.11.02-2.33-.63-3.16-1.56-.43.81-1.45,1.27-2.49,1.09-.71-.12-1.42-.6-1.91-1.24-.81,1.03-2.21,1.36-3.46.65-.36-.2-.68-.49-.95-.84-.37.28-.84.36-1.4.04-.31-.18-.56-.46-.78-.76-1.82,1.72-4.3.25-5.33-1.88-1.63,1.3-4.73-.14-5.82-2.28-1.28,1.01-3.18.72-4.43-.43-.42-.39-.73-.86-.95-1.36-.68.3-1.53.01-2.04-.66-.16-.21-.29-.47-.41-.74-1.06.78-2.74-.05-3.62-1.02-.45-.5-.81-1.14-1.02-1.82-.29.13-.6.19-.89.18-.81-.04-1.47-.64-1.91-1.27-.25-.36-.51-.95-.69-1.6-.09,0-.19,0-.28,0-1.03-.09-1.92-.83-2.57-1.59-.56-.66-.99-1.49-1.22-2.36-1.65.07-3.54-1.37-4.39-2.52-.44-.6-.74-1.37-.8-2.11-.89-.31-1.54-1.2-1.9-2.27.45-2.49,2.65-3.49,5.06-3.6-.3-1.31.15-2.76,1.39-3.67,1.66-1.22,3.43-1.01,5.03-.24,1.65-3.97,6.85-4.44,9.48-1,2.56-1.2,5.93-.79,7.66,1.35,2.7-1.2,5.85-1.25,7.91,1.36.61.78.73,1.26,1.25,1.69,1.09-.69,2.62-.8,3.77-.26.95.44,1.6,1.25,1.84,2.15.94-.03,1.91.28,2.75.78.67.39,1.32.97,1.66,1.65.5-.2,1.02-.34,1.58-.41,2.98-.38,3.17,2.38,2.76,4.74,1.78-.3,3.72.33,4.45,2.18.6,1.54-.11,3.22-1.35,4.09,1.12-.05,2.17.32,2.82,1.56.54,1.04.26,2.14-.44,2.83.98.71,1.77,1.66,2.05,2.8-.06.95-.41,1.83-1.27,2.52-.81.66-1.84.86-2.78.66Z"/>
        <path class="cls-10" d="M157.17,30.16c-.16,1.31-1.05,2.42-2.2,2.91.99,1.78.69,4.12-.56,5.7-2.72,3.42-8.09,2.71-11.35.11-.58.76-1.45,1.31-2.56,1.51-2.02.35-3.75-.67-5.08-2.07-2.33,1.19-5.04,1.47-7.47.21-1.15-.6-2.15-1.51-2.63-2.59-2.04,1.26-4.74,1.73-6.76,1.1-2.47-.78-4.53-3.14-5.12-5.73-.25-.03-.51-.06-.74-.1-2.67-.47-5.96-2.08-6.34-4.71-3.98.71-6.36-5.49-5.15-8.82-2.08-1.21-3.73-2.96-3.85-5.59-.02-.47,0-.89.08-1.29.36,1.07,1.01,1.96,1.9,2.27.06.74.36,1.51.8,2.11.85,1.15,2.74,2.59,4.39,2.52.24.87.67,1.7,1.22,2.36.64.76,1.54,1.5,2.57,1.59.09,0,.18,0,.28,0,.18.65.44,1.24.69,1.6.43.63,1.1,1.23,1.91,1.27.29.01.6-.05.89-.18.21.68.57,1.32,1.02,1.82.87.97,2.56,1.79,3.62,1.02.11.27.24.52.41.74.51.67,1.37.96,2.04.66.22.51.53.98.95,1.36,1.25,1.15,3.15,1.44,4.43.43,1.1,2.15,4.19,3.58,5.82,2.28,1.03,2.13,3.51,3.6,5.33,1.88.21.3.46.58.78.76.56.32,1.03.24,1.4-.04.27.35.59.64.95.84,1.24.7,2.65.38,3.46-.65.49.63,1.2,1.12,1.91,1.24,1.04.17,2.06-.28,2.49-1.09.84.93,2.05,1.57,3.16,1.56,2.77-.04,3.63-2.85,3.19-5.14.94.2,1.97,0,2.78-.66.86-.7,1.21-1.58,1.27-2.52.11.43.14.88.09,1.35Z"/>
        <path class="cls-8" d="M157.17,30.16c-.16,1.31-1.05,2.42-2.2,2.91.99,1.78.69,4.12-.56,5.7-2.72,3.42-8.09,2.71-11.35.11-.58.76-1.45,1.31-2.56,1.51-2.02.35-3.75-.67-5.08-2.07-2.33,1.19-5.04,1.47-7.47.21-1.15-.6-2.15-1.51-2.63-2.59-2.04,1.26-4.74,1.73-6.76,1.1-2.47-.78-4.53-3.14-5.12-5.73-.25-.03-.51-.06-.74-.1-2.67-.47-5.96-2.08-6.34-4.71-3.98.71-6.36-5.49-5.15-8.82-2.08-1.21-3.73-2.96-3.85-5.59-.02-.47,0-.89.08-1.29.36,1.07,1.01,1.96,1.9,2.27.06.74.36,1.51.8,2.11.85,1.15,2.74,2.59,4.39,2.52.24.87.67,1.7,1.22,2.36.64.76,1.54,1.5,2.57,1.59.09,0,.18,0,.28,0,.18.65.44,1.24.69,1.6.43.63,1.1,1.23,1.91,1.27.29.01.6-.05.89-.18.21.68.57,1.32,1.02,1.82.87.97,2.56,1.79,3.62,1.02.11.27.24.52.41.74.51.67,1.37.96,2.04.66.22.51.53.98.95,1.36,1.25,1.15,3.15,1.44,4.43.43,1.1,2.15,4.19,3.58,5.82,2.28,1.03,2.13,3.51,3.6,5.33,1.88.21.3.46.58.78.76.56.32,1.03.24,1.4-.04.27.35.59.64.95.84,1.24.7,2.65.38,3.46-.65.49.63,1.2,1.12,1.91,1.24,1.04.17,2.06-.28,2.49-1.09.84.93,2.05,1.57,3.16,1.56,2.77-.04,3.63-2.85,3.19-5.14.94.2,1.97,0,2.78-.66.86-.7,1.21-1.58,1.27-2.52.11.43.14.88.09,1.35Z"/>
      </g>
      <g>
        <path class="cls-10" d="M155.75,62.96c-.47,1.42-2.24,2.11-3.83,1.66-.71-.2-1.37-.61-1.87-1.15-.37.26-.85.37-1.42.2-.06-.02-.11-.05-.17-.08-.67.88-1.8,1.21-2.96.43-.5-.34-.94-.89-1.25-1.52-1.07,1.55-3.43,2.03-5.07.87-.54-.38-.93-.92-1.2-1.54-.4-.02-.81-.17-1.17-.47-.22-.18-.4-.42-.56-.66-1.03.55-2.76-.07-3.52-.84-.34-.35-.59-.77-.76-1.23-1.5.36-3.06-.43-3.97-1.81-.15-.23-.27-.46-.37-.7-.47.05-.98-.17-1.34-.65-.16-.21-.3-.47-.4-.74-1.22.07-2.36-1.1-2.66-2.31-.14-.56-.08-1.24.1-1.93-.87-.16-1.56-.73-2.08-1.49.05-.04.1-.08.15-.12-.64-.78-.95-1.69-.28-2.7.49-.75,1.19-1.24,1.98-1.5-1.18-1.74-1.45-3.79.49-5.37,1.28-1.05,2.98-1.46,4.5-1.08.67-1.61,3.61-1.3,5.41.13.38-.6,1-1.04,1.78-1.19,1.28-.24,2.41.38,3.27,1.26,2.2-1.25,6.22,1.07,6.83,3.42,1.43-.42,3.32.33,3.67,1.59,2.26-.09,4.67.83,6.09,2.6.55.69.78,1.79.55,2.66,1.07.07,2.11.49,2.78,1.25.78.89.9,2.04.49,2.95,2.15.77,3.88,2.5,3.49,5.07-.17,1.11-1.17,2.39-2.31,2.92.3.39.51.84.64,1.32-.7.69-1.71,1.18-2.5,1.28-.72.1-1.69-.1-2.52-.52Z"/>
        <path class="cls-10" d="M160.58,64.34c-.84,1.78-2.57,2.15-4.04,1.56-.71,3.58-6.63,4.54-9.01,1.47-.32.33-.76.57-1.34.64-1.55.19-2.45-.83-2.94-2.08-2.11,1.56-5.64.97-7.75-.46-.58-.39-1.12-1.02-1.55-1.75-1.87.45-4.45.17-5.45-.27-1.87-.82-3.85-3.17-4.06-5.42-1.57-.2-3.23-.87-4.19-1.88-1.47-1.55-1.49-3.96-.36-5.7.32-.49.8-1.02,1.36-1.45.52.76,1.21,1.33,2.08,1.49-.18.69-.24,1.37-.1,1.93.29,1.22,1.43,2.38,2.66,2.31.11.27.24.53.4.74.36.48.87.71,1.34.65.1.24.22.47.37.7.91,1.38,2.47,2.18,3.97,1.81.17.47.42.89.76,1.23.76.77,2.5,1.39,3.52.84.16.25.34.48.56.66.36.3.77.45,1.17.47.27.62.66,1.16,1.2,1.54,1.64,1.16,4,.67,5.07-.87.31.63.75,1.19,1.25,1.52,1.16.78,2.29.45,2.96-.43.06.02.11.06.17.08.56.17,1.05.06,1.42-.2.5.55,1.16.95,1.87,1.15,1.59.44,3.36-.24,3.83-1.66.83.42,1.8.62,2.52.52.79-.11,1.79-.59,2.5-1.28.18.7.15,1.46-.18,2.14Z"/>
        <path class="cls-8" d="M160.58,64.34c-.84,1.78-2.57,2.15-4.04,1.56-.71,3.58-6.63,4.54-9.01,1.47-.32.33-.76.57-1.34.64-1.55.19-2.45-.83-2.94-2.08-2.11,1.56-5.64.97-7.75-.46-.58-.39-1.12-1.02-1.55-1.75-1.87.45-4.45.17-5.45-.27-1.87-.82-3.85-3.17-4.06-5.42-1.57-.2-3.23-.87-4.19-1.88-1.47-1.55-1.49-3.96-.36-5.7.32-.49.8-1.02,1.36-1.45.52.76,1.21,1.33,2.08,1.49-.18.69-.24,1.37-.1,1.93.29,1.22,1.43,2.38,2.66,2.31.11.27.24.53.4.74.36.48.87.71,1.34.65.1.24.22.47.37.7.91,1.38,2.47,2.18,3.97,1.81.17.47.42.89.76,1.23.76.77,2.5,1.39,3.52.84.16.25.34.48.56.66.36.3.77.45,1.17.47.27.62.66,1.16,1.2,1.54,1.64,1.16,4,.67,5.07-.87.31.63.75,1.19,1.25,1.52,1.16.78,2.29.45,2.96-.43.06.02.11.06.17.08.56.17,1.05.06,1.42-.2.5.55,1.16.95,1.87,1.15,1.59.44,3.36-.24,3.83-1.66.83.42,1.8.62,2.52.52.79-.11,1.79-.59,2.5-1.28.18.7.15,1.46-.18,2.14Z"/>
      </g>
      <g>
        <path class="cls-10" d="M28.78,31.99c-.44,2.3.42,5.1,3.19,5.14,1.11.02,2.33-.63,3.16-1.56.43.81,1.45,1.27,2.49,1.09.71-.12,1.42-.6,1.91-1.24.81,1.03,2.21,1.36,3.46.65.36-.2.68-.49.95-.84.37.28.84.36,1.4.04.31-.18.56-.46.78-.76,1.82,1.72,4.3.25,5.33-1.88,1.63,1.3,4.73-.14,5.82-2.28,1.28,1.01,3.18.72,4.43-.43.42-.39.73-.86.95-1.36.68.3,1.53.01,2.04-.66.16-.21.29-.47.41-.74,1.06.78,2.74-.05,3.62-1.02.45-.5.81-1.14,1.02-1.82.29.13.6.19.89.18.81-.04,1.47-.64,1.91-1.27.25-.36.51-.95.69-1.6.09,0,.19,0,.28,0,1.03-.09,1.92-.83,2.57-1.59.56-.66.99-1.49,1.22-2.36,1.65.07,3.54-1.37,4.39-2.52.44-.6.74-1.37.8-2.11.89-.31,1.54-1.2,1.9-2.27-.45-2.49-2.65-3.49-5.06-3.6.3-1.31-.15-2.76-1.39-3.67-1.66-1.22-3.43-1.01-5.03-.24-1.65-3.97-6.85-4.44-9.48-1-2.56-1.2-5.93-.79-7.66,1.35-2.7-1.2-5.85-1.25-7.91,1.36-.61.78-.73,1.26-1.25,1.69-1.09-.69-2.62-.8-3.77-.26-.95.44-1.6,1.25-1.84,2.15-.94-.03-1.91.28-2.75.78-.67.39-1.32.97-1.66,1.65-.5-.2-1.02-.34-1.58-.41-2.98-.38-3.17,2.38-2.76,4.74-1.78-.3-3.72.33-4.45,2.18-.6,1.54.11,3.22,1.35,4.09-1.12-.05-2.17.32-2.82,1.56-.54,1.04-.26,2.14.44,2.83-.98.71-1.77,1.66-2.05,2.8.06.95.41,1.83,1.27,2.52.81.66,1.84.86,2.78.66Z"/>
        <path class="cls-10" d="M24.65,30.16c.16,1.31,1.05,2.42,2.2,2.91-.99,1.78-.69,4.12.56,5.7,2.72,3.42,8.09,2.71,11.35.11.58.76,1.45,1.31,2.56,1.51,2.02.35,3.75-.67,5.08-2.07,2.33,1.19,5.04,1.47,7.47.21,1.15-.6,2.15-1.51,2.63-2.59,2.04,1.26,4.74,1.73,6.76,1.1,2.47-.78,4.53-3.14,5.12-5.73.25-.03.51-.06.74-.1,2.67-.47,5.96-2.08,6.34-4.71,3.98.71,6.36-5.49,5.15-8.82,2.08-1.21,3.73-2.96,3.85-5.59.02-.47,0-.89-.08-1.29-.36,1.07-1.01,1.96-1.9,2.27-.06.74-.36,1.51-.8,2.11-.85,1.15-2.74,2.59-4.39,2.52-.24.87-.67,1.7-1.22,2.36-.64.76-1.54,1.5-2.57,1.59-.09,0-.18,0-.28,0-.18.65-.44,1.24-.69,1.6-.43.63-1.1,1.23-1.91,1.27-.29.01-.6-.05-.89-.18-.21.68-.57,1.32-1.02,1.82-.87.97-2.56,1.79-3.62,1.02-.11.27-.24.52-.41.74-.51.67-1.37.96-2.04.66-.22.51-.53.98-.95,1.36-1.25,1.15-3.15,1.44-4.43.43-1.1,2.15-4.19,3.58-5.82,2.28-1.03,2.13-3.51,3.6-5.33,1.88-.21.3-.46.58-.78.76-.56.32-1.03.24-1.4-.04-.27.35-.59.64-.95.84-1.24.7-2.65.38-3.46-.65-.49.63-1.2,1.12-1.91,1.24-1.04.17-2.06-.28-2.49-1.09-.84.93-2.05,1.57-3.16,1.56-2.77-.04-3.63-2.85-3.19-5.14-.94.2-1.97,0-2.78-.66-.86-.7-1.21-1.58-1.27-2.52-.11.43-.14.88-.09,1.35Z"/>
        <path class="cls-8" d="M24.65,30.16c.16,1.31,1.05,2.42,2.2,2.91-.99,1.78-.69,4.12.56,5.7,2.72,3.42,8.09,2.71,11.35.11.58.76,1.45,1.31,2.56,1.51,2.02.35,3.75-.67,5.08-2.07,2.33,1.19,5.04,1.47,7.47.21,1.15-.6,2.15-1.51,2.63-2.59,2.04,1.26,4.74,1.73,6.76,1.1,2.47-.78,4.53-3.14,5.12-5.73.25-.03.51-.06.74-.1,2.67-.47,5.96-2.08,6.34-4.71,3.98.71,6.36-5.49,5.15-8.82,2.08-1.21,3.73-2.96,3.85-5.59.02-.47,0-.89-.08-1.29-.36,1.07-1.01,1.96-1.9,2.27-.06.74-.36,1.51-.8,2.11-.85,1.15-2.74,2.59-4.39,2.52-.24.87-.67,1.7-1.22,2.36-.64.76-1.54,1.5-2.57,1.59-.09,0-.18,0-.28,0-.18.65-.44,1.24-.69,1.6-.43.63-1.1,1.23-1.91,1.27-.29.01-.6-.05-.89-.18-.21.68-.57,1.32-1.02,1.82-.87.97-2.56,1.79-3.62,1.02-.11.27-.24.52-.41.74-.51.67-1.37.96-2.04.66-.22.51-.53.98-.95,1.36-1.25,1.15-3.15,1.44-4.43.43-1.1,2.15-4.19,3.58-5.82,2.28-1.03,2.13-3.51,3.6-5.33,1.88-.21.3-.46.58-.78.76-.56.32-1.03.24-1.4-.04-.27.35-.59.64-.95.84-1.24.7-2.65.38-3.46-.65-.49.63-1.2,1.12-1.91,1.24-1.04.17-2.06-.28-2.49-1.09-.84.93-2.05,1.57-3.16,1.56-2.77-.04-3.63-2.85-3.19-5.14-.94.2-1.97,0-2.78-.66-.86-.7-1.21-1.58-1.27-2.52-.11.43-.14.88-.09,1.35Z"/>
      </g>
      <g>
        <path class="cls-25" d="M17.89,69.08c.47,1.42,2.24,2.11,3.83,1.66.71-.2,1.37-.61,1.87-1.15.37.26.85.37,1.42.2.06-.02.11-.05.17-.08.67.88,1.8,1.21,2.96.43.5-.34.94-.89,1.25-1.53,1.07,1.55,3.43,2.03,5.07.87.54-.38.93-.92,1.2-1.54.4-.02.81-.17,1.17-.47.22-.18.4-.42.56-.66,1.03.55,2.76-.07,3.52-.84.34-.35.59-.77.76-1.23,1.5.36,3.06-.43,3.97-1.81.15-.23.27-.46.37-.7.47.05.98-.17,1.34-.65.16-.21.3-.47.4-.74,1.22.07,2.36-1.1,2.66-2.31.14-.56.08-1.24-.1-1.93.87-.16,1.56-.73,2.08-1.49-.05-.04-.1-.08-.15-.12.64-.78.95-1.69.28-2.7-.49-.75-1.19-1.24-1.98-1.5,1.18-1.74,1.45-3.79-.49-5.37-1.28-1.05-2.98-1.46-4.5-1.08-.67-1.61-3.61-1.3-5.41.13-.38-.6-1-1.04-1.78-1.19-1.28-.24-2.41.38-3.27,1.26-2.2-1.25-6.22,1.07-6.83,3.42-1.43-.42-3.32.33-3.67,1.59-2.26-.09-4.67.83-6.09,2.6-.55.69-.78,1.79-.55,2.66-1.07.07-2.11.49-2.78,1.25-.78.89-.9,2.04-.49,2.95-2.15.77-3.88,2.5-3.49,5.07.17,1.11,1.17,2.39,2.31,2.92-.3.39-.51.84-.64,1.32.7.69,1.71,1.18,2.5,1.28.72.1,1.69-.1,2.52-.52Z"/>
        <path class="cls-10" d="M13.05,70.46c.84,1.78,2.57,2.15,4.04,1.56.71,3.58,6.63,4.54,9.01,1.47.32.33.76.57,1.34.64,1.55.19,2.45-.83,2.94-2.08,2.11,1.56,5.64.97,7.75-.46.58-.39,1.12-1.02,1.55-1.75,1.87.45,4.45.17,5.45-.27,1.87-.82,3.85-3.17,4.06-5.42,1.57-.2,3.23-.87,4.19-1.88,1.47-1.55,1.49-3.96.36-5.7-.32-.49-.8-1.02-1.36-1.45-.52.76-1.21,1.33-2.08,1.49.18.69.24,1.37.1,1.93-.29,1.22-1.43,2.38-2.66,2.31-.11.27-.24.53-.4.74-.36.48-.87.71-1.34.65-.1.24-.22.47-.37.7-.91,1.38-2.47,2.18-3.97,1.81-.17.47-.42.89-.76,1.23-.76.77-2.5,1.39-3.52.84-.16.25-.34.48-.56.66-.36.3-.77.45-1.17.47-.27.62-.66,1.16-1.2,1.54-1.64,1.16-4,.67-5.07-.87-.31.63-.75,1.19-1.25,1.53-1.16.78-2.29.45-2.96-.43-.06.02-.11.06-.17.08-.56.17-1.05.06-1.42-.2-.5.55-1.16.95-1.87,1.15-1.59.44-3.36-.24-3.83-1.66-.83.42-1.8.62-2.52.52-.79-.11-1.79-.59-2.5-1.28-.18.7-.15,1.46.18,2.14Z"/>
      </g>
      <g>
        <path class="cls-19" d="M107.57,121.87c1.23-1.03,2.8-1.76,4.07-2.79,1.27-1.02,3.02-2.14,4.66-1.16,1.27.75,1.12,1.88.86,3.03.11,1.11.24,1.92,1.08,2.9.68.8,1.85,1.44,2.34,2.4.59,1.18.01,2.32-1.33,2.47-1.02.12-1.86-.59-2.67-1.07-1.66-1-3.43-1.64-5.3-2.16-1.13-.31-4.79-.46-4.64-2.33.05-.6.5-.94.92-1.29Z"/>
        <path class="cls-19" d="M133.28,130.55c.73.02,1.65-.09,2.31.3,3.57,2.14-4.85,3.91-5.63,4-1.81.2-3.54-.83-5.1-1.63-1.14-.58-3.35-1.3-3.33-2.9.03-2.3,2.02-1.64,4.1-.96,3.85,1.27,6.07,1.15,7.65,1.18Z"/>
        <path class="cls-19" d="M149.15,123.36c1.56-1.44,3.72-.84,5.65-1.26,1.86-.71-.17-2.95,1.75-3.58,2.18-.71,3.16-.32,4.66.93,1.26,1.05-.24,2.14-.95,3.31-1.04,1.7-1.25,3.39-3.04,4.57-1.34.88-2.94,1.22-4.51.92-1.29-.25-3.6-.94-4.21-2.28-.41-.89-.03-1.97.65-2.6Z"/>
        <path class="cls-19" d="M74.4,130.66c1.06-.71,2.58-.77,3.48.23,1.17,1.29.49,3.07.75,4.64.63,1.2,1.62,2.05,2.64,3,.47.44,1.03.88,1.11,1.57.16,1.3-1.07,1.99-2.17,2.14-1.9.26-3.16-.67-4.39-2.02-2.04-2.23-4.89-7.24-1.43-9.55Z"/>
        <path class="cls-19" d="M87.9,143.58c1.46.52,3.44.8,4.47,2.07,1.42,1.75.53,3.77-1.63,2.34-.94-.62-1.77-1.27-2.91-1.53-1.05-.24-2.11.1-3.14-.11-.77-.16-1.98-.9-2.18-1.72-.26-1.1,1.73-2.35,5.38-1.05Z"/>
      </g>
      <g>
        <path class="cls-15" d="M107.35,31.15s1.66,2.82,1.66,4.89c0,1.49-1.72,2.29-2.11-.75-.17-1.33.45-4.14.45-4.14Z"/>
        <path class="cls-15" d="M155.43,70.78s1.66,2.82,1.66,4.89c0,1.49-1.72,2.29-2.11-.75-.17-1.33.45-4.14.45-4.14Z"/>
        <path class="cls-15" d="M164.42,86.93s1.66,2.82,1.66,4.89c0,1.49-1.72,2.29-2.11-.75-.17-1.33.45-4.14.45-4.14Z"/>
        <path class="cls-15" d="M95.68,38.67s1.66,2.82,1.66,4.89c0,1.49-1.72,2.29-2.11-.75-.17-1.33.45-4.14.45-4.14Z"/>
        <path class="cls-15" d="M61.11,43.37s1.66,2.82,1.66,4.89c0,1.49-1.72,2.29-2.11-.75-.17-1.33.45-4.14.45-4.14Z"/>
        <path class="cls-15" d="M18.8,76.83s1.66,2.82,1.66,4.89c0,1.49-1.72,2.29-2.11-.75-.17-1.33.45-4.14.45-4.14Z"/>
        <path class="cls-15" d="M111.98,40.74s1.66,2.82,1.66,4.89c0,1.49-1.72,2.29-2.11-.75-.17-1.33.45-4.14.45-4.14Z"/>
        <path class="cls-15" d="M124.9,66.11s1.66,2.82,1.66,4.89c0,1.49-1.72,2.29-2.11-.75-.17-1.33.45-4.14.45-4.14Z"/>
        <path class="cls-15" d="M108.1,46.48s1.66,2.82,1.66,4.89c0,1.49-1.72,2.29-2.11-.75-.17-1.33.45-4.14.45-4.14Z"/>
        <path class="cls-15" d="M155.43,94.88s1.66,2.82,1.66,4.89c0,1.49-1.72,2.29-2.11-.75-.17-1.33.45-4.14.45-4.14Z"/>
        <path class="cls-15" d="M135.88,70.69s1.66,2.82,1.66,4.89c0,1.49-1.72,2.29-2.11-.75-.17-1.33.45-4.14.45-4.14Z"/>
        <path class="cls-15" d="M84.78,49.58s1.66,2.82,1.66,4.89c0,1.49-1.72,2.29-2.11-.75-.17-1.33.45-4.14.45-4.14Z"/>
        <path class="cls-15" d="M30.37,75.51s1.66,2.82,1.66,4.89c0,1.49-1.72,2.29-2.11-.75-.17-1.33.45-4.14.45-4.14Z"/>
        <path class="cls-15" d="M16.67,83.94s1.66,2.82,1.66,4.89c0,1.49-1.72,2.29-2.11-.75-.17-1.33.45-4.14.45-4.14Z"/>
        <path class="cls-15" d="M88.94,53.95s1.66,2.82,1.66,4.89c0,1.49-1.72,2.29-2.11-.75-.17-1.33.45-4.14.45-4.14Z"/>
        <path class="cls-15" d="M85.85,31.15s1.66,2.82,1.66,4.89c0,1.49-1.72,2.29-2.11-.75-.17-1.33.45-4.14.45-4.14Z"/>
        <path class="cls-15" d="M60.04,53.95s1.66,2.82,1.66,4.89c0,1.49-1.72,2.29-2.11-.75-.17-1.33.45-4.14.45-4.14Z"/>
        <path class="cls-15" d="M131.67,79.04s1.66,2.82,1.66,4.89c0,1.49-1.72,2.29-2.11-.75-.17-1.33.45-4.14.45-4.14Z"/>
      </g>
    </g>
  </g>
</svg>