<?xml version="1.0" encoding="UTF-8"?>
<svg id="Layer_2" data-name="Layer 2" xmlns="http://www.w3.org/2000/svg" viewBox="0 0 170.45 148.82">
  <defs>
    <style>
      .cls-1 {
        fill: #ff5252;
      }

      .cls-1, .cls-2, .cls-3, .cls-4, .cls-5, .cls-6, .cls-7, .cls-8, .cls-9, .cls-10, .cls-11, .cls-12, .cls-13, .cls-14, .cls-15, .cls-16, .cls-17, .cls-18, .cls-19, .cls-20, .cls-21, .cls-22, .cls-23, .cls-24, .cls-25 {
        stroke-width: 0px;
      }

      .cls-2 {
        fill: #31c0ff;
      }

      .cls-3 {
        fill: #92d60f;
      }

      .cls-4 {
        fill: #5e2e1f;
      }

      .cls-5 {
        fill: #ffd56c;
      }

      .cls-6 {
        fill: #5fad00;
      }

      .cls-7 {
        fill: #19a8f7;
      }

      .cls-8 {
        fill: #3d160e;
      }

      .cls-9, .cls-16 {
        fill: #723828;
      }

      .cls-10 {
        fill: #3f1922;
      }

      .cls-11 {
        fill: #f28400;
      }

      .cls-12 {
        fill: #c1592b;
      }

      .cls-13 {
        fill: #4f2115;
      }

      .cls-14 {
        fill: #2e1117;
      }

      .cls-15 {
        fill: #542230;
      }

      .cls-16 {
        opacity: .5;
      }

      .cls-17 {
        fill: #874232;
      }

      .cls-18 {
        fill: #fff;
      }

      .cls-19 {
        fill: #d87745;
      }

      .cls-20 {
        fill: #282027;
      }

      .cls-21 {
        fill: #ffc200;
      }

      .cls-22 {
        fill: #76bf00;
      }

      .cls-23 {
        fill: #519900;
      }

      .cls-24 {
        fill: #fa0;
      }

      .cls-25 {
        fill: #f23b3b;
      }
    </style>
  </defs>
  <g id="Layer_1-2" data-name="Layer 1">
    <g>
      <g>
        <polygon class="cls-14" points="170.45 82.83 170.39 95.04 76.25 148.82 76.32 136.6 170.45 82.83"/>
        <polygon class="cls-10" points=".06 92.07 0 104.29 76.25 148.82 76.32 136.6 .06 92.07"/>
        <g>
          <path class="cls-13" d="M131.06,77.14c-12.32,17.88-31.81,17.54-42.14,29.52-13.51,15.68-12.61,29.94-12.61,29.94h0s-.03,5.7-.03,5.7l94.13-53.77.03-44s-18.68,2.55-39.39,32.61Z"/>
          <path class="cls-8" d="M137.79,85.48c-10.92,18.77-30.8,22.05-40.21,33.4-14.22,17.16-21.29,23.42-21.29,23.42l94.13-53.77.03-38.82s-21.64,16.83-32.66,35.77Z"/>
          <path class="cls-9" d="M94.2,0s-.01.02-.03.05v-.05s-23.68,16.82-36.82,36.02c-12.27,17.91-25.72,18.05-36.04,30.03C7.79,81.73.03,92.07.03,92.07h0s-.03,5.7-.03,5.7l4.97-2.84,71.35,41.66s3.71-9.43,19.72-25.36c8.07-8.03,17.76-8.28,27.16-15.24,6.23-4.61,8.14-9.82,10.43-15.46,2.84-7.02,4.16-12.25,11.17-18.29,12.92-11.15,25.66-17.73,25.66-17.73L94.2,0Z"/>
        </g>
        <polygon class="cls-4" points=".06 92.07 .03 97.77 76.29 142.3 76.32 136.6 .06 92.07"/>
      </g>
      <path class="cls-4" d="M116.03,31.29c-.09-.19-.3-.24-.48-.19-3.08-3.11-12.02-2.1-15.03-1.72-3.36.43-7.24.77-9.23,3.86-1.19,1.85-2.05,3.36-3.99,4.54-1.48.9-3.11,1.51-4.63,2.32-1.77.94-4.83,2.68-3.97,5.15,1.06,3.02,5.86,3.38,8.13,5.01,1.29.93,1.95,2.69,3.63,3.01,1.6.31,3.75-.7,5.23-1.19,1.62-.54,3.23-1.19,4.68-2.11,1.76-1.13,3-2.81,4.69-4.01,3.01-2.14,7.2-1.95,9.96-4.51,2.72-2.52,2.51-7.04,1.02-10.17Z"/>
      <path class="cls-17" d="M41.69,58.91c-3.21,1.58-6.6,2.99-9.67,4.82-2.49,1.49-3.4,3.52-4.91,5.86-1.1,1.69-2.58,2.6-4.24,3.67-.66.43-1.91,1.07-2.24,1.84-.74,1.76,1.74,1.85,2.73,1.44,2.62-1.09,4.87-6.07,7.58-9.45,2.25-2.81,6.19-4.12,9.55-5.37,1.05-.39,4.3-1.04,4.11-2.69-.2-1.7-2.13-.51-2.92-.12Z"/>
      <path class="cls-17" d="M107.18,99.53c-3.3,1.39-6.76,2.59-9.94,4.24-2.58,1.33-3.6,3.32-5.25,5.56-1.2,1.62-2.73,2.44-4.45,3.42-.69.39-1.97.95-2.34,1.71-.85,1.71,1.63,1.95,2.64,1.59,2.68-.94,5.22-5.77,8.13-8.99,2.41-2.67,6.43-3.74,9.86-4.79,1.07-.33,4.36-.78,4.27-2.44-.09-1.71-2.1-.64-2.9-.3Z"/>
      <path class="cls-17" d="M95.95,4.03c-.37.23-6.15,1.95-9.35,4.89-5.34,4.91-9.46,12.48-12.93,16.78-1.83,2.27-3.88,4.26-6.29,5.91-2.07,1.41-4.24,2.69-6.01,4.49-4.02,4.08-6.88,9.53-10.03,14.28-.24.36.16.88.57.74,6.19-2.06,6.91-9.04,10.6-13.54,3.71-4.51,9.82-6.09,13.56-10.62,3.31-4.01,5.07-9.1,8.58-12.96,2.3-2.53,5.05-3.27,8.04-4.66,2.12-.98,3.75-2.46,4.03-4.86.05-.4-.47-.63-.78-.45Z"/>
      <path class="cls-17" d="M152.02,48.25c-.37.23-6.15,1.95-9.35,4.89-5.34,4.91-9.46,12.48-12.93,16.78-1.83,2.27-3.88,4.26-6.29,5.91-2.07,1.41-4.24,2.69-6.01,4.49-4.02,4.08-6.88,9.53-10.03,14.28-.24.36.16.88.57.74,6.19-2.06,6.91-9.04,10.6-13.54,3.71-4.51,9.82-6.09,13.56-10.62,3.31-4.01,5.07-9.1,8.58-12.96,2.3-2.53,5.05-3.27,8.04-4.66,2.12-.98,3.75-2.46,4.03-4.86.05-.4-.47-.63-.78-.45Z"/>
      <g>
        <path class="cls-10" d="M51.4,64.25s-1.26.92-3.49,1.77c-2.68,1.03-6.49,2.04-7.63,2.34-2.51.65-4.16,1.41-5.45,2.56-1.56,1.4-1.92,2.59-2.87,3.87,1.88-1.52,2.41-3.28,4.66-4.22,2.25-.94,6.35-2.11,9.49-2.93,3.14-.82,5.3-2.06,5.3-2.06v-1.33Z"/>
        <path class="cls-10" d="M32.91,68.35c1.01.1,2.2,0,3.1,0s1.35.77,1.86,1.16c.51.39.85,0,.68-.29-.17-.3-1.24-1.13-2.25-1.35-1.01-.23-2.65.11-3.38.48Z"/>
        <path class="cls-10" d="M39.67,69.22s.62.34.91,1.86c.28,1.52.14,2.81-.06,4.28-.1.76.19,1.52.19,1.52,0,0,.3-.9.56-2.37.26-1.47.31-2.23,0-3.61-.31-1.38-.98-2.17-.98-2.17l-.62.48Z"/>
        <path class="cls-10" d="M37.76,64.25s2.82.45,4.2.65c1.47.21,2.36,1.83,2.79,2.3.43.47.73,0,.73,0h.68s-.34-.07-1.29-1.07-1.13-1.77-3-1.87c-1.87-.1-4.1,0-4.1,0Z"/>
      </g>
      <g>
        <path class="cls-11" d="M131.61,42.02l-8.85.59s-.36-2.91,2.86-4c3.22-1.09,5.4-1.19,5.4-1.19l.59,4.6Z"/>
        <path class="cls-5" d="M127.87,25.19s-11.76-.98-18.7,1.75c-2.89,1.14-4.74,4.21-6.71,5.81l-.76,3.71,22.92-1.04,4.23-8.02c.37-.78-.11-2.27-.97-2.21Z"/>
        <path class="cls-5" d="M89.35,52.79c2.55,2.14,5.55,1.47,8.47.68,4.03-1.09,6.37-.26,9.24,2.57.74-2.11,2.65-7.34,4.59-11.18,2.48-4.91,7.46-12.54,7.46-12.54l-16.65.43s-5.11-.93-8.5,5.37c-1.24,2.3-3.23,6.71-6.03,12.85.35.68.81,1.31,1.42,1.82Z"/>
        <path class="cls-21" d="M89.35,52.79s.03.02.05.04c2.35-4.9,5.3-11.05,6.04-12.52,1.57-3.1,3.16-6.53,3.16-6.53l-.73.22s-3.93,8.11-6.97,14.31c-.72,1.46-1.38,2.83-1.97,4.06.14.14.27.29.43.42Z"/>
        <path class="cls-21" d="M105.23,54.48c2.38-4.98,6.5-13.58,7.4-15.35,1.57-3.1,3.16-6.53,3.16-6.53l-.73.22s-3.93,8.11-6.97,14.31c-1.35,2.76-2.51,5.17-3.37,7.01.17.11.35.22.52.35Z"/>
        <path class="cls-5" d="M116.94,32.6l3.75-1.69,4.64-.44s-7.19,3.62-8.04,3.8c-.85.18-.35-1.67-.35-1.67Z"/>
        <g>
          <path class="cls-14" d="M128.42,42.77c1.71,2.53,2.17,6.51,1.01,8.89-1.15,2.38-3.48,2.26-5.19-.27-1.71-2.53-2.17-6.51-1.01-8.89,1.16-2.38,3.48-2.26,5.19.27Z"/>
          <polygon class="cls-14" points="127.44 53.34 130.54 53.12 128.14 40.62 124.93 40.87 127.44 53.34"/>
          <path class="cls-10" d="M131.52,42.54c1.71,2.53,2.17,6.51,1.01,8.89-1.15,2.38-3.48,2.26-5.19-.27-1.71-2.53-2.17-6.51-1.01-8.89,1.15-2.38,3.48-2.26,5.19.27Z"/>
          <path class="cls-18" d="M130.93,43.76c1.23,1.82,1.56,4.68.73,6.39-.83,1.71-2.5,1.62-3.73-.19-1.23-1.82-1.56-4.68-.73-6.39.83-1.71,2.5-1.62,3.73.19Z"/>
          <path class="cls-14" d="M130.32,45.19c.63.93.8,2.39.37,3.26-.42.87-1.28.83-1.91-.1s-.8-2.39-.37-3.26c.42-.87,1.28-.83,1.91.1Z"/>
          <path class="cls-15" d="M130.19,45.45c.52.77.66,1.99.31,2.72s-1.06.69-1.59-.08c-.52-.77-.66-1.99-.31-2.72.35-.73,1.06-.69,1.59.08Z"/>
        </g>
        <g>
          <path class="cls-21" d="M132.69,30.04c-.5-1.27-3.06-4.87-4.82-4.85-1.31,1.29-1.18,4.4-4.22,5.73-.85.37-3.75,1.06-5.56,2.48-1.92,1.51-2.53,3.02-3.61,5.33-.86,1.83-4.02,8.21-6.23,13.39-.61,1.43-1.14,2.6-1.53,3.59.12.11.23.21.36.33.76.75,1.54,1.44,2.6,1.72,1.44.38,2.67-.25,4.02-.58,2.44-.6,3.99.39,6.27,1,1.4.37,2.72.11,4-.35.98-2.03,1.94-4.01,2.84-5.87-.49-.96-1.95-4.13-2.03-5.3-.16-2.34.74-6.34,1.91-6.97,3.74-2.03,4.79,2.64,5.16,1.87.52-1.07.81-1.68.81-1.68,1.68-3.45.94-7.55.05-9.84Z"/>
          <path class="cls-5" d="M117.63,57.44c.53.17,1.07.36,1.65.54.2-.4.38-.77.54-1.07.96-1.92,4.06-7.04,4.06-7.04.14.74.69,1.86,1.61,3.38.08-.16.16-.32.24-.49.04-.09.16-.33.34-.7-.02-.04.4-.64.38-.67-.83-1.23-1.43-2.69-1.75-4.18l.11-.22v-3.05s.7-3.13.7-3.13c.18-.41-.22.3-.89,1.67.13-.58.31-1.13.55-1.64,1.41-2.91,4.06-2.72,6.16.38,0,0,0,0,0,0,.12-.24.24-.49.36-.74-2.54-3.7-5.96-3.87-7.66-.36-.75,1.54-1.04,3.54-.92,5.61-.27.61-.56,1.25-.84,1.92-.69,1.62-2.56,5.54-4.62,9.81Z"/>
        </g>
        <path class="cls-21" d="M104.6,32.67s1.28-3.19,4.44-4.42c3.16-1.23,7.69-1.13,7.69-1.13l-3.46,5.15-8.66.4Z"/>
        <path class="cls-24" d="M125.19,40.77c-1.53,3.15-.94,8.42,1.33,11.78.07-.15.14-.29.21-.44.04-.08.14-.3.3-.63-.02-.03-.05-.06-.07-.09-1.88-2.78-2.38-7.14-1.11-9.76,1.27-2.61,3.82-2.48,5.7.3.02.03.04.06.06.09.15-.3.3-.62.45-.93-2.27-3.32-5.34-3.47-6.87-.32Z"/>
        <path class="cls-14" d="M109.67,57.76c1.44.38,2.67-.25,4.02-.58.35-.09.69-.13,1.01-.16l9.77-20.08c.39-.8-.18-1.74-1.07-1.76-1.65-.04-3.88-.04-4.54.18-1.71.57-3.55,4.41-5.6,8.77-2.77,5.9-5.03,10.75-5.65,12.2-.02.05-.03.11-.05.17.61.56,1.27,1.04,2.11,1.26Z"/>
        <path class="cls-7" d="M97.56,34s6.38-.61,9.41-.65c4.51-.07,10.25-.62,10.25-.62l5.57-2c-1.82.09,0,0-3.45.29-4.92.42-10.48.58-11.38.62-1.23.05-3.51.31-4.73.46-2.47.31-5.16,1.43-5.68,1.9Z"/>
        <path class="cls-24" d="M123.95,57.83l3.04-6.27-.83-.73-3.58,7.39c.46-.09.92-.23,1.37-.39Z"/>
        <path class="cls-7" d="M109.67,57.76c1.44.38,2.67-.25,4.02-.58.03,0,.07,0,.1-.02l1.81-3.73-3.55-5.24s-2.13,4.53-3.34,7.2c-.25.55-.38,1.14-.45,1.69.42.3.88.54,1.41.68Z"/>
        <path class="cls-7" d="M112.73,47.04l3.57,5.27,4.9-10.32s-1.35-2.01-1.86-2.53c-.45-.46-1.81-1.85-1.81-1.85l-4.8,9.44Z"/>
        <path class="cls-7" d="M118.13,36.87s1.31,1.28,1.75,1.76c.44.47,1.82,2.41,1.82,2.41,0,0,1.09-2.37,1.37-2.88.28-.51.2-1.36-1.5-1.45-1.26-.06-3.45.15-3.45.15Z"/>
        <path class="cls-14" d="M129.73,26.3l-.06.14c-.17.4-.12.87.12,1.23l.81,1.19c.69,1.02,1.3,2.28,1.3,2.28l.64-1.45s-.23-1.54-1.41-2.73c-.7-.71-1.41-.66-1.41-.66Z"/>
        <path class="cls-5" d="M128.45,38.01s2.39-3.89,3.6-7.28c.2-.55.34-1.66.34-1.66,0,0,.6.24.53,2.45-.03.75-1.95,6.06-2.84,7.24-1.39-.89-1.62-.75-1.62-.75Z"/>
      </g>
      <path class="cls-4" d="M135.57,54.91c-1.37-1.24-3.58-.89-4.96.12-2.26,1.66-2.81,4.72-4.78,6.45-2.85,1.49-6.37.46-9.7.75-1.8.16-3.42.86-5.14,1.34-2.91.81-5.06-.32-7.67-1.44-2.36-1.02-5.25-1.5-7.17.58-.15.17-.17.44,0,.6,1.71,1.66,3.41,3.33,5.11,5,1.06,1.04,2.19,2.46,3.64,3,.97.36,1.84.23,2.79-.12,2.18-.8,3.48-2.02,5.87-.78,2.5,1.29,4.78,2.8,7.75,2,1.16-.31,2.04-.94,2.84-1.81.75-.81,1.19-1.75,2.18-2.34.86-.52,1.92-.68,2.85-1.05,2.56-1.01,4.18-3.19,5.47-5.53,1-1.83,2.94-4.91.9-6.75Z"/>
      <path class="cls-4" d="M130.1,81.17c-.35-1.43-1.77-1.94-2.98-1.1-.86.6-1.08,1.52-1.28,2.5-.25,1.23-.56,2.25-.98,3.28-.16.19-.39.4-.74.64-.8.55-1.88.59-2.81.67-.91.09-1.86.09-2.75.34-1.13.33-2.79,1.4-2.28,2.84.26.74.68.78,1.41.83,1.67.12.98-.34,2.75.04.66.14,1.29.37,1.97.4,2.26.1,3.81-1.56,4.98-3.31,1.23-1.83,3.28-4.79,2.71-7.14Z"/>
      <path class="cls-4" d="M106.53,81.39c-1.25-1.04-2.87-1.5-4.46-1.69-1.42-.17-2.86-.12-4.28-.29-1.82-.21-3.51-.82-5.26-1.3-8.92-2.42-18.58,3.7-24.5,9.96-3.3,3.48-6.01,7.63-7.65,12.15-2.09,5.78,3.57,7.11,7.52,9.43.1.06.21.07.31.06,5.34,2.22,11.83,1.22,16.67-2.17,2.1-1.47,4.15-2.57,6.62-3.31,2.12-.64,4.34-1.17,6.19-2.43,1.57-1.07,2.61-2.6,3.49-4.25,1.4-2.64,2.78-4.78,4.7-7.09,2.18-2.62,3.75-6.47.64-9.06Z"/>
      <path class="cls-4" d="M81.65,110.75c-2.33.63-3.86,2.53-5.09,4.52-.97,1.05-1.68,2.24-3.14,2.98-2.03,1.03-4.74,1.57-5.61,4-.47,1.32-.07,3.25,1.58,3.38.81.06,1.4-.41,1.95-.94,1.42-1.37,2.33-2.67,4.36-3.29,2.23-.68,4.31-.4,5.63-2.65.82-1.41,1.15-2.76,2.27-4,.65-.72,1.52-1.27,1.5-2.38-.02-1.89-2.04-1.98-3.46-1.6Z"/>
      <path class="cls-4" d="M21.7,93.24c-2.36-2.83-.6-6.54.89-9.33,2.85-5.36-3.51-3.44-3.54-3.43-3.98.53-8.93,8.05-4.87,10.97.93.67,1.77,1.08,2.43,2.08.45.69.75,1.46,1.14,2.18.67,1.26,1.48,2.38,2.76,3.08,1.45.81,4.39,1.56,4.93-.67.6-2.48-2.53-3.45-3.74-4.9Z"/>
      <path class="cls-4" d="M82.77,57.1c-.33,0-.64.22-.94.22-1.15.03-1.44-.81-2.07-1.54-.48-.56-1.53-2.42-2.27-2.64-3.59-1.1-8.13,1.28-9.59-.32-1.14-1.25-1.03-3.21-2.27-4.32-2.6-2.32-5.61.77-7.3,2.53-2.84,2.98-7.74,3.42-10.04,6.94-1.88,2.87.51,4.17,3.34,3.83,1.58-.18,3.01-.85,4.41-1.56,1.19-.6,2.84-1.86,4.16-1.47,1,.3,1.5,1.2,2.45,1.69,3.93,2.04,7.61-3.06,11.31-.31,1.31.97,2.27,2.22,3.89,2.7,1.45.42,3.09.24,4.42-.48,1.2-.64,2.5-1.88,2.4-3.36-.07-1.03-.85-1.93-1.91-1.94Z"/>
      <g>
        <path class="cls-10" d="M87.16,21.3s2.86,1.5,5.23,2.33c2.36.83,2.84.58,5.16-.9,1.74-1.11,3.29-.08,4.72-.53,1.43-.45,4.06-1.8,4.06-1.8l-.74-.83s-1.44.9-2.94,1.5c-1.5.6-4.31.17-5.43.72-1.11.55-1.86,1.68-3.22,1.53-1.35-.15-6.01-2.25-6.84-2.03Z"/>
        <g>
          <path class="cls-10" d="M91.15,26.93s-.32-.71,0-2.18c.32-1.47.78-2.03.78-2.03l.46.53s-.94,1.73-1.24,3.68Z"/>
          <path class="cls-10" d="M94,19.57s.86.65,2.31,1.35c1.45.7,2,1.2,2,1.2h.87s-1.05-1.05-2.44-1.73c-1.39-.68-2.74-.83-2.74-.83Z"/>
          <path class="cls-10" d="M101.07,22.12s.23,1.2-.79,2.71c-1.02,1.5-1.78,1.79-2.31,3.05-.53,1.28-.07,3.19-.07,3.19,0,0,.36-1.98.9-3.08.77-1.55,2.33-2.74,2.71-3.96s0-2.23,0-2.23l-.45.33Z"/>
        </g>
      </g>
      <g>
        <path class="cls-10" d="M55.9,112.47s2.86,1.5,5.23,2.33c2.36.83,2.84.58,5.16-.9,1.74-1.11,3.29-.08,4.72-.53,1.43-.45,4.06-1.8,4.06-1.8l-.74-.83s-1.44.9-2.94,1.5c-1.5.6-4.31.17-5.43.72s-1.86,1.68-3.22,1.53c-1.35-.15-6.01-2.25-6.84-2.03Z"/>
        <g>
          <path class="cls-10" d="M59.89,118.1s-.32-.71,0-2.18c.32-1.47.78-2.03.78-2.03l.46.53s-.94,1.73-1.24,3.68Z"/>
          <path class="cls-10" d="M62.74,110.74s.86.65,2.31,1.35c1.45.7,2,1.2,2,1.2h.87s-1.05-1.05-2.44-1.73c-1.39-.68-2.74-.83-2.74-.83Z"/>
          <path class="cls-10" d="M69.81,113.29s.23,1.2-.79,2.71c-1.02,1.5-1.78,1.79-2.31,3.05-.53,1.28-.07,3.19-.07,3.19,0,0,.36-1.97.9-3.08.77-1.55,2.33-2.74,2.71-3.96.38-1.22,0-2.23,0-2.23l-.45.33Z"/>
        </g>
      </g>
      <g>
        <path class="cls-10" d="M105.98,67.21s1.26.91,3.49,1.77c2.68,1.03,6.49,2.04,7.63,2.34,2.51.65,4.16,1.41,5.45,2.56,1.56,1.4,1.92,2.59,2.87,3.87-1.88-1.52-2.41-3.28-4.66-4.22-2.25-.94-6.35-2.11-9.49-2.93-3.14-.82-5.3-2.06-5.3-2.06v-1.33Z"/>
        <path class="cls-10" d="M124.47,71.32c-1.01.1-2.2,0-3.1,0s-1.35.77-1.86,1.16c-.51.39-.85,0-.68-.29.17-.3,1.24-1.13,2.25-1.35,1.01-.23,2.65.11,3.38.49Z"/>
        <path class="cls-10" d="M117.7,72.18s-.62.34-.91,1.86c-.28,1.52-.14,2.81.06,4.28.1.76-.19,1.52-.19,1.52,0,0-.3-.9-.56-2.37-.26-1.47-.31-2.23,0-3.61.31-1.38.98-2.17.98-2.17l.62.48Z"/>
        <path class="cls-10" d="M119.62,67.21s-2.82.45-4.2.65c-1.47.21-2.36,1.83-2.79,2.3-.43.47-.73,0-.73,0h-.68s.34-.07,1.29-1.07c.96-1.01,1.13-1.77,3-1.87,1.87-.1,4.1,0,4.1,0Z"/>
      </g>
      <path class="cls-10" d="M79.67,47.77s-2.53-4.97-5.51-8.49-4.73-4-6.59-4.35c-2.99-.56-5.85,1.27-5.74,2.8.13,1.72,1.11,2.23,2.74,2.23,1.64,0,3.71.31,5.74,2.51s3.36,5.3,4.54,6.43c1.18,1.13,3.43,1.74,4.81-1.13Z"/>
      <path class="cls-10" d="M140.87,53.62s2.53-4.97,5.51-8.49,4.73-4,6.59-4.35c2.99-.56,5.85,1.27,5.74,2.8-.13,1.72-1.11,2.23-2.74,2.23-1.64,0-3.71.31-5.74,2.51-2.03,2.2-3.36,5.3-4.54,6.43s-3.43,1.74-4.81-1.13Z"/>
      <g>
        <path class="cls-21" d="M86.41,29.39s-.59-3.95-5.65-3.95c-3.82,0-6.06,2.53-6.76,5.56-.7,3.03,4.7,5.2,7.87,3.17s4.54-4.78,4.54-4.78Z"/>
        <path class="cls-5" d="M81.58,26.06c-1.77-.44-4.34.77-5.3,2.02-.99,1.29-1.77,5.02,1.04,4.6,1.08-.16,1.41-1.15,1.89-1.97.68-1.16,1.53-1.84,2.89-1.88.45-.01.89.07,1.3-.2.87-.58.62-2.02-1.83-2.57Z"/>
      </g>
      <g>
        <path class="cls-25" d="M100.65,91.5s.59-3.95,5.65-3.95c3.82,0,6.06,2.53,6.76,5.56.7,3.03-4.7,5.2-7.87,3.17-3.17-2.03-4.54-4.78-4.54-4.78Z"/>
        <path class="cls-1" d="M105.48,88.17c1.77-.44,4.34.77,5.3,2.02.99,1.29,1.77,5.02-1.04,4.6-1.08-.16-1.41-1.15-1.89-1.97-.68-1.16-1.53-1.84-2.89-1.88-.45-.01-.89.07-1.3-.2-.87-.58-.62-2.02,1.83-2.57Z"/>
      </g>
      <g>
        <path class="cls-13" d="M80.7,5.71c-1.51-1.63-5.81-.43-5.8,2.43,0,2.02,2.5,2.57,4.09,1.83,1.52-.7,3.16-2.7,1.71-4.26Z"/>
        <path class="cls-16" d="M76.5,6.31c-.39.68.18,1.27.87,1.27.62,0,1.99-.3,2.23-1,.56-1.61-2.68-1.03-3.11-.28Z"/>
      </g>
      <g>
        <path class="cls-13" d="M142.65,40.7c-1.51-1.63-5.81-.43-5.8,2.43,0,2.02,2.5,2.57,4.09,1.83,1.52-.7,3.16-2.7,1.71-4.26Z"/>
        <path class="cls-16" d="M138.46,41.29c-.39.68.18,1.27.87,1.27.62,0,1.99-.3,2.23-1,.56-1.61-2.68-1.03-3.11-.28Z"/>
      </g>
      <g>
        <path class="cls-13" d="M107.49,75.66c1.51-1.63,5.81-.43,5.8,2.43,0,2.02-2.5,2.57-4.09,1.83-1.52-.7-3.16-2.7-1.71-4.26Z"/>
        <path class="cls-16" d="M111.68,76.26c.39.68-.18,1.27-.87,1.27-.62,0-1.99-.3-2.23-1-.56-1.61,2.68-1.03,3.11-.28Z"/>
      </g>
      <g>
        <path class="cls-13" d="M54.14,58.53c1.51-1.63,5.81-.43,5.8,2.43,0,2.02-2.5,2.57-4.09,1.83-1.52-.7-3.16-2.7-1.71-4.26Z"/>
        <path class="cls-16" d="M58.33,59.12c.39.68-.18,1.27-.87,1.27-.62,0-1.99-.3-2.23-1-.56-1.61,2.68-1.03,3.11-.28Z"/>
      </g>
      <g>
        <path class="cls-13" d="M65.15,22.93c-1.39,1.94-1.03,5.98,1.16,7.29,2.57,1.54,5.03-1.43,5.13-3.63.34-7.48-5.38-4.91-6.28-3.65Z"/>
        <path class="cls-16" d="M66.67,23.06c-.26-.02-1.1.21-1.49,2.38-.24,1.35.18,2.64,1.31,3.38,1.39.9,1.73-.84,1.76-1.86.04-1.38.39-3.78-1.58-3.9Z"/>
      </g>
      <g>
        <path class="cls-13" d="M27.31,62.98c-2.14-1.07-6.07-.06-7.01,2.3-1.11,2.78,2.21,4.74,4.4,4.49,7.44-.86,3.99-6.09,2.61-6.78Z"/>
        <path class="cls-16" d="M27.42,64.5c-.02-.26-.38-1.06-2.58-1.1-1.38-.03-2.58.6-3.13,1.83-.67,1.51,1.1,1.58,2.11,1.44,1.37-.18,3.79-.21,3.6-2.18Z"/>
      </g>
      <g>
        <path class="cls-13" d="M86.47,53.79c-2.14-1.07-6.07-.06-7.01,2.3-1.11,2.78,2.21,4.74,4.4,4.49,7.44-.86,3.99-6.09,2.61-6.78Z"/>
        <path class="cls-16" d="M86.59,55.31c-.02-.25-.38-1.06-2.58-1.1-1.38-.03-2.58.6-3.13,1.83-.67,1.51,1.1,1.58,2.11,1.44,1.37-.18,3.79-.21,3.6-2.18Z"/>
      </g>
      <g>
        <path class="cls-13" d="M80.64,114c-2.14-1.07-6.07-.06-7.01,2.3-1.11,2.78,2.21,4.74,4.4,4.49,7.44-.86,3.99-6.09,2.61-6.78Z"/>
        <path class="cls-16" d="M80.75,115.52c-.03-.25-.38-1.06-2.58-1.1-1.38-.03-2.58.6-3.13,1.83-.67,1.51,1.1,1.58,2.11,1.44,1.37-.18,3.79-.21,3.6-2.18Z"/>
      </g>
      <g>
        <path class="cls-19" d="M86.9,65.7c-.83-.89-3.44-1-4.08-1.14-.3-.06-1.37-.24-2.44-.41-.06.92-.36,1.67-.61,2.57-.21.75-.11,1.29.05,2.07.04.21.06.42.07.63,1.84,1.07,5.08.58,6.56-.37,1.44-.92,2.19-1.48.44-3.36Z"/>
        <path class="cls-25" d="M85.69,65.06s-1.03,1.14-1.22,2.22c-.19,1.08.43,2.47.43,2.47,0,0-.91,3.14-2.31,3.04-1.39-.1-2.82,2.35-3.52-1.66-.85-3.17,1.41-7.1,1.9-7.21.48-.12,4.72,1.14,4.72,1.14Z"/>
        <g>
          <path class="cls-12" d="M81.47,64.22l-.41,1.99s.29,2.47,2.27.75c1.16-1,1.21-1.99,1.21-1.99l-.84-2.84-2.23,2.09Z"/>
          <path class="cls-19" d="M83.52,58.36c-1-.78-3.39-1.06-4.3,1.4-.95,2.58,1.35,5.85,2.61,5.32.7-.3,2.19-1.37,2.62-2.73.49-1.53-.16-3.37-.94-3.98Z"/>
        </g>
        <path class="cls-14" d="M85.21,61.86c.69-.34.54-1.11-.23-1.45.75-.57.52-1.53-.42-1.57.54-.94-.41-1.61-1.3-1.05-.02-.22-.15-.42-.41-.54-.21-.1-.8-.02-.95.41-.27-.41-.57-.61-.84-.59-.55.06-.6.69-.78.91-.32-.19-1.11-.32-1.34.38-.11.35-.02.59.08.8-.68.02-1.37.31-1.1,1.15.27.83,1.34.88,2.1.59.1.86.98,1.2,1.81.91.02.7.35,1.43,1.12,1.56.38.06.67-.06.83-.28.52.51,1.31.88,1.78.13.35-.55.08-1.02-.34-1.34Z"/>
        <path class="cls-18" d="M84.46,64.7l.26.13s-.33,1.65-1.5,2.55c-1.17.9-2,.71-2.36-.2-.3-.76.33-1.65.33-1.65,0,0-.27,1.77.93,1.6,1.2-.17,2.33-2.44,2.33-2.44Z"/>
      </g>
      <g>
        <path class="cls-6" d="M30.32,82.34c-2.26,3.14-2.66,4.43-1.38,8.01l4.01-1.19-2.36-3.57,5.67-2.74,7.19,3.28,11.67-3.39-7.79-7.44-15.22,4.44c-.6.95-1.24,1.84-1.79,2.61Z"/>
        <path class="cls-22" d="M30.32,82.34c-2.35,3.26-2.69,4.52-1.22,8.45,1.27,3.38.87,6.94,2.05,10.26.66,1.85,1.83,3.4,3.32,4.52l5.56-1.62,3.38-27.51-11.3,3.3c-.6.95-1.24,1.84-1.79,2.61Z"/>
        <g>
          <path class="cls-23" d="M30.32,82.34c-2.33,3.23-2.68,4.5-1.27,8.32l19.49-5.7,2.56-9.98-19.65,5.75c-.39.58-.78,1.12-1.14,1.62Z"/>
          <path class="cls-3" d="M29.1,90.79c1.27,3.38.87,6.94,2.05,10.26.51,1.43,1.33,2.69,2.37,3.7l5.16-1.52,4.28-16.67-13.91,4.09s.03.09.05.13Z"/>
        </g>
        <path class="cls-6" d="M30.32,82.34c-2.33,3.23-2.68,4.5-1.27,8.32l16.7-4.89-.06-9.21-14.23,4.17c-.39.58-.78,1.12-1.14,1.62Z"/>
        <path class="cls-18" d="M71.78,75.38s.05-.06.06-.1c.05-.16,1.18-3.87,1.41-5.67.18-1.4-.85-2.33-1.94-3.32-.21-.19-.42-.38-.63-.58-.1-.09-.25-.09-.34,0-.09.1-.09.25,0,.34.21.2.43.4.64.59,1.08.98,1.93,1.75,1.78,2.9-.22,1.76-1.38,5.55-1.39,5.59-.04.13.03.26.16.3.09.03.19,0,.25-.06Z"/>
        <g>
          <g>
            <path class="cls-23" d="M70.96,104.64l2.04-8.66s-2.84-.84-4.46,2.18c-1.62,3.02-2.09,5.18-2.09,5.18l4.51,1.3Z"/>
            <g>
              <path class="cls-20" d="M72.08,101.95c1.96,1.87,5.37,2.84,7.62,2.18,2.25-.66,2.48-2.71.52-4.58-1.96-1.87-5.37-2.84-7.62-2.18-2.25.66-2.48,2.71-.52,4.58Z"/>
              <polygon class="cls-20" points="81.46 102.65 80.81 105.32 70.24 101.4 70.93 98.63 81.46 102.65"/>
              <path class="cls-14" d="M71.43,104.63c1.96,1.87,5.37,2.84,7.62,2.18,2.25-.66,2.48-2.71.52-4.58-1.96-1.87-5.37-2.84-7.62-2.18-2.25.66-2.48,2.71-.52,4.58Z"/>
              <path class="cls-18" d="M72.58,104.29c1.41,1.34,3.86,2.05,5.47,1.57,1.62-.47,1.78-1.95.38-3.29-1.41-1.34-3.86-2.04-5.47-1.57-1.62.47-1.78,1.95-.38,3.29Z"/>
              <path class="cls-14" d="M73.91,103.97c.72.69,1.97,1.04,2.8.8.83-.24.91-.99.19-1.68-.72-.69-1.97-1.04-2.8-.8-.83.24-.91.99-.19,1.68Z"/>
              <path class="cls-15" d="M74.16,103.9c.6.57,1.64.87,2.33.67s.76-.83.16-1.4c-.6-.57-1.64-.87-2.33-.67-.69.2-.76.83-.16,1.4Z"/>
            </g>
            <g>
              <g>
                <path class="cls-3" d="M73.5,70.98c-1.49-.79-3.65-1.91-6.25-3.21-2.42-1.21-4.01-1.75-5.32-1.9l-2.31,9.49-2.47,10.16-1.96,8.05,11.87,4.14,3.92-16.23,2.54-10.51s-.02,0-.03,0Z"/>
                <path class="cls-22" d="M58.13,66.39c-2.66.78-14.15,4.09-17.05,4.99-.95.3-1.65.57-2.15.84-3.8,15.02-6.02,24.92-6.02,24.92l21.98-2.31,2.26-9.31,4.78-19.65c-1.38-.16-2.44.11-3.8.51Z"/>
              </g>
              <polygon class="cls-22" points="73.53 70.98 67.52 95.88 87.1 90.98 93.04 66.08 73.53 70.98"/>
              <path class="cls-6" d="M87.1,90.98c-4.26,1.14-15.54,3.85-19.59,4.9-1.49-.79-3.65-1.91-6.25-3.21-4.97-2.48-6.46-2.16-9.12-1.39s-14.16,4.09-17.05,4.99c-.99.31-1.69.59-2.19.87l10.42,9.96c2.91-.73,5.71-2.24,8.62-2.83,4.55-.91,8.14.6,11.7,2.5l7.03-2.05-2.5-3.34,2.63-2.24,5.44-.89,5.2,3.34,12.82-3.73s-4.4-4.33-7.17-6.88Z"/>
              <polygon class="cls-3" points="94.27 97.86 87.1 90.98 93.05 66.06 100.22 72.91 94.27 97.86"/>
              <polygon class="cls-14" points="89.29 85.05 87.88 90.97 91.1 94.06 92.51 88.13 89.29 85.05"/>
              <polygon class="cls-21" points="88.78 88.93 88.32 90.85 90.92 93.35 91.38 91.42 88.78 88.93"/>
              <polygon class="cls-14" points="91.98 73.86 89.46 84.41 93.19 88.01 95.71 77.43 91.98 73.86"/>
              <polygon class="cls-15" points="92.25 74.61 89.94 84.32 93 87.27 95.32 77.54 92.25 74.61"/>
              <polygon class="cls-14" points="92.45 74.8 90.13 84.51 90.5 84.88 92.81 75.15 92.45 74.8"/>
              <polygon class="cls-14" points="93.24 75.56 90.93 85.26 91.29 85.64 93.61 75.91 93.24 75.56"/>
              <polygon class="cls-14" points="93.96 76.25 91.65 85.95 92.01 86.33 94.33 76.6 93.96 76.25"/>
              <polygon class="cls-14" points="94.76 77.01 92.44 86.71 92.8 87.09 95.12 77.35 94.76 77.01"/>
              <polygon class="cls-14" points="93.54 67.26 92.12 73.18 95.34 76.27 96.76 70.34 93.54 67.26"/>
            </g>
            <g>
              <path class="cls-22" d="M75.43,97.56c-1.77-.49-3.57-.27-5.03.16-3.32.97-3.7,4.57-.84,7.32.23-.07.87-.25.87-.25-2.4-2.28-2.33-5.15.42-5.96.47-.14,2.76.15,2.76.15l2.66.43.21-.07c1.26.51,2.77,1.67,3.72,2.58.58-.09,1.76-.51,1.91-.56-1.17-1.28-3.52-2.94-6.69-3.82Z"/>
              <path class="cls-3" d="M70.81,98.84c3.97-1.15,7.53.44,10.14,2.91-.14.04-.74.18-1.05.27-.02-.02-.05-.05-.07-.07-2.15-2.05-5.89-3.12-8.36-2.4-2.47.72-2.72,2.97-.58,5.02.02.02.05.04.07.06-.29.08-.58.17-.88.26-2.57-2.47-2.25-5.19.73-6.05Z"/>
            </g>
          </g>
          <path class="cls-18" d="M90.76,87.15c.6.57.94,1.6.77,2.3-.17.7-.79.8-1.39.22-.6-.57-.94-1.6-.77-2.3.17-.7.79-.8,1.39-.22Z"/>
          <polygon class="cls-21" points="93.77 68.05 93.31 69.98 95.91 72.48 96.37 70.54 93.77 68.05"/>
          <path class="cls-18" d="M94.46,71.71c.6.57.94,1.6.77,2.3-.17.7-.79.8-1.39.22s-.94-1.6-.77-2.3c.17-.7.79-.8,1.39-.22Z"/>
          <polygon class="cls-10" points="94.83 98.33 92.45 96.09 98.7 69.99 101.05 72.23 94.83 98.33"/>
          <polygon class="cls-18" points="97.02 79.17 94.97 87.72 96.51 89.15 98.54 80.62 97.02 79.17"/>
          <polygon class="cls-14" points="87.76 100.37 94.83 98.33 92.45 96.09 85.41 98.12 87.76 100.37"/>
          <polygon class="cls-15" points="85.41 98.12 85.66 97.46 91.81 95.52 97.86 70.65 97.51 70.32 98.7 69.99 92.45 96.09 85.41 98.12"/>
          <path class="cls-3" d="M91.52,69.02l-4.54,18.88s-4.15.52-5.93.8c-1.78.28-13.06,3.25-13.06,3.25l4.52-18.89s9.91-2.73,11.94-3.11c3.58-.67,7.07-.92,7.07-.92Z"/>
          <path class="cls-23" d="M68.36,92.29l18.63-4.4s-2.09-.13-7.08.9c-5.23,1.08-11.91,3.15-11.91,3.15l.36.35Z"/>
          <path class="cls-14" d="M57.46,88.26c-.22,1.39.6,1.66,2.13,2.24,1.53.58,3.78,1.74,5.07,2.47,1.29.73,2.25,1.28,2.91-.91.6-2.02,4.43-18.48,4.6-19.74.17-1.24-.55-1.33-1.69-2.01-1.62-.96-5.8-2.71-6.66-2.84-.87-.13-1.36.61-1.56,1.63s-4.6,17.98-4.79,19.16Z"/>
          <g>
            <path class="cls-2" d="M70.96,72.23c0-.05.01-.11.01-.15.02-1.06-.5-1.18-2.41-2.15-2.09-1.06-5.07-2.36-5.46-1.31-.2.53-.34,1.21-.71,2.58-.43,1.59-1.1,3.88-1.33,4.86-.35,1.49-2.53,9.99-2.72,11.04-.22,1.21-.44,2.09,1.02,2.65.19.07.41.16.66.26.9-3.13,2.59-8.91,3.63-12.2,1.34-4.24,2.55-6.59,7.32-5.58Z"/>
            <path class="cls-7" d="M66.48,91.21c.69-2.4,2-7.62,2.46-9.98.61-3.12,1.9-7.83,2.02-9-4.76-1.01-5.98,1.34-7.32,5.58-1.04,3.29-2.72,9.06-3.63,12.2,1.67.66,4.44,1.83,5.13,2.16.22.11.94.4,1.34-.96Z"/>
          </g>
          <path class="cls-14" d="M60.14,93.39c-3.19-1.85-4.83-1.97-8.12-1.08-2.98.8-12.27,3.83-14.94,4.54-.47.13-.89.25-1.27.37l.41.39c.42-.14.88-.28,1.42-.42,2.57-.68,11.5-3.59,14.36-4.36,3.16-.85,4.74-.74,7.81,1.04,2.54,1.47,4.3,2.59,4.85,2.95l.73-.21s-2.04-1.33-5.26-3.2Z"/>
          <g>
            <path class="cls-2" d="M59.81,93.86c-3.07-1.78-4.65-1.89-7.81-1.04-2.86.77-11.79,3.68-14.36,4.36-.54.14-1.01.28-1.42.42l1.9,1.82c5.25-1.71,12.61-4.01,14.52-4.43,3.29-.71,5.55.45,8.44,2.29.22.14.41.27.6.4l2.99-.87c-.56-.36-2.31-1.47-4.85-2.95Z"/>
            <path class="cls-7" d="M42.22,103.33l19.46-5.65c-.19-.13-.38-.26-.6-.4-2.9-1.84-5.15-3-8.44-2.29-1.91.41-9.27,2.72-14.52,4.43l4.1,3.91Z"/>
          </g>
          <polygon class="cls-14" points="49.7 101.15 49.2 101.3 42.93 95.31 43.48 95.22 49.7 101.15"/>
          <path class="cls-15" d="M54.32,100.95l-2.15.63c-.22.07-.25.27-.05.46h0c.19.19.54.28.76.22l2.15-.63c.22-.07.25-.27.05-.46h0c-.19-.19-.54-.28-.76-.22Z"/>
          <path class="cls-23" d="M33.41,94.99s5.91-1.71,9.74-2.94c3.82-1.23,11-2.74,11-2.74,0,0-5.62.5-11.04,2.19-5.42,1.69-9.69,3.48-9.69,3.48Z"/>
          <path class="cls-23" d="M38.53,73.86s5.91-1.71,9.74-2.94,11-2.74,11-2.74c0,0-5.62.5-11.04,2.19-5.42,1.69-9.69,3.48-9.69,3.48Z"/>
          <polygon class="cls-14" points="42.22 103.33 41.59 103.5 35.21 97.41 35.81 97.21 42.22 103.33"/>
          <path class="cls-6" d="M39.82,107.5c1.2.06,2.37-.11,3.52-.4l-3.3-3.15-5.56,1.62c1.51,1.13,3.36,1.83,5.34,1.93Z"/>
          <path class="cls-22" d="M56.76,104.18c1.05.17,2.07.44,3.05.8l8.38-2.44c-.12-.54-.15-1.1-.06-1.67l-11.38,3.31Z"/>
          <path class="cls-23" d="M52.82,104.14l-3.13-2.99-.5.15,3.06,2.93c.19-.03.38-.06.57-.08Z"/>
        </g>
        <path class="cls-18" d="M65.24,100.06c.23-.24.36-.63.46-1.04l.67-2.74c.03-.13-.05-.26-.18-.29-.13-.03-.26.05-.29.18l-.67,2.74c-.14.57-.29.85-.48.91-.53.15-1.86-1.21-2.3-1.65-.09-.1-.25-.1-.34,0-.09.1-.1.25,0,.34,1.42,1.44,2.2,1.94,2.78,1.78.14-.04.26-.12.36-.22Z"/>
        <g>
          <path class="cls-23" d="M62.47,96.58c.8.76,1.26,2.14,1.03,3.07s-1.06,1.06-1.86.3c-.8-.76-1.26-2.14-1.03-3.07.23-.93,1.06-1.06,1.86-.3Z"/>
          <polygon class="cls-23" points="63.56 100.21 62.84 100.42 61.24 96.12 61.86 95.95 63.56 100.21"/>
          <path class="cls-3" d="M63.11,96.4c.8.76,1.26,2.14,1.03,3.07-.23.93-1.06,1.06-1.86.3-.8-.76-1.26-2.14-1.03-3.07.23-.93,1.06-1.06,1.86-.3Z"/>
        </g>
        <g>
          <path class="cls-23" d="M71.01,64.5c.8.76,1.26,2.14,1.03,3.07-.23.93-1.06,1.06-1.86.3s-1.26-2.14-1.03-3.07c.23-.93,1.06-1.06,1.86-.3Z"/>
          <polygon class="cls-23" points="72.09 68.13 71.37 68.34 69.78 64.04 70.39 63.86 72.09 68.13"/>
          <path class="cls-3" d="M71.64,64.32c.8.76,1.26,2.14,1.03,3.07-.23.93-1.06,1.06-1.86.3-.8-.76-1.26-2.14-1.03-3.07.23-.93,1.06-1.06,1.86-.3Z"/>
        </g>
      </g>
      <path class="cls-19" d="M80.62,64.19s-1.3,0-2.07.67c-.77.67-1.56,3.22-1.95,3.82-.4.59-.71,1.79-.56,2.35.08.29.71.66,1.21.74.52.09,2.39.33,4.35.97.71.23,1.41,1.1,1.81,1.36,1.03.68,2.24.78,2.61.11.96-1.7-2.46-1.77-3.21-2.36-2-1.58-4.6-1.82-4.6-1.82l.75-1.36s.5-2.57,1.67-4.48Z"/>
      <path class="cls-19" d="M84.63,67.7c-.97.71-.79,1.72-.58,2,.21.28,1.09-.26,1.36-.68.43-.68.6-1.32.6-1.32,0,0-1.06-.23-1.38,0Z"/>
    </g>
  </g>
</svg>