<?xml version="1.0" encoding="UTF-8"?>
<svg id="Layer_2" data-name="Layer 2" xmlns="http://www.w3.org/2000/svg" viewBox="0 0 198.53 200.45">
  <defs>
    <style>
      .cls-1 {
        fill: #ff5252;
      }

      .cls-1, .cls-2, .cls-3, .cls-4, .cls-5, .cls-6, .cls-7, .cls-8, .cls-9, .cls-10, .cls-11, .cls-12, .cls-13, .cls-14, .cls-15, .cls-16, .cls-17, .cls-18, .cls-19, .cls-20, .cls-21, .cls-22, .cls-23, .cls-24, .cls-25, .cls-26, .cls-27, .cls-28 {
        stroke-width: 0px;
      }

      .cls-2 {
        opacity: .7;
      }

      .cls-2, .cls-17 {
        fill: #ffd56c;
      }

      .cls-3 {
        fill: #31c0ff;
      }

      .cls-4 {
        fill: #21a1d2;
      }

      .cls-5 {
        fill: #5e2e1f;
      }

      .cls-6 {
        fill: #ffb8b8;
      }

      .cls-7 {
        fill: #0272c6;
      }

      .cls-8 {
        fill: #5fad00;
      }

      .cls-9 {
        fill: #7b528e;
      }

      .cls-10 {
        fill: #19a8f7;
      }

      .cls-11 {
        fill: #3db8e4;
      }

      .cls-12 {
        fill: #f28400;
      }

      .cls-13 {
        fill: #b3efff;
      }

      .cls-14 {
        fill: #c1592b;
      }

      .cls-15 {
        fill: #4f2115;
      }

      .cls-16 {
        fill: #2e1117;
      }

      .cls-17 {
        opacity: .5;
      }

      .cls-18 {
        fill: #5fd6ff;
      }

      .cls-19 {
        fill: #8e63a5;
      }

      .cls-20 {
        fill: #5ad4ff;
      }

      .cls-21 {
        fill: #fff;
      }

      .cls-22 {
        fill: #1c92f4;
      }

      .cls-23 {
        fill: #d87745;
      }

      .cls-24 {
        fill: #ffc200;
      }

      .cls-25 {
        fill: #76bf00;
      }

      .cls-26 {
        fill: #ff8585;
      }

      .cls-27 {
        fill: #519900;
      }

      .cls-28 {
        fill: #fa0;
      }
    </style>
  </defs>
  <g id="Layer_1-2" data-name="Layer 1">
    <g>
      <g>
        <polygon class="cls-15" points="198.53 123.99 198.49 135.7 85.32 200.45 85.36 188.74 198.53 123.99"/>
        <polygon class="cls-5" points="12.21 146.17 12.17 157.88 85.32 200.45 85.36 188.74 12.21 146.17"/>
        <polygon class="cls-12" points="198.53 123.99 198.51 129.46 85.34 194.21 85.36 188.74 198.53 123.99"/>
        <polygon class="cls-28" points="12.21 146.17 12.19 151.64 85.34 194.21 85.36 188.74 12.21 146.17"/>
      </g>
      <g>
        <path class="cls-24" d="M105.06,165.02c-6.06-.81-10.56-1.12-13.13-6.67-1.11-2.4-1.88-5.61-3.48-6.94-2.05-1.71-9.03,1.14-11.5.62-3.24-.69-3.73-3.47-3.22-6.52.87-5.19-4.35-5.69-9.63-5.74-3.7-.04-5.01-3.06-5.82-5.76-.97-3.23-3.32-4.05-5.97-4.25-3.2-.24-5.54-.77-7.12-2.46l-32.98,18.87,73.14,42.57,28.88-16.52c-2.3-3.44-4.68-6.6-9.17-7.2Z"/>
        <path class="cls-24" d="M125.39,81.42l-80.2,45.89c1.59,1.69,3.93,2.22,7.12,2.46,2.65.2,5,1.02,5.97,4.25.81,2.69,2.12,5.72,5.82,5.76,5.28.05,10.5.55,9.63,5.74-.51,3.05-.02,5.83,3.22,6.52,2.46.52,9.45-2.33,11.5-.62,1.6,1.33,2.37,4.54,3.48,6.94,2.57,5.55,7.08,5.86,13.13,6.67,4.5.6,6.87,3.76,9.17,7.2l84.3-48.23-73.14-42.57Z"/>
        <g>
          <path class="cls-17" d="M127.71,157.59c-2.02-3.5-1.63-7.72-5.93-9.39-3.24-1.25-7.79.78-12.18-1.69-1.82-1.02-1.23-4.53-1.56-7-.38-2.82-.8-4.55-4.75-4.42-17.34.58-14.36-3.55-14.96-6.03-1.04-4.37-5.04-3.31-8.91-5.3-2.57-1.33-2.5-4.52-4.42-6.57-1.69-1.81-5.19-1.93-8.37-2.16l-21.44,12.27c1.59,1.69,3.93,2.22,7.12,2.46,2.65.2,5,1.02,5.97,4.25.81,2.69,2.12,5.72,5.82,5.76,5.28.05,10.5.55,9.63,5.74-.51,3.05-.02,5.83,3.22,6.52,2.46.52,9.45-2.33,11.5-.62,1.6,1.33,2.37,4.54,3.48,6.94,2.57,5.55,7.08,5.86,13.13,6.67,4.5.6,6.87,3.76,9.17,7.2l21.1-12.07c-2.78-.73-6.64-.85-7.63-2.56Z"/>
          <path class="cls-17" d="M125.39,81.42l-58.76,33.62c3.17.22,6.68.35,8.37,2.16,1.92,2.06,1.85,5.25,4.42,6.57,3.86,1.99,7.86.92,8.91,5.3.59,2.49-2.38,6.61,14.96,6.03,3.95-.13,4.36,1.6,4.75,4.42.33,2.47-.25,5.98,1.56,7,4.39,2.47,8.94.44,12.18,1.69,4.31,1.67,3.92,5.89,5.93,9.39.99,1.71,4.85,1.83,7.63,2.56l63.2-36.16-73.14-42.57Z"/>
          <path class="cls-2" d="M125.39,81.42l-58.76,33.62c3.17.22,6.68.35,8.37,2.16,1.92,2.06,1.85,5.25,4.42,6.57,3.86,1.99,7.86.92,8.91,5.3.59,2.49-2.38,6.61,14.96,6.03,3.95-.13,4.36,1.6,4.75,4.42.33,2.47-.25,5.98,1.56,7,4.39,2.47,8.94.44,12.18,1.69,4.31,1.67,3.92,5.89,5.93,9.39.99,1.71,4.85,1.83,7.63,2.56l63.2-36.16-73.14-42.57Z"/>
        </g>
      </g>
      <g>
        <g>
          <path class="cls-28" d="M114.93,156.23c0,.3-.44.55-.98.55-.54,0-.98-.25-.98-.55,0-.3.44-.55.98-.55.54,0,.98.25.98.55Z"/>
          <path class="cls-28" d="M126.01,155.14c0,.3-.44.55-.98.55-.54,0-.98-.25-.98-.55,0-.3.44-.55.98-.55.54,0,.98.25.98.55Z"/>
          <path class="cls-28" d="M106.3,149.51c0,.3-.44.55-.98.55s-.98-.25-.98-.55c0-.3.44-.55.98-.55.54,0,.98.25.98.55Z"/>
          <path class="cls-28" d="M80.64,150.98c0,.3-.44.55-.98.55-.54,0-.98-.25-.98-.55s.44-.55.98-.55c.54,0,.98.25.98.55Z"/>
          <path class="cls-28" d="M72.11,174.93c0,.3-.44.55-.98.55-.54,0-.98-.25-.98-.55,0-.3.44-.55.98-.55.54,0,.98.25.98.55Z"/>
          <path class="cls-28" d="M99.49,164.49c0,.15-.22.27-.49.27-.27,0-.49-.12-.49-.28,0-.15.22-.27.49-.27.27,0,.49.12.49.28Z"/>
          <path class="cls-28" d="M98.58,145.32c0,.15-.22.27-.49.27-.27,0-.49-.12-.49-.28,0-.15.22-.27.49-.27.27,0,.49.12.49.28Z"/>
          <path class="cls-28" d="M110,170.68c0,.15-.22.27-.49.27-.27,0-.49-.12-.49-.28s.22-.27.49-.27c.27,0,.49.12.49.28Z"/>
          <path class="cls-28" d="M91.22,178.6c0,.15-.22.27-.49.27-.27,0-.49-.12-.49-.28,0-.15.22-.27.49-.27.27,0,.49.12.49.28Z"/>
          <path class="cls-28" d="M69.77,170.27c0,.15-.22.27-.49.27-.27,0-.49-.12-.49-.28,0-.15.22-.27.49-.27.27,0,.49.12.49.28Z"/>
          <path class="cls-28" d="M77.4,164.14c0,.15-.22.27-.49.27-.27,0-.49-.12-.49-.28,0-.15.22-.27.49-.27.27,0,.49.12.49.28Z"/>
          <path class="cls-28" d="M66.98,156.07c0,.15-.22.27-.49.27-.27,0-.49-.12-.49-.28,0-.15.22-.27.49-.27.27,0,.49.12.49.28Z"/>
          <path class="cls-28" d="M74.11,177.99c0,.15-.22.27-.49.27-.27,0-.49-.12-.49-.28s.22-.27.49-.27c.27,0,.49.12.49.28Z"/>
          <path class="cls-28" d="M111.05,148.7c0,.15-.22.27-.49.27-.27,0-.49-.12-.49-.28,0-.15.22-.27.49-.27.27,0,.49.12.49.28Z"/>
          <path class="cls-28" d="M62.75,168.24c0,.15-.22.27-.49.27-.27,0-.49-.12-.49-.28,0-.15.22-.27.49-.27.27,0,.49.12.49.28Z"/>
          <path class="cls-28" d="M82.48,157.16c0,.15-.22.27-.49.27-.27,0-.49-.12-.49-.28,0-.15.22-.27.49-.27.27,0,.49.12.49.28Z"/>
          <path class="cls-28" d="M129.65,160.42c0,.15-.22.27-.49.27-.27,0-.49-.12-.49-.28,0-.15.22-.27.49-.27.27,0,.49.12.49.28Z"/>
          <path class="cls-28" d="M120.15,158.84c0,.21-.31.39-.69.39-.38,0-.69-.18-.69-.39,0-.21.31-.39.69-.39.38,0,.69.18.69.39Z"/>
          <path class="cls-28" d="M88.35,179.95c0,.21-.31.39-.69.39-.38,0-.69-.18-.69-.39,0-.21.31-.39.69-.39.38,0,.69.18.69.39Z"/>
          <path class="cls-28" d="M75.08,162.38c0,.21-.31.39-.69.39-.38,0-.69-.18-.69-.39,0-.21.31-.39.69-.39.38,0,.69.18.69.39Z"/>
          <path class="cls-28" d="M51.11,164.32c0,.21-.31.39-.69.39-.38,0-.69-.18-.69-.39,0-.21.31-.39.69-.39.38,0,.69.18.69.39Z"/>
          <path class="cls-28" d="M62.47,164.63c0,.21-.31.39-.69.39-.38,0-.69-.18-.69-.39s.31-.39.69-.39c.38,0,.69.18.69.39Z"/>
          <path class="cls-28" d="M105.06,142.43c0,.21-.31.39-.69.39-.38,0-.69-.18-.69-.39,0-.21.31-.39.69-.39.38,0,.69.18.69.39Z"/>
          <path class="cls-28" d="M84.31,151.38c0,.21-.31.39-.69.39-.38,0-.69-.18-.69-.39,0-.21.31-.39.69-.39.38,0,.69.18.69.39Z"/>
          <path class="cls-28" d="M76.56,134.8c0,.21-.31.39-.69.39-.38,0-.69-.18-.69-.39,0-.21.31-.39.69-.39.38,0,.69.18.69.39Z"/>
          <path class="cls-28" d="M105.93,172.63c0,.21-.31.39-.69.39s-.69-.18-.69-.39c0-.21.31-.39.69-.39.38,0,.69.18.69.39Z"/>
          <path class="cls-28" d="M81.98,162.01c0,.21-.31.39-.69.39-.38,0-.69-.18-.69-.39,0-.21.31-.39.69-.39.38,0,.69.18.69.39Z"/>
          <path class="cls-28" d="M111.49,163.93c0,.3-.44.55-.98.55-.54,0-.98-.25-.98-.55,0-.3.44-.55.98-.55s.98.25.98.55Z"/>
        </g>
        <g>
          <path class="cls-28" d="M81.91,136.01c0,.3-.44.55-.98.55-.54,0-.98-.25-.98-.55,0-.3.44-.55.98-.55.54,0,.98.25.98.55Z"/>
          <path class="cls-28" d="M92.99,134.91c0,.3-.44.55-.98.55-.54,0-.98-.25-.98-.55,0-.3.44-.55.98-.55.54,0,.98.25.98.55Z"/>
          <path class="cls-28" d="M73.28,129.28c0,.3-.44.55-.98.55-.54,0-.98-.25-.98-.55,0-.3.44-.55.98-.55.54,0,.98.25.98.55Z"/>
          <path class="cls-28" d="M47.61,130.75c0,.3-.44.55-.98.55s-.98-.25-.98-.55.44-.55.98-.55c.54,0,.98.25.98.55Z"/>
          <path class="cls-28" d="M39.09,154.7c0,.3-.44.55-.98.55s-.98-.25-.98-.55c0-.3.44-.55.98-.55.54,0,.98.25.98.55Z"/>
          <path class="cls-28" d="M66.47,144.26c0,.15-.22.27-.49.27-.27,0-.49-.12-.49-.28,0-.15.22-.27.49-.27.27,0,.49.12.49.28Z"/>
          <path class="cls-28" d="M62.87,132.14c0,.15-.22.27-.49.27-.27,0-.49-.12-.49-.28,0-.15.22-.27.49-.27.27,0,.49.12.49.28Z"/>
          <path class="cls-28" d="M39.64,135.79c0,.15-.22.27-.49.27-.27,0-.49-.12-.49-.28,0-.15.22-.27.49-.27.27,0,.49.12.49.28Z"/>
          <path class="cls-28" d="M65.55,125.1c0,.15-.22.27-.49.27-.27,0-.49-.12-.49-.28,0-.15.22-.27.49-.27.27,0,.49.12.49.28Z"/>
          <path class="cls-28" d="M76.97,150.46c0,.15-.22.27-.49.27-.27,0-.49-.12-.49-.28,0-.15.22-.27.49-.27.27,0,.49.12.49.28Z"/>
          <path class="cls-28" d="M83.43,139.92c0,.15-.22.27-.49.27-.27,0-.49-.12-.49-.28,0-.15.22-.27.49-.27.27,0,.49.12.49.28Z"/>
          <path class="cls-28" d="M64.28,135.27c0,.15-.22.27-.49.27-.27,0-.49-.12-.49-.28,0-.15.22-.27.49-.27.27,0,.49.12.49.28Z"/>
          <path class="cls-28" d="M58.2,158.38c0,.15-.22.27-.49.27-.27,0-.49-.12-.49-.28,0-.15.22-.27.49-.27.27,0,.49.12.49.28Z"/>
          <path class="cls-28" d="M36.75,150.04c0,.15-.22.27-.49.27-.27,0-.49-.12-.49-.28,0-.15.22-.27.49-.27.27,0,.49.12.49.28Z"/>
          <path class="cls-28" d="M44.38,143.91c0,.15-.22.27-.49.27-.27,0-.49-.12-.49-.28s.22-.27.49-.27c.27,0,.49.12.49.28Z"/>
          <path class="cls-28" d="M41.09,157.77c0,.15-.22.27-.49.27-.27,0-.49-.12-.49-.28s.22-.27.49-.27c.27,0,.49.12.49.28Z"/>
          <path class="cls-28" d="M78.03,128.48c0,.15-.22.27-.49.27-.27,0-.49-.12-.49-.28,0-.15.22-.27.49-.27.27,0,.49.12.49.28Z"/>
          <path class="cls-28" d="M29.72,148.02c0,.15-.22.27-.49.27-.27,0-.49-.12-.49-.28,0-.15.22-.27.49-.27.27,0,.49.12.49.28Z"/>
          <path class="cls-28" d="M49.46,136.93c0,.15-.22.27-.49.27-.27,0-.49-.12-.49-.28,0-.15.22-.27.49-.27.27,0,.49.12.49.28Z"/>
          <path class="cls-28" d="M96.63,140.19c0,.15-.22.27-.49.27-.27,0-.49-.12-.49-.28,0-.15.22-.27.49-.27.27,0,.49.12.49.28Z"/>
          <path class="cls-28" d="M87.13,138.61c0,.21-.31.39-.69.39-.38,0-.69-.18-.69-.39,0-.21.31-.39.69-.39.38,0,.69.18.69.39Z"/>
          <path class="cls-28" d="M55.32,159.72c0,.21-.31.39-.69.39s-.69-.18-.69-.39c0-.21.31-.39.69-.39.38,0,.69.18.69.39Z"/>
          <path class="cls-28" d="M42.06,142.15c0,.21-.31.39-.69.39-.38,0-.69-.18-.69-.39,0-.21.31-.39.69-.39s.69.18.69.39Z"/>
          <path class="cls-28" d="M44.11,137.5c0,.21-.31.39-.69.39-.38,0-.69-.18-.69-.39,0-.21.31-.39.69-.39.38,0,.69.18.69.39Z"/>
          <path class="cls-28" d="M63.09,128.09c0,.21-.31.39-.69.39-.38,0-.69-.18-.69-.39,0-.21.31-.39.69-.39s.69.18.69.39Z"/>
          <path class="cls-28" d="M29.45,144.41c0,.21-.31.39-.69.39-.38,0-.69-.18-.69-.39,0-.21.31-.39.69-.39.38,0,.69.18.69.39Z"/>
          <path class="cls-28" d="M72.03,122.21c0,.21-.31.39-.69.39-.38,0-.69-.18-.69-.39,0-.21.31-.39.69-.39s.69.18.69.39Z"/>
          <path class="cls-28" d="M51.28,131.15c0,.21-.31.39-.69.39-.38,0-.69-.18-.69-.39,0-.21.31-.39.69-.39.38,0,.69.18.69.39Z"/>
          <path class="cls-28" d="M72.91,152.4c0,.21-.31.39-.69.39-.38,0-.69-.18-.69-.39,0-.21.31-.39.69-.39s.69.18.69.39Z"/>
          <path class="cls-28" d="M48.95,141.79c0,.21-.31.39-.69.39-.38,0-.69-.18-.69-.39,0-.21.31-.39.69-.39.38,0,.69.18.69.39Z"/>
          <path class="cls-28" d="M78.46,143.7c0,.3-.44.55-.98.55-.54,0-.98-.25-.98-.55,0-.3.44-.55.98-.55.54,0,.98.25.98.55Z"/>
        </g>
      </g>
      <path class="cls-13" d="M69.05,62.51c-8.41,7.36-17.08,14.77-26.39,20.97-6.68,4.44-15.22,8.23-19.18,15.65-2.06,3.88-1.35,9.4,4.18,8.89,4.25-.4,6.97-6.41,1.9-7.8-.18-.05-.31.22-.13.31,1.44,1.13,2.32,2.32,2.11,3.24-.99,4.3-5.02,3.57-7,2.46-1.35-.76-1.26-4.24-.84-5.59.39-1.24,1.75-3.22,2.76-4.42,1.77-2.09,3.94-3.83,6.17-5.41,4.04-2.85,8.41-5.21,12.49-8.01,8.69-5.97,16.3-13.08,24.09-20.14.1-.09-.05-.24-.15-.15Z"/>
      <g>
        <path class="cls-27" d="M55.65,65.44s8.06,2.11,7.43,6.33c-.63,4.22-2.43,5.11-4.07,7.74-1.64,2.63-7.62,2.04-7.62,2.04,0,0,4.43-1.49,5.01-6.84.58-5.35-4.43-6.15-4.43-6.15l3.68-3.11Z"/>
        <path class="cls-5" d="M52.36,69.6s2.43,4.7,4.49,10.02c1.85,4.78,4.02,18.83,4.72,26.45.62,6.73.61,21.89.61,21.89,0,0,.2,1.57,2.92,1.56,1.97,0,2.43-2.1,2.43-2.1,0,0-5.76-41.12-8.2-47.98-2.44-6.86-5.1-10.88-5.1-10.88l-1.86,1.04Z"/>
        <g>
          <path class="cls-8" d="M32.26,59.06s3.77-.07,7.46.58c3.69.65,4.37-.13,5.95,2.05s1.74,5.06,3.13,6.35c1.39,1.29,3.16,2.2,3.16,2.2,0,0,2.38-4.34-2.45-9.33s-5.65-5.18-9.61-4.57c-3.96.62-7.64,2.71-7.64,2.71Z"/>
          <path class="cls-25" d="M32.26,59.06s6.83-2.97,12.49-1.11,7.13,12.44,7.13,12.44c0,0,4.54-2.98,3.62-8.54-.1-.6-1.59-.86-2.87-.5,1.09-1.35,1.98-2.32,1.69-2.83-1.23-2.18-3.21-3.91-5.55-4.91-.52-.22-.94,1.36-1.76,2.85-.08-1.51-.67-3.7-.88-3.74-.96-.19-1.91-.22-2.8-.07-.64.11-.63.05-1.31.31-.41.16.53,1.37.41,3.16-1.35-1.04-3.18-1.95-3.59-1.72-3.49,1.93-6.58,4.68-6.58,4.68Z"/>
          <path class="cls-27" d="M37.98,57.53s2.68.53,4.77.92c2.09.4,3.35,1.25,5.11,3.5,1.76,2.24,4.1,8.29,4.1,8.29,0,0,.17-3.91-1.78-7.25-1.96-3.34-3.33-4.4-6.23-5.27-2.36-.71-5.98-.19-5.98-.19Z"/>
        </g>
        <g>
          <path class="cls-25" d="M31.93,69.28c-.59.33,2.56-8.34,9.18-9.11.62-.07,1.18,1.63,1.97,3.11.83-1.93,1.28-3.02,1.61-2.9,4.95,1.71,6.01,9.38,6.01,9.38,0,0-10.78-4.9-18.78-.48Z"/>
          <path class="cls-8" d="M30.14,73.75s.31-.65.91-1.53c1.26-1.87,3.8-4.81,7.31-4.84,5.17-.06,12.35,2.38,12.35,2.38,0,0-2.29-4.31-7.43-7.32-.69.26-.98,1.22-1.82,2.59-.82-1.32-1.51-3.06-1.88-3.08-2.73-.13-5.3,1.27-6.94,2.89-.38.38.1,1.71.43,2.83-.99-.21-1.91-.88-2.05-.51-1.12,2.93-.87,6.59-.87,6.59Z"/>
          <path class="cls-27" d="M30.14,73.75s.65-4.11,5.21-6.1c4.56-1.99,5.71-1.51,9.07-.54,3.36.97,6.29,2.65,6.29,2.65,0,0-5.48-1.18-9.41-1.56-3.93-.38-5.95.82-7.73,2.12s-3.42,3.43-3.42,3.43Z"/>
        </g>
        <g>
          <path class="cls-25" d="M52.79,69.96s-7.77-2.9-13.31-.04c-.64.33-1.26.69-1.84,1.07-.31.21.93,1.67,1.83,3.27-1.31-1.02-3.62-1.97-4.04-1.62-.92.78-1.76,1.61-2.5,2.45-.31.35,1.29,1.52,2.18,2.65-2.43-.11-3.84-.61-4.17-.13-1.16,1.64-1.97,3.16-2.46,4.24-.23.51-.38,1.07-.46,1.65-.05.4,1.09.61,2.19,1.21-1.03.57-2.26.81-2.22,1.2.16,1.83.65,3.34.65,3.34,0,0,7.66-9.61,13.37-13.05,5.71-3.44,10.78-6.24,10.78-6.24Z"/>
          <path class="cls-8" d="M28.63,89.26s5.26-8.3,11.26-12.48c7-4.87,12.9-6.82,12.9-6.82,0,0-2.78,5.63-8.12,9.66-.3.22-1.81-1.51-3.12-2.59.35,1.45,1.73,3.45,1.46,3.69-1.11.98-2.8,2.05-4.15,3.02-.84-.64-1.28-1.4-1.92-2.3,0,1.38,0,2.48-.01,3.59-3.22,2.28-6.95,4.09-8.29,4.24Z"/>
          <path class="cls-27" d="M52.79,69.96s-6.63,1.5-11.23,4.65c-4.61,3.14-8.53,8.74-8.53,8.74,0,0,5.12-5.5,9.45-8.15s10.32-5.23,10.32-5.23Z"/>
        </g>
        <g>
          <path class="cls-25" d="M52.39,70.16s-3.69,1.28-6.65,4.57c-.17.19,1.17.83,1.44,2.19-.76-.4-2.58-.76-2.71-.58-.44.59-.5.75-.86,1.44-.96,1.87-1.28,3.82-1.28,6.01,1.17-.05,2.08-.06,2.85.13-1.06.99-1.58,1.26-2.76,2.26.29,3.49,1.17,6.34,1.17,6.34,0,0,3.38-8.78,5.38-13.33,1.99-4.56,3.42-9.04,3.42-9.04Z"/>
          <path class="cls-8" d="M52.39,70.16s-4.39,7.37-5.67,12.51c-1.28,5.14-3.13,9.86-3.13,9.86,0,0,3.95-3.46,5.06-4.74s1.48-2.14,1.48-2.14l-1.02-4.07,2.47,2.68s1.19-2.41,2-5.33c-.09-2.39-1.65-4.09-1.65-4.09l2.46,1.6s1-4.72-1.99-6.29Z"/>
          <path class="cls-27" d="M52.39,70.16s-2.87,3.42-4.56,7.56c-1.69,4.14-2.56,10.01-2.56,10.01,0,0,2.04-6.65,3.84-10.39,1.8-3.74,3.29-7.18,3.29-7.18Z"/>
        </g>
        <g>
          <path class="cls-8" d="M47.46,48.04s2.61,2.73,4.62,5.89c2.01,3.16,3.05,3.13,2.52,5.77s-2.55,4.71-2.56,6.6c-.01,1.9.51,3.81.51,3.81,0,0,4.81-1.18,5.21-8.12.4-6.93,0-7.67-3.14-10.17-3.13-2.5-7.16-3.79-7.16-3.79Z"/>
          <path class="cls-25" d="M47.46,48.04s6.81,3.02,9.27,8.45c2.46,5.42-4.34,13.67-4.34,13.67,0,0,5.26,1.33,8.74-3.11.37-.48-.44-1.75-1.57-2.45,1.73-.11,3.05-.11,3.23-.67.78-2.38.7-5.01-.14-7.41-.19-.53-1.64.23-3.29.63,1.06-1.08,2.27-3,2.16-3.18-.51-.84-1.13-1.56-1.84-2.11-.51-.4-.46-.43-1.11-.76-.39-.2-.65,1.32-2.05,2.44-.15-1.7-.71-3.66-1.16-3.81-3.78-1.27-7.9-1.69-7.9-1.69Z"/>
          <path class="cls-27" d="M52.46,51.22s1.43,2.33,2.55,4.14c1.12,1.81,1.34,3.31.88,6.13-.46,2.82-3.33,8.63-3.33,8.63,0,0,3-2.52,4.14-6.22,1.14-3.7.99-5.43-.33-8.15-1.07-2.22-3.9-4.53-3.9-4.53Z"/>
        </g>
        <g>
          <path class="cls-8" d="M52.54,92.93s4.17-1.71,5.93-3.59c1.76-1.87,1.09-4.66,1.09-4.66l1.19,2.56s2.64-3.15,2.13-6.91c-.51-3.76-2.87-4.07-2.87-4.07l2.43-.29s-.9-1.51-2.77-3.17c-1.87-1.66-7.29-2.66-7.29-2.66,0,0,4.64,4.3,5.27,9.12.63,4.81-5.12,13.66-5.12,13.66Z"/>
          <path class="cls-25" d="M52.39,70.16s1.96,1.71,2.88,5.64c.7,2.96.26,5.27-.42,7.71-.11.4.39.68.69,1.18-.7.63-1.28.85-1.41,1.27-.99,3.45-1.61,6.98-1.61,6.98,0,0,4-3.97,5.68-11.18,1.68-7.21-4.56-11.07-5.83-11.6Z"/>
          <path class="cls-27" d="M53.99,71.12s1.19.97,2.42,3.58c1.23,2.62,1.71,4.27.97,7.43-.75,3.15-1.84,6.59-1.84,6.59,0,0,3.34-4.56,3.47-9.22.13-4.66-5.02-8.38-5.02-8.38Z"/>
        </g>
      </g>
      <path class="cls-28" d="M107.56,161.68c-2.53-2.11-5.1-.07-11.02,2.8-4.64,2.24-11.01,4.33-15.63,7.07-5.85,3.47.46,7.98,4.81,5.91,2.09-1,5.21-2.83,7.26-3.99,2.38-1.34,6.74-4.68,9.1-6.04,1.78-1.02,8.28-3.41,5.48-5.75Z"/>
      <path class="cls-28" d="M59.91,151.66c-2.77-1.42-8.85,1.61-11.73,3.59-4.26,2.93,1.52,5.96,4.59,6.46,2.49.4,6.02-1.46,9.04-5.86.91-1.33,1.43-2.49-1.9-4.19Z"/>
      <g>
        <path class="cls-23" d="M71.19,149.45s-2.53-2.34-4.21-3.64c-.83-.64-1.57-1.01-2.19-1.27-.63-.27-1.13-.42-1.45-.61-.63-.39-1.89-3.65-1.89-3.65l-3.63,3.36c.19.16,1.49,1.46,2.45,2.43.74.75,1.26.98,2.44,1.67.35.21.76.45,1.26.76,2.16,1.36,6.24,2.85,6.24,2.85,0,0,.69-.61.88-1.19.19-.58.08-.71.08-.71Z"/>
        <path class="cls-23" d="M53.26,147.84c-.99-2.51-1.08-2.82-2.25-3.97-.21-.21-.47-.4-.72-.56-.56-.36-1.11-.59-1.11-.59,0,0,1.94-1.81,2.81-2.78.87-.97-5.51-1.27-5.51-1.27,0,0-1.06,1.45-1.53,2.3-.46.85-.76,1.48,0,2.18.51.47.74,1.32,1.41,2.4.32.52.75,1.1,1.37,1.71,1.89,1.87,4.79,5.02,4.79,5.02,0,0,1.72.17,1.99-.55.27-.71-.26-1.38-1.25-3.9Z"/>
        <path class="cls-16" d="M49.6,134.32c1.69-.78,9.86-1.06,10.27.14.48,1.41-.5,2.98-2.28,3.85-3.17,1.57-6.16,3.34-7.59,4.14-2.05-.39-3.42-1.23-5.06-2.6.88-2.42,4.66-5.52,4.66-5.52Z"/>
        <path class="cls-16" d="M62.74,141.27c.05.14.12.29.21.44-1.05,1.61-2.89,3.48-4.82,3.46-.7-.65-1.91-2.17-2.13-2.48-1.83-2.69-2.33-5.37-2.69-5.96l6.79-1.98s1.67,3.78,2.63,6.52Z"/>
        <path class="cls-23" d="M49.63,117.51c-.9.37-1.39,1.36-2.19,2.27-.79.91-1.94,1.83-2.45,2.24s-.91.77-.91.77l-5.59-.88c-1.01-.47-.88-1.03-1.51-1.38s-.75-.2-.99.18c-.24-.14-1.07-.39-1.34.31-.25.66-.19,1.1-.12,1.7.07.6.86.72,1.46.89.84.24,1.88,0,1.88,0,.76.35,2.71,1.25,3.64,1.65,1.31.56,2.01.41,3.01.62,1,.21.73-.09,2.34-1.13,1.61-1.05,2.7-1.73,3.45-1.87.75-.14,1.29-5.1,1.29-5.1,0,0-1.09-.65-1.99-.27Z"/>
        <path class="cls-21" d="M60.71,138.19c.89,1.74,2.06,3.82,2.06,3.82l-.43.54s-1.46-2.25-2.37-4.14c-.91-1.88-1.72-4.26-1.72-4.26l.87-.25s.7,2.55,1.59,4.28Z"/>
        <path class="cls-19" d="M59.02,128.72c-.06-.41-.09-1.6-.11-2.72-1.01-.43-.87-.55-1.77-2.21-.6-1.1-.88-3.58-.13-5.77-1.73-.62-3.43-1.53-3.43-1.53l-1.45.59c-.53.73-1.03,1.53-1.5,2.23-.95,1.42-1.43,2.91-1.45,4.55,0,.74.64,3.33.77,3.71.43,1.28.1,2.76-.69,3.79-.5.65.34,1.71-.22,2.25-.75.72-.99,1.26-.99,1.26,0,0,3.46,1.98,7.07,1.58,4.74-.52,5.09-1.46,5.09-1.46,0,0-.72-3.15-1.2-6.27Z"/>
        <path class="cls-16" d="M49.73,114.42c.66-.68,1.05-1.51,1.05-1.51l1.29,5.45s-1.52.2-2.14-.63c-.62-.83-.23-2.12-.23-2.12l-.6.41s-.03-.92.63-1.6Z"/>
        <g>
          <path class="cls-14" d="M56.14,117.84c-.89,1.71-2.52,2.96-3.48,2.43-.2-.11-.41-2.46-.41-2.46l1.83-2.18s.86,1.01,2.06,2.21Z"/>
          <path class="cls-23" d="M50.4,112.89c1.26-2.27,4.13-1.51,4.96-.57,1.08,1.23.61,2.88-.1,4.3-.63,1.26-2.24,2.09-2.97,2.27-1.03.26-2.35-1.89-2.2-3.98.04-.56.04-1.53.32-2.03Z"/>
          <path class="cls-16" d="M54.68,111.26c1.32.31,1.38,1.4,1.53,2.08.31,1.48-.56,2.3-.56,2.3,0,0-.12-.36-.37-.59-.15-.14-.34-.22-.58-.15.08-.39-.44-1.2-.44-1.2,0,0-1.46.67-2.54.44-1.02-.22-1.4-.84-1.4-.84-.72-.22-.9-.69-1.01-1.04.89-.09,3.1-3.08,5.35-1Z"/>
        </g>
        <path class="cls-16" d="M55.2,116.05s.57-.38.27-1.13c-.29-.74.53-2.49.53-2.49,0,0,.65.82,1.63,1.21.98.39,1.09.85,1.01,1.22-.46-.46-1.26-.55-1.26-.55,0,0,.5.34.81.86.32.54.07,1.33.07,1.33,0,0-.54-.7-.76-.6-.03.6.13.95.49,1.16.36.21.89.14.89.14,0,0-.7.82-1.96.54-.76-.17-1.07.05-1.79-.9.08-.36.07-.8.07-.8Z"/>
        <path class="cls-21" d="M55.16,124.9v1.55s-2.14-.32-2.94-.51c-1.28-.3-2.16-1.07-2.16-1.07v-1.54s1.26.56,2.17.82c.91.27,2.93.74,2.93.74Z"/>
        <path class="cls-21" d="M62.42,120.93l-.67,1.55s-.37-.22-1.11-.52c-.74-.3-2.33-.9-2.33-.9l.91-1.69c1.1.1,3.21,1.56,3.21,1.56Z"/>
        <path class="cls-7" d="M58.89,123.72l-.03,2.51s-.59-.31-1.4-.63c-.8-.32-.47-1.22-.47-2.25.46.3,1.9.36,1.9.36Z"/>
        <path class="cls-9" d="M56.1,131.84s-1.96.27-3.36.26c-1.4,0-2.19-1.12-2.19-1.12,0,0,1.37.18,2.8.23,1.44.05,2.76.63,2.76.63Z"/>
        <path class="cls-9" d="M53.59,133.35c1.38-.13,3.29.31,3.29.31,0,0-1.51.73-3.56.67-2.04-.05-2.55-1.21-2.55-1.21,0,0,1.43.36,2.81.23Z"/>
        <path class="cls-21" d="M59.62,140.11l.35-.21,1.41,2.16c-.27.43-.73.73-1.24.96l-1.62-2.23.22-.13c.31-.16.6-.33.88-.53Z"/>
        <g>
          <path class="cls-19" d="M50.63,154.7c.61-1.14,1.22-2.51,1.22-2.51.45-.33,1.58.01,2.33-.17.63-.15.17-1.38.57-1.48.61-.14,1.03,1.66,1.03,1.66,0,0-.12.78-.55,1.29-.39.46-1.05,1.03-1.34,1.56-.6,1.13-.57,1.54-1.18,1.96-.42.29-1.07.61-1.57.62-1.01.03-1.99-.19-1.57-.79.49-.69.64-1.36,1.06-2.15Z"/>
          <path class="cls-21" d="M52.11,152.08c.14-.1.68-.04.68-.04,0,0-.49,1.43-.85,2.15-.32.64-.87.5-.64-.11.24-.62.4-1.35.8-2Z"/>
          <path class="cls-16" d="M50.51,157.17c.51.27.97.28,1.73-.05.75-.34.96-1.28,1.59-2.15.63-.87,1.33-1.38,1.57-1.73.32-.46.28-1.41.28-1.41,0,0,.27.3.31.53.09.4-.09.83-.21,1.04-.17.29-.32.57-.83.94-.26.19-.79.76-.98,1.07-.2.31-.41,1.46-1.27,1.96-.86.5-1.93.73-2.63.42-.7-.32-.59-.63-.59-.63,0,0,.52-.27,1.03,0Z"/>
          <path class="cls-9" d="M53.31,153.91c1.83-1.17,2.16-2.63,2.16-2.63l.2.56s-.1,1.05-1.16,1.86c-.63.48-1.08.77-1.56,1.36-.38.46-.67,1.76-.67,1.76,0,0-.44-1.97,1.02-2.91Z"/>
        </g>
        <g>
          <path class="cls-19" d="M70.39,148.47c.27-.56,1.94.24,1.94.24,0,0,.53.58.66,1.25.11.6.13,1.47.37,2.03.49,1.18.83,1.41.77,2.15-.04.51-.2,1.21-.51,1.61-.61.8-1.4,1.42-1.6.72-.23-.81-.65-1.35-1-2.17-.51-1.19-1.18-2.53-1.18-2.53.03-.56,1.01-1.22,1.34-1.92.28-.58-.97-1-.79-1.38Z"/>
          <path class="cls-21" d="M71.46,152.96c.3.65-.16.99-.49.42-.33-.57-.79-1.16-1.05-1.89.01-.17.4-.55.4-.55,0,0,.8,1.28,1.14,2.01Z"/>
          <path class="cls-16" d="M72.89,149.67c-.15-.54-.91-1.11-.91-1.11,0,0,.4-.02.61.09.36.18.59.6.67.82.12.31.25.61.21,1.24-.02.32.09,1.09.21,1.44s.88,1.24.73,2.22c-.15.98-.65,1.96-1.34,2.3-.68.34-.86.06-.86.06,0,0,.12-.58.65-.8.53-.22.83-.58,1.05-1.37.21-.79-.39-1.55-.67-2.59s-.24-1.9-.35-2.31Z"/>
          <path class="cls-9" d="M71.97,148.57s.75.74.71,2.07c-.02.79-.08,1.32.07,2.07.12.58.95,1.63.95,1.63,0,0-1.81-.9-1.61-2.63.24-2.16-.68-3.34-.68-3.34l.56.19Z"/>
        </g>
      </g>
      <g>
        <g>
          <path class="cls-23" d="M106.54,156.11c-.73-.19-1.77-.31-2.33-.51-1.43-.52-4.13-2.44-5.21-3.18-2.28-1.55-3.21-1.27-4.18-1.23-.63-1.59-1.33-2.77-1.82-3.99-1.13-2.77-1.71-4.82-1.71-4.82l-5.57.13s-.08,2.3.71,4.08c.34.77,1.16,1.9,2.08,3.05,1.19,1.5,2.57,3.03,3.32,3.9,1.34,1.53,1.35,1.25,2.75,1.48,1.4.24,3.9.93,5.45,1.52,1.23.47,2.72,1.11,3.15,1.29.28.15.78.47.99.92.31.64.36,2.16.09,3.12-.27.96-.29,1.65.3,1.45,1.32-.44,1.34-1.03,1.57-1.56.22-.53.23-1.7.45-2.23.22-.53.88-1.38.99-2.15.11-.77-.29-1.09-1.02-1.28Z"/>
          <path class="cls-14" d="M93.88,154.12s.53-.31.9,0c.37.31.46.59.46.59,0,0-1.18-.25-1.36-.59Z"/>
        </g>
        <g>
          <path class="cls-23" d="M92.8,141.2c-1-1.05-3.91,4.31-3.91,4.31,0,0-.68,1.73-1.45,3.68-.97,2.47-2.07,5.29-2.12,5.43-.22.73-.6,3.79-.96,6.42-.24,1.74-.93,4.5-1.38,6.19-.44,1.24-.82,1.71-1.67,1.52-.89-.2-3.1-1.37-3.96-1.44-.48-.04-.78.55.14,1.4.38.35.48,1.44,1.28,1.8.8.36,1.85.84,3,1.85,1.15,1,2.31.61,2.52-.74.16-1,.41-2.25.43-2.3.43-.92,1.06-2.12,1.63-3.26,1.18-2.38,2.36-6.13,2.27-7.37-.09-1.24-.17-2.07.23-2.76.32-.55,1.67-2.35,3.28-4.49.86-1.15,1.98-2.73,2.25-3.42,1.72-4.39-.47-5.66-1.59-6.83Z"/>
          <path class="cls-14" d="M85.66,155.93v1.23s.41-.26.4-.74c-.01-.49-.4-.49-.4-.49Z"/>
        </g>
        <path class="cls-23" d="M86.79,128.65s-.63-.28-1.31-.28c-.47,0-.99.52-1.42,1.28-.43.76-2.9,4.13-2.9,4.13,0,0-.68-1.01-1.82-1.79-1.14-.78-1.68-1.32-1.82-1.73-.14-.41.41-1.11,0-1.54-.41-.43-.68-.38-.68-.38,0,0-.18-1.05-1.5-.28-1.08.63-.74,1.94-.1,2.62.64.68,1.64,1.69,2.64,2.87,1,1.19,1.5,2.14,2.36,2.77.86.63,1.59.55,2.28,0,.69-.54,2.75-2.92,3.34-3.59.59-.67.93-4.08.93-4.08Z"/>
        <g>
          <g>
            <g>
              <path class="cls-23" d="M85.75,141.83c2.4,1.09,5.3,1.28,7.16-.09-.21-.25-.45-.49-.73-.7-.76-.57-1.34-1.78-1.28-2.33.15-1.67.68-4.45,1.34-6.07.4-.97-1.71-2.26-2.35-3.2-.22.32-1.49-.93-2.98-1.06-.44-.04-.76.69-1.15,1.31-.16.26-.64,1.19-.88,1.48-2.16,2.56-.83,3.35-.4,4.89.4,1.41.71,3.31,1.27,5.78Z"/>
              <path class="cls-14" d="M89.89,129.43s-.33-.37-.45-1.1c-.16-.98,0-2.29,0-2.29l-2.9.6s.02,1.7-.79,3.04c0,.37.09.79.79.78,1.54-.03,3.11-.7,3.34-1.03Z"/>
            </g>
            <g>
              <path class="cls-23" d="M85.38,122c-1.27,1.31-.77,5.84,1.08,6.15,1.2.2,2.89-.87,3.51-2.96.52-1.76-2.19-5.66-4.59-3.19Z"/>
              <path class="cls-16" d="M84.79,123.09s1.65.81,3.53.53c.27.27.35.67.5,1.08,1.03-.65,1.14.49.56,1.11-.17.28-.1,1.24-.1,1.24,0,0,1.19-.51,1.61-2.84.18-1-.71-2.84-1.79-3.35-.94-.43-1.74-.5-3.31.26-1.03.49-1,1.96-1,1.96Z"/>
            </g>
          </g>
          <path class="cls-11" d="M92.12,140.07c-.25-.42-.48-.87-.6-1.23-.34-1.03-.05-3.61-.05-3.61,0,0-1.61.95-2.85-.34-.66-.69.71-3.35,1.55-5.24-.14-.09-.25-.21-.35-.35-.77.46-2.05,1.5-2.8,1.94-1.04.61-1.64.38-1.72-.07-.09-.5.84-2.1.84-2.1,0,0-2.03,2.74-2.59,3.49-.56.75-.79,1.7-.24,2.85.55,1.15,1.37,2.56,1.67,3.64.77,2.79.74,3.47.74,3.47,0,0,1.01,2.58,2.9,3.73.26-.8.63-1.55,1.04-2.31,1.4-2.58,3.43-2.4,3.43-2.4l-.97-1.47Z"/>
          <path class="cls-4" d="M84.49,132.69s.92.55,1.64.35c.72-.2,1.13-.65,1.13-.65,0,0-.56.13-1.33.13-.76,0-1.44.17-1.44.17Z"/>
        </g>
        <path class="cls-23" d="M90.18,129.64s.5.37,1.16.51c.66.14,1.62.34,2.46,2.09.85,1.75,1.77,2.23,2.38,2.99.61.75.86,1.08.52,1.81-.13.28-1.01,1.19-1.97,1.79-.56.34-3.05,1.38-3.29,1.58-.24.2-.54,1.25-1.1,1.73-.56.48-1.09-.29-1.54-.71-.19-.18-.8-.84.13-1.66-.22-.63.93-.33,1.35-.45.57-.32,1.79-1.45,2.33-1.92.55-.48,1.35-.76,1.35-.76l-3.07-2.23s-1.62-1.76-.71-4.77Z"/>
        <path class="cls-14" d="M90.89,134.42s-.56-.68-1.02-.82c-.46-.14-.95,1.02-.95,1.02,0,0,1.22,1.08,1.97-.21Z"/>
        <path class="cls-16" d="M88.53,121s1.72-1.77,2.74-.74c1.03,1.03.49,1.59.87,1.97.38.38,1.49-.18,2.23.71s.51,1.54.79,1.78c.28.24,1.35.15,1.78.43.44.28.47,1.6.83,1.93.35.32.45-.17,1.34.18.89.34,1.86,2.26,1.51,3.53-.26.94-1.34.65-1.34.65,0,0,1.47-.75.16-1.14-1.2-.36-1.76-1.23-1.81-1.47s-.11-.67-.44-1.01-1.69,0-2.15-.75c-.47-.76-.02-1.53-.44-1.91-.42-.38-1.32.33-1.96-.45-.63-.77-.72-2.01-1.14-1.97-.42.05-1.05.65-1.6.32-.55-.33-1.36-2.07-1.36-2.07Z"/>
      </g>
      <path class="cls-23" d="M57,118.02c.52.12.96-.25,2.08.37,1.11.62,2.39,1.27,3.35,1.44.96.17,2.42.81,3.17,1.68.75.87,3.26,3.35,4.38,4.46,1.12,1.12,2.9,1.76,3.32,3.23.42,1.47.54,2.17.52,2.78-.02.61-.71.67-.89.18-.18-.49-.72-1.73-1.2-1.92s-.92.17-.48.65c.44.48.75.53.64.89s-.04.55-.41.19c-.37-.36-.96-1.39-.96-1.77,0-.38.19-1.03-.15-1.38-.33-.35-2.81-1.11-3.64-1.86-.82-.76-2.07-2.94-2.71-2.94-2.17,0-3.9-1.16-4.68-.52-.38.31-.47.87-.47,1.73,0,.42.03,1.23.03,1.23,0,0-2.69.17-3.04-3.13-.35-3.3,1.14-5.31,1.14-5.31Z"/>
      <g>
        <g>
          <path class="cls-10" d="M123.05,29.06c.22-4.05.17-7.88-.28-11.33-3.7,2.26-7.25,4.75-10.73,7.35.23,3.38.07,7.4-.41,11.97,6.29-3,13.6-5.55,20.71-5.57-3.49-.94-6.66-1.76-9.3-2.42Z"/>
          <path class="cls-10" d="M184.9,54.46c-4.01-6.74-21.27-13.52-37.63-18.64,3.25,1.74,6.41,3.86,8.63,6.54,1.81,2.19,3.32,4.39,5.2,6.49,1,1.12,3.42,5.81,4.17,6.11.13.05.23.13.32.22,5.63-3.48,11.21,1.04,12.04,6.74.73,4.96-.44,10.85-1.89,15.59-.99,3.24-2.69,7.08-5.61,8.61-.7.37-1.07-.61-.91-1.2,4.03-14.79,4.3-21.44,1.58-21.82-1.43-.2-2,4.9-2.43,6.57-5.94,23.05-6.86,25.15-11.98,31.6-1.84,2.32-2.86.44.02-5.86,1.65-3.61,2.53-7.37,3.6-11.23.64-2.33,1.88-7.44,1.89-9.86.01-4.24-2.17-3.43-3.85.8-.51,1.29-1.35,4.04-1.82,5.38-.48,1.34-.97,2.68-1.5,4.01-2.95,7.43-11.59,24.23-21.27,23.37-.64-.06-.24-1.08.98-2.25,5.61-5.4,11.26-13.34,13.38-21.08.69-1.68.38-5.12-.47-6.91-2.54-1.26-4.75-.11-5.85,2.55-.66,1.59-1.39,3.27-2.13,4.82-2.39,4.99-3.67,5.69-5.27,5.32-1.13-.26,3.51-9.55,3.78-12.74-2.07-.67-2.28-.16-4.31,4.03-.57,1.17-3.56,6.96-5.15,9.03-1.6,2.07-4.31,5.52-7.26,4.92-.39-.08-.58-.46-.62-.82-.26-2.25,2.07-4.84,2.81-6.91,2.78-7.79,3.44-12.2.45-13.9-1.5-.85-3.11,2.22-4.33,3.84-1.57,2.09-2.31,3.99-3.99,6.03-1.64,1.99-5.16,6.5-7.57,5.56-1.59-.62.67-6.39,1.29-8.66,1.43-5.16.68-11.4-3.08-14.11-4.52,17.83-9.84,31.63-9.84,31.63l73.24,42.42s12-16.75,17.51-37.48c5.51-20.73,5.96-35.16-2.1-48.71Z"/>
          <path class="cls-22" d="M142.58,33.54c-3.27-1.46-6.73-2.07-10.24-2.06,4.58,1.24,9.7,2.71,14.93,4.34-1.58-.84-3.17-1.61-4.69-2.28Z"/>
          <path class="cls-22" d="M109.17,80.71c-.63,2.26-2.89,8.03-1.29,8.66,2.41.94,5.93-3.57,7.57-5.56,1.68-2.04,2.42-3.95,3.99-6.03,1.22-1.62,2.83-4.7,4.33-3.84,3,1.71,2.34,6.11-.45,13.9-.74,2.07-3.06,4.66-2.81,6.91.04.35.23.74.62.82,2.95.59,5.66-2.85,7.26-4.92,1.59-2.07,4.58-7.86,5.15-9.03,2.04-4.19,2.24-4.69,4.31-4.03-.27,3.19-4.91,12.48-3.78,12.74,1.6.37,2.88-.32,5.27-5.32.74-1.55,1.48-3.24,2.13-4.82,1.1-2.66,3.32-3.81,5.85-2.55.85,1.79,1.17,5.23.47,6.91-2.12,7.74-7.77,15.68-13.38,21.08-1.22,1.17-1.62,2.19-.98,2.25,9.68.86,18.32-15.94,21.27-23.37.53-1.33,1.02-2.66,1.5-4.01.48-1.33,1.31-4.09,1.82-5.38,1.68-4.23,3.86-5.04,3.85-.8,0,2.42-1.24,7.53-1.89,9.86-1.07,3.86-1.95,7.62-3.6,11.23-2.88,6.3-1.86,8.19-.02,5.86,5.12-6.46,6.04-8.55,11.98-31.6.43-1.67,1-6.77,2.43-6.57,2.73.37,2.46,7.03-1.58,21.82-.16.59.21,1.56.91,1.2,2.92-1.53,4.61-5.36,5.61-8.61,1.45-4.73,2.61-10.62,1.89-15.59-.83-5.69-6.41-10.21-12.04-6.74-.08-.09-.19-.16-.32-.22-.75-.31-3.17-5-4.17-6.11-1.88-2.1-3.39-4.3-5.2-6.49-2.21-2.68-5.38-4.8-8.63-6.54-5.22-1.63-10.35-3.1-14.93-4.34-7.11.02-14.42,2.56-20.71,5.57-.38,3.64-.96,7.62-1.73,11.98-1.07,6.05-2.41,12.01-3.82,17.57,3.76,2.71,4.51,8.95,3.08,14.11Z"/>
        </g>
        <path class="cls-20" d="M115.34,2.94c-.68-.48-1.41-.91-2.2-1.27l-.08-.05s0,0-.01,0c-2.73-1.24-6.11-1.81-10.27-1.56-21.88,1.31-29.81,34.71-29.81,34.71l73.24,42.42s8.69-23.24,20.66-27.84c11.97-4.6,20.34-4.86,20.34-4.86L115.34,2.94Z"/>
        <path class="cls-3" d="M146.21,77.19s7.93-33.4,29.81-34.71c23.12-1.38,22.37,22.36,17.97,47.44-4.75,27.15,4.54,34.1,4.54,34.1l-48.3,27.61s23.76-22.32,28.1-38.77c1.68-6.35,3.56-14.32,4.82-21.41,4.5-25.44,2.9-39.01-10.62-37.05-15.31,2.21-26.32,22.79-26.32,22.79Z"/>
        <path class="cls-13" d="M141.09,55.75c-.53,1.65-1.02,2.92-2.04,2.1-1.75-1.39-1.95-2.7-1.57-5.1.74-4.63,2.9-8.05,5.81-11.62.05-.06-.01-.16-.09-.11-.22.16-.42.33-.63.5-.04-.04-.1-.06-.15-.03-4.9,2.41-8.24,6.86-9.98,11.9-.25.72-1,1.7-2.41.5-1.46-1.24-2.82-2.85-2.86-4.38-.08-3.04,2.25-8.77,4.1-11.26-3.72,1.61-6.99,5.92-8.98,9.7-.45.86-1.01.63-1.24.43-2.15-1.96-2.29-6.53-.94-9.82,1.98-4.86,8.2-12.99,12.34-15.94-8.35,2.15-15.52,10.92-19,17.46-1.4,2.63-1.86.55-1.72-.02,1.06-4.28,4.76-11.94,9.7-16.51-7.28,4.53-10.93,9.02-13.65,13.53-.86,1.43-5.8-1.47-4.29-6,.52-1.56,2.21-5.14,3.18-6.45-2.46,1.34-4.76,4.51-5.69,6.15-.3.52-.68,1.15-1,1.8-.18.38-.63,1.34-.86.04-1.1-6.14,9.13-17.34,12.3-20.16-2.99.78-8.21,5.27-11.56,8.66-1.47,1.49-2.86,3.05-4.12,4.72-1.77,2.36-2.87,3.55-5.29,1.93-.51-.34-.44-1.06-.43-1.44.12-3.08.66-5.73,2.14-8.47,2.68-4.97,6.24-8.43,11.16-11.68-5.08,1.73-11.42,6.39-14.98,10.33-1.81,2.01-3.46,4.17-4.84,6.49-1.09,1.83-1.38,1.84-1.98,1.46-.34-.21-.32-1.28-1.48-1.22-.48.03-1.18.66-1.86.44-1.01-.32-.63-1.61-1.91-1.75-1.25-.14-2.73.31-4.06,1.28-1.69,1.24-.86,2.93-.41,3.78.43.81.61,1.69-.12,2.37-.5.46-2.35.37-2.77.89-.72.91-.63,1.54-.57,2.7.05,1.07-.79,1.01-.74,2.2.05,1.15.89,2.09,3.83,1.14.7-.23,1.92.34,1.12,1.75-.48.85-.85,2.03-.26,2.75,1.78,2.15,3.35.14,4.98,1.55.83.72,1.3,2.38,2.3,2.88,2.03,1.02,4.09-3.38,5.42-2.46,1.24.85-.91,2.98.21,4.12.66.67,1.37,2.67,2.3,3.16,2.21,1.16,3.03-.01,4.61,2.38.88,1.33.41,2.67,2.53,3.76,1.17.6,2.25.38,4.67-1.14,1.35-.84,2.76-.67,2.36,1.59-.16.88-.57,2.53.72,3.38,1.06.69,3.81-1,3.9-.28.07.64.73,1.21,1.38.8,2.88-1.83,4.84-3.19,6.46.19.29.61,1.06.55,1.5.2.97-.77,2.21-.01,2.03,1.61-.23,2.02-1.01,3.28-.29,5.03.39.93,1.35,1.3,2.82,1.02.93-.18,1.64-.16,2.65,1.25.78,1.1,2.68-.84,3.72-.21,1.13.68.75,2,1.1,2.41.73.88,2.34-.48,3.12.37,1.28,1.39.63,2.54.83,4.06.2,1.5.88,1.91,3.32,1.76,1.75-.11,1.37,2.04,2.06,2.44,1.76,1.01,2.5-1.3,3.34.4.49.99,1.52,1.87,3.35.97,6.18-3.01,8.32-9.77,5.94-16.2-.76-2.04-1.79-10.66-.54-15.84,1.13-4.69,5.21-11.31,7.55-13.55-8.59,5.09-14.2,15.17-15.52,19.29Z"/>
        <g>
          <path class="cls-21" d="M101.79,39.92c-.23-.73-1.19-.38-1.07-1.99.08-1.01-.22-2.03-1.08-2.03-1.3,0-1.73-.76-2.52-.38-.37.18-.94.56-.67,1.54.16.57-.35,1.24-.84.97-.45-.24-1.21-.69-1.6-.35-.97.81-1.29.46-1.18-.44.05-.4-.15-.79-.51-1.61-.25-.56-.43-.7-.99-.91-.95-.34-1.39.24-2.21.53-.62.22-.46.26-1.18-.05-.42-.18-.89-.93-1.34-.8-1.02.29-1.01.27-1.82-.02q-.59-.21-.76.61c-.07.36-.05.62.17,1.01.89,1.55.12,2.11.4,2.83.29.72,1.71.63,2.28,1.06.79.6.17,1.04,0,2.18-.09.56,1.05,1.34,1.19,1.92.16.63.43,1.59,1.13,1.83.72.25,1.16-.18,1.92-1.99.28-.68,1.17-1.59,1.8-1.14.48.34.74,1.15,1.39,1.36.36.11,1.31.18,1.07,1.07-.24.89-.41,1.98-.18,2.64.33.93,1.01.98,1.61.96.47-.02.82.06,1.39-.52.53-.54,1.85-.59,2.31-1.2.52-.7.41-1.3-.27-1.91-.84-.75.46-1.54.99-2.69.39-.85.86-1.51.55-2.46Z"/>
          <path class="cls-21" d="M147.8,69.24c-.23-.73-1.19-.38-1.07-1.99.08-1.01-.22-2.03-1.08-2.03-1.3,0-1.73-.76-2.52-.38-.37.18-.94.56-.67,1.54.16.57-.35,1.24-.84.97-.45-.24-1.21-.69-1.6-.35-.97.81-1.29.46-1.18-.44.05-.4-.15-.79-.51-1.61-.25-.56-.43-.7-.99-.91-.95-.34-1.39.24-2.21.53-.62.22-.46.26-1.18-.05-.42-.18-.89-.93-1.34-.8-1.02.29-1.01.27-1.82-.02q-.59-.21-.76.61c-.07.36-.05.62.17,1.01.89,1.55.12,2.11.4,2.83.29.72,1.71.63,2.28,1.06.79.6.17,1.04,0,2.18-.09.56,1.05,1.34,1.19,1.92.16.63.43,1.59,1.13,1.83.72.25,1.16-.18,1.92-1.99.28-.68,1.17-1.59,1.8-1.14.48.34.74,1.15,1.39,1.36.36.11,1.31.18,1.07,1.07-.24.89-.41,1.98-.18,2.64.33.93,1.01.98,1.61.96.47-.02.82.06,1.39-.52.53-.54,1.85-.59,2.31-1.2.52-.7.41-1.3-.27-1.91-.84-.75.46-1.54.99-2.69.39-.85.86-1.51.55-2.46Z"/>
          <path class="cls-21" d="M111.64,45.94c-.79-.74-2.03-.6-2.88-1.24-.49-.37-.81-.74-1.49-.81-.78-.08-1.61.24-2.11.85-.35.42-1.15,2.49-1.62,2.6-1.15.26-1.66.98-1.59,1.64.08.76,1.03.61,1.29,1.09.19.38-.35,1.47-.19,2.48.27,1.63.56,2.49,2.71,1.49.53-.25,1.02-.15,1.92.44.86.56,1.41-.21,1.81-1.03.3-.63.12-.8.98-1.2.3-.14,1.02-.34,1.37-.44.55-.16,1.02-.46,1.22-1.03.47-1.34-.44-3.93-1.41-4.84Z"/>
          <path class="cls-21" d="M89.57,30c-.43-.41-.26-1.03-.75-1.42-.35-.28-.89-.3-1.28-.53-.27-.54-.59-1.07-1.24-.86-.24.08-.48.32-.55.56-.14.5.32.59.33.99.01.54-1.36.59-1.3,1.54.02.3.13.3.24.58.29.71.23.65.27,1.2.02.34.02.64.31.87.29.23.66.22,1,.11.2-.06.37-.23.57-.29.79-.23.89.12,1.46.26.83.2,1.7-.36,2.03-1.12.48-1.11-.48-1.29-1.09-1.88Z"/>
          <path class="cls-21" d="M82.26,30.48c-.71-.55-1.54-.63-2.32-.78-.86-.16-.26-.75-1.5-1.21-.2-.08-.68.37-1.69.18-.42-.08-1.04-1.15-1.46-.98-1.32.52-1.13,1.24-.15,2.03.51.41-.65.26-1.17.82-.37.4-.24,1.15.2,1.69.68.83,1.58,1.1.94,1.66-.57.5-.86,1.07-.52,1.86.22.53.65.98,1.25.97.37,0,.88-.81,1.19-.87,1.02-.18.56,1.24.82,1.81.52,1.14,1.31.67,2.52-.33,1.13-.94.34-1.59.19-1.92-.52-1.19.73-.8,1.44-1.12.61-.28.35-1.28.75-1.84.64-.9.16-1.47-.48-1.98Z"/>
          <path class="cls-21" d="M135.39,59.85c-.43-.41-.26-1.03-.74-1.42-.35-.28-.89-.3-1.28-.53-.27-.54-.59-1.07-1.24-.86-.24.08-.48.32-.55.56-.14.5.32.59.33.99.01.54-1.36.59-1.3,1.54.02.3.13.3.24.58.29.71.23.65.27,1.2.02.34.02.64.31.87.29.23.66.22,1,.11.2-.06.37-.23.57-.29.79-.23.89.12,1.46.26.83.2,1.7-.36,2.03-1.12.48-1.11-.48-1.29-1.09-1.88Z"/>
          <path class="cls-21" d="M128.08,60.33c-.71-.55-1.54-.63-2.32-.78-.86-.16-.26-.75-1.5-1.21-.2-.08-.68.37-1.69.18-.42-.08-1.04-1.15-1.46-.98-1.32.52-1.13,1.24-.15,2.03.51.41-.65.26-1.17.82-.37.4-.24,1.15.2,1.69.68.83,1.58,1.1.94,1.66-.57.5-.86,1.07-.52,1.86.22.53.65.98,1.25.97.37,0,.88-.81,1.19-.87,1.02-.18.56,1.24.82,1.81.52,1.14,1.31.67,2.52-.33,1.13-.94.34-1.59.19-1.92-.52-1.19.73-.8,1.44-1.12.61-.28.35-1.28.75-1.84.64-.9.16-1.47-.48-1.98Z"/>
          <path class="cls-21" d="M121.76,52.95c-.37-.6-1.18-.58-1.65-1.06-.53-.53-.78-1.11-1.48-1.49-1.06-.57-1.54-.54-1.99-.05-.53.58.11,1.32-.57,1.88-.5.41-1.41-.08-2.05.78-.63.84-.48,1.77.17,2.41.46.45,1.06-.11,1.48.78.07.27.06.53.22.78.27.42.77.59,1.25.54.61-.06.95-.46,1.34-.88.37-.4.61-.85,1.21-.93.35-.05.63.04.97-.1.89-.36,1.67-1.76,1.11-2.66Z"/>
        </g>
        <g>
          <path class="cls-13" d="M69.2,39.11c0,.45-.37.81-.81.81-.45,0-.81-.37-.81-.81,0-.45.37-.81.81-.81.45,0,.81.37.81.81Z"/>
          <path class="cls-13" d="M82.99,47.85c0,.45-.37.81-.81.81-.45,0-.81-.37-.81-.81,0-.45.37-.81.81-.81.45,0,.81.37.81.81Z"/>
          <path class="cls-13" d="M92.33,57.43c0,.45-.37.81-.81.81-.45,0-.81-.37-.81-.81,0-.45.37-.81.81-.81.45,0,.81.37.81.81Z"/>
          <path class="cls-13" d="M99.44,58.26c0,.45-.37.81-.81.81-.45,0-.81-.37-.81-.81,0-.45.37-.81.81-.81.45,0,.81.37.81.81Z"/>
          <path class="cls-13" d="M111.67,62.88c0,.45-.37.81-.81.81-.45,0-.81-.37-.81-.81,0-.45.37-.81.81-.81.45,0,.81.37.81.81Z"/>
          <path class="cls-13" d="M120.34,74.17c0,.45-.37.81-.81.81-.45,0-.81-.37-.81-.81,0-.45.37-.81.81-.81.45,0,.81.37.81.81Z"/>
          <path class="cls-13" d="M129.64,74.82c0,.45-.37.81-.81.81-.45,0-.81-.37-.81-.81,0-.45.37-.81.81-.81.45,0,.81.37.81.81Z"/>
          <path class="cls-13" d="M102.7,61.25c0,.45-.37.81-.81.81-.45,0-.81-.37-.81-.81,0-.45.37-.81.81-.81.45,0,.81.37.81.81Z"/>
          <path class="cls-13" d="M116.31,69.92c0,.45-.37.81-.81.81-.45,0-.81-.37-.81-.81,0-.45.37-.81.81-.81.45,0,.81.37.81.81Z"/>
          <path class="cls-13" d="M126.12,76.3c0,.45-.37.81-.81.81-.45,0-.81-.37-.81-.81,0-.45.37-.81.81-.81.45,0,.81.37.81.81Z"/>
          <path class="cls-13" d="M152.22,80.7c0,.45-.37.81-.81.81s-.81-.37-.81-.81c0-.45.37-.81.81-.81.45,0,.81.37.81.81Z"/>
          <path class="cls-13" d="M66.62,27.65c0,.45-.37.81-.81.81-.45,0-.81-.37-.81-.81,0-.45.37-.81.81-.81.45,0,.81.37.81.81Z"/>
          <path class="cls-13" d="M77.26,48.64c0,.45-.37.81-.81.81-.45,0-.81-.37-.81-.81,0-.45.37-.81.81-.81.45,0,.81.37.81.81Z"/>
          <path class="cls-13" d="M66.11,33.28c0,.31-.26.56-.57.56-.31,0-.56-.26-.56-.57,0-.31.26-.56.57-.56.31,0,.56.26.56.57Z"/>
          <path class="cls-13" d="M69.4,26.28c0,.31-.25.56-.57.56-.31,0-.56-.26-.56-.57,0-.31.25-.56.57-.56.31,0,.56.26.56.57Z"/>
          <path class="cls-13" d="M66.09,39.91c0,.31-.25.56-.57.56-.31,0-.56-.26-.56-.57,0-.31.26-.56.57-.56.31,0,.56.26.56.57Z"/>
          <path class="cls-13" d="M76.21,45.96c0,.31-.25.56-.57.56s-.56-.26-.56-.57.25-.56.57-.56.56.26.56.57Z"/>
          <path class="cls-13" d="M86.47,53.08c0,.31-.26.56-.57.56-.31,0-.56-.26-.56-.57,0-.31.26-.56.57-.56.31,0,.56.26.56.57Z"/>
          <path class="cls-13" d="M84.51,49.48c0,.31-.25.56-.57.56-.31,0-.56-.26-.56-.57,0-.31.25-.56.57-.56.31,0,.56.26.56.57Z"/>
          <path class="cls-13" d="M90.73,52.53c0,.31-.26.56-.57.56-.31,0-.56-.26-.56-.57s.25-.56.57-.56c.31,0,.56.25.56.57Z"/>
          <path class="cls-13" d="M95.24,60.65c0,.31-.26.56-.57.56-.31,0-.56-.26-.56-.57,0-.31.25-.56.57-.56.31,0,.56.26.56.57Z"/>
          <path class="cls-13" d="M102.37,64.63c0,.31-.25.56-.57.56s-.56-.26-.56-.57c0-.31.25-.56.57-.56.31,0,.56.26.56.57Z"/>
          <path class="cls-13" d="M105.26,65.04c0,.31-.25.56-.57.56s-.56-.26-.56-.57c0-.31.26-.56.57-.56.31,0,.56.26.56.57Z"/>
          <path class="cls-13" d="M115.27,64.11c0,.31-.25.56-.57.56-.31,0-.56-.26-.56-.57,0-.31.25-.56.57-.56.31,0,.56.26.56.57Z"/>
          <path class="cls-13" d="M134.1,83.88c0,.31-.26.56-.57.56-.31,0-.56-.26-.56-.57s.25-.56.57-.56c.31,0,.56.26.56.57Z"/>
          <path class="cls-13" d="M147.32,83.25c0,.31-.25.56-.57.56s-.56-.26-.56-.57c0-.31.25-.56.57-.56.31,0,.56.26.56.57Z"/>
          <path class="cls-13" d="M152.81,73.47c0,.31-.25.56-.57.56-.31,0-.56-.26-.56-.57,0-.31.26-.56.57-.56.31,0,.56.26.56.57Z"/>
          <path class="cls-13" d="M112.23,65.63c0,.31-.26.56-.57.56-.31,0-.56-.26-.56-.57,0-.31.26-.56.57-.56s.56.26.56.57Z"/>
          <path class="cls-13" d="M133.55,80.64c0,.31-.25.56-.57.56-.31,0-.56-.26-.56-.57s.26-.56.57-.56c.31,0,.56.26.56.57Z"/>
          <path class="cls-13" d="M141.15,85.03c0,.31-.25.56-.57.56s-.56-.26-.56-.57c0-.31.26-.56.57-.56.31,0,.56.26.56.57Z"/>
          <path class="cls-13" d="M65.39,31.55c0,.22-.18.41-.41.4-.22,0-.41-.18-.4-.41,0-.22.18-.41.41-.4.22,0,.41.18.4.41Z"/>
          <path class="cls-13" d="M70.81,41c0,.22-.18.41-.41.4-.22,0-.41-.18-.4-.41,0-.22.18-.41.41-.4.22,0,.41.18.4.41Z"/>
          <path class="cls-13" d="M88.53,54.06c0,.22-.18.41-.41.4-.22,0-.41-.18-.4-.41s.18-.41.41-.4c.22,0,.41.18.4.41Z"/>
          <path class="cls-13" d="M97.19,60.26c0,.22-.18.41-.41.4-.22,0-.41-.18-.4-.41,0-.22.18-.41.41-.4s.41.18.4.41Z"/>
          <path class="cls-13" d="M100.24,61.64c0,.22-.18.41-.41.4-.22,0-.41-.18-.4-.41s.18-.41.41-.4c.22,0,.41.18.4.41Z"/>
          <path class="cls-13" d="M95.65,57.93c0,.22-.18.41-.41.4-.22,0-.41-.18-.4-.41,0-.22.18-.41.41-.4.22,0,.41.18.4.41Z"/>
          <path class="cls-13" d="M91.12,54.61c0,.22-.18.41-.41.4-.22,0-.41-.18-.4-.41,0-.22.18-.41.41-.4.22,0,.41.18.4.41Z"/>
          <path class="cls-13" d="M88.52,56.84c0,.22-.18.41-.41.4-.22,0-.41-.18-.4-.41,0-.22.18-.41.41-.4s.41.18.4.41Z"/>
          <path class="cls-13" d="M87.29,51.54c0,.22-.18.41-.41.4-.22,0-.41-.18-.4-.41,0-.22.18-.41.41-.4.22,0,.41.18.4.41Z"/>
          <path class="cls-13" d="M76.87,44.15c0,.22-.18.41-.41.4-.22,0-.41-.18-.4-.41,0-.22.18-.41.41-.4s.41.18.4.41Z"/>
          <path class="cls-13" d="M79.74,49.17c0,.22-.18.41-.41.4-.22,0-.41-.18-.4-.41,0-.22.18-.41.41-.4s.41.18.4.41Z"/>
          <path class="cls-13" d="M99.82,65.02c0,.22-.18.41-.41.4-.22,0-.41-.18-.4-.41,0-.22.18-.41.41-.4.22,0,.41.18.4.41Z"/>
          <path class="cls-13" d="M104.7,62.06c0,.22-.18.41-.41.4s-.41-.18-.4-.41c0-.22.18-.41.41-.4.22,0,.41.18.4.41Z"/>
          <path class="cls-13" d="M117.12,71.54c0,.22-.18.41-.41.4-.22,0-.41-.18-.4-.41,0-.22.18-.41.41-.4.22,0,.41.18.4.41Z"/>
          <path class="cls-13" d="M131.35,82.79c0,.22-.18.41-.41.4-.22,0-.41-.18-.4-.41,0-.22.18-.41.41-.4.22,0,.41.18.4.41Z"/>
          <path class="cls-13" d="M112.62,71.12c0,.22-.18.41-.41.4s-.41-.18-.4-.41c0-.22.18-.41.41-.4.22,0,.41.18.4.41Z"/>
          <path class="cls-13" d="M124.58,72.96c0,.22-.18.41-.41.4-.22,0-.41-.18-.4-.41s.18-.41.41-.4c.22,0,.41.18.4.41Z"/>
          <path class="cls-13" d="M151.82,76.39c0,.22-.18.41-.41.4-.22,0-.41-.18-.4-.41,0-.22.18-.41.41-.4.22,0,.41.18.4.41Z"/>
          <path class="cls-13" d="M155.47,71.27c0,.22-.18.41-.41.4-.22,0-.41-.18-.4-.41,0-.22.18-.41.41-.4.22,0,.41.18.4.41Z"/>
          <path class="cls-13" d="M142.91,83.8c0,.22-.18.41-.41.4-.22,0-.41-.18-.4-.41,0-.22.18-.41.41-.4s.41.18.4.41Z"/>
          <path class="cls-13" d="M130.03,79.28c0,.22-.18.41-.41.4-.22,0-.41-.18-.4-.41,0-.22.18-.41.41-.4.22,0,.41.18.4.41Z"/>
          <path class="cls-13" d="M147.72,85.05c0,.22-.18.41-.41.4-.22,0-.41-.18-.4-.41,0-.22.18-.41.41-.4.22,0,.41.18.4.41Z"/>
          <path class="cls-13" d="M152.21,83.27c0,.22-.18.41-.41.4s-.41-.18-.4-.41.18-.41.41-.4c.22,0,.41.18.4.41Z"/>
          <path class="cls-13" d="M134.92,81.21c0,.22-.18.41-.41.4-.22,0-.41-.18-.4-.41s.18-.41.41-.4.41.18.4.41Z"/>
          <path class="cls-13" d="M138.45,84.61c0,.22-.18.41-.41.4-.22,0-.41-.18-.4-.41,0-.22.18-.41.41-.4.22,0,.41.18.4.41Z"/>
          <path class="cls-13" d="M119.54,70.74c0,.22-.18.41-.41.4s-.41-.18-.4-.41c0-.22.18-.41.41-.4.22,0,.41.18.4.41Z"/>
          <path class="cls-13" d="M109.22,65.06c0,.22-.18.41-.41.4-.22,0-.41-.18-.4-.41,0-.22.18-.41.41-.4.22,0,.41.18.4.41Z"/>
          <path class="cls-13" d="M79.34,46.54c0,.22-.18.41-.41.4-.22,0-.41-.18-.4-.41,0-.22.18-.41.41-.4.22,0,.41.18.4.41Z"/>
          <path class="cls-13" d="M70,42.83c0,.22-.18.41-.41.4-.22,0-.41-.18-.4-.41,0-.22.18-.41.41-.4.22,0,.41.18.4.41Z"/>
          <path class="cls-13" d="M73.34,43.73c0,.22-.18.41-.41.4-.22,0-.41-.18-.4-.41,0-.22.18-.41.41-.4s.41.18.4.41Z"/>
          <path class="cls-13" d="M69.64,28.06c0,.22-.18.41-.41.4-.22,0-.41-.18-.4-.41,0-.22.18-.41.41-.4.22,0,.41.18.4.41Z"/>
          <path class="cls-13" d="M64.48,29.64c0,.22-.18.41-.41.4s-.41-.18-.4-.41.18-.41.41-.4c.22,0,.41.18.4.41Z"/>
          <path class="cls-13" d="M68.44,24.28c0,.22-.18.41-.41.4-.22,0-.41-.18-.4-.41,0-.22.18-.41.41-.4s.41.18.4.41Z"/>
        </g>
        <g>
          <path class="cls-18" d="M169.28,135.3c6.36-10.06,9.06-22.44,9.06-22.44,0,0-5.56,10.03-12.19,11.02-6.63.99-6.53-2.76-3.91-8.39,2.62-5.63,3.84-9.36,3.84-9.36,0,0-7.55,9.89-13.43,13.57-5.3,3.32-10.28,4.29-13.89,2.3-2.9-1.6,3.23-5.2,7.34-12.88,3.05-5.7,3.91-10.13,3.91-10.13,0,0-4.33,10.89-17.14,14.37-4.33,1.18-6.23,1.5-9.23-1.27-2.35-2.16.66-4,4.41-9.34,3.14-4.48,4.33-12.05,4.33-12.05,0,0-4.97,13.54-17.25,13.81-4.42.1-3.77-1.68-1.11-5.3,3.62-4.95,4.64-8.72,5.47-13.68-2.43,5.12-11.07,14.55-15.47,12.74-5.51-2.27-1.32-9.52-1.29-19.47,0,0-3.4,13.49-11.72,20.45-3.07,2.57-5.78,4.58-7.95,6.08,2.12,1.93,7.68-1.49,9.98-.13,1.35.79.56,4.33,4.17,4.15,4.13-.21,5.16.79,5.8,2.6.69,1.96.26,4.29,2.9,5.31,1.19.46,3.25-.27,4.76-.72,1.66-.5,2.67-.76,2.89.91,1.07,8.15,12.46-2.79,12.29,5.25-.1,4.38-3,9,4.16,7.38,3.35-.76,4.86-.25,4.85.75,0,2.07-.55,4.08,1.49,4.77,2,.67,5.7-.68,7.59.59,2.09,1.4.72,3.54.23,5.6-.92,3.87,3.9,3.04,6.64,2.21,3.94-.64,7.32-1.13,10.23.42,2.99-2.5,6.02-5.56,8.24-9.08Z"/>
          <path class="cls-13" d="M150.81,143.96c-2.73.83-7.56,1.66-6.64-2.21.49-2.05,1.86-4.19-.23-5.6-1.89-1.27-5.59.08-7.59-.59-2.04-.69-1.5-2.7-1.49-4.77,0-1-1.5-1.51-4.85-.75-7.16,1.62-4.25-3-4.16-7.38.17-8.03-11.22,2.91-12.29-5.25-.22-1.67-1.24-1.41-2.89-.91-1.51.46-3.57,1.18-4.76.72-2.65-1.02-2.21-3.35-2.9-5.31-.64-1.81-1.66-2.81-5.8-2.6-3.61.18-2.82-3.36-4.17-4.15-2.3-1.36-7.87,2.07-9.98.13-3.31,2.29-5.35,3.39-5.35,3.39,0,0,3.07,2.8,9.14,2.82,7,.02,11.59,1.71,11.32,5.13-.24,3.16.23,7.19,4.42,9.09,2.45,1.11,6.69.31,10.77,2.73s4.92,8.14,7.44,9.98c3.04,2.22,9.55-.12,13.52,2.09,2.91,1.62,2.43,5.44,6.06,8.28,3.07,2.39,9.86,2.82,9.86,2.82,0,0,5.34-2.67,10.81-7.24-2.9-1.55-6.29-1.07-10.23-.42Z"/>
        </g>
      </g>
      <g>
        <path class="cls-28" d="M117.98,150.26s-.78.39-.76,1.15c.02.61.43.4.75,1.08.32.68,1.12.51,1.46.49s.82.59,1.24.61c.41.02.81-.39,1.09-.32.28.08.64.36,1.26-.47.62-.82.36-3.34-.9-3.31-1.26.03-4.14.77-4.14.77Z"/>
        <g>
          <path class="cls-1" d="M121.77,151.58c-.46.31-1.07.49-1.34-.07-.22-.46-.4-.18-.7-.19-.62,0-.65-.37-.74-.55-.19-.38-.7-.18-.93-.46-.1-.12-.1-.29-.06-.47-.32.36-.53.82-.42,1.27.06.24.55.21.67.47.15.32.24.72.39.82.49.33.87,0,1.12.07.52.15.56.42.84.48.54.12.65-.25.9-.31.2-.05.56.13.71.04.42-.25.61-.66.71-1.2-.08.06-.17.12-.27.16-.49.15-.61-.24-.88-.06Z"/>
          <path class="cls-26" d="M121.6,151.16c-.32.1-.52,0-.61-.16-.15-.28-.19-.34-.46-.34-.11,0-.23.06-.34.06-.19,0-.36-.03-.51-.16-.18-.15-.15-.35-.25-.54-.12-.24-.57-.21-.77-.35-.15-.1-.13-.23-.06-.35-.1.07-.2.15-.3.23-.1.09-.2.19-.3.29-.04.17-.04.35.06.47.23.29.75.09.93.46.09.18.12.54.74.55.3,0,.48-.27.7.19.27.56.88.37,1.34.07.27-.18.39.21.88.06.11-.03.19-.09.27-.16.03-.15.05-.32.06-.49-.14.07-.3.12-.5.11-.29-.02-.6-.03-.89.06Z"/>
          <path class="cls-6" d="M121.28,148.46c-.98,0-1.8.22-2.67.86-.08.12-.1.24.06.35.2.14.65.11.77.35.1.19.07.39.25.54.15.13.32.16.51.16.12,0,.23-.06.34-.06.27,0,.31.06.46.34.09.17.29.25.61.16.29-.09.6-.07.89-.06.21.01.36-.04.5-.11.02-.19.03-.39.03-.61.05-1.37-.9-1.92-1.75-1.92Z"/>
          <path class="cls-26" d="M122.84,149.4s.18.75-.35,1.21c-.79.69-1.28.57-1.28.57l1.75.12s.24-.81-.12-1.9Z"/>
          <path class="cls-1" d="M120.37,149.01s-1.17.38-1.82,1.33c-.49.72-.15,1.18-.15,1.18,0,0,.36-.81.88-1.41.52-.6,1.08-1.1,1.08-1.1Z"/>
          <path class="cls-1" d="M119.52,152.04s.62-1.31,1.08-1.93c.45-.62.83-.88.83-.88,0,0-.76,1.23-1.15,2.07-.38.84-.4.93-.4.93l-.36-.19Z"/>
          <path class="cls-1" d="M121.27,152.11s.51-1.1.72-1.75c.2-.65.38-.98.38-.98,0,0,.07.68-.32,1.73-.4,1.05-.42,1.11-.42,1.11l-.35-.11Z"/>
        </g>
        <path class="cls-28" d="M30.51,139.21s-.78.39-.76,1.15c.02.61.43.4.75,1.08.32.68,1.12.51,1.46.49s.82.59,1.24.61c.41.02.81-.39,1.09-.32.28.08.64.36,1.26-.47.62-.82.36-3.34-.9-3.31s-4.14.77-4.14.77Z"/>
        <g>
          <path class="cls-1" d="M34.3,140.53c-.46.31-1.07.49-1.34-.07-.22-.46-.4-.18-.7-.19-.62,0-.65-.37-.74-.55-.19-.38-.7-.18-.93-.46-.1-.12-.1-.29-.06-.47-.32.36-.53.82-.42,1.27.06.24.55.21.67.47.15.32.24.72.39.82.49.33.87,0,1.12.07.52.15.56.42.84.48.54.12.65-.25.9-.31.2-.05.56.13.71.04.42-.25.61-.66.71-1.2-.08.06-.17.12-.27.16-.49.15-.61-.24-.88-.06Z"/>
          <path class="cls-26" d="M34.12,140.11c-.32.1-.52,0-.61-.16-.15-.28-.19-.34-.46-.34-.11,0-.23.06-.34.06-.19,0-.36-.03-.51-.16-.18-.15-.15-.35-.25-.54-.12-.24-.57-.21-.77-.35-.15-.1-.13-.23-.06-.35-.1.07-.2.15-.3.23-.1.09-.2.19-.3.29-.04.17-.04.35.06.47.23.29.75.09.93.46.09.18.12.54.74.55.3,0,.48-.27.7.19.27.56.88.37,1.34.07.27-.18.39.21.88.06.11-.03.19-.09.27-.16.03-.15.04-.32.06-.49-.14.07-.3.12-.5.11-.29-.02-.6-.03-.89.06Z"/>
          <path class="cls-6" d="M33.8,137.41c-.98,0-1.8.22-2.67.86-.08.12-.1.24.06.35.2.14.65.11.77.35.1.19.07.39.25.54.15.13.32.16.51.16.12,0,.23-.06.34-.06.27,0,.31.06.46.34.09.17.29.25.61.16.29-.09.6-.07.89-.06.21.01.36-.04.5-.11.02-.19.03-.39.03-.61.05-1.37-.9-1.92-1.75-1.92Z"/>
          <path class="cls-26" d="M35.36,138.35s.18.75-.35,1.21c-.79.69-1.28.57-1.28.57l1.75.12s.24-.81-.12-1.9Z"/>
          <path class="cls-1" d="M32.89,137.96s-1.17.38-1.82,1.33c-.49.72-.15,1.18-.15,1.18,0,0,.36-.81.88-1.41.52-.6,1.08-1.1,1.08-1.1Z"/>
          <path class="cls-1" d="M32.04,140.99s.62-1.31,1.08-1.93.83-.88.83-.88c0,0-.76,1.23-1.15,2.07-.38.84-.4.93-.4.93l-.36-.19Z"/>
          <path class="cls-1" d="M33.8,141.05s.51-1.1.72-1.75c.2-.65.38-.98.38-.98,0,0,.07.68-.32,1.73-.4,1.05-.42,1.11-.42,1.11l-.35-.11Z"/>
        </g>
        <path class="cls-28" d="M72.61,135.22s.77.4.75,1.15c-.02.61-.44.4-.76,1.07-.32.68-1.13.5-1.47.48-.34-.02-.83.58-1.24.6-.41.02-.81-.4-1.09-.32-.28.07-.64.35-1.26-.47-.62-.83-.33-3.34.92-3.3,1.26.04,4.14.8,4.14.8Z"/>
        <g>
          <path class="cls-1" d="M68.81,136.52c.46.31,1.07.5,1.34-.06.22-.45.4-.18.7-.18.62,0,.65-.36.74-.54.19-.38.7-.17.94-.46.1-.12.1-.29.06-.47.31.37.53.83.42,1.27-.06.24-.55.21-.67.47-.15.32-.24.72-.4.82-.49.32-.87-.01-1.12.06-.52.15-.56.42-.85.48-.55.12-.65-.25-.9-.32-.2-.05-.56.13-.71.04-.42-.25-.61-.66-.7-1.21.08.06.16.12.27.16.49.16.61-.24.88-.05Z"/>
          <path class="cls-26" d="M68.98,136.1c.32.1.52.01.61-.15.15-.28.19-.34.46-.34.11,0,.23.06.34.06.19,0,.36-.03.51-.16.18-.15.16-.35.25-.54.12-.24.57-.21.77-.34.15-.1.14-.23.06-.35.1.07.2.15.3.23.1.09.2.19.29.3.04.17.04.35-.06.47-.23.29-.75.08-.94.46-.09.18-.12.54-.74.54-.3,0-.48-.27-.7.18-.27.55-.88.37-1.34.06-.27-.18-.39.21-.88.05-.11-.03-.19-.09-.27-.16-.03-.15-.04-.32-.06-.49.14.07.29.12.5.11.29-.02.6-.03.89.06Z"/>
          <path class="cls-6" d="M69.33,133.4c.98,0,1.8.23,2.67.88.08.12.09.24-.06.35-.2.13-.65.11-.77.34-.1.19-.08.39-.25.54-.15.13-.32.16-.51.16-.12,0-.23-.06-.34-.06-.27,0-.31.05-.46.34-.09.16-.29.25-.61.15-.28-.09-.6-.08-.89-.06-.21.01-.36-.04-.5-.11-.01-.19-.02-.39-.03-.61-.04-1.38.92-1.91,1.76-1.91Z"/>
          <path class="cls-26" d="M67.76,134.33s-.18.75.34,1.21c.79.7,1.28.58,1.28.58l-1.75.11s-.23-.81.13-1.9Z"/>
          <path class="cls-1" d="M70.23,133.96s1.16.38,1.81,1.34c.49.72.14,1.18.14,1.18,0,0-.36-.81-.87-1.42-.51-.61-1.07-1.1-1.07-1.1Z"/>
          <path class="cls-1" d="M71.06,136.99s-.62-1.31-1.06-1.94-.82-.89-.82-.89c0,0,.75,1.23,1.13,2.07.38.84.4.94.4.94l.36-.19Z"/>
          <path class="cls-1" d="M69.3,137.05s-.51-1.1-.7-1.75c-.2-.65-.37-.98-.37-.98,0,0-.08.68.31,1.73.39,1.06.41,1.11.41,1.11l.35-.11Z"/>
        </g>
        <path class="cls-28" d="M121.76,162.17s.77.4.75,1.15c-.02.61-.44.4-.76,1.07-.32.68-1.13.5-1.47.48-.34-.02-.83.58-1.24.6-.41.02-.81-.4-1.09-.32-.28.07-.64.35-1.26-.47-.62-.83-.33-3.34.92-3.3,1.26.04,4.14.8,4.14.8Z"/>
        <g>
          <path class="cls-1" d="M117.96,163.47c.46.31,1.07.5,1.34-.06.22-.45.4-.18.7-.18.62,0,.65-.36.74-.54.19-.38.7-.17.94-.46.1-.12.1-.29.06-.47.31.37.53.83.42,1.27-.06.24-.55.21-.67.47-.15.32-.24.72-.4.82-.49.32-.87-.01-1.12.06-.52.15-.56.42-.85.48-.55.12-.65-.25-.9-.32-.2-.05-.56.13-.71.04-.42-.25-.61-.66-.7-1.21.08.06.16.12.27.16.49.16.61-.24.88-.05Z"/>
          <path class="cls-26" d="M118.13,163.05c.32.1.52.01.61-.15.15-.28.19-.34.46-.34.11,0,.23.06.34.06.19,0,.36-.03.51-.16.18-.15.16-.35.25-.54.12-.24.57-.21.77-.34.15-.1.14-.23.06-.35.1.07.2.15.3.23.1.09.2.19.29.3.04.17.04.35-.06.47-.23.29-.75.08-.94.46-.09.18-.12.54-.74.54-.3,0-.48-.27-.7.18-.27.55-.88.37-1.34.06-.27-.18-.39.21-.88.05-.11-.03-.19-.09-.27-.16-.03-.15-.04-.32-.06-.49.14.07.29.12.5.11.29-.02.6-.03.89.06Z"/>
          <path class="cls-6" d="M118.48,160.35c.98,0,1.8.23,2.67.88.08.12.09.24-.06.35-.2.13-.65.11-.77.34-.1.19-.08.39-.25.54-.15.13-.32.16-.51.16-.12,0-.23-.06-.34-.06-.27,0-.31.05-.46.34-.09.16-.29.25-.61.15-.28-.09-.6-.08-.89-.06-.21.01-.36-.04-.5-.11-.01-.19-.02-.39-.03-.61-.04-1.38.92-1.91,1.76-1.91Z"/>
          <path class="cls-26" d="M116.91,161.28s-.18.75.34,1.21c.79.7,1.28.58,1.28.58l-1.75.11s-.23-.81.13-1.9Z"/>
          <path class="cls-1" d="M119.38,160.91s1.16.38,1.81,1.34c.49.72.14,1.18.14,1.18,0,0-.36-.81-.87-1.42s-1.07-1.1-1.07-1.1Z"/>
          <path class="cls-1" d="M120.21,163.94s-.62-1.31-1.06-1.94c-.45-.62-.82-.89-.82-.89,0,0,.75,1.23,1.13,2.07.38.84.4.94.4.94l.36-.19Z"/>
          <path class="cls-1" d="M118.45,164s-.51-1.1-.7-1.75c-.2-.65-.37-.98-.37-.98,0,0-.08.68.31,1.73.39,1.06.41,1.11.41,1.11l.35-.11Z"/>
        </g>
      </g>
      <g>
        <path class="cls-13" d="M58.18,47.4c-9.32,1.42-16.57,7.51-23.08,13.93-3.83,3.78-7.6,7.69-12,10.82-2.14,1.52-4.42,2.93-6.9,3.82-1.62.58-5.45,1.69-7.01.14-2.09-2.08-2.09-4.79-1.56-6.33,1.12-3.28,4.68-3.59,5.34-.83.44,1.86-1.18,3.43-3.02,4.14-.45.17-.27.84.2.72,2.29-.57,4.85-2.17,4.45-4.94-.25-1.72-1.71-3.26-3.52-3.14-5.51.35-6.54,9.13-1.8,11.36,7.01,3.29,15.95-5.14,20.56-9.45,8.55-7.98,16.21-17.87,28.43-19.91.22-.04.12-.36-.09-.33Z"/>
        <path class="cls-13" d="M47.18,60.04c-7.72,3.7-12.06,11.92-18.66,17.15-8.68,6.89-17.85,13.8-28.37,17.58-.26.09-.16.51.11.42,9.7-3.17,17.83-9.12,25.84-15.27,3.63-2.78,6.95-5.65,9.94-9.12,3.42-3.98,6.64-7.89,11.3-10.49.18-.1.02-.37-.16-.28Z"/>
        <path class="cls-13" d="M90.7,65.8c-7.71,3.7-12.06,11.92-18.66,17.15-8.68,6.89-17.85,13.8-28.37,17.58-.26.09-.16.51.11.42,9.7-3.17,17.83-9.12,25.84-15.27,3.63-2.78,6.95-5.65,9.94-9.12,3.42-3.98,6.64-7.89,11.3-10.49.18-.1.02-.37-.16-.28Z"/>
        <path class="cls-13" d="M97.08,67.53c-14.38,2.05-17.17,18.13-29.05,24.04-.09.05-.03.2.07.17,4.81-1.82,8.22-5.23,11.29-9.28,2.33-3.07,4.34-6.38,7.29-8.91,3.1-2.65,6.72-4.18,10.54-5.48.35-.12.21-.59-.15-.54Z"/>
      </g>
    </g>
  </g>
</svg>