<?xml version="1.0" encoding="UTF-8"?>
<svg id="Layer_2" data-name="Layer 2" xmlns="http://www.w3.org/2000/svg" viewBox="0 0 163.89 167.4">
  <defs>
    <style>
      .cls-1 {
        fill: #603808;
      }

      .cls-1, .cls-2, .cls-3, .cls-4, .cls-5, .cls-6, .cls-7, .cls-8, .cls-9 {
        stroke-width: 0px;
      }

      .cls-2 {
        fill: #bc8a5f;
      }

      .cls-3 {
        fill: none;
      }

      .cls-4 {
        fill: #6f4518;
      }

      .cls-4, .cls-5, .cls-6, .cls-7, .cls-9 {
        fill-rule: evenodd;
      }

      .cls-5 {
        fill: #d4a276;
      }

      .cls-6 {
        fill: #e7bc91;
      }

      .cls-7 {
        fill: #a47148;
      }

      .cls-8, .cls-9 {
        fill: #f3d5b5;
      }
    </style>
  </defs>
  <g id="Layer_1-2" data-name="Layer 1">
    <g>
      <path class="cls-1" d="M96.66,25.32c-5.13-1.3-10.1-2.52-14.92-3.68,5.51,7.89,11.35,15.47,17.06,22.4,6.1-.34,10.15-.79,11.26-1.15,6.76-2.19-9.61-11.84-13.39-17.57Z"/>
      <path class="cls-9" d="M99.27,25.1c-16.29-4.14-30.96-7.42-44.32-10.61,10.93,8.03,21.44,17.7,26.46,29.82,16.86.03,29.19-.97,31.26-1.64,6.76-2.19-9.61-11.84-13.39-17.57Z"/>
      <path class="cls-8" d="M98.8,44.04c-5.37-6.53-10.86-13.63-16.08-21.02-1.36,6.51-4.44,16.7-10.87,21.43,10.74.2,20.13-.03,26.95-.41Z"/>
      <path class="cls-6" d="M82.72,23.02c.54-2.6.82-4.62.92-5.46.11-.62.22-1.26.31-1.81.9-5.36-1.24-10.35-4.47-10.89-1.73-.29-3.5.7-4.91,2.51-.61-3.1-2.27-5.44-4.43-5.8-2.09-.35-4.22,1.16-5.72,3.71-.69-2.81-2.28-4.88-4.3-5.22-2.66-.45-5.39,2.11-6.78,6.01-.75-1.94-2.02-3.3-3.57-3.56-2.98-.5-6.07,3.09-6.9,8.03-.1.62-.15,1.22-.18,1.81,11.85,2.98,24.79,5.88,39.05,9.3.32.46.65.92.98,1.38Z"/>
      <path class="cls-6" d="M68.91,33.61c2.43-6.68-4.08-10.64-10.93-11.19-5.68,4.4-11.21,8.82-16.64,13.22.74,1.78,1.84,3.5,3.4,5.06,11.51,11.55,15.78,6.18,21.32,6.18,2.18-.32,4.1-1.19,5.79-2.43-3.11-.06-6.33-.15-9.64-.29,3.89-5.54,6.28-9.39,6.7-10.55Z"/>
      <path class="cls-6" d="M82.72,23.02c-.33-.46-.65-.92-.98-1.38-14.26-3.42-27.2-6.32-39.05-9.3-.05,1.18.03,2.31.25,3.32-1.93,4.88-4.51,12.99-1.61,19.98,5.43-4.4,10.96-8.82,16.64-13.22,6.85.55,13.37,4.51,10.93,11.19-.42,1.16-2.81,5.01-6.7,10.55,3.31.14,6.53.23,9.64.29,6.42-4.73,9.5-14.92,10.87-21.43Z"/>
      <path class="cls-3" d="M98.8,44.04c-8.79.49-21.86.74-36.59.13-5.35,7.61-13.54,18.41-23.41,29.88,2.55,8.68,5.62,20.58,8.29,33.9,8.76,3.4,21.18,8.74,34.59,15.52,8.06-4.82,20.09-11.44,33.92-17.95,1.16-9.03,3.23-21.69,6.35-35.62-6.26-6.37-14.54-15.37-23.16-25.86Z"/>
      <path class="cls-6" d="M57.98,22.42c-8.39,6.49-16.47,13.05-24.33,19.48,9.74,1.18,19.46,1.89,28.56,2.26,3.89-5.54,6.28-9.39,6.7-10.55,2.43-6.68-4.08-10.64-10.93-11.19Z"/>
      <path class="cls-5" d="M19.92,60.91c-.05,11.3.1,22.4.26,33.22,6.62-6.58,12.9-13.44,18.62-20.08-2.33-7.92-4.22-13.17-4.95-14.35-3.76-6.03-9.27-3.84-13.92,1.22Z"/>
      <path class="cls-2" d="M26.19,115.68c8.5,6.7,16.99,13.13,25.3,19.39-1.13-9.31-2.68-18.51-4.4-27.13-6.62-2.57-11.16-4.04-12.43-4.17-7.07-.75-9.59,5.13-8.47,11.91Z"/>
      <path class="cls-7" d="M76.27,144.41c10.05-2.46,19.88-5.07,29.47-7.65-8-4.86-16.19-9.33-24.05-13.3-5.84,3.49-9.61,6.05-10.47,6.94-4.94,5.11-.97,10.71,5.06,14Z"/>
      <path class="cls-4" d="M114.5,119.07c.98,7.04,7.52,8.34,13.82,5.61,4.58-10.15,8.87-20.25,13.03-30.11-8.92,3.36-17.64,7.13-25.75,10.95-.94,7.32-1.28,12.26-1.1,13.55Z"/>
      <path class="cls-1" d="M132.62,79.78c6.15,3.56,13.41.11,15.15-6.53-5.86-11.14-11.99-22-18-32.56-3.11,9.83-5.7,19.81-7.81,29.21,5.54,5.64,9.49,9.21,10.66,9.89Z"/>
      <path class="cls-2" d="M54.94,134.56c.42-.38.9-.82,1.37-1.23,1.71-1.69,10.34-9.92,19.48-12.78-11.12-5.4-21.24-9.71-28.7-12.6,1.72,8.62,3.27,17.82,4.4,27.13.59.44,1.16.88,1.75,1.32.5-.64,1.06-1.25,1.7-1.83Z"/>
      <path class="cls-7" d="M51.68,145.87c1.18,1.31,3.18,1.62,5.41,1.08-1.45,2.81-1.6,5.68-.13,7.3,1.42,1.57,4.03,1.71,6.78.64-1.2,2.63-1.24,5.24.14,6.76,1.81,2,5.54,1.69,9.05-.5-.61,1.99-.47,3.84.58,5.01,2.02,2.24,6.68,1.34,10.39-2.01.86-.77,1.58-1.62,2.17-2.47-10.22-8.29-21.34-16.63-32.83-25.29-2.68,3.4-3.41,7.44-1.55,9.49Z"/>
      <path class="cls-7" d="M71.21,130.41c-4.94,5.11-.97,10.71,5.06,14,8.41-2.06,16.65-4.22,24.74-6.38-2.06-14.81-8.49-13.44-12.71-16.78-3.84-2.22-8.23-2.05-12.5-.71,1.94.94,3.91,1.91,5.9,2.92-5.84,3.49-9.61,6.05-10.47,6.94Z"/>
      <path class="cls-7" d="M101.17,139.33c-.05-.45-.11-.88-.17-1.3-8.09,2.16-16.33,4.32-24.74,6.38-6.03-3.29-10-8.89-5.06-14,.86-.89,4.63-3.45,10.47-6.94-1.99-1.01-3.96-1.98-5.9-2.92-9.14,2.87-17.77,11.09-19.48,12.78-.47.42-.95.85-1.37,1.23-.64.57-1.2,1.19-1.7,1.83,11.49,8.66,22.61,17,32.83,25.29.37-.53.7-1.06.96-1.6,5.7-3.3,15.38-9.94,14.14-20.75Z"/>
      <path class="cls-4" d="M132.78,94.37c-1.62-1.24-8.54-6.79-13.08-13.74-1.89,9.63-3.24,18.24-4.1,24.88,6.41-3.01,13.2-6,20.17-8.78-.54-.35-1.07-.74-1.58-1.17-.43-.37-.93-.79-1.4-1.19Z"/>
      <path class="cls-1" d="M132.62,79.78c6.15,3.56,13.41.11,15.15-6.53-4.37-8.31-8.89-16.46-13.4-24.45-.53.08-1.06.18-1.6.32-15.81,4-13.38,10.4-16.21,15.17-2.24,5.44-.19,11.27,3.14,16.35.68-3.46,1.43-7.06,2.26-10.74,5.54,5.64,9.49,9.21,10.66,9.89Z"/>
      <path class="cls-1" d="M163.04,72.96c1.95-2.3.44-6.8-3.38-10.03-1.19-1.01-2.46-1.76-3.71-2.27-4.86,10.78-9.64,22.17-14.6,33.91-1.87.7-3.73,1.43-5.58,2.17,3.84,2.47,8.2,2.74,10.06.55,1.14-1.34,1.19-3.37.35-5.5,2.98,1.06,5.84.83,7.25-.84,1.37-1.62,1.16-4.22-.26-6.81,2.77.84,5.36.53,6.68-1.03,1.74-2.06.94-5.71-1.7-8.9,2.05.34,3.87-.05,4.88-1.25Z"/>
      <path class="cls-1" d="M155.95,60.66c-.25-.1-.5-.21-.74-.29-3.83-4.95-11.11-13.03-20.84-11.57,4.51,7.99,9.03,16.14,13.4,24.45-1.73,6.65-9,10.09-15.15,6.53-1.18-.68-5.12-4.25-10.66-9.89-.83,3.68-1.58,7.28-2.26,10.74,4.55,6.95,11.47,12.49,13.08,13.74.47.41.97.83,1.4,1.19.51.43,1.04.82,1.58,1.17,1.85-.74,3.71-1.46,5.58-2.17,4.96-11.74,9.74-23.13,14.6-33.91Z"/>
      <path class="cls-1" d="M129.44,41.78c-1.3,1.3-3.06,2.43-5.11,3.17-.53.19-1.15.41-1.73.62-1.91.79-10.36,4.08-18.75,4.49,6.76,7.91,13.09,14.73,18.12,19.84,2.03-9.06,4.52-18.64,7.48-28.12Z"/>
      <path class="cls-8" d="M129.44,41.78c1.94-1.93,2.86-4.21,2.2-6.06-.59-1.66-2.33-2.71-4.59-3.05,2.41-2.05,3.64-4.64,2.9-6.7-.72-1.99-3.07-3.12-6.03-3.17,2.11-1.98,3.14-4.38,2.44-6.3-.91-2.54-4.48-3.67-8.56-2.98,1.32-1.6,1.89-3.38,1.36-4.85-.9-2.5-4.61-3.53-8.7-2.58,5.93,11.17,12.53,22.7,19.3,34.6-.12.36-.22.73-.33,1.09Z"/>
      <path class="cls-8" d="M110.05,42.89c6.76-2.19-9.61-11.84-13.39-17.57-4.45-1.13-8.77-2.19-12.98-3.21-.1.29-.21.56-.3.86-4.44,15.69,2.33,16.79,5.04,21.62,3.53,4.58,9.46,5.76,15.42,5.47-1.66-1.94-3.35-3.95-5.05-6.02,6.1-.34,10.15-.79,11.26-1.15Z"/>
      <path class="cls-8" d="M124.33,44.95c2.06-.74,3.81-1.88,5.11-3.17.11-.36.22-.73.33-1.09-6.77-11.9-13.38-23.43-19.3-34.6-.56.13-1.12.29-1.68.49-1.76.63-3.28,1.54-4.44,2.58-6.34.86-17.33,3.23-20.67,12.95,4.21,1.02,8.53,2.08,12.98,3.21,3.78,5.74,20.15,15.38,13.39,17.57-1.11.36-5.16.81-11.26,1.15,1.7,2.07,3.39,4.07,5.05,6.02,8.39-.4,16.84-3.7,18.75-4.49.59-.21,1.2-.43,1.73-.62Z"/>
      <path class="cls-6" d="M37.69,45.27c1.24,1.91,6.93,11.12,8.3,20.19,6.66-8.17,12.23-15.62,16.22-21.29-8.44-.35-17.43-.99-26.47-2.02.37.48.71.99,1.03,1.53.29.49.61,1.05.92,1.59Z"/>
      <path class="cls-5" d="M35.74,42.14c-2.8-3.68-6.86-5.44-9.37-3.98-1.52.88-2.24,2.78-2.17,5.07-2.45-2-5.22-2.73-7.11-1.64-1.83,1.06-2.51,3.59-2.03,6.5-2.33-1.72-4.87-2.29-6.64-1.26-2.33,1.36-2.8,5.07-1.38,8.96-1.82-1.01-3.67-1.25-5.02-.46-2.61,1.52-2.69,6.26-.17,10.58.23.4.47.77.73,1.13,10.03-7.81,20.34-16.35,31.08-25.14.7.08,1.39.16,2.09.24Z"/>
      <path class="cls-5" d="M38.8,74.04c-2.33-7.92-4.22-13.17-4.95-14.35-3.76-6.03-9.27-3.84-13.92,1.22-.04,9.01.05,17.88.17,26.59.79.2,1.61.35,2.47.43,16.24,1.52,16.09-5.33,20.35-8.88,3.3-3.67,3.84-8.61,3.08-13.59-2.28,2.79-4.68,5.67-7.19,8.58Z"/>
      <path class="cls-5" d="M19.92,60.91c4.65-5.06,10.16-7.25,13.92-1.22.74,1.18,2.63,6.43,4.95,14.35,2.51-2.92,4.92-5.79,7.19-8.58-1.38-9.07-7.07-18.28-8.3-20.19-.31-.54-.64-1.1-.92-1.59-.32-.54-.66-1.05-1.03-1.53-.7-.08-1.39-.16-2.09-.24-10.74,8.79-21.05,17.33-31.08,25.14.79,1.11,1.68,2.05,2.61,2.77,1.89,5.76,5.86,15.39,14.91,17.69-.11-8.71-.21-17.58-.17-26.59Z"/>
      <path class="cls-5" d="M28.67,92.43c.55.15,1.17.32,1.78.48,1.7.37,8.24,1.93,14.52,5.07-2.09-9.27-4.27-17.49-6.17-23.94-5.18,6.02-10.85,12.21-16.79,18.22,1.95-.47,4.29-.46,6.66.17Z"/>
      <path class="cls-2" d="M34.66,103.77c-7.07-.75-9.59,5.13-8.47,11.91,7.93,6.25,15.85,12.27,23.63,18.13,12.55-10.35,7.62-15.1,8.14-20.61-.36-7.06-6.54-11.97-13-15.21.72,3.21,1.44,6.53,2.12,9.96-6.62-2.57-11.16-4.04-12.43-4.17Z"/>
      <path class="cls-2" d="M20.18,94.12c.62-.62,1.22-1.25,1.84-1.87-2.37.57-4.14,1.85-4.6,3.59-.46,1.7.37,3.55,2.03,5.13-3.15.31-5.63,1.74-6.2,3.85-.55,2.05.75,4.31,3.14,6.04-2.86.42-5.07,1.81-5.6,3.79-.7,2.6,1.59,5.57,5.34,7.33-2,.57-3.48,1.7-3.88,3.21-.78,2.92,2.5,6.34,7.34,7.63.25.07.49.11.74.16.23-12.39.06-25.39-.13-38.86Z"/>
      <path class="cls-2" d="M24.69,133.24c5.87,2.99,16.71,7.51,25.1.6.01,0,.02-.02.03-.03-7.78-5.87-15.7-11.88-23.63-18.13-1.12-6.78,1.41-12.65,8.47-11.91,1.27.13,5.8,1.6,12.43,4.17-.69-3.42-1.4-6.75-2.12-9.96-6.28-3.15-12.82-4.7-14.52-5.07-.6-.16-1.23-.33-1.78-.48-2.37-.63-4.71-.64-6.66-.17-.61.62-1.22,1.25-1.84,1.87.19,13.47.36,26.47.13,38.86,1.55.33,3.05.42,4.38.25Z"/>
      <path class="cls-7" d="M102.64,128.02c-.05-1.89-.13-9.64,1.85-17.07-9.12,4.63-16.99,9.03-22.81,12.51,7.18,3.63,14.63,7.69,21.96,12.06-.68-1.63-1.08-3.59-1.04-5.66,0-.57.02-1.22.04-1.84Z"/>
      <path class="cls-4" d="M114.5,119.07c.98,7.04,7.52,8.34,13.82,5.61,3.68-8.17,7.18-16.3,10.57-24.3-.38-.34-.78-.68-1.21-1-13.1-9.72-16.52-3.78-22-2.96-6.2,1.88-9.48,8.08-11.2,14.53,3.54-1.79,7.25-3.62,11.12-5.44-.94,7.32-1.28,12.26-1.1,13.55Z"/>
      <path class="cls-4" d="M103.64,135.53c1.1,2.63,2.96,4.41,4.99,4.44,1.76.03,3.36-1.21,4.48-3.21,1.06,2.98,3.05,5.05,5.24,5.09,2.12.04,4-1.77,5.1-4.51,1.1,2.68,2.98,4.49,5.03,4.52,2.7.05,5.02-2.88,5.82-6.95,1.03,1.8,2.49,2.97,4.05,2.99,3.02.05,5.54-3.96,5.63-8.96.01-.75-.04-1.47-.13-2.17-12.21,2.96-24.93,6.44-38.13,9.99-.69-.42-1.39-.82-2.09-1.24Z"/>
      <path class="cls-4" d="M138.9,100.38c-3.4,8-6.89,16.13-10.57,24.3-6.31,2.73-12.84,1.43-13.82-5.61-.18-1.29.16-6.23,1.1-13.55-3.86,1.82-7.58,3.64-11.12,5.44-1.98,7.42-1.9,15.18-1.85,17.07-.02.62-.03,1.27-.04,1.84-.04,2.08.36,4.03,1.04,5.66.7.42,1.4.82,2.09,1.24,13.2-3.55,25.92-7.03,38.13-9.99-.14-1.04-.37-2.02-.7-2.89,1.41-6.1,3.07-16.89-4.27-23.51Z"/>
    </g>
  </g>
</svg>