<svg xmlns="http://www.w3.org/2000/svg" xmlns:xlink="http://www.w3.org/1999/xlink" version="1.1" width="256" height="256" viewBox="0 0 256 256" xml:space="preserve">

<defs>
</defs>
<g style="stroke: none; stroke-width: 0; stroke-dasharray: none; stroke-linecap: butt; stroke-linejoin: miter; stroke-miterlimit: 10; fill: none; fill-rule: nonzero; opacity: 1;" transform="translate(1.4065934065934016 1.4065934065934016) scale(2.81 2.81)" >
	<path d="M 74.453 48.627 c -5.538 0 -11.075 -2.107 -15.291 -6.324 c -6.11 -6.11 -7.768 -14.99 -5.024 -22.629 H 25.502 H 6.058 C 2.712 19.675 0 22.387 0 25.733 v 16.322 L 23.834 62.37 c 2.278 1.942 5.573 2.119 8.047 0.434 l 14.382 -9.801 c 2.33 -1.588 5.408 -1.531 7.677 0.141 l 27.15 20.001 V 47.865 v -0.294 C 78.934 48.263 76.696 48.627 74.453 48.627 z" style="stroke: none; stroke-width: 1; stroke-dasharray: none; stroke-linecap: butt; stroke-linejoin: miter; stroke-miterlimit: 10; fill: rgb(193,229,244); fill-rule: nonzero; opacity: 1;" transform=" matrix(1 0 0 1 0 0) " stroke-linecap="round" />
	<circle cx="27.942" cy="37.942" r="6.072" style="stroke: none; stroke-width: 1; stroke-dasharray: none; stroke-linecap: butt; stroke-linejoin: miter; stroke-miterlimit: 10; fill: rgb(255,240,169); fill-rule: nonzero; opacity: 1;" transform="  matrix(1 0 0 1 0 0) "/>
	<path d="M 85.446 16.02 c -6.061 -6.061 -15.922 -6.061 -21.983 0 s -6.061 15.923 0 21.984 c 3.031 3.031 7.011 4.546 10.992 4.546 c 3.98 0 7.962 -1.515 10.992 -4.545 C 88.383 35.068 90 31.164 90 27.012 C 90 22.86 88.383 18.956 85.446 16.02 z M 81.891 19.575 c 1.987 1.986 3.081 4.627 3.081 7.436 c 0 1.95 -0.538 3.813 -1.525 5.438 L 69.019 18.021 C 73.062 15.579 78.403 16.087 81.891 19.575 z M 67.018 34.449 c -3.486 -3.487 -3.997 -8.829 -1.554 -12.873 L 79.89 36.003 C 75.847 38.446 70.505 37.935 67.018 34.449 z" style="stroke: none; stroke-width: 1; stroke-dasharray: none; stroke-linecap: butt; stroke-linejoin: miter; stroke-miterlimit: 10; fill: rgb(226,147,147); fill-rule: nonzero; opacity: 1;" transform=" matrix(1 0 0 1 0 0) " stroke-linecap="round" />
	<path d="M 0 40.043 v 32.425 c 0 3.346 2.712 6.058 6.058 6.058 h 68.974 c 3.346 0 6.058 -2.712 6.058 -6.058 v -1.335 L 53.94 51.132 c -2.27 -1.672 -5.348 -1.729 -7.677 -0.141 L 31.88 60.792 c -2.473 1.686 -5.769 1.508 -8.047 -0.434 L 0 40.043 z" style="stroke: none; stroke-width: 1; stroke-dasharray: none; stroke-linecap: butt; stroke-linejoin: miter; stroke-miterlimit: 10; fill: rgb(150,234,156); fill-rule: nonzero; opacity: 1;" transform=" matrix(1 0 0 1 0 0) " stroke-linecap="round" />
</g>
</svg>