<?xml version="1.0" encoding="UTF-8"?>
<svg id="Layer_2" data-name="Layer 2" xmlns="http://www.w3.org/2000/svg" viewBox="0 0 1133.48 913.74">
  <defs>
    <style>
      .cls-1 {
        fill: #1c3154;
      }

      .cls-1, .cls-2, .cls-3, .cls-4, .cls-5, .cls-6, .cls-7, .cls-8, .cls-9, .cls-10, .cls-11, .cls-12, .cls-13, .cls-14, .cls-15, .cls-16, .cls-17, .cls-18, .cls-19, .cls-20, .cls-21, .cls-22, .cls-23, .cls-24, .cls-25, .cls-26, .cls-27, .cls-28, .cls-29, .cls-30, .cls-31, .cls-32, .cls-33 {
        stroke-width: 0px;
      }

      .cls-2, .cls-34 {
        fill: #2a4e96;
      }

      .cls-3 {
        fill: #2c3a64;
      }

      .cls-4 {
        fill: #607cf4;
      }

      .cls-5 {
        fill: #e9f3fe;
      }

      .cls-35 {
        opacity: .5;
      }

      .cls-6 {
        fill: #f77d48;
      }

      .cls-7 {
        fill: #1f447f;
      }

      .cls-34 {
        font-family: Montserrat-Regular, Montserrat;
        font-size: 56px;
        letter-spacing: .04em;
      }

      .cls-8 {
        fill: #15447c;
      }

      .cls-9 {
        fill: #1f4d84;
      }

      .cls-10 {
        fill: #233862;
      }

      .cls-11 {
        fill: #b3cff9;
      }

      .cls-36 {
        opacity: .8;
      }

      .cls-12 {
        fill: #aec3ff;
      }

      .cls-13, .cls-20 {
        fill: #5888dd;
      }

      .cls-14 {
        fill: #f99746;
      }

      .cls-15 {
        fill: #b5453c;
      }

      .cls-16 {
        fill: #d7e5ff;
      }

      .cls-17 {
        fill: #163560;
      }

      .cls-18 {
        fill: #ed975d;
      }

      .cls-19 {
        fill: #e8945b;
      }

      .cls-20 {
        opacity: .4;
      }

      .cls-21 {
        fill: #113c68;
      }

      .cls-22 {
        fill: #7599ea;
      }

      .cls-23 {
        fill: #a8d29f;
      }

      .cls-24 {
        fill: #ebf3fa;
      }

      .cls-25 {
        fill: #e6efff;
      }

      .cls-26 {
        fill: #fca56b;
      }

      .cls-27 {
        fill: #fff;
      }

      .cls-28 {
        fill: #ed985f;
      }

      .cls-29 {
        fill: #6385db;
      }

      .cls-30 {
        fill: #739af0;
      }

      .cls-31 {
        fill: #ed7d2b;
      }

      .cls-32 {
        fill: #ffb27d;
      }

      .cls-33 {
        fill: #90aff4;
      }
    </style>
  </defs>
  <g id="_лой_1" data-name="‘лой_1">
    <g>
      <path class="cls-24" d="M1084.57,814.01c-71.5,0-1038.14-2.09-1038.14-2.2-.4-.94-122.71-150.85,31.3-307.58,76.31-77.66-70.08-178.27,0-264.66,120.04-147.98,238.82-64.64,337.77-106.26,17.48-7.35,35.03-19.17,52.59-37.32,9.89-10.2,20.72-19.13,32.32-26.83,1.78-1.19,3.57-2.34,5.39-3.47,6.95-4.31,14.15-8.2,21.56-11.7,4.98-2.35,10.06-4.52,15.23-6.52h0c8.2-3.17,16.63-5.91,25.24-8.22,12.22-3.29,24.81-5.73,37.64-7.38,5.6-.73,11.24-1.3,16.93-1.73,110.56-8.31,234.99,38.44,299.2,106.77,12.93,13.76,71.71,84.96,25.37,182.82-29.26,61.79,93.31,120.8,136.86,191.35,110.73,179.38,1.73,300.59.72,302.92Z"/>
      <g class="cls-36">
        <path class="cls-16" d="M834.4,396.94c-2.95,8.12-6.57,15.8-10.78,23.02-10.11,17.3-23.59,31.85-39.27,43.1-36.43,26.14-84.72,34.43-130.05,17.96-53.92-19.6-88.55-68.75-92.24-122.53-.49-7.09-.44-14.25.18-21.44,1.02-12.07,3.65-24.21,7.98-36.13,3.51-9.65,7.96-18.68,13.22-27.02.06-.1.12-.19.18-.29,14.59-23.04,35.31-40.83,59.15-51.98,6.76-3.17,13.77-5.79,20.97-7.85,3.43-.98,6.91-1.84,10.42-2.55,24.59-5.06,50.84-3.59,76.18,5.62,3.36,1.22,6.64,2.56,9.85,4,4.53,2.03,8.89,4.28,13.1,6.74,17.7,10.32,32.52,24.17,43.87,40.3h0c7.08,10.04,12.81,20.96,17.05,32.46,2.23,6.04,4.05,12.24,5.43,18.55.86,3.93,1.56,7.9,2.09,11.91,1.26,9.63,1.53,19.46.73,29.34-.99,12.29-3.63,24.66-8.05,36.81Z"/>
        <g>
          <path class="cls-12" d="M678.93,273.49c-8.31,6.43-6.1,23.64-20.48,13.94-14.38-9.7-23.4-14.97-27.47-6.51-4.08,8.47,8.66,13.1,5.31,22.33-3.35,9.22-10.18,10.2-17.37,2.62-7.2-7.58-7.4-14.87-19.05-14.62-11.65.24-16.62-4.55-16.05-13.3.1-1.54-.06-2.87-.38-4.06.06-.1.12-.19.18-.29,14.59-23.04,35.31-40.83,59.15-51.98,6.76-3.17,13.77-5.79,20.97-7.85,3.43-.98,6.91-1.84,10.42-2.55,4.06,1.65,8.42,5,10.73,11.72,5.07,14.78,13.3,11.3,6.31,23.68-6.99,12.38-4.11,15.42,3.51,17.69,7.63,2.27,16.42,5.47,15.22,11.5-1.2,6.03-22.68-8.75-30.99-2.31Z"/>
          <path class="cls-12" d="M834.4,396.94c-2.95,8.12-6.57,15.8-10.78,23.02-10.11,17.3-23.59,31.85-39.27,43.1-3.91-.12-7.46-1.45-10.46-4.12-14.08-12.58,4.58-25.94,14.4-32.44,9.82-6.5-8.42-8.65-17.61-21.32-9.2-12.67,12.34-29.83-1.5-30.76-13.84-.93-30.67-1.82-33.48-16.65-2.82-14.82,11.74-11.77,9.19-24.26-2.55-12.49,9.49-14.83,22.37-11.26,12.88,3.56,14.46-5.93,30.43-1.62,15.96,4.31,8.45,23.96,26.06,28.87,17.61,4.91,15.4,8.58,15.4,8.58,1.24.42,2.35,1.11,3.3,2.05-.99,12.29-3.63,24.66-8.05,36.81Z"/>
          <path class="cls-12" d="M841.72,330.79c-16.76,1.75-15.63-19.18-29.87-17.94-14.35,1.25-8.21-8.95-15.31-19.49-7.11-10.54-31.07-4.83-26.2-15.49,4.87-10.66,18.25-2.32,24.52-9.98,6.27-7.66,19.53-.36,19.53-.36.91-.01,1.84.1,2.77.35,0,0,0,0,0,0,7.08,10.04,12.81,20.95,17.05,32.45,2.23,6.04,4.05,12.24,5.43,18.55.86,3.93,1.56,7.9,2.09,11.91Z"/>
          <path class="cls-12" d="M735.47,249.28s11.38-8.06.68-15.55c-10.7-7.49-12-3.25-20.86-7.58-8.87-4.34-15.09,1.49-11,11.8,4.08,10.31,4.25,27.31,13.4,21.61,9.16-5.7,10.15-12.18,17.78-10.27Z"/>
        </g>
      </g>
      <path class="cls-23" d="M78.36,812.21h49.02c2.63-2.23-1.82-7.29-6.46-7.63-2.02-.15-4.57.27-7.48.89-.67-8.96-4.53-49.24-19.04-47.62-16.32,1.81,0,17.74,4.61,27.17,3.42,6.98,7.02,17,8.67,21.72-1.33.29-2.7.57-4.1.83-2.16-6.64-10.21-28.99-20.45-27.69-12.02,1.52-7.19,10.48,1.33,15.8,6.25,3.91,13.93,9.47,17.57,12.15-3.09.5-6.32.84-9.59.77-8.4-.2-12.5,2.27-14.08,3.61Z"/>
      <path class="cls-23" d="M858.48,812.21h-45.53c-2.44-2.07,1.69-6.77,6-7.09,1.87-.14,4.24.25,6.95.82.63-8.32,4.2-45.73,17.69-44.23,15.16,1.68,0,16.48-4.29,25.23-3.18,6.49-6.52,15.79-8.06,20.18,1.23.27,2.51.53,3.81.77,2.01-6.17,9.49-26.93,19-25.72,11.16,1.42,6.68,9.74-1.24,14.68-5.81,3.63-12.93,8.8-16.32,11.29,2.87.47,5.87.78,8.9.71,7.8-.19,11.61,2.11,13.08,3.35Z"/>
      <g>
        <path class="cls-32" d="M891,513.75s1.08-10.78-4.55-10.41c-5.64.37-7.13,2.95-6.5,5.03.63,2.07,6.11,8.92,6.11,8.92l4.94-3.54Z"/>
        <path class="cls-30" d="M978.82,535.35s-6.24,7.33-19.66,15.79c-1.27.8-2.6,1.61-4,2.43-5.21,3.04-11.32,6.15-18.38,9.04-.78.32-1.69.67-2.71,1.04-8.04,2.9-22.84,7.02-32,7.39-.8.03-1.55.03-2.26,0-13.95-.56-15.66-54.72-15.66-54.72,0,0,1.55-5.42,8.72-4.05,0,0,10.89,30.59,14.79,33.08,3.47,2.22,23.39-27.98,40.53-30.09,11.54-1.42,30.63,20.09,30.63,20.09Z"/>
        <path class="cls-1" d="M941.34,799.47s1.03,11.92-1.49,13.16l-32.25-.07s0-3.72,5.18-4.55c5.18-.83,14.28-3.86,15.82-10.62,1.54-6.76,12.74,2.07,12.74,2.07Z"/>
        <path class="cls-2" d="M917.66,655.17c.16,7.8.53,15.84,1.27,23.07,3.48,34.29,4.71,75.73,5.21,83.72.87,13.87,3.61,36.02,3.61,36.02,0,0,5.43,5.16,16.03,2.7,0,0,8.78-31.91,10.74-65.51.03-.55.06-1.11.09-1.66.23-4.44.47-9.52.71-15,1.61-36.69,3.37-91.18,3.37-91.18l-40.47-9.5s-.93,17.91-.53,37.35Z"/>
        <path class="cls-10" d="M917.66,655.17c10.26,17.7,29.81,50.3,37.64,63.34,1.61-36.69,3.37-91.18,3.37-91.18l-40.47-9.5s-.93,17.91-.53,37.35Z"/>
        <path class="cls-29" d="M934.07,563.65c-8.04,2.9-22.84,7.02-32,7.39,1.4-.26,11.61-2.28,15.39-6.84,4.05-4.9,10.88-18.21,16.31-12.78,2.56,2.56,1.81,7.61.3,12.23Z"/>
        <path class="cls-32" d="M1002.08,649.4s2.51,9.85,2.1,12.04c-.41,2.19-2.86,9.6-4.39,11.44-1.53,1.84-1.59-8-2.61-9.54-1.02-1.54-.47,3.67-1.28,4.1-.82.43-2.17-3.95-2.78-5.5-.61-1.55,2.17-6.96,2.43-10.83.26-3.87,6.53-1.71,6.53-1.71Z"/>
        <path class="cls-1" d="M1021.68,785.92s5.74,5.24,4.62,8.96c-1.12,3.72-6.3,6.2-7,10.75-.7,4.55-3.5,7.03-6.02,7.03h-12.02s-1.86-3.2,2.62-4.17c4.48-.96,6.17-6.31,5.89-11.27-.28-4.96.42-11.58.42-11.58l9.52-2.21,1.96,2.48Z"/>
        <path class="cls-2" d="M924.57,628.15s37.89,81.07,58.05,116.64c20.16,35.57,26.46,45.5,26.46,45.5,0,0,11.55-4.55,12.6-7.65,0,0-7.71-68.67-21.21-85.41-7.63-9.46-16.59-37.84-17.01-47.77-.42-9.93-9.27-33.62-9.27-33.62l-49.62,12.32Z"/>
        <path class="cls-30" d="M917.51,623.94s12.34,13.28,33.3,17.29c9.2,1.76,27.88,3.46,32.51-3.09,1.09-1.54,1.1-3.82.86-7.37-.62-9.24-2.95-27.1,7.55-63.01.98-3.34,1.64-6.54,2.02-9.6,2.29-18.37,2.04-32.23-13.89-39.64-23.88-11.1-33.68-1.97-33.68-1.97,0,0-12.7,5.93-18.5,23.23-11.6,34.59-10.16,84.15-10.16,84.15Z"/>
        <path class="cls-32" d="M965.51,515.48c-4.02,2.85-11.09,4.54-17.83,1.17-.52-.26-.45-3.83-.32-7.33.13-3.44.45-6.81.45-6.81l8.5-5.58,8.11-5.32c-.97,18.29,2.92,22.57,1.1,23.87Z"/>
        <path class="cls-28" d="M962.98,499.16s-5.51,8.27-15.63,10.15c.13-3.44.5-7.22.5-7.22l8.45-5.16,6.68,2.23Z"/>
        <path class="cls-32" d="M940.2,500.36s20.55,7.67,25.13-4.99c4.57-12.66,10.31-20.2-2.62-25.64-12.93-5.43-17.24-1.51-19.81,2.34-2.57,3.86-7.92,25.97-2.69,28.29Z"/>
        <path class="cls-3" d="M978.13,471.15c.24-.18.72-.27,1.72-.13,0,0-.69-.65-1.75-.89.07-1.42-.19-4-2.44-5.06,0,0,1.14.93,1.02,2.43-2.19-3.36-7.66-6.57-24.19-8.5-21.79-2.54-17.43,12.59-14.98,14.77,2.45,2.19,10.33-.92,15.42.51,5.09,1.43,4.6,9.1,6.15,10.48,1.55,1.37,1.22-.58,3.81-1.18s2.04,3.38.84,5.8c-1.19,2.42,1.41,6.44,1.41,6.44l4-2.9c4-2.9,10.08-17.33,9.21-20.83-.08-.31-.15-.62-.23-.94Z"/>
        <path class="cls-29" d="M984.17,630.77c-.62-9.24-2.95-27.1,7.55-63.01.98-3.34,1.64-6.54,2.02-9.6h0c-7.8-2.57-22,3.15-22,3.15,0,0-3.34,47.46,12.44,69.45Z"/>
        <path class="cls-30" d="M984.14,520.93s9.59,3.49,15.71,28.89c4.04,16.78,11.49,41.45,12.33,49.2.84,7.75-8.51,53.14-8.51,53.14,0,0-1.32.96-4.55.32-3.09-.62-4.53-2.71-4.53-2.71,0,0-2.24-30.25-1.66-44.53.24-5.93-27.47-43.46-42.42-48.29-5.87-1.9,33.63-36.01,33.63-36.01Z"/>
        <path class="cls-12" d="M849.95,488.05s27.73-.79,59.73,5.1l3.34-8.42,3.67-9.23s-32.12-13.83-51.43-33.09l-15.3,45.64Z"/>
        <path class="cls-14" d="M865.69,441.96l-15.92,47h0c-2.33-.69-3.6-3.19-2.79-5.48l14.01-39.49c.68-1.91,2.84-2.85,4.7-2.03h0Z"/>
        <path class="cls-14" d="M880.89,523.02h0c3.1.62,6.13-1.41,6.75-4.5l5.48-27.43c.62-3.1-1.41-6.13-4.5-6.75h0c-3.1-.62-6.13,1.41-6.75,4.5l-5.48,27.43c-.62,3.1,1.41,6.13,4.5,6.75Z"/>
        <path class="cls-30" d="M849.95,488.05s27.73-.79,59.73,5.1l3.34-8.42c-30.07-6.14-63.07,3.32-63.07,3.32Z"/>
        <path class="cls-14" d="M900.83,491.45l8.66,1.52c-.13,0,8.05,1.59,10.73-5.66.25-.5.4-.99.51-1.56,2.08-9.04-2.88-10.7-2.88-10.7l-11.15-4.35-3.54,12.54v.04s-2.34,8.17-2.34,8.17Z"/>
        <path class="cls-31" d="M900.83,491.45l8.66,1.52c-.13,0,8.05,1.59,10.73-5.66-4.9-3.57-17.06-4.07-17.06-4.07v.04s-2.34,8.17-2.34,8.17Z"/>
        <path class="cls-32" d="M881.63,496.46s4.24,1.69,3.46,3.56c-.78,1.87-6.17,4.43-7.02,2.96-.85-1.47.89-8.09,3.56-6.52Z"/>
        <path class="cls-32" d="M891.08,512.05s.8-4.34.85-6.33c.05-1.99.28-3.62-.19-3.68-.47-.06-.81.31-1,.95-.19.64-.93,4.61-.93,4.61l.37,3.83.89.61Z"/>
      </g>
      <g>
        <path class="cls-22" d="M471.84,509.22l-24.01,285.53s-2.52,17.31,10.36,17.34c21.17.05,105.36,0,105.36,0,0,0-15.93-3.6-15.74-11.71.23-9.56,28.07-293.87,28.07-293.87l-104.04,2.7Z"/>
        <path class="cls-33" d="M571.47,807.03c-4.16.01-85.67.15-106.29-.11-8.98-.11-10.56-7.99-10.63-13.09-.04-2.44.27-4.25.27-4.25l.62-7.42,1.59-18.92,1.41-16.71,1.81-21.47,1.52-18.13,17.06-202.89,104.04-2.7s-11.73,118.98-20.02,205.59c-.93,9.65-1.81,18.9-2.62,27.54-.26,2.76-.52,5.45-.76,8.08-.77,8.19-1.47,15.72-2.08,22.36-.32,3.5-.62,6.76-.89,9.74-1.06,11.68-1.68,19.14-1.69,20.56,0,.83.07,1.6.2,2.31,1.71,9.1,14.9,9.51,16.46,9.51Z"/>
        <polygon class="cls-12" points="219.19 353.85 277.68 588.81 285.69 620.99 312.93 730.42 819.08 730.42 718.66 353.85 219.19 353.85"/>
        <polygon class="cls-33" points="219.18 353.85 211.08 356.55 302.16 738.6 312.93 730.42 219.18 353.85"/>
        <polygon class="cls-22" points="302.16 738.6 805.19 738.6 819.08 730.42 312.93 730.42 302.16 738.6"/>
        <rect class="cls-12" x="478.8" y="807.03" width="108.91" height="5.18" transform="translate(1066.52 1619.24) rotate(180)"/>
        <polygon class="cls-13" points="560.03 738.59 559.47 742.55 457.04 763.24 458.45 746.53 459.12 738.59 560.03 738.59"/>
        <path class="cls-20" d="M571.47,807.03c-4.16.01-85.67.15-106.29-.11-8.98-.11-10.56-7.99-10.63-13.09l101.94-19.18c-1.06,11.68-1.68,19.14-1.69,20.56,0,.83.07,1.6.2,2.31,1.71,9.1,14.9,9.51,16.46,9.51Z"/>
        <polygon class="cls-12" points="219.18 353.85 718.66 353.85 799.7 656.49 294.53 656.49 219.18 353.85"/>
        <polygon class="cls-30" points="776.14 643.38 308.48 643.38 291.77 576.81 285.3 551.05 282.67 540.54 265.49 472.13 264.6 468.56 255.52 432.4 251.46 416.22 248 402.42 239.87 370.06 700.79 370.06 709.72 402.42 713.52 416.22 717.98 432.4 747.37 539 747.37 539.01 749.86 548.04 751.02 552.23 771.31 625.83 776.14 643.38"/>
        <polygon class="cls-4" points="709.72 402.42 248 402.42 239.87 370.06 700.8 370.06 709.72 402.42"/>
        <g>
          <path class="cls-5" d="M258.94,384.68c-.56-2.23.8-4.05,3.04-4.05s4.5,1.81,5.05,4.05c.56,2.23-.8,4.05-3.04,4.05s-4.5-1.81-5.05-4.05Z"/>
          <path class="cls-5" d="M272.38,384.68c-.56-2.23.8-4.05,3.04-4.05s4.5,1.81,5.05,4.05c.56,2.23-.8,4.05-3.04,4.05s-4.5-1.81-5.05-4.05Z"/>
          <path class="cls-5" d="M286.86,384.68c-.56-2.23.8-4.05,3.04-4.05s4.5,1.81,5.05,4.05c.56,2.23-.8,4.05-3.04,4.05s-4.5-1.81-5.05-4.05Z"/>
        </g>
      </g>
      <path class="cls-6" d="M609.11,181.94c18.9-22.19,48.05-66.77,67.67-89.6,4.04-4.7.68-11.95-5.51-11.95h-35.71l33.68-76.16c1.44-3.25-2.99-5.84-5.12-2.99l-81.44,109c-2.38,3.18.22,7.66,4.16,7.17l40.43-4.98-24.05,66.07c-1.32,3.64,3.39,6.39,5.89,3.45Z"/>
      <path class="cls-12" d="M440.98,317.11c4.25-21.81,6.94-62.32,11.43-84.83.92-4.63-4.02-8.19-8.13-5.87l-23.72,13.36-6.12-63.19c-.26-2.7-4.17-2.76-4.52-.07l-13.32,102.86c-.39,3,3.01,5,5.45,3.21l24.99-18.43,8.74,52.88c.48,2.91,4.64,2.98,5.2.08Z"/>
      <g>
        <path class="cls-25" d="M796.57,649.82l-406.36,34.24c-30.85,2.6-53.18-28.86-40.55-57.13l172.16-385.3c13.06-29.23,53.21-32.61,70.98-5.98l234.2,351.06c17.18,25.76.43,60.51-30.42,63.11Z"/>
        <path class="cls-6" d="M797.87,665.19l-406.36,34.24c-19.99,1.68-38.85-7.07-50.46-23.43-11.61-16.35-13.66-37.05-5.47-55.36l172.16-385.3c8.46-18.93,25.85-31.28,46.51-33.02,20.66-1.74,39.87,7.52,51.38,24.77l234.2,351.06c11.13,16.68,12.58,37.43,3.87,55.5-8.71,18.07-25.84,29.86-45.83,31.54ZM556.84,233.07c-9.3.78-17.13,6.34-20.93,14.86l-172.16,385.3c-3.68,8.24-2.76,17.56,2.46,24.92,5.23,7.36,13.72,11.3,22.71,10.54l406.36-34.24c9-.76,16.71-6.06,20.63-14.2,3.92-8.13,3.27-17.47-1.74-24.98l-234.2-351.06c-5.18-7.76-13.83-11.93-23.13-11.15Z"/>
        <path class="cls-6" d="M547.32,590.87c-.44-5.24.08-10.16,1.58-14.76,1.49-4.6,3.81-8.67,6.95-12.21,3.14-3.54,7.03-6.42,11.67-8.66,4.64-2.23,9.97-3.6,15.99-4.1,6.01-.51,11.54-.05,16.57,1.36,5.03,1.42,9.39,3.61,13.08,6.57,3.69,2.97,6.65,6.59,8.9,10.88,2.24,4.29,3.59,9.05,4.03,14.29.44,5.24-.09,10.12-1.59,14.64-1.5,4.52-3.82,8.56-6.96,12.09-3.14,3.54-7.07,6.43-11.8,8.67-4.72,2.23-10.1,3.61-16.11,4.11-6.02.51-11.5.05-16.45-1.37-4.95-1.42-9.27-3.61-12.96-6.58-3.69-2.96-6.65-6.55-8.89-10.76-2.24-4.21-3.58-8.93-4.02-14.17ZM610.14,517.36l-58.53,4.93-25.14-199.3,75.12-6.33,8.56,200.7Z"/>
      </g>
      <g>
        <path class="cls-32" d="M294.98,529.58s1.27-2.87,2.1-4.22c.83-1.36,4.35-5.33,4.95-4.43.6.9,3,6.96,1.73,8.65-1.28,1.7.08,4.65-6.26,6.43l-2.52-6.43Z"/>
        <path class="cls-31" d="M224.5,511.49s32.46,27.1,45.12,24.59c9.9-1.96,25.55-6.93,25.55-6.93,0,0,4.13,3.93,2.96,8.64,0,0-19.94,18.76-34.14,18.88-22.2.19-32.67-11-32.67-11l-6.82-34.18Z"/>
        <path class="cls-21" d="M167.57,797.33s.94,15.2,3.88,15.42c.39.03,14.92.03,14.92.03l18.54-.11s-.12-4.47-5.54-5.41c-5.42-.94-14.49-4.75-17.78-11.92-3.45-7.54-14.03,1.99-14.03,1.99Z"/>
        <path class="cls-2" d="M166.5,798.39s5.64,1.89,10.04,1.89c4.91,0,9.37-1.34,9.37-1.34,0,0,1.06-10.26,6.9-32.88,3.06-11.85,7.43-27.09,13.66-46.03,17.2-52.34,22.43-82.96,22.91-85.86.03-.15.04-.23.04-.23l-.06-.03-52.88-23.22s6.54,72.14-1.8,99.82c-1.17,3.87-2.17,8.38-3.03,13.26-5.27,30.07-5.14,74.6-5.14,74.6Z"/>
        <path class="cls-10" d="M192.81,766.06c3.06-11.85,7.43-27.09,13.66-46.03,17.2-52.34,22.43-82.96,22.91-85.86,0-.09-.01-.17-.02-.25l-52.88-23.22s6.54,72.14-1.8,99.82c-1.17,3.87,18.14,55.54,18.14,55.54Z"/>
        <path class="cls-8" d="M208.87,797.33s.94,15.2,3.88,15.42c.39.03,14.92.03,14.92.03l18.54-.11s-.12-4.47-5.54-5.41c-5.42-.94-14.49-4.75-17.78-11.92-3.45-7.54-14.03,1.99-14.03,1.99Z"/>
        <path class="cls-2" d="M238.85,612.39s.69,46.74-7.4,104.14c-8.09,57.39-5.35,81.76-5.35,81.76,0,0-5.56,1.8-7.8,1.98-5.71.47-11.57-1.34-11.57-1.34,0,0-11.58-57.41-8.26-86.14,3.32-28.73-15.85-98.57-15.85-98.57l56.23-1.82Z"/>
        <path class="cls-32" d="M201.36,503.01l10.32,6.77,9.4-2.66c1.72-2.45,2.17-7.18,2.2-11.27.03-4.06-.37-7.51-.37-7.51l-13.93-6.15-5.2-2.29c.02.08.4,4.27.46,4.88.97,10.85-2.89,18.23-2.89,18.23Z"/>
        <path class="cls-14" d="M239.09,625.39c-12.85,12.41-61.47,10.32-64.47-3.35-2.99-13.67,3.27-116.35,25.22-122.8,4.55-1.34,28.9,6.53,28.9,6.53,0,0,3.82,9.99,6.33,22.72.49,2.48,1.91,28.72,2.97,53.27.5,11.48.91,22.6,1.13,30.73.2,7.62.2,12.63-.07,12.9Z"/>
        <path class="cls-26" d="M205.29,484.97c2.83,4.78,12.74,8.96,17.99,10.87.03-4.06-.37-7.51-.37-7.51l-13.93-6.15c-3.08-.04-4.95.65-3.7,2.78Z"/>
        <path class="cls-32" d="M228.16,487.49s-22.44,7-26.58-7.04c-4.14-14.04-9.83-22.6,4.32-27.66,14.15-5.06,18.53-.53,21.05,3.82,2.52,4.35,6.94,28.7,1.21,30.88Z"/>
        <path class="cls-17" d="M226.07,455.26s-1.43,16.34-4.81,15.63c-3.38-.71-7.1-2.23-6.6,2.7.49,4.93-3.29,13.37-8.16,13.35-10.45-.04-21.8-26.86-18.94-31.94,8.25-14.67,50.45-17.63,38.52.27Z"/>
        <path class="cls-31" d="M222.77,499.59c-.29-.12-16.7-7.49-18.62-6.85-1.92.63-4.31,6.5-4.31,6.5l28.91,6.53s-2.28-4.63-5.97-6.18Z"/>
        <g>
          <path class="cls-9" d="M324.97,579.12l-92.02,86.64c-1.8,1.7-4.08,2.24-5.05,1.2l-3.11-3.3c-.98-1.04-.3-3.27,1.5-4.97l92.02-86.64c1.8-1.7,4.08-2.24,5.05-1.2l3.11,3.3c.98,1.04.3,3.27-1.5,4.97Z"/>
          <path class="cls-30" d="M273.33,627.74l-40.38,38.02c-1.8,1.7-4.08,2.24-5.05,1.2l-3.11-3.3c-.98-1.04-.3-3.27,1.5-4.97l40.38-38.02,6.66,7.07Z"/>
          <path class="cls-9" d="M303.82,546.41c3.53,11.64,10.07,22.55,19.57,31.48,29.01,27.29,74.66,25.9,101.95-3.11,26.93-28.63,25.93-73.45-1.98-100.86-.37-.37-.75-.73-1.13-1.09-29.01-27.29-74.65-25.91-101.94,3.1-18.36,19.51-23.74,46.55-16.47,70.47ZM324.43,479.84c15.88-16.88,38.52-23.61,59.77-19.93,12.39,2.14,24.3,7.82,34.13,17.07,26.72,25.14,28,67.18,2.86,93.9-9.26,9.84-20.8,16.22-33.02,19.12-20.99,4.97-44-.36-60.88-16.25-26.72-25.14-28.01-67.18-2.86-93.91Z"/>
          <g class="cls-35">
            <path class="cls-11" d="M421.2,570.88c-9.26,9.84-20.8,16.22-33.02,19.12-20.99,4.97-43.99-.37-60.88-16.25-26.72-25.14-28-67.18-2.86-93.9,15.88-16.88,38.52-23.61,59.77-19.93,12.38,2.14,24.3,7.81,34.13,17.07,26.72,25.14,28,67.18,2.86,93.9Z"/>
          </g>
        </g>
        <path class="cls-31" d="M239.16,612.49c-50.7-36.13-46.49-84.34-46.49-84.34,18.53,10.45,36.92,33.56,45.36,53.61.5,11.48.91,22.6,1.13,30.73Z"/>
        <g>
          <path class="cls-32" d="M289.21,596.03c3.58-.83,5.98-3.53,6.48-4,0,0,1.52.1-.25,3.36-.15.27-.48.97-.73,1.47-.1.2.04.44.27.45,2.06.16,4.14-.66,8.11.17.55.11.71,1.43.69,1.99-.04.95.03,2.01-1.07,3.46-.64.84-2.43,1.75-6.41,3.36-1.52.61-5.85.15-9.91-1.25l-3.25-1.5,1.01-6.03.82.17c1.3.27,2.9-1.31,4.25-1.64Z"/>
          <path class="cls-14" d="M208.41,505.77s-45.56,8.67,13.4,74.65c9.43,10.55,60.38,24.29,60.38,24.29,0,0,5.17-4.4,2.56-7.96,0,0-35.08-25.47-42.8-29.52-3.47-1.82-13.48-40.66-19.14-50.01-5.66-9.35-14.41-11.45-14.41-11.45Z"/>
        </g>
        <path class="cls-32" d="M296.22,530.38s1.49-2.85,1.78-4.35c.29-1.5,2.17-5.88,2.94-6.65.31-.31,1.33.09,1.45,1.42.05.58-.23,1.63-.73,2.88-.81,2.04-.68,4.8-.96,5.73-.71,2.3-4.48.98-4.48.98Z"/>
      </g>
      <g>
        <g>
          <path class="cls-32" d="M314.35,417.35c-.77.89-.87,1.88-.49,2.94,0,0,0,.01,0,.01.71,1.96,3.05,4.15,5.77,6.33.35.28.66.54.93.77.07.06.14.12.21.19.05.05.11.1.16.14,2.54,2.34,1.58,2.88,6.14,7.62,5.2,5.41,8.77,5.51,9.79,5.02.86-.42-.89-3.29-2.83-6.51-.09-.16-.19-.31-.28-.47-.26-.43-.51-.86-.77-1.29-2.27-3.88-1.69-5.7-1.15-11.47.44-4.69,7.31-26.21,7.31-26.21l-9.96-1.72s-3.01,17.13-6.31,19.77c-1.77,1.41-3.75,1.42-5.44,2.47-.12.07-.24.15-.35.22-.97.64-1.95,1.3-2.73,2.19Z"/>
          <path class="cls-10" d="M314.35,417.35c-.77.89-.87,1.88-.49,2.94,0,0,0,.01,0,.01.87,1.96,3.15,4.14,5.78,6.31.34.29.65.55.92.79.07.06.14.12.21.19.05.05.11.1.16.14,2.54,2.34,1.58,2.88,6.14,7.62,5.2,5.41,8.77,5.51,9.79,5.02.86-.42-.89-3.29-2.83-6.51-1.01-.37-5.71-2.28-9.26-6.83-3.01-3.85-5.06-8.75-7.11-11.77-.23-.04-.36-.07-.59-.11-.97.64-1.95,1.3-2.73,2.19Z"/>
          <path class="cls-32" d="M394.66,411.15c.61,3.07,5,2.56,9.89,1.37,4.9-1.19,3.73.23,10.7-.54,6.97-.77,9.08-3.37,9.29-4.4.19-.92-3.25-1.24-6.95-1.67-.46-.05-.93-.11-1.4-.17-4.17-.52-7.22-3.22-11.01-5.43-3.59-2.09-8.94-10.62-8.94-10.62l-9.56.75s5.01,7.62,6.95,10.93c1.14,1.95,1.08,4.52.94,6.51-.07,1.08-.15,2.19.07,3.27Z"/>
          <path class="cls-10" d="M404.55,412.52c4.9-1.19,3.73.23,10.7-.54,6.97-.77,9.08-3.37,9.29-4.4.19-.92-3.25-1.24-6.95-1.67l-.03.07s-4.18,2.96-9.98,3.1c-4.73.11-9.73-1.24-13-1.19-.07,1.08-.15,2.19.07,3.27.61,3.07,5,2.56,9.89,1.37Z"/>
          <path class="cls-10" d="M358.06,350.04l-8.94,24.03-11.67,31.38s-3.17.3-6.2-.57c-2.79-.81-5.99-2.92-5.99-2.92,0,0,3.25-33.7,9.3-53.04,1.55-4.97,3.29-8.98,5.2-11.24,9.37-11.06,18.3,12.35,18.3,12.35Z"/>
          <path class="cls-2" d="M348.99,311.86c-5.08-1.64-18.35-.03-32.74,2.57-3.98.72-7.98-1.1-10.08-4.55h0l-36.22-2.84s-11.96,26.5-5.42,43.39c.96,2.48,3.07,4.03,6.33,4.09,0,0,0,0,0,0,0,0,21.89.04,28.88.04,18.01,0,38.12-12.37,40.72-12.89,4.26-.85,5.96,7.67,10.21,16.61,4.25,8.94,40.01,39.61,40.01,39.61,0,0,5.5.06,7.77-.79,2.44-.91,3.34-2.1,3.34-2.1,0,0-39.6-78.85-52.8-83.12Z"/>
          <path class="cls-10" d="M302.36,203.52c-2.69-1.6-5.31-1.85-6.92-1.8-1.12.03-2.23-.04-3.34-.2-13.82-2.03-22.15,18.04-22.64,24.11-.9,11.14-6.79,12.83-15.09,19.81-16.63,13.98-11.76,30.23-2.67,36.28,5.45,3.62,15.07,0,15.07,0,.14.09,26.3-14.62,39.2-21.71,19.34-2.74,4.15-51.85-3.62-56.48Z"/>
          <path class="cls-32" d="M295.16,253.95c.06.04-6.35,2.22-10.63.32-4.03-1.78-7.08-8.41-7.02-8.41,1.83-.08,3.84-1.69,5.4-12.19l.78.28,13.11,4.72s-.95,4.21-1.57,8.22c-.52,3.36-.8,6.59-.08,7.06Z"/>
          <path class="cls-18" d="M296.81,238.67s-.52,2.27-1.29,6.51c-7.53-1.36-10.77-7.16-11.83-11.24l13.11,4.72Z"/>
          <path class="cls-32" d="M298.77,242.85s-17.95-2.42-16.27-13.57c1.68-11.15.49-18.97,12.02-17.9,11.53,1.07,13.11,5.66,13.46,9.52.35,3.86-4.49,22.29-9.2,21.95Z"/>
          <path class="cls-10" d="M307.32,214.78s-11.49,9.9-19.31,10.69c-7.81.8-10.77-1.71-10.77-1.71,0,0,4.61-3.82,7.38-9.99.82-1.82,2.54-3.07,4.53-3.24,5.58-.48,16.16-.7,18.17,4.25Z"/>
          <path class="cls-10" d="M300.14,213.89s3.84,3.72,5.05,6.47c1.17,2.66,1.52,9.02.58,11.55,0,0,5.99-11.64,2.6-17.3-3.59-6-8.24-.72-8.24-.72Z"/>
          <path class="cls-14" d="M310.27,280.39c-.56,36.33-.16,28.74-4.13,32.18-.96.83-3.65,1.32-7.19,1.56-11.14.74-30.72-1.11-31.46-3.17-2.57-7.12-.75-9.34-2.89-20.24-.22-1.16-.5-2.42-.82-3.78-1.78-7.49-3.52-10.04,2.82-22.07,5.75-10.9,11.73-19.74,12.27-19.42,15.17,9.01,16.39,1.44,16.39,1.44,0,0,15.29,15.78,15.02,33.5Z"/>
          <path class="cls-2" d="M349.12,374.07l-11.67,31.38s-3.17.3-6.2-.57c-2.79-.81-5.99-2.92-5.99-2.92,0,0,3.25-33.7,9.3-53.04l14.56,25.15Z"/>
          <path class="cls-14" d="M295.25,246.89s15.61,2.65,17.44,9.37c1.83,6.72,7.85,47.52,7.85,47.52,0,0-4.4,4.3-8.07.63-3.66-3.67-11.52-38.17-11.52-38.17l-5.7-19.35Z"/>
          <path class="cls-31" d="M298.94,314.13c-11.14.74-30.72-1.11-31.46-3.17-2.57-7.12-.75-9.34-2.89-20.24l5.38-15.13s-.89,16.85,4.07,21.28c4.96,4.43,20.34,8.56,22.75,12.26,1.16,1.78,1.93,3.56,2.15,4.99Z"/>
          <path class="cls-32" d="M286.18,307.04s10.99-2.44,12.76-1.47c1.77.98,6.11,4.53,6.65,5.77.54,1.24-3.95-.94-5.41-1.33-.95-.25-3.44.61-4.67,1.02-5.19,1.73-8.36.84-8.36.84l-.97-4.82Z"/>
          <path class="cls-14" d="M278.84,245.44s-14.76.9-19.87,8.03c-7.19,10.03-21.47,52.76-13.3,58.47,9.2,6.42,41.9,1.69,41.9,1.69,0,0,1.09-5.09-.42-7.55-1.51-2.46-26.11-6.44-27.25-7.58-1.14-1.14,14.2-22.13,14.2-25.54,0-3.41,4.74-27.52,4.74-27.52Z"/>
          <path class="cls-32" d="M299.47,308.63s2.3,2.97,3.06,3.33c.75.36,1.24.27,1.24.27l-1.55-2.79-2.75-.8Z"/>
          <path class="cls-32" d="M298.94,305.57l6.69,3.25s-.28.47-1.11.43-2.9-.8-2.9-.8l-2.68-2.88Z"/>
        </g>
        <polygon class="cls-10" points="356.11 313.23 286.18 313.21 286.18 314.75 355.49 314.78 356.11 313.23"/>
        <polygon class="cls-10" points="302.53 314.76 355.49 314.78 371.43 275.17 318.56 275.15 302.53 314.76"/>
        <path class="cls-27" d="M342.13,294.96c.4-1.39-.41-2.52-1.8-2.52-1.39,0-2.85,1.13-3.25,2.52-.4,1.39.41,2.52,1.8,2.52,1.39,0,2.85-1.13,3.25-2.52Z"/>
      </g>
      <g>
        <path class="cls-17" d="M700.52,464.14c-7.13-2.37-12.07.62-12.07.62-20.54.84-21.3,21.9-18.89,29.73,3.39,11-8.6,19.68,4.69,24.14,15.42,5.17,28.36-.96,27.48,1.7,48.76,3.84,15.02-50.8-1.2-56.19Z"/>
        <path class="cls-14" d="M679.21,566.55s-1.95,3.86-5.49,8.31c-4.27,5.34-26.66-7.34-24.73-8.31,1.93-.96,13.18-33.39,15.86-37.46,2.68-4.07,11.81-6.19,11.81-6.19l2.55,43.65Z"/>
        <path class="cls-7" d="M754.79,785.21s6.18,5.64,4.98,9.65c-1.21,4.01-6.78,6.68-7.54,11.58-.75,4.9-3.77,7.57-6.48,7.57h-12.94s-2-3.45,2.83-4.49c4.82-1.04,6.64-6.8,6.34-12.14s.45-12.47.45-12.47l10.25-2.38,2.11,2.67Z"/>
        <path class="cls-1" d="M702.47,787.6s2.22,23.9-.49,25.23l-34.73-.07s0-4.01,5.58-4.9c5.58-.89,15.38-4.16,17.04-11.43s12.6-8.83,12.6-8.83Z"/>
        <path class="cls-14" d="M729.19,550.43s.52,7.3,0,16.05c-.34,5.8-6.21,13.58-7.05,15.5-2.09,4.82-4.45,5.61-4.45,5.61l-18.23,4.47-6.41,1.57-20.22-6.04s-9.21-25.7-5.51-40.17c3.7-14.47,9.35-24.52,9.35-24.52,0,0,13.74-3.09,37.98-1.37l14.54,28.9Z"/>
        <path class="cls-31" d="M730.93,566.68c-.34,5.8-7.95,13.37-8.78,15.3-2.09,4.82-4.45,5.61-4.45,5.61l-18.23,4.47-3.29-9.44s26.64-7,22.36-31.66l12.4,15.72Z"/>
        <path class="cls-10" d="M674.12,591.49s-10.01,31.17-10.66,41.78c-.64,10.61,19.14,150.74,19.94,155.63.75,4.61,6.47,7.55,6.47,7.55,0,0,2.63,1.55,6.39.49,5.21-1.47,6.86-3.23,6.86-3.23,0,0,7.79-99.94,2.97-135.64-4.82-35.7-4.88-66.57-4.88-66.57h-27.09Z"/>
        <path class="cls-2" d="M716.54,590.56s15.27,20.49,16.7,34.35c1.42,13.85,2.23,62.51,5.27,76.02,3.03,13.5,14.18,39.49,14.18,81.62,0,0-1.16,2.41-4.74,3.7-1.14.41-2.68.81-4.16,1.15-2.95.68-5.98-.77-7.32-3.48-7.54-15.17-31.54-64.1-32.77-74.26-.87-7.19-8.45-54.76-24.98-82.68-3.97-6.7,2.44-33.35,2.44-33.35l35.39-3.07Z"/>
        <path class="cls-10" d="M672.52,586.68s4.02,3.18,12,3.34c9.54.19,33.17-2.43,33.17-2.43,0,0,1.05,2.93,1.01,6.03,0,0-28.87,7.28-45.59,1.06,0,0-2.16-4.06-.59-8Z"/>
        <path class="cls-27" d="M682.23,598.24c-2.4,0-4.35-2.21-4.35-4.93s1.95-4.93,4.35-4.93,4.35,2.21,4.35,4.93-1.95,4.93-4.35,4.93ZM682.23,589.83c-1.6,0-2.91,1.56-2.91,3.48s1.31,3.48,2.91,3.48,2.91-1.56,2.91-3.48-1.31-3.48-2.91-3.48Z"/>
        <polygon class="cls-15" points="703.09 607.2 659.7 607.6 638.35 557.43 681.74 557.03 703.09 607.2"/>
        <path class="cls-32" d="M697.41,584.53l-3.18-3.91s-2.15-1.92-3.71-2.25c-1.56-.33-4.86-2.23-5.18-1.69-.32.54,2.53,4.36,2.53,4.36l.14.02c-3.28,2.46-11.55.29-12.57,1.29-1.24,1.22,1.7,3.85,3.28,5.33,1.58,1.48,6.09,3.94,9.61,2.85,2.57-.8,6.62-1.61,6.62-1.61l2.46-4.39Z"/>
        <path class="cls-32" d="M641.62,566.26s2.73-3.1,4.46-1.61c1.73,1.49-.45,8.8-2.11,8.06s-3.3-5.54-2.35-6.44Z"/>
        <path class="cls-14" d="M714.65,521.53s12.42,1.37,21.33,17.56c7.03,12.77,19.04,36.31,14.51,42.96-1.99,2.92-21.07,13.31-57.87,7.37,0,0,.58-4.65,3.55-6.8,0,0,30.97-9.94,30.92-11.92-.1-3.74-4.18-6.97-21.48-24.28-4.7-4.7,9.05-24.89,9.05-24.89Z"/>
        <path class="cls-32" d="M705.09,522.18c.43-.57-.12-2.4-.8-5.79-.62-3.08-1.67-7.84-1.64-13.19l-.92.15-15.39,2.59s.35,4.12.36,7.99c0,.03,0,.06,0,.1.02,3.37-.91,8.46.23,9.12,5.83,3.42,16.53,1.24,18.17-.96Z"/>
        <path class="cls-19" d="M686.33,505.94s.31,5.8.32,9.68c8.61-.21,13.21-8.57,15.08-12.27l-15.39,2.59Z"/>
        <path class="cls-32" d="M685.4,512.86s20.18-2.87,18.2-15.41c-1.98-12.54-.71-21.35-13.68-20.05-12.97,1.3-14.71,6.48-15.06,10.83-.36,4.35,5.25,25.06,10.55,24.63Z"/>
        <path class="cls-17" d="M680.7,478.55s7.85,13.83,16.66,14.66c8.8.83,12.11-2.02,12.11-2.02,0,0-7.31-4.12-10.09-12.9,0,0-15.64-7.4-18.68.27Z"/>
        <path class="cls-17" d="M682.26,479.52s-3.84,2.18-5.05,5.43c-1.18,3.18-1.97,7.26-.89,11.94,0,0-5.74-9.34-1.98-15.73,3.99-6.78,7.92-1.64,7.92-1.64Z"/>
      </g>
      <path class="cls-10" d="M8.68,812.21h1117.75c.99,0,1.8.81,1.8,1.8h0c0,.99-.81,1.8-1.8,1.8H8.68c-.99,0-1.8-.81-1.8-1.8h0c0-.99.81-1.8,1.8-1.8Z"/>
    </g>
    <path class="cls-24" d="M49.4,816.81h1030.43v80.63c0,9-7.31,16.3-16.3,16.3H65.71c-9,0-16.3-7.31-16.3-16.3v-80.63h0Z"/>
    <text class="cls-34" transform="translate(216.96 882.56)"><tspan x="0" y="0">No Incidents Reported</tspan></text>
  </g>
</svg>